<?xml version="1.0" encoding="utf-8"?>
<!-- Generator: Adobe Illustrator 27.3.1, SVG Export Plug-In . SVG Version: 6.00 Build 0)  -->
<svg version="1.1" id="Camada_1" xmlns="http://www.w3.org/2000/svg" xmlns:xlink="http://www.w3.org/1999/xlink" x="0px" y="0px"
	 viewBox="0 0 512 512" style="enable-background:new 0 0 512 512;" xml:space="preserve">
<style type="text/css">
	.st0{fill:#84929B;}
	.st1{fill:#A1AEB7;}
	.st2{fill:#D5DEEB;}
	.st3{fill:#BEC9D3;}
	.st4{fill:#AAB4BA;}
	.st5{fill:#0057AD;}
	.st6{fill:#060D16;}
	.st7{fill:#B1BCC4;}
	.st8{fill:#9CA7AF;}
	.st9{fill:#0C1829;}
	.st10{fill:#90A0AF;}
	.st11{fill:#006AFF;}
	.st12{fill:#121F32;}
	.st13{fill:#E6F0FF;}
	.st14{fill:#0098FF;}
	.st15{fill:#52EFFF;}
	.st16{fill:#C9D7E2;}
	.st17{fill:#DDE7F4;}
	.st18{fill:url(#SVGID_1_);}
	.st19{fill:#2C496B;}
	.st20{fill:none;stroke:#006AFF;stroke-width:2;stroke-miterlimit:10;}
	.st21{fill:#1866A6;stroke:#006AFF;stroke-width:2;stroke-miterlimit:10;}
	.st22{fill:#006AFF;stroke:#006AFF;stroke-width:0.5;stroke-miterlimit:10;}
	.st23{fill:none;stroke:#52EFFF;stroke-width:2;stroke-miterlimit:10;}
	.st24{fill:#FFFFFF;}
</style>
<path class="st0" d="M97.99,489.97c0,0,2.38,0.49,4.69-1.69c2.32-2.18-11.98-41.98-11.48-40.02c0.51,1.96-5.49,42.37-5.09,42.48
	C86.51,490.84,97.99,489.97,97.99,489.97z"/>
<path class="st1" d="M84.92,497.88c0,0,1.43,3.82,2.9,4.23c1.47,0.41,13.33-1.52,13.29-4.74s-9.31-36.81-6.15-50.47
	c3.15-13.66-11.3,41.64-11.3,41.64L84.92,497.88z"/>
<path class="st2" d="M117.74,473.76c-0.39,0.37-0.99,0.64-1.72,0.81c-2.94,0.67-7.96-0.31-9.82-2.71c-0.58-0.75-0.85-1.64-0.65-2.66
	c0.73-3.75,3.36-20.69,0.36-24.44c-0.69-0.85-1.66-1.02-3.02-0.19c-0.37,0.23-0.78,0.53-1.21,0.92c-0.17,0.16-0.35,0.33-0.54,0.51
	c-0.28,0.27-0.57,0.58-0.87,0.91c-0.71,0.79-1.33,1.67-1.88,2.64c-0.85,1.48-1.52,3.14-2.05,4.93c-0.48,1.62-0.83,3.33-1.09,5.13
	c-0.17,1.16-0.3,2.35-0.39,3.56l0,0c-0.73,9.57,0.78,20.28,1.79,26.88c0.47,3.06,0.82,5.24,0.8,6c-0.07,2.03-4.24,3.9-8.71,3.59
	c-1.13-0.08-2.27-0.3-3.37-0.68c-2.14-0.75-4.11-2.15-5.47-4.43c-0.29-0.49-0.55-1.11-0.76-1.84c-3.45-11.43,1.33-50.42,1.33-50.42
	s7.54-1.6,15.54-2.96c0.71-0.12,1.43-0.24,2.15-0.36c3.58-0.58,7.13-1.08,10.02-1.34c0.98-0.09,1.89-0.15,2.7-0.17
	c1.4-0.05,2.49,0.02,3.14,0.22c0,0,0,0,0,0c0.17,0.06,0.31,0.12,0.42,0.19c0.07,0.05,0.14,0.1,0.21,0.15
	c1.44,1.08,2.93,3.12,4.28,5.34c0.36,0.59,0.71,1.19,1.05,1.79c1.07,1.88,2.02,3.75,2.77,5.16
	C124.7,453.97,120.21,471.41,117.74,473.76z"/>
<path class="st3" d="M101.15,446.01c-0.28,0.27-0.57,0.58-0.87,0.91c-0.71,0.79-1.33,1.67-1.88,2.64c-0.85,1.48-1.52,3.14-2.05,4.93
	c0,0-0.84-0.11-2.06-0.3c-0.3-0.04-0.62-0.09-0.95-0.15c-0.18-0.03-0.37-0.06-0.56-0.09c-0.63-0.11-1.31-0.22-1.99-0.34
	c-2.41-0.44-4.87-0.98-5.63-1.47c-0.86-0.56-0.41,13,0.91,27.09l0,0c0.19,2,0.39,4,0.61,5.98c0.21,1.86,0.43,3.69,0.66,5.47
	c0.43,3.24,0.9,6.28,1.4,8.95c-1.13-0.08-2.27-0.3-3.37-0.68c-2.14-0.75-4.11-2.15-5.47-4.43c-0.29-0.49-0.55-1.11-0.76-1.84
	c-3.45-11.43,1.33-50.42,1.33-50.42s7.54-1.6,15.54-2.96L101.15,446.01z"/>
<path class="st4" d="M104.62,440.1l-1.73,4.48c-0.52,0.32-1.1,0.79-1.75,1.43c-0.28,0.27-0.57,0.58-0.87,0.91
	c-0.71,0.79-1.33,1.67-1.88,2.64c-1.04-0.23-2.35-0.53-3.78-0.88c-0.13-0.03-0.25-0.06-0.37-0.09c-4.67-1.14-10.54-2.71-12.9-3.96
	c0,0-3.27,30.11-2.2,48.07c-3.45-11.43,1.33-50.42,1.33-50.42s7.54-1.6,15.54-2.96c0.71-0.12,1.43-0.24,2.15-0.36
	C102,439.63,104.62,440.1,104.62,440.1z"/>
<path class="st3" d="M116.02,474.57c-3.86,0.88-11.3-1.09-10.47-5.37c0.73-3.75,3.36-20.69,0.36-24.44c1.05-3.3,1.91-6.03,2.26-7.15
	c0.11-0.36,0.17-0.55,0.17-0.55l2.52,0.38l3.77,0.56c1.83,1.37,3.71,4.27,5.34,7.13c0,0-6.72,4.85-8.71,4.87
	c0,0-1.17,17.13-2.18,20.25C108.44,472.31,112.43,473.76,116.02,474.57z"/>
<path class="st4" d="M108.09,448.22c0,0-0.1,21.9-1.88,23.64l0,0c-0.58-0.75-0.85-1.64-0.65-2.66c0.73-3.75,3.36-20.69,0.36-24.44
	c-0.69-0.85-1.66-1.02-3.02-0.19c-0.37,0.23-0.78,0.53-1.21,0.92c-0.04-3.06-0.05-5.19-0.02-5.24c0.08-0.13,7.49-1.62,12.35-2.59
	c0,0,0,0,0,0c0.17,0.06,0.31,0.12,0.42,0.19c0.07,0.05,0.14,0.1,0.21,0.15c1.44,1.08,2.93,3.12,4.28,5.34
	C116.37,444.61,108.94,448.26,108.09,448.22z"/>
<path class="st5" d="M76.49,351.27c0,0,4.45,6.69,5.88,15.1c1.43,8.4-9.05,4.79-9.05,4.79L76.49,351.27z"/>
<path class="st6" d="M78.78,362.14c0,0,27.53,1.76,45.58,6.33l-23.46,13.22L78.78,362.14z"/>
<path class="st7" d="M127.4,288.35c0,0-1.74,11.03-3.83,25.59c-0.1,0.72-0.21,1.46-0.31,2.19c-1.21,8.45-2.5,17.92-3.62,27.02
	c-0.04,0.31-0.08,0.63-0.12,0.94c-1.16,9.52-2.13,18.59-2.61,25.6c-0.2,2.95-0.31,5.53-0.32,7.64c-0.05,20.91-20.28,1.9-20.77-8.49
	c-0.03-0.62-0.05-1.36-0.06-2.23c-0.01-0.47-0.01-0.99-0.01-1.53c-0.02-4.22,0.11-10.45,0.35-17.6c0.05-1.34,0.1-2.72,0.15-4.12
	c0.32-8.19,0.77-17.25,1.32-25.75c0.06-0.91,0.12-1.82,0.18-2.72c0.55-8.06,1.2-15.45,1.91-20.91c0.09-0.7,0.18-1.37,0.27-2
	c0.68-4.61,2.72-7.16,5.42-8.37c5.35-2.41,13.25,0.42,18,2.63C125.78,287.38,127.4,288.35,127.4,288.35z"/>
<path class="st8" d="M127.4,288.35c0,0-1.74,11.03-3.83,25.59c-1.15-0.61-2.88-0.26-2.88-0.26c0.2-2.92,2.92-22.74,2.92-22.74
	c-5.24-2.12-23.96,3.05-23.96,3.05c0.09-0.7,0.18-1.37,0.27-2c0.68-4.61,2.72-7.16,5.42-8.37l18,2.63
	C125.78,287.38,127.4,288.35,127.4,288.35z"/>
<path class="st6" d="M77.6,273.42c0,0,3.39-0.1,8.02-1.37c4.63-1.27-4.22-6.96-4.22-6.96L77.6,273.42z"/>
<path class="st9" d="M232.52,211.94c0,0-1.49,5.45,0.24,8.31s54.73,1.5,54.73,1.5s2.2-6.67,0-9.8
	C285.29,208.81,232.52,211.94,232.52,211.94z"/>
<path class="st10" d="M317.07,452.44c0,0-2.09,14.04-7.57,16.55c-5.47,2.5-5.81-17.77-5.81-17.77L317.07,452.44z"/>
<path class="st10" d="M204.79,454.33c0,0,2.45,11.44,5.11,12.87c2.66,1.43,5.36-13.79,5.36-13.79L204.79,454.33z"/>
<path class="st10" d="M356.96,392.12c0,0-0.24,2.04-15.46,4.39c-15.22,2.35,0-16.24,0.92-16.55S356.96,392.12,356.96,392.12"/>
<path class="st10" d="M164.39,392.12c0,0,5.69,4.39,11.95,4.39c6.26,0-2.25-10.11-2.25-10.11L164.39,392.12"/>
<path class="st10" d="M355.08,215.35c0,0-5.03,7.35-6.12,10.69c-1.09,3.34,5.58,1.29,5.58,1.29L355.08,215.35"/>
<path class="st10" d="M166.26,215.35c0,0,4.05,2.62,7.42,11.3c3.37,8.68-6.74,7.66-6.74,7.66L166.26,215.35"/>
<g>
	<path class="st11" d="M262.96,216.29l0,3.33L262.93,238l0,2.58l-0.01,5.47l-0.02,13.66l-0.34,223.17c0,0-0.62,0.2-1.78,0.43
		c-6.04,1.21-26.67,3.32-48.86-17.63c-3.7-3.5-7.45-7.64-11.18-12.53c-4.23-5.54-8.44-12.06-12.53-19.7
		c-6.19-11.55-11.65-23.02-16.43-34.38c0,0,0,0,0,0c-2.33-5.52-4.5-11.02-6.52-16.49c-16.33-44.07-23.06-86.1-25.06-124.1
		c0,0-4.09-25.13,3.47-28.8c0,0,21.67-7.43,65.18-11.22c14.24-1.24,30.82-2.09,49.74-2.16
		C260.05,216.29,261.51,216.29,262.96,216.29z"/>
	<path class="st11" d="M381.35,258.48c-1.9,36.03-8.04,75.69-22.6,117.28c0,0,0,0,0,0c-6.61,18.88-14.95,38.17-25.41,57.69
		c-7.61,14.2-15.59,24.5-23.4,31.93c-22.31,21.27-43.1,19.16-49.18,17.94c-1.16-0.23-1.78-0.43-1.78-0.43l-0.34-223.53l-0.02-13.23
		l-0.01-6.32l0-2.23l-0.03-18.11l0-3.16c1.47,0,2.93,0,4.38,0c46.78,0.18,79.23,5.11,97.44,8.94c11.66,2.45,17.48,4.44,17.48,4.44
		C385.44,233.35,381.35,258.48,381.35,258.48z"/>
</g>
<path class="st11" d="M245.8,10.39c0,0,22.03-1.26,30.5,0.05c8.47,1.31-2.71,50.44-2.71,50.44l-12.68,10.39l-17.19-2.74l-6.92-27.96
	L245.8,10.39z"/>
<g>
	<polygon class="st5" points="126.08,137.07 130.17,133.67 130.98,138.53 	"/>
	<polygon class="st5" points="126.08,89.08 129.04,93.15 131.56,88.25 	"/>
</g>
<path class="st10" d="M146.92,67.31c0,0,0.48,2.89,1.94,3.78c1.46,0.89,4.56-1.89,4.56-1.89l-3.75-2.81L146.92,67.31z"/>
<g>
	<polygon class="st10" points="149.31,81.98 143.52,73.98 148.69,76.57 	"/>
	<polygon class="st10" points="204.12,203.36 206.18,202.05 208.84,204.4 	"/>
	<polygon class="st10" points="141.71,146.67 141.71,146.02 142.73,146.4 142.4,147 	"/>
	<path class="st10" d="M176.82,24.07c0,0,3.1-0.81,9.18,5.12s-5.8,5.95-5.8,5.95L176.82,24.07z"/>
</g>
<path class="st12" d="M260.91,76.3l-81.69-13.48l-11.47,74.36c4.78,9.89,13.85,25.4,30.1,39.77c20.66,18.26,42.27,25.24,53.66,28.06
	c3.13,0,6.26,0,9.4,0V76.3z"/>
<path class="st12" d="M126.56,89.07c0,0-8.04,24,0.34,48c5.58,9.16,17.09-3.71,17.09-3.71l1.23-28.94l-1.91-16.55l-11.58-1.91
	L126.56,89.07"/>
<path class="st13" d="M114.18,147.37"/>
<g>
	<polygon class="st5" points="395.55,137.07 391.46,133.67 390.65,138.53 	"/>
	<polygon class="st5" points="395.55,89.08 392.59,93.15 390.07,88.25 	"/>
</g>
<path class="st10" d="M374.51,67.31c0,0-0.48,2.89-1.94,3.78C371.1,71.97,368,69.2,368,69.2l3.75-2.81L374.51,67.31z"/>
<g>
	<polygon class="st10" points="372.12,81.98 377.91,73.98 372.74,76.57 	"/>
	<polygon class="st10" points="317.31,203.36 315.25,202.05 312.59,204.4 	"/>
	<polygon class="st10" points="379.72,146.67 379.72,146.02 378.69,146.4 379.03,147 	"/>
	<path class="st10" d="M344.61,24.07c0,0-3.1-0.81-9.18,5.12c-6.08,5.92,5.8,5.95,5.8,5.95L344.61,24.07z"/>
</g>
<path class="st12" d="M260.51,76.3l81.69-13.48l11.47,74.36c-4.78,9.89-13.85,25.4-30.1,39.77c-20.66,18.26-42.27,25.24-53.66,28.06
	c-3.13,0-6.26,0-9.4,0V76.3z"/>
<path class="st12" d="M394.87,89.07c0,0,8.04,24-0.34,48c-5.58,9.16-17.09-3.71-17.09-3.71l-1.23-28.94l1.91-16.55l11.58-1.91
	L394.87,89.07"/>
<path class="st11" d="M260.71,61.59V9.9c-5.2,0.01-10.1,0.18-14.71,0.48c-7.06,0.47-13.46,1.25-19.23,2.24
	c-1.76,0.3-3.46,0.62-5.1,0.96c-7.25,1.48-13.39,3.28-18.51,5.14c-4.35,1.58-7.98,3.19-10.93,4.7c-7.26,3.7-10.46,6.71-10.46,6.71
	s-0.02,0.05-0.07,0.14c-0.19,0.41-0.79,1.64-1.46,2.89c-0.98,1.82-2.13,3.7-2.47,3.2c-0.61-0.92,9.4,26.45,9.4,26.45l72.65-1.2
	l1.02-0.02L260.71,61.59z M178.79,96.21c5.82-12.26-29.93-29.01-29.93-29.01s-0.28,0.52-0.55,1.54c-0.66,2.49-1.29,7.95,2.18,16.13
	c4.86,11.45,25.36,33.86,25.68,34.21c-0.03-0.11-1.35-4.6-0.69-11.06C175.83,104.54,176.76,100.47,178.79,96.21z M158.31,102.7
	l-11.59-23.13c0,0-0.87-0.02-2.22-0.01c-3.72,0.01-11.1,0.23-14.02,1.65c-2.52,1.23-3.61,4.05-4.07,5.96
	c-0.27,1.11-0.32,1.9-0.32,1.9s13.99-0.72,13.69,10.93v26.14c0.1,3.81-1.32,6.29-3.29,7.91c-4.05,3.34-10.39,3.02-10.39,3.02
	s0.41,5.92,4.39,7.87c3.98,1.94,16.24,1.64,16.24,1.64l9.72-0.87l5.19-21.96L158.31,102.7z M344.06,36.36
	c-0.16,0.24-0.5-0.07-0.93-0.65c-0.47-0.65-1.05-1.65-1.57-2.62c-0.81-1.51-1.5-2.96-1.5-2.96s-0.73-0.68-2.27-1.8
	c-2.99-2.15-9.05-5.93-18.85-9.51h0c-3.26-1.19-6.95-2.36-11.07-3.44c-7.02-1.84-15.31-3.41-24.99-4.39
	c-3.39-0.34-6.95-0.62-10.69-0.8c-2.77-0.14-5.64-0.22-8.6-0.26c-0.82-0.01-1.64-0.02-2.48-0.02v51.68l-0.2,0l9.64,0.16l29.41,0.48
	l7.79,0.13l26.91,0.45c0,0,4.07-11.13,6.86-18.95C343.11,39.41,344.29,36.03,344.06,36.36z M372.97,67.2
	c0,0-35.75,16.75-29.93,29.01c5.77,12.16,2.67,22.7,2.62,22.87c0.32-0.35,20.81-22.76,25.67-34.21
	C376.24,73.33,372.97,67.2,372.97,67.2z M395.08,137.07c-1.74-0.02-6.47-0.34-9.72-3.02c-1.97-1.62-3.4-4.1-3.3-7.91V100
	c-0.3-11.65,13.69-10.93,13.69-10.93s-0.41-5.92-4.39-7.87c-3.3-1.61-12.27-1.68-15.26-1.65c-0.62,0-0.98,0.01-0.98,0.01
	l-11.59,23.13l-3.32,21.04l5.19,21.96l9.72,0.87c0,0,12.26,0.3,16.24-1.64c3.98-1.94,4.39-7.87,4.39-7.87
	S395.5,137.08,395.08,137.07z"/>
<g>
	<path class="st13" d="M260.51,218.68c0,0,78.75-4.9,119.2-72.01c-4.38-6.3-10.05-16.7-10.25-30.06c-0.02-1.44,0.01-3.36,0.41-7.2
		c0.85-8.29,2.86-20.37,8.04-35.43c-9.27,8.61-21.51,22.08-30.68,41.23c-9.58,20.01-8.11,30.14-15.43,42.14
		c-8.15,13.37-26.45,27.81-71.29,31.58V218.68z"/>
</g>
<path class="st11" d="M314.89,117.84c-0.14,8.99-6.67,5.72-9.53,4.36c-2.86-1.36-11.02-0.68-14.02,0.54c0,0,0,0,0,0
	c-3,1.22-7.08,5.45-9.13,5.45c-2.04,0-4.63-2.32-4.49-4.9c0.12-2.28-0.4-13.92,11.77-17.26c1.61-0.44,3.44-0.74,5.52-0.85
	C312.85,104.21,314.89,117.84,314.89,117.84z"/>
<path class="st13" d="M449.68,147.28"/>
<path class="st13" d="M189.62,157.35c-7.32-12-5.85-22.13-15.43-42.14c0,0,0,0,0,0c-9.17-19.15-21.4-32.62-30.67-41.23
	c5.18,15.06,7.18,27.13,8.03,35.43c0.4,3.84,0.43,5.76,0.41,7.2c-0.2,13.37-5.87,23.76-10.25,30.06
	c5.48,9.09,11.66,17.03,18.25,23.98c42.08,44.36,100.95,48.03,100.95,48.03v-29.76C216.07,185.15,197.78,170.72,189.62,157.35z"/>
<path class="st2" d="M260.91,61.59V89.1c-24.1-0.41-40.92-14.37-46.58-15.12c-25.21-3.38-37.13,28.9-38.86,34.05
	c-0.15,0.44-0.22,0.68-0.22,0.68c-8.41-19.42-22.49-35.24-26.94-39.96c-0.88-0.94-1.39-1.44-1.39-1.44
	c5.41-27.41,24.51-36.07,27.41-37.24c0.24-0.1,0.37-0.14,0.37-0.14c-0.68-4.36,2.11-5.86,2.11-5.86c1.54,2.19,3.17,4.26,4.88,6.2
	c2.53,2.88,5.23,5.5,8.05,7.88c14.79,12.47,32.83,18.32,47.05,21.06c0.01,0,0.02,0,0.02,0c13.14,2.53,23.02,2.4,24.02,2.38
	C260.88,61.59,260.91,61.59,260.91,61.59z"/>
<path class="st11" d="M291.84,160.95c-5.89,3.55-13.95,9.05-31.32,9.05c-0.94,0-1.86-0.02-2.76-0.06c0,0,0,0-0.01,0
	c-15.81-0.64-26.23-6.61-29.51-10.02c-3.47-3.61,1.74-7.77,7.22-4.56c0,0,7.65,6.98,25.07,6.48c17.43-0.49,18.85-2.19,25.32-6.48
	c6.47-4.29,9.05-0.61,9.05-0.61S297.73,157.4,291.84,160.95z"/>
<path class="st11" d="M243.72,123.28c0.14,2.59-2.45,4.9-4.49,4.9c-2.04,0-6.13-4.22-9.13-5.45c-2.36-0.96-7.93-1.59-11.58-1.15
	c0,0,0,0,0,0c-0.99,0.12-1.84,0.31-2.44,0.6c-2.86,1.36-9.4,4.63-9.53-4.36c0,0,1.24-8.29,10.26-11.48c0,0,0,0,0.01,0
	c2.54-0.9,5.7-1.4,9.62-1.18C244.27,106.12,243.59,120.69,243.72,123.28z"/>
<path class="st2" d="M284.82,182.22h-48.22l0,0c0,0,0,0,0.01-0.01c0.09-0.14,1-1.33,4.36-2.5c3.09-1.07,8.25-2.12,16.76-2.32
	c0,0,0,0,0,0c0.94-0.02,1.93-0.04,2.96-0.04C281.42,177.35,284.72,182.07,284.82,182.22L284.82,182.22z"/>
<path class="st14" d="M261.46,9.9v41.66c-0.86,0.01-1.72,0.02-2.6,0.02c-28.99,0-59.27-10.42-54.73-15.22
	c4.54-4.8,16.7-9.71,16.7-9.71c-14.03,1.22-31.01,11.49-31.01,11.49c-2.85-2.38-5.57-5-8.13-7.88c0.05-0.09,0.07-0.14,0.07-0.14
	s3.23-3.01,10.56-6.71c2.98-1.5,6.64-3.12,11.03-4.7c5.18-1.86,11.38-3.66,18.69-5.14c1.66-0.34,3.37-0.66,5.14-0.96
	c5.82-0.99,12.28-1.77,19.41-2.24C251.27,10.08,256.21,9.91,261.46,9.9z"/>
<path class="st14" d="M339.95,30.02c-5.28,6.07-11.31,10.97-17.62,14.94c-10.09-9.27-26.03-9.83-26.03-9.83
	c5.96,1.74,14.47,8.07,10.8,9.5c-3.54,1.38-19.09,6.56-45.98,6.93V9.9c0.84,0,1.66,0.01,2.48,0.02c2.96,0.03,5.83,0.12,8.6,0.26
	c3.74,0.19,7.3,0.46,10.69,0.8c9.69,0.98,17.97,2.56,24.99,4.39c4.12,1.08,7.8,2.25,11.07,3.44h0c9.8,3.58,15.85,7.35,18.85,9.51
	C338.99,29.19,339.69,29.79,339.95,30.02z"/>
<path class="st14" d="M243.72,123.28c0.14,2.59-2.45,4.9-4.49,4.9c-2.04,0-6.13-4.22-9.13-5.45c-2.36-0.96-7.93-1.59-11.58-1.15
	c0.26-0.12,10.14-4.69,19.82,0c0,0,3.27-9.44-17.98-12.1c0,0,7.7-2.65,14.47,0c6.77,2.66-4.74-4.63-18.03-3.14
	c2.54-0.9,5.7-1.4,9.62-1.18C244.27,106.12,243.59,120.69,243.72,123.28z"/>
<path class="st15" d="M230.78,121.65c0,0,4.63,3.06,6.54,4.8c1.91,1.74,5.72-0.92,5.52-2.4c-0.2-1.48,0.08-10.43-7.05-14.56
	c0,0,5.38,6.16,5.75,13.07c0.14,2.38-1.67,3.37-2.35,3.17S234.08,122.74,230.78,121.65z"/>
<path class="st14" d="M142.02,144.94c-12,0.41-14.01-6.4-14.01-6.4c7.8,5.65,14.21,1.82,14.21,1.82c12.34-23.71,1.3-56.78,1.3-56.78
	c-5.65-1.02-10.74,1.02-10.74,1.02c3.63,0,6.38,1.36,6.38,1.36c-8.19-0.66-12.76,1.22-12.76,1.22v-0.01
	c0.46-1.91,1.55-4.73,4.07-5.96c2.92-1.42,10.29-1.64,14.02-1.65c0.24,0.68,0.39,1.18,0.39,1.18
	C159.69,126.14,142.02,144.94,142.02,144.94z"/>
<path class="st15" d="M127.72,85.42c0,0,1.43-3.98,6.44-4.7s9.7-0.61,9.7-0.61s-7.86,0.66-9.53,1.28
	C132.66,82.02,129.83,82.9,127.72,85.42z"/>
<path class="st15" d="M143.85,80.11c0,0,1.21,3,1.45,3.93c0,0-1.48-3.52-1.97-3.63c-0.49-0.1-10.27-0.05-15.61,5.01
	c0,0,2.43-4.2,5.35-4.12c2.91,0.09,3.34-0.65,3.34-0.65L143.85,80.11z"/>
<path class="st16" d="M236.8,59.21c-0.72-0.02-24.38-0.8-42.68-10.17c-18.59-9.51-31.36,27.46-31.36,27.46s9,16.27,12.72,31.52
	c-0.15,0.44-0.22,0.68-0.22,0.68c-8.41-19.42-22.49-35.24-26.94-39.96c-0.88-0.94-1.39-1.44-1.39-1.44
	c5.41-27.41,24.51-36.07,27.41-37.24c0.24-0.1,0.37-0.14,0.37-0.14c-0.68-4.36,2.11-5.86,2.11-5.86c1.54,2.19,3.17,4.26,4.88,6.2
	c2.53,2.88,5.23,5.5,8.05,7.88c4.38,3.7,9.05,6.81,13.82,9.44C214.89,53.81,226.79,57.28,236.8,59.21z"/>
<path class="st3" d="M203.56,47.58c-0.57-0.25-18.82-8.24-25.82-13.17c-7.12-5-30.52,26.3-20.5,38.71
	c10.02,12.41,18.01,35.58,18.01,35.58c-4.11-9.51-9.59-18.15-14.63-25.04c0,0,0-0.01,0-0.01c0,0,0-0.01-0.01-0.02
	c-5.26-7.19-10.03-12.49-12.3-14.89c-0.88-0.94-1.39-1.44-1.39-1.44c5.41-27.41,24.51-36.07,27.41-37.24
	c0.24-0.1,0.37-0.14,0.37-0.14c-0.68-4.36,2.11-5.86,2.11-5.86c1.54,2.19,3.17,4.26,4.88,6.2c2.02,2.3,4.15,4.44,6.36,6.41
	c0.56,0.5,1.12,0.99,1.69,1.47C194.13,41.84,198.8,44.96,203.56,47.58z"/>
<path class="st7" d="M188.06,36.68c-4.4-1.82-8.75-4.46-8.75-4.46s-1.57-1.48-3.58-0.77c-18.79,9.29-22.98,25.94-24.84,31.36
	c-1.86,5.41,2.17,7.36,3.68,9.71c1.46,2.28,5.78,10.61,6.05,11.13c-5.26-7.19-10.03-12.49-12.3-14.89
	c-0.88-0.94-1.39-1.44-1.39-1.44c5.41-27.41,24.51-36.07,27.41-37.24c0.24-0.1,0.37-0.14,0.37-0.14c-0.68-4.36,2.11-5.86,2.11-5.86
	c1.54,2.19,3.17,4.26,4.88,6.2C183.72,32.57,185.85,34.7,188.06,36.68z"/>
<path class="st13" d="M203.56,47.64c0,0-24.53-11.99-25.82-13.62c-1.3-1.63-4.97,0.2-6.81,1.58c-1.84,1.38-18.53,16.75-16.36,32.98
	c0,0,0.64,3.42,2.74,5.46c2.11,2.05,14.99,27,14.99,27s-10.05-23.56-13.48-28.05c-3.42-4.49-4.41-19.1,12.61-37.08
	c0,0,3.96-2.96,5.98-1.56C179.43,35.75,198.88,46.6,203.56,47.64z"/>
<path class="st14" d="M361.06,225.97l-9.19,41.26l-86.89-6.67c0,0-0.52-0.04-1.43-0.1c-1-0.08-2.46-0.2-4.25-0.36
	c-11.79-1.07-37.35-3.98-30.95-8.75c4.16-3.1,18.13-4.18,30.93-4.48c1.45-0.04,2.89-0.06,4.29-0.08
	c10.73-0.13,19.65,0.22,19.65,0.22c-2.37-1.98-10.64-3.99-19.65-5.68c-1.42-0.26-2.86-0.52-4.31-0.78
	c-11.99-2.08-23.85-3.51-23.85-3.51c6.91-0.1,15.28,0.46,23.84,1.28c1.44,0.14,2.88,0.28,4.32,0.43
	c20.44,2.09,40.81,5.16,44.17,3.43c5.01-2.58,3.84-16.31,3.84-16.31c-4.2-2.93-25.75-4.57-47.98-5.5c-1.46-0.06-2.92-0.12-4.37-0.17
	c-25.14-0.94-49.74-1-49.74-1l0,0c14.24-1.24,30.82-2.09,49.74-2.16c1.47,0,2.93,0,4.38,0C310.4,217.22,342.85,222.15,361.06,225.97
	z"/>
<g>
	<path class="st2" d="M317.31,203.36c0,0-12.75,6.43-29,11.07c0,0-0.01,0-0.02,0c-8.59,2.46-18.17,4.4-27.36,4.64
		c-0.07,0-0.13,0.01-0.2,0.01c-0.07,0-0.13,0-0.2,0v-39.83c0,0,0.07-0.01,0.2-0.02c1.99-0.21,18.26-1.8,24.11,2.98l0,0
		c0.74,2.42,1.66,4.3,2.38,5.61c1.01,1.82,3,5.34,6.91,8.23c1.1,0.82,2.35,1.58,4.15,2.42
		C304.94,201.59,312.93,202.84,317.31,203.36z"/>
	<path class="st2" d="M374.51,67.31c0,0-18.25,18.11-28.33,41.4c0,0-11.71-38.41-39.09-34.73c-5.65,0.75-22.47,14.71-46.58,15.12
		V61.59c0,0,33.77,0.97,61.81-16.63c6.32-3.96,12.34-8.87,17.62-14.94c1.63-1.87,3.19-3.85,4.66-5.95c0,0,2.79,1.5,2.11,5.86
		C346.72,29.92,368.65,37.61,374.51,67.31z"/>
</g>
<path class="st2" d="M260.71,179.23c-0.81-0.08-3.97-0.4-7.83-0.42c-4.08-0.02-8.95,0.28-12.64,1.52c-1.42,0.48-2.66,1.09-3.62,1.87
	c0,0,0,0-0.01,0.01l0,0c-0.75,2.42-1.66,4.3-2.38,5.61c-1.01,1.82-3,5.34-6.91,8.23c-1.1,0.82-2.35,1.58-4.15,2.42
	c-6.66,3.11-14.66,4.36-19.03,4.88c0,0,26.17,13.21,51.35,15.43l1.23,0.1c0.04,0,0.06,0,0.06,0c1.26,0.09,2.51,0.16,3.76,0.19
	c0.07,0,0.13,0.01,0.2,0.01c0.07,0,0.13,0,0.2,0v-39.83C260.91,179.26,260.85,179.25,260.71,179.23z"/>
<path class="st16" d="M288.28,214.44c-8.59,2.46-18.17,4.4-27.36,4.64v0.01c-0.07,0-0.13,0-0.2,0c-0.07,0-0.13,0-0.2,0v-0.01
	c-26.59-0.68-56.39-15.72-56.39-15.72c4.38-0.52,12.37-1.77,19.03-4.88c1.8-0.84,3.04-1.6,4.15-2.42c3.91-2.9,5.9-6.41,6.91-8.23
	c0.72-1.31,1.64-3.19,2.38-5.61l0,0c0.09-0.14,3.07-4.4,21.14-4.83c-0.08,0.02-2.36,0.62-4.86,1.42c-3.19,1.03-6.75,2.41-6.67,3.41
	c0.14,1.8-7.56,22.17,1.12,29.01c2.68,2.12,7.63,3.23,13.18,3.76c0.13,0.01,0.27,0.02,0.4,0.04
	C272.94,216.11,287.59,214.51,288.28,214.44z"/>
<path class="st3" d="M256.55,218.87l-1.08-0.09c-8.85-0.78-17.82-2.92-25.74-5.36c0,0-0.04-0.01-0.11-0.04
	c-14.55-4.5-25.5-10.03-25.5-10.03c4.38-0.52,12.37-1.77,19.03-4.88c1.8-0.84,3.04-1.6,4.15-2.42c3.91-2.9,5.9-6.41,6.91-8.23
	c0.54-0.98,1.19-2.28,1.79-3.88c0-0.01,0-0.01,0-0.01c0.2-0.54,0.4-1.11,0.59-1.71l0,0c0,0,0,0,0.01-0.01c0.09-0.14,1-1.33,4.36-2.5
	l0.12,0.07c0,0-0.37,0.22-0.86,0.55c-0.77,0.52-1.83,1.29-2.2,1.88c-0.09,0.14-0.14,0.26-0.14,0.38c0,0.88-7.11,17.73-3.03,26.28
	C238.7,216.89,254.59,218.68,256.55,218.87z"/>
<path class="st7" d="M229.62,213.39c-14.55-4.5-25.5-10.03-25.5-10.03c4.38-0.52,12.37-1.77,19.03-4.88c1.8-0.84,3.04-1.6,4.15-2.42
	c3.91-2.9,5.9-6.41,6.91-8.23c0.54-0.98,1.19-2.28,1.79-3.88c-0.09,0.45-2.89,13.34-12.61,16.05c0,0-2.77,5.01-1.41,8.17
	C223.25,211.07,228.77,213.09,229.62,213.39z"/>
<path class="st9" d="M175.73,97.23c0,1.02-0.82,1.84-1.84,1.84c-1.02,0-1.84-0.82-1.84-1.84s0.82-1.84,1.84-1.84
	C174.9,95.4,175.73,96.22,175.73,97.23z M164.59,77.72c-1.02,0-1.84,0.82-1.84,1.84c0,1.02,0.82,1.84,1.84,1.84
	c1.02,0,1.84-0.82,1.84-1.84C166.43,78.54,165.61,77.72,164.59,77.72z M152.45,64.86c-1,0.15-1.69,1.09-1.54,2.09
	s1.09,1.69,2.09,1.54c1-0.15,1.69-1.09,1.54-2.09C154.39,65.4,153.45,64.71,152.45,64.86z M222,203.16c-1.02,0-1.84,0.82-1.84,1.84
	c0,1.02,0.82,1.84,1.84,1.84c1.02,0,1.84-0.82,1.84-1.84C223.84,203.98,223.01,203.16,222,203.16z M345.7,97.23
	c0,1.02,0.82,1.84,1.84,1.84c1.02,0,1.84-0.82,1.84-1.84s-0.82-1.84-1.84-1.84C346.53,95.4,345.7,96.22,345.7,97.23z M355,79.55
	c0,1.02,0.82,1.84,1.84,1.84c1.02,0,1.84-0.82,1.84-1.84c0-1.02-0.82-1.84-1.84-1.84C355.82,77.72,355,78.54,355,79.55z
	 M366.89,66.4c-0.15,1,0.54,1.94,1.54,2.09c1,0.15,1.94-0.54,2.09-1.54s-0.54-1.94-1.54-2.09C367.98,64.71,367.04,65.4,366.89,66.4z
	 M297.59,205c0,1.02,0.82,1.84,1.84,1.84c1.02,0,1.84-0.82,1.84-1.84c0-1.02-0.82-1.84-1.84-1.84
	C298.42,203.16,297.59,203.98,297.59,205z"/>
<path class="st10" d="M382.26,322.44c0,0-3.32,4.43-8.48,5.69s5.36-8.02,5.36-8.02L382.26,322.44"/>
<path class="st10" d="M139.08,322.39c0,0,4.23,7.71,9.75,8.53s2.79-10.01,2.79-10.01L139.08,322.39"/>
<path class="st10" d="M201.02,444.96"/>
<path class="st14" d="M245.18,414.19l-33.28,51.5c-3.7-3.5-7.45-7.64-11.18-12.53c0.17-1.51,0.31-3.23,0.3-4.75
	c-0.04-3.78-12.32-35.03-16-41.06c-3.63-5.95-13.02-8.22-13.26-8.28c0,0,0,0,0,0c-2.33-5.52-4.5-11.02-6.52-16.49l43.89,2.9
	L245.18,414.19z"/>
<path class="st15" d="M172.8,396.51c0,0,9.53,1.06,14.16,5.82c4.63,4.77,13.07,25.74,17.82,51.99c0,0-11.42-41.91-19.46-50.22
	C185.33,404.11,181.31,399,172.8,396.51z"/>
<path class="st14" d="M352.15,393.18c-5.36,13.33-11.63,26.84-18.93,40.45c-6.59,12.29-13.46,21.66-20.25,28.78
	c0.51-3.97,1.09-7.81,1.71-11.51c1.55-1.51,3.12-3.53,3.44-5.74c0.62-4.22,5.09-15.8,5.26-16.16c-0.01,0.02-0.03,0.1-0.08,0.23
	c-0.82,2.18,0,7.9,0,7.9s17.98-30.64,16.21-32.28c-1.77-1.63-13.83,5.74-13.83,5.74c3.1-6.97,6.31-11.38,9.27-12.55
	c5.33-2.11,12.07-3.78,12.07-3.78C348.84,393.84,350.62,393.48,352.15,393.18z"/>
<path class="st15" d="M333.84,403.56c0,0,8.29-4.89,12.02-4.49c3.74,0.39-28.8,53.37-28.8,53.37s-0.79,1.17-1,3.42
	c-0.2,2.25,17.47-19.2,33.5-60.37C349.58,395.49,333.03,398.35,333.84,403.56z"/>
<path class="st16" d="M163.61,104.38c0,0,12.97,40.41-3.64,66.27c-2.68-2.82-5.29-5.81-7.81-8.98c-3.02-3.78-5.91-7.81-8.64-12.11
	c-0.61-0.95-1.2-1.92-1.8-2.9c4.38-6.3,10.05-16.7,10.25-30.06c0.02-1.44-0.01-3.36-0.41-7.2c-0.85-8.29-2.86-20.37-8.03-35.43
	c3.86,3.58,8.23,8.01,12.67,13.33l0,0c4.26,5.09,8.59,11.01,12.6,17.79l0,0c0,0,0,0.01,0,0.01c1.88,3.17,3.68,6.53,5.38,10.09
	C174.02,114.98,168.57,107.7,163.61,104.38z"/>
<path class="st13" d="M154.14,155.61c0,0,10.45-37.78-2.72-68.18c0,0,17.38,30.75,2.95,67.42"/>
<path class="st13" d="M141.1,308.16"/>
<path class="st13" d="M260.91,255.25l-0.17,210.72l-0.02,19.71c-5.32,0.65-13.92,0.99-23.84-1.88c-0.01,0-0.02-0.01-0.04-0.01
	c-0.18-0.05-0.37-0.11-0.55-0.16c-6.81-2.04-12.41-5.07-16.84-8.16c-2.92-2.03-5.32-4.08-7.24-5.9c-1.44-1.37-2.6-2.6-3.49-3.59
	c0,0,0-0.01,0-0.01c-4.42-37.69-14.37-64.94-22.44-68.13c-5.33-2.11-12.07-3.78-12.07-3.78c-5.1-1.12-9.82-1.94-9.82-1.94
	c-4.98-3.5-16.55-47.42-21.25-65.97c-0.14-0.56-0.28-1.1-0.41-1.61c-0.06-0.22-0.11-0.44-0.16-0.65c-0.93-3.69-1.47-5.92-1.47-5.92
	l6.69-3.5l0.98-0.51l21.07-11.03L260.91,255.25z"/>
<path class="st13" d="M380.25,317.97c0,0-16.96,69.71-23.29,74.16c0,0-1.95,0.34-4.69,0.87c-1.53,0.3-3.31,0.66-5.13,1.07
	c0,0-6.74,1.67-12.07,3.78c-2.96,1.17-6.17,5.58-9.27,12.55c-4.16,9.36-8.12,23.34-10.99,40.31c-0.62,3.7-1.2,7.55-1.71,11.51
	c-0.16,1.24-0.32,2.49-0.46,3.75c-3.89,4.35-13.15,13.48-28.13,17.82c-9.94,2.88-18.55,2.54-23.88,1.89l-0.19-230.44L380.25,317.97z
	"/>
<path class="st13" d="M312.63,465.98c0,0-8.69,21.8-51.72,21.86h-0.18c-9.73,0-17.71-1.11-24.24-2.83
	c-7.28-1.91-12.75-4.58-16.83-7.32c-3.24-2.18-5.6-4.39-7.28-6.3c-2.64-3.01-3.59-5.26-3.65-5.4c0,0,0-0.01,0-0.01H312.63z"/>
<path class="st17" d="M260.91,394.98"/>
<g>
	<path class="st2" d="M260.71,248.76v145.25h-0.06c0,0-0.01,0-0.02,0c-0.79-0.02-7.41-0.28-16.95-3.25
		c-7.56-2.36-16.95-6.41-26.74-13.4c-4.24-3.02-8.55-6.6-12.81-10.83c-25.76-25.52-60.64-42.07-64.66-43.93
		c-0.25-0.12-0.38-0.18-0.38-0.18s-5.13-31.96-5.29-59.23c-0.01-0.96,0-1.91,0-2.86c0.07-9.95,0.88-19.07,2.92-25.53
		c7.76-24.52,29.55-19.48,29.55-19.48s14.98,44.81,21.11,45.08c6.12,0.27,19.81-11.65,73.26-11.66H260.71z"/>
	<path class="st2" d="M260.63,394.01c0,0,29.21-0.36,56.59-27.48c27.37-27.12,65.04-44.1,65.04-44.1s10.13-63.1,2.37-87.61
		s-29.55-19.48-29.55-19.48s-14.98,44.81-21.11,45.08c-6.13,0.27-19.82-11.66-73.34-11.66V394.01z"/>
</g>
<path class="st16" d="M243.67,390.76c-7.56-2.36-16.95-6.41-26.74-13.4c-4.24-3.02-8.55-6.6-12.81-10.83
	c-25.76-25.52-60.64-42.07-64.66-43.93c-0.25-0.12-0.38-0.18-0.38-0.18s-5.13-31.96-5.29-59.23c-0.01-0.96,0-1.91,0-2.86
	c0.1-9.79,0.9-18.75,2.92-25.11c3.13-9.89,8.55-14.97,13.9-17.51c0.02,0.12,0.03,0.24,0.04,0.36c0.01,0.06,0.02,0.13,0.02,0.2
	c2.21,18.03,8.29,42.6,26.59,63.21c7.1,8,13.29,12.3,17.16,15.32C211.19,309.91,231.2,335.51,243.67,390.76z"/>
<path class="st3" d="M217.22,377.26c-0.22-0.16-0.45-0.32-0.67-0.48c0,0,0,0,0,0c0,0,0,0,0,0c-3.96-2.89-7.99-6.27-11.97-10.21
	c-27.38-27.12-65.05-44.1-65.05-44.1s-10.13-63.1-2.37-87.61c3.13-9.89,8.55-14.97,13.9-17.51c-2.72,17.49-1.59,31.82-0.16,41.24
	c1.54,10.11,3.42,21.71,11.04,33.97c5.2,8.36,10.79,13.37,12.87,15.32c9.17,8.59,21.9,24.92,37.71,58.96
	C214.06,370.12,215.63,373.6,217.22,377.26z"/>
<path class="st16" d="M259.79,377.82c0,0-22.16,0-28.7-4.22s3.81-8.44,3.81-8.44L259.79,377.82z"/>
<path class="st7" d="M216.94,377.36c-4.24-3.02-8.55-6.6-12.81-10.83c-25.76-25.52-60.64-42.07-64.66-43.93
	c-0.26-1.69-1.31-8.55-2.39-17.89c-1.36-11.69-2.79-27.28-2.84-41.51c0-0.32,0-0.65,0-0.97c0-0.33,0-0.65,0-0.98
	c0.06-10.08,0.86-19.33,2.92-25.86c3.05-9.65,8.28-14.71,13.49-17.31c0.1-0.06,0.21-0.11,0.31-0.16c0.03-0.02,0.06-0.03,0.09-0.04
	c0,0-0.04,0.04-0.1,0.1c-0.06,0.07-0.16,0.16-0.28,0.29c-1.86,1.97-9.88,10.83-9.64,16.61c0.26,6.32-4.06,54.56,4.14,76.18
	c0.28,0.72,0.56,1.41,0.86,2.06c0,0,0.62,0.46,1.74,1.32c9.63,7.35,56.33,43.45,68.76,62.3c0,0,0,0,0,0c0,0,0,0,0,0
	C216.68,376.97,216.81,377.17,216.94,377.36z"/>
<path class="st16" d="M206.57,310.14c0,0,24.04-35.18,55.87-30.87c31.83,4.31-46.48,41.63-46.48,41.63L206.57,310.14z"/>
<linearGradient id="SVGID_1_" gradientUnits="userSpaceOnUse" x1="211.9094" y1="328.3858" x2="310.1485" y2="328.3858">
	<stop  offset="0.4999" style="stop-color:#E6F0FF"/>
	<stop  offset="0.5" style="stop-color:#B1BCC4"/>
	<stop  offset="0.51" style="stop-color:#B1BCC4"/>
</linearGradient>
<path class="st18" d="M283.12,372.26L283.12,372.26l-0.26,0.14l-0.02,0.01c-6.57,3.26-13.97,5.09-21.81,5.09
	c-6.98,0-13.63-1.46-19.64-4.08l-0.03-0.01l-0.63-0.28l0-0.01c-17-7.73-28.82-24.84-28.82-44.73c0-27.12,21.99-49.12,49.12-49.12
	c27.13,0,49.12,21.99,49.12,49.12C310.15,347.56,299.15,364.17,283.12,372.26z"/>
<path class="st12" d="M299.18,328.38c0,14.83-8.47,27.69-20.83,34c-5.2,2.66-11.09,4.15-17.32,4.15c-5.72,0-11.16-1.26-16.03-3.52
	c-13.06-6.06-22.12-19.29-22.12-34.63c0-21.07,17.08-38.15,38.15-38.15C282.1,290.23,299.18,307.32,299.18,328.38z"/>
<path class="st16" d="M152.44,399.07"/>
<path class="st3" d="M124.86,191.51"/>
<path class="st3" d="M134.36,350.14"/>
<path class="st13" d="M151.05,217.89c0,0-3.82,14.36-2.29,28.71c0.89,9.74,5.79,39.97,14.23,51.82
	c8.44,11.85,16.48,13.21,29.55,35.27c13.07,22.06,23.99,42,23.99,42s-15.28-40.19-29.3-57.37s-17.7-14.58-21.11-21.53
	c-3.4-6.95-14.03-29.56-14.84-50.67C150.46,225.02,151.05,217.89,151.05,217.89z"/>
<path class="st13" d="M262.45,379.05c0,0,23.39,0.68,39.46-20.7c16.07-21.38,8.99-39.36,8.24-42.63
	c-0.75-3.27-9.33-22.34-18.18-28.06c-8.85-5.72-29.52-10.08-29.52-10.08s19.17-2.72,37.96,14.84
	c18.79,17.57,16.07,44.06,13.07,51.51c-3,7.46-11.59,28.84-31.33,33.88C262.41,382.86,262.45,379.05,262.45,379.05z"/>
<path class="st13" d="M356.25,215.82c0,0,14.03-0.68,20.77,7.42c6.74,8.1,8.31,25.94,8.31,25.94s-1.36,63.67-5.07,71.7
	c0,0-16.38,6.87-19.65,10.45c-3.27,3.58,5.72-7.82,17.57-13.02c0,0,5.86-54.36,4.09-70.29s-4.49-21.65-6.95-23.7
	C372.86,222.29,370,218.48,356.25,215.82z"/>
<path class="st15" d="M337.59,30.33c0,0-27.24-17.77-76.68-17.77s-75.59,17.77-75.59,17.77s1.02,1.33,1.89,1.89
	c0,0,32.63-17.45,73.7-17.45s74.36,17.45,74.36,17.45S336.74,31.25,337.59,30.33z"/>
<ellipse transform="matrix(0.2561 -0.9666 0.9666 0.2561 202.061 321.738)" class="st15" cx="310.08" cy="29.58" rx="9.06" ry="14.16"/>
<ellipse transform="matrix(0.0675 -0.9977 0.9977 0.0675 190.4613 293.5814)" class="st11" cx="252.3" cy="44.89" rx="15.29" ry="29"/>
<ellipse transform="matrix(0.2561 -0.9666 0.9666 0.2561 185.8284 299.9849)" class="st15" cx="287.83" cy="29.25" rx="4.29" ry="6.71"/>
<ellipse transform="matrix(0.0675 -0.9977 0.9977 0.0675 179.7079 256.7265)" class="st11" cx="227.2" cy="32.22" rx="4.18" ry="7.93"/>
<ellipse transform="matrix(0.2561 -0.9666 0.9666 0.2561 202.9547 321.6824)" class="st13" cx="310.49" cy="28.97" rx="6.88" ry="10.77"/>
<path class="st14" d="M314.89,117.84c-0.14,8.99-6.67,5.72-9.53,4.36c-2.86-1.36-11.02-0.68-14.02,0.54
	c0.22-0.2,7.79-7.11,12.89-6.08c5.18,1.05-2.72-4.67-8.99-4.13c0,0,7.31-2.45,12.37,1.9c-0.09-0.18-3.24-6.06-18.12-8.4
	c1.61-0.44,3.44-0.74,5.52-0.85C312.85,104.21,314.89,117.84,314.89,117.84z"/>
<ellipse transform="matrix(0.2561 -0.9666 0.9666 0.2561 186.0663 300.1494)" class="st13" cx="288.05" cy="29.18" rx="3.14" ry="4.92"/>
<path class="st15" d="M307.8,109.49c0,0,2.76,1.65,5.31,7.16c2.55,5.51-1.53,6.22-1.53,6.22s-5.38-2.62-10.32-2.66
	c0,0-0.08-0.82,9.88,0.49C312.55,121.03,312.27,116.49,307.8,109.49z"/>
<ellipse transform="matrix(0.3459 -0.9383 0.9383 0.3459 94.1299 356.6464)" class="st15" cx="302.87" cy="110.81" rx="3.5" ry="5.47"/>
<ellipse transform="matrix(0.5817 -0.8134 0.8134 0.5817 6.4701 234.6325)" class="st15" cx="231.36" cy="111.03" rx="3.5" ry="5.47"/>
<ellipse transform="matrix(0.5817 -0.8134 0.8134 0.5817 6.4701 234.6325)" class="st13" cx="231.36" cy="111.03" rx="2.5" ry="3.91"/>
<ellipse transform="matrix(0.3459 -0.9383 0.9383 0.3459 94.1299 356.6464)" class="st13" cx="302.87" cy="110.81" rx="2.5" ry="3.91"/>
<ellipse transform="matrix(0.1032 -0.9947 0.9947 0.1032 85.0976 329.815)" class="st14" cx="225.45" cy="117.72" rx="2.58" ry="4.03"/>
<ellipse transform="matrix(0.1032 -0.9947 0.9947 0.1032 90.8276 338.9045)" class="st14" cx="233.35" cy="119.08" rx="1.93" ry="2.58"/>
<ellipse transform="matrix(0.9538 -0.3003 0.3003 0.9538 -21.2706 94.9254)" class="st14" cx="298.14" cy="116.65" rx="2.58" ry="1.93"/>
<ellipse transform="matrix(0.5817 -0.8134 0.8134 0.5817 -131.9694 354.71)" class="st19" cx="278.89" cy="305.66" rx="8.17" ry="12.78"/>
<ellipse transform="matrix(0.9105 -0.4135 0.4135 0.9105 -19.0992 130.745)" class="st14" cx="292.47" cy="109.49" rx="4.03" ry="2.58"/>
<path class="st14" d="M291.84,160.95c-5.89,3.55-13.95,9.05-31.32,9.05c-0.94,0-1.86-0.02-2.76-0.06c3.2-0.31,18.19-1.98,24.2-6.61
	c-0.25,0.1-6.99,2.65-9.59,2.45c0,0,10.49-4.18,12.05-5.72c-0.39,0.1-16.71,4.35-23.89,1.78c17.43-0.49,18.85-2.19,25.32-6.48
	c6.47-4.29,9.05-0.61,9.05-0.61S297.73,157.4,291.84,160.95z"/>
<path class="st15" d="M288.91,154.59c0,0,2.44-1.17,5.1,0.56s-4.6,6.33-7.92,7.66c0,0,6.84-4.85,7-6.28
	C293.24,155.1,291.52,154.79,288.91,154.59z"/>
<ellipse transform="matrix(0.8311 -0.5562 0.5562 0.8311 -39.3654 187.4157)" class="st15" cx="288.81" cy="158.51" rx="3.23" ry="2.07"/>
<ellipse transform="matrix(0.8311 -0.5562 0.5562 0.8311 -39.3654 187.4157)" class="st13" cx="288.81" cy="158.51" rx="2.31" ry="1.48"/>
<ellipse transform="matrix(0.9767 -0.2148 0.2148 0.9767 -29.6388 61.1677)" class="st14" cx="266.61" cy="166.95" rx="3.64" ry="2.33"/>
<path class="st14" d="M382.06,126.14c-0.1,3.81,1.33,6.29,3.3,7.91c3.25,2.68,7.98,3,9.72,3.02v0c0,0-0.3,6.63-5.92,7.87
	c-5.62,1.24-6.03-0.01-6.03-0.01c2.39,0.15,4.91-1.38,4.91-1.38c-3.42,0.77-8.63-1.68-5.41-0.92c3.12,0.74,7.97-1.68,8.26-1.84
	c-0.3,0.06-4.77,1.01-7.73-0.77c-3.06-1.84-6.75-8.65-7.49-12.32c-0.75-3.68,0.07-28.19,0.56-34.93c0.48-6.74,11.7-7.63,11.7-7.63
	c-2.25-1.7-9.53-1.22-9.53-1.22c2.38-1.29,7.83-0.82,7.83-0.82c-1.43-1.16-10.56-1.12-10.56-1.12h-0.3l0.74-2.42
	c2.99-0.03,11.96,0.04,15.26,1.65c3.98,1.94,4.39,7.87,4.39,7.87s-13.99-0.72-13.69,10.93V126.14z"/>
<path class="st15" d="M376.69,79.97c0,0,8.94-0.58,13.59,1.42c2.96,1.26,4.37,4.66,4.93,7.13c0,0-5.8,0-9.01,2.17
	c0,0,3.32-3.65,7.1-3.45c0,0-0.41-3.37-3.6-4.95S381.93,80.18,376.69,79.97z"/>
<path class="st15" d="M384.76,91.97c0,0-2.76,1.43-3.06,4.03s-0.51,29.72-0.46,30.54c0,0-1.52-11.13-0.82-30.44
	C380.52,93.61,384.76,91.97,384.76,91.97z"/>
<ellipse transform="matrix(0.5825 -0.8129 0.8129 0.5825 93.1727 350.6923)" class="st15" cx="387.95" cy="84.65" rx="3.12" ry="4.89"/>
<ellipse transform="matrix(0.5825 -0.8129 0.8129 0.5825 93.1727 350.6923)" class="st13" cx="387.95" cy="84.65" rx="2.23" ry="3.49"/>
<ellipse transform="matrix(0.4369 -0.8995 0.8995 0.4369 127.4903 395.0773)" class="st15" cx="379.3" cy="95.71" rx="3.42" ry="2.19"/>
<ellipse transform="matrix(0.4369 -0.8995 0.8995 0.4369 127.4903 395.0773)" class="st13" cx="379.3" cy="95.71" rx="2.44" ry="1.56"/>
<ellipse transform="matrix(0.5271 -0.8498 0.8498 0.5271 107.0962 368.9331)" class="st15" cx="385.02" cy="88.25" rx="1.25" ry="1.57"/>
<ellipse transform="matrix(0.5271 -0.8498 0.8498 0.5271 107.0962 368.9331)" class="st13" cx="385.02" cy="88.25" rx="0.9" ry="1.12"/>
<ellipse class="st11" cx="377.21" cy="110.12" rx="2.37" ry="7.54"/>
<ellipse transform="matrix(0.8278 -0.561 0.561 0.8278 -11.149 237.9355)" class="st11" cx="382.04" cy="137.13" rx="1.81" ry="2.35"/>
<ellipse transform="matrix(0.6381 -0.7699 0.7699 0.6381 68.5736 321.9501)" class="st14" cx="376.77" cy="88.03" rx="3.07" ry="1.95"/>
<ellipse transform="matrix(0.943 -0.3328 0.3328 0.943 -57.8459 136.4804)" class="st13" cx="369.54" cy="237.13" rx="11.99" ry="18.74"/>
<ellipse transform="matrix(0.943 -0.3328 0.3328 0.943 -63.6181 134.2421)" class="st13" cx="360.12" cy="252.86" rx="8.18" ry="10.5"/>
<ellipse transform="matrix(0.943 -0.3328 0.3328 0.943 -66.3345 140.8222)" class="st13" cx="377.98" cy="264.08" rx="3.22" ry="4.08"/>
<ellipse transform="matrix(0.0529 -0.9986 0.9986 0.0529 56.8811 657.1238)" class="st13" cx="374.86" cy="298.58" rx="10.5" ry="6.39"/>
<ellipse transform="matrix(0.0529 -0.9986 0.9986 0.0529 43.232 654.5132)" class="st13" cx="366.66" cy="304.47" rx="5.59" ry="3.4"/>
<circle class="st13" cx="362.56" cy="286.96" r="4.1"/>
<ellipse transform="matrix(0.9042 -0.4271 0.4271 0.9042 -99.333 163.4286)" class="st13" cx="314.69" cy="303.17" rx="6.39" ry="10.5"/>
<ellipse transform="matrix(0.866 -0.5 0.5 0.866 -105.3483 200.4203)" class="st13" cx="321.32" cy="296.79" rx="3.4" ry="5.59"/>
<ellipse transform="matrix(0.866 -0.5 0.5 0.866 -128.8161 133.2312)" class="st13" cx="184.2" cy="306.99" rx="6.39" ry="10.5"/>
<ellipse transform="matrix(0.9356 -0.3531 0.3531 0.9356 -84.0241 75.3118)" class="st13" cx="164.43" cy="267.98" rx="10.06" ry="17.23"/>
<circle class="st13" cx="169.8" cy="256.88" r="4.1"/>
<ellipse transform="matrix(0.9356 -0.3531 0.3531 0.9356 -68.8462 70.305)" class="st13" cx="158.29" cy="223.87" rx="8.41" ry="4.92"/>
<path class="st3" d="M341.51,341.31c0,0-11,6.68-13.18,9.41c-2.18,2.73-5.58-80.35-5.58-80.35s-6.81-13.07-24.38-15.12
	c-17.57-2.04,23.75-3.14,36.73,12.73l9.03,71.39L341.51,341.31z"/>
<path class="st7" d="M346.1,338.3c0,0-3.37,1.62-4.6,3c0,0-5.34-63.55-9.24-71.4s-4.08-7.66-8.17-9.75c0,0,11.44,3.88,12.36,8.38
	C337.37,273.02,345.82,338.14,346.1,338.3z"/>
<path class="st16" d="M324.09,260.15c0,0,6.89,2.34,9.75,3.93c2.86,1.59,7.97-8.83,7.97-8.83s-1.57,10.62-3.2,11.37
	s7.49,71.68,7.49,71.68l-12.05-70.32C334.05,267.98,329.05,260.77,324.09,260.15z"/>
<path class="st3" d="M283.12,372.26l-0.26,0.14l-0.02,0.01c-6.57,3.26-13.97,5.09-21.81,5.09c-6.98,0-13.63-1.46-19.64-4.08
	l-0.03-0.01l-0.63-0.28l4.27-10.11c4.87,2.26,10.31,3.52,16.03,3.52c6.24,0,12.13-1.5,17.32-4.15L283.12,372.26z"/>
<path class="st16" d="M283.05,284.53l-0.26-0.14l-0.02-0.01c-6.57-3.26-13.97-5.09-21.81-5.09c-6.98,0-13.63,1.46-19.64,4.08
	l-0.03,0.01l-0.63,0.28l4.27,10.11c4.87-2.26,10.31-3.52,16.03-3.52c6.24,0,12.13,1.5,17.32,4.15L283.05,284.53z"/>
<ellipse transform="matrix(0.5817 -0.8134 0.8134 0.5817 61.7836 296.1951)" class="st19" cx="318.87" cy="88.03" rx="8.4" ry="13.14"/>
<ellipse transform="matrix(0.5825 -0.8129 0.8129 0.5825 61.5864 295.9513)" class="st13" cx="318.87" cy="88.03" rx="5.71" ry="8.92"/>
<ellipse transform="matrix(0.5817 -0.8134 0.8134 0.5817 55.1556 303.7635)" class="st19" cx="322.92" cy="98.26" rx="2.56" ry="4"/>
<path class="st13" d="M322.92,98.26l2.03,1.78c-0.66,0.57-1.95,0.41-3.04-0.37c-1.21-0.87-1.75-2.22-1.2-2.99
	c0.55-0.77,2.01-0.7,3.22,0.17c1.21,0.87,1.75,2.22,1.2,2.99L322.92,98.26z"/>
<g>
	<path class="st20" d="M249.24,314.82c-0.27,2.18,5.98,6.45,11.6,7.62v27.96"/>
	<line class="st20" x1="279.48" y1="318.75" x2="254.28" y2="343.94"/>
	<path class="st20" d="M248.4,337.99"/>
	<path class="st20" d="M248.65,338.24"/>
	<path class="st20" d="M248.74,338.3v-20.54c0,0-0.47-10.2,12.25-10.78"/>
</g>
<g>
	<line class="st20" x1="242.26" y1="318.75" x2="267.45" y2="343.94"/>
	<path class="st20" d="M273.34,337.99"/>
	<path class="st20" d="M273.09,338.24"/>
	<path class="st20" d="M272.94,338.3v-20.54c0,0,0.46-10.2-12.03-10.78"/>
</g>
<path class="st21" d="M272.97,325.26c1.4,0.27-5.31-1.4-12.17-2.82"/>
<circle class="st22" cx="240.72" cy="317.27" r="1.06"/>
<circle class="st22" cx="281.1" cy="317.27" r="1.06"/>
<circle class="st22" cx="260.84" cy="317.27" r="1.06"/>
<circle class="st20" cx="260.84" cy="328.39" r="30.53"/>
<path class="st20" d="M276.48,349.33"/>
<polyline class="st20" points="290.31,335.42 284.76,335.42 284.76,326.77 260.82,350.71 236.93,326.82 236.93,335.56 
	231.09,335.56 "/>
<g>
	<g>
		<path class="st23" d="M248.4,337.99"/>
		<path class="st23" d="M248.65,338.24"/>
	</g>
	<g>
		<path class="st23" d="M273.34,337.99"/>
		<path class="st23" d="M273.09,338.24"/>
	</g>
	<path class="st23" d="M268.17,298.74c8.63,2.12,15.82,7.92,19.81,15.64"/>
	<path class="st23" d="M276.48,349.33"/>
</g>
<ellipse transform="matrix(0.5825 -0.8129 0.8129 0.5825 -132.0157 354.3206)" class="st13" cx="278.89" cy="305.66" rx="4.27" ry="6.68"/>
<ellipse transform="matrix(0.9996 -0.028 0.028 0.9996 -2.2609 3.9086)" class="st15" cx="138.21" cy="82.55" rx="3.7" ry="2.06"/>
<ellipse transform="matrix(0.9996 -0.028 0.028 0.9996 -2.259 3.9116)" class="st13" cx="138.31" cy="82.49" rx="2.71" ry="1.51"/>
<ellipse transform="matrix(0.9996 -0.028 0.028 0.9996 -3.1076 4.224)" class="st11" cx="149.03" cy="112.9" rx="1.2" ry="9.95"/>
<ellipse transform="matrix(0.3603 -0.9328 0.9328 0.3603 -33.0854 218.8224)" class="st14" cx="143.01" cy="133.54" rx="5.99" ry="2.76"/>
<ellipse transform="matrix(0.9902 -0.1399 0.1399 0.9902 -12.0345 21.0821)" class="st14" cx="143.99" cy="96.17" rx="3.24" ry="6.7"/>
<ellipse transform="matrix(0.9902 -0.1399 0.1399 0.9902 -11.2497 20.5691)" class="st14" cx="140.73" cy="90.33" rx="1.62" ry="3.35"/>
<path class="st13" d="M343.14,30.73c0,0,20.94,8.59,26.25,27.79C369.39,58.52,365.61,45.74,343.14,30.73z"/>
<ellipse transform="matrix(0.7528 -0.6583 0.6583 0.7528 57.7884 241.9671)" class="st13" cx="351.05" cy="44.04" rx="6.65" ry="11.38"/>
<ellipse transform="matrix(0.7528 -0.6583 0.6583 0.7528 51.4318 242.7845)" class="st13" cx="348.96" cy="52.92" rx="2.85" ry="4.58"/>
<ellipse transform="matrix(0.866 -0.5 0.5 0.866 21.7944 189.2115)" class="st13" cx="363.97" cy="53.94" rx="1.22" ry="2.66"/>
<path class="st16" d="M322.19,74.45c-1.3-0.9-2.88-1.5-4.52-1.88c-0.32-0.07-0.65-0.14-0.98-0.2c-1.2-0.22-2.4-0.33-3.52-0.37
	c-3.1-0.14-5.57,0.2-5.57,0.2s-0.52-12.87-6.33-11.64c-5.68,1.2-15.95,1.41-16.43,1.42c-0.01,0-0.02,0-0.02,0c0,0,0.01,0,0.01,0
	c8.03-1.23,15.43-3.81,21.28-6.36c0.94-0.41,1.84-0.82,2.7-1.22c0.77-0.36,1.5-0.72,2.19-1.06c4.21-2.1,6.99-3.85,7.7-4.3
	c-0.71,0.49-3.37,2.58-4.74,6.97C312.38,61.01,321.92,74.07,322.19,74.45z"/>
<path class="st3" d="M316.7,72.38c-1.2-0.22-2.4-0.33-3.52-0.37c-3.1-0.14-5.57,0.2-5.57,0.2s-0.52-12.87-6.33-11.64
	c-5.68,1.2-15.95,1.41-16.43,1.42l0,0c8.03-1.23,15.43-3.81,21.28-6.36c0.94-0.41,1.84-0.82,2.7-1.22
	C309.52,57.96,312.25,70.04,316.7,72.38z"/>
<path class="st7" d="M317.68,72.57c-0.32-0.07-0.65-0.14-0.98-0.2c-1.2-0.22-2.4-0.33-3.52-0.37v0c-1.53-9.67-7.07-16.38-7.07-16.38
	c0.94-0.41,1.84-0.82,2.7-1.22c0.77-0.36,1.5-0.72,2.19-1.06C308.93,62.88,315.01,69.99,317.68,72.57z"/>
<ellipse transform="matrix(0.5 -0.866 0.866 0.5 40.0867 169.0348)" class="st13" cx="166.43" cy="49.8" rx="13.29" ry="5.33"/>
<ellipse transform="matrix(0.5 -0.866 0.866 0.5 53.5691 174.3051)" class="st13" cx="177.74" cy="40.76" rx="3.92" ry="1.98"/>
<path class="st19" d="M152.09,65.34c0,0,1.09-0.46,1.81,0.4s0.17,1.69-0.31,2.15c0,0,0.56-0.63,0.19-1.49
	C153.42,65.52,152.75,65.32,152.09,65.34z"/>
<ellipse transform="matrix(0.866 -0.5 0.5 0.866 -12.6359 85.5576)" class="st19" cx="153.33" cy="66.36" rx="0.44" ry="0.69"/>
<path class="st19" d="M163.92,78.22c0,0,1.09-0.46,1.81,0.4s0.17,1.69-0.31,2.15c0,0,0.56-0.63,0.19-1.49
	C165.25,78.4,164.57,78.2,163.92,78.22z"/>
<ellipse transform="matrix(0.866 -0.5 0.5 0.866 -17.493 93.1962)" class="st19" cx="165.16" cy="79.24" rx="0.44" ry="0.69"/>
<path class="st19" d="M173.16,96.03c0,0,1.09-0.46,1.81,0.4c0.73,0.86,0.17,1.69-0.31,2.15c0,0,0.56-0.63,0.19-1.49
	C174.48,96.2,173.81,96,173.16,96.03z"/>
<ellipse transform="matrix(0.866 -0.5 0.5 0.866 -25.1568 100.1999)" class="st19" cx="174.4" cy="97.04" rx="0.44" ry="0.69"/>
<path class="st19" d="M346.82,95.92c0,0,1.09-0.46,1.81,0.4c0.73,0.86,0.17,1.69-0.31,2.15c0,0,0.56-0.63,0.19-1.49
	S347.47,95.9,346.82,95.92z"/>
<ellipse transform="matrix(0.866 -0.5 0.5 0.866 -1.8361 187.0171)" class="st19" cx="348.06" cy="96.93" rx="0.44" ry="0.69"/>
<path class="st19" d="M356.14,78.25c0,0,1.09-0.46,1.81,0.4s0.17,1.69-0.31,2.15c0,0,0.56-0.63,0.19-1.49
	C357.47,78.43,356.8,78.23,356.14,78.25z"/>
<ellipse transform="matrix(0.866 -0.5 0.5 0.866 8.2455 189.3112)" class="st19" cx="357.38" cy="79.27" rx="0.44" ry="0.69"/>
<path class="st19" d="M368,65.33c0,0,1.09-0.46,1.81,0.4c0.73,0.86,0.17,1.69-0.31,2.15c0,0,0.56-0.63,0.19-1.49
	S368.66,65.31,368,65.33z"/>
<ellipse transform="matrix(0.866 -0.5 0.5 0.866 16.2942 193.5116)" class="st19" cx="369.24" cy="66.35" rx="0.44" ry="0.69"/>
<path class="st19" d="M298.67,203.73c0,0,1.09-0.46,1.81,0.4s0.17,1.69-0.31,2.15c0,0,0.56-0.63,0.19-1.49
	C299.99,203.9,299.32,203.7,298.67,203.73z"/>
<ellipse transform="matrix(0.866 -0.5 0.5 0.866 -62.1915 177.3844)" class="st19" cx="299.91" cy="204.74" rx="0.44" ry="0.69"/>
<path class="st19" d="M221.25,203.71c0,0,1.09-0.46,1.81,0.4c0.73,0.86,0.17,1.69-0.31,2.15c0,0,0.56-0.63,0.19-1.49
	C222.57,203.89,221.9,203.69,221.25,203.71z"/>
<ellipse transform="matrix(0.866 -0.5 0.5 0.866 -72.5552 138.6721)" class="st19" cx="222.49" cy="204.73" rx="0.44" ry="0.69"/>
<ellipse transform="matrix(0.9621 -0.2726 0.2726 0.9621 -12.6682 110.3918)" class="st19" cx="391.01" cy="100.79" rx="4.5" ry="7.04"/>
<ellipse transform="matrix(0.9624 -0.2717 0.2717 0.9624 -12.6772 110.0092)" class="st13" cx="391.01" cy="100.79" rx="3.06" ry="4.78"/>
<ellipse transform="matrix(0.9621 -0.2726 0.2726 0.9621 -14.7116 110.0488)" class="st19" cx="388.75" cy="107.98" rx="2.14" ry="3.35"/>
<ellipse transform="matrix(0.9624 -0.2717 0.2717 0.9624 -14.7134 109.6663)" class="st13" cx="388.75" cy="107.98" rx="1.46" ry="2.28"/>
<ellipse transform="matrix(0.7739 -0.6333 0.6333 0.7739 29.4838 270.1782)" class="st19" cx="393.1" cy="93.8" rx="1.35" ry="2.11"/>
<ellipse transform="matrix(0.7745 -0.6326 0.6326 0.7745 29.3167 269.8335)" class="st13" cx="393.1" cy="93.8" rx="0.92" ry="1.43"/>
<ellipse transform="matrix(0.9621 -0.2726 0.2726 0.9621 -21.8198 40.0576)" class="st19" cx="133.27" cy="98.57" rx="4.5" ry="7.04"/>
<ellipse transform="matrix(0.9624 -0.2717 0.2717 0.9624 -21.7643 39.9107)" class="st13" cx="133.27" cy="98.57" rx="3.06" ry="4.78"/>
<path class="st15" d="M346.82,226.04c0,0-9.05,26.86-13.49,30.03c-1.53,1.19-3.47,0.61-3.47,0.61s-31.26-14.71-79.06-11.95
	c0,0,53.15-7.46,78.21,7.12C332.14,252.86,343.18,233.39,346.82,226.04z"/>
<ellipse transform="matrix(0.5745 -0.8185 0.8185 0.5745 -56.1009 372.3808)" class="st15" cx="330.11" cy="240.15" rx="14.16" ry="9.06"/>
<ellipse transform="matrix(0.5745 -0.8185 0.8185 0.5745 -55.7959 371.7761)" class="st13" cx="329.68" cy="239.55" rx="10.77" ry="6.88"/>
<ellipse transform="matrix(0.9842 -0.1768 0.1768 0.9842 -34.6254 62.3074)" class="st15" cx="332.3" cy="225.44" rx="6.21" ry="3.97"/>
<ellipse transform="matrix(0.9842 -0.1768 0.1768 0.9842 -34.6237 62.3264)" class="st13" cx="332.4" cy="225.44" rx="4.72" ry="3.02"/>
<ellipse transform="matrix(0.0904 -0.9959 0.9959 0.0904 16.6826 488.7787)" class="st14" cx="275.92" cy="235.26" rx="6.12" ry="13.48"/>
<ellipse transform="matrix(0.9913 -0.1319 0.1319 0.9913 -30.3138 31.2676)" class="st14" cx="220.82" cy="244.41" rx="10.52" ry="3.5"/>
<ellipse class="st14" cx="227.32" cy="222.3" rx="8.6" ry="3.5"/>
<path class="st13" d="M237.71,183.28c0,0-7.78,18.38-3.83,24.51c3.95,6.13,7.74,7.13,7.74,7.13s-5.85-4.19-7.38-7.44
	C232.71,204.23,233.81,194.51,237.71,183.28z"/>
<ellipse transform="matrix(0.0904 -0.9959 0.9959 0.0904 15.3096 416.3704)" class="st13" cx="235.6" cy="199.8" rx="4.31" ry="1.91"/>
<ellipse transform="matrix(0.9885 -0.1511 0.1511 0.9885 -26.98 38.2244)" class="st13" cx="238.02" cy="196.63" rx="0.94" ry="1.91"/>
<ellipse transform="matrix(0.2743 -0.9617 0.9617 0.2743 -5.1169 364.7824)" class="st13" cx="239.13" cy="185.78" rx="2.72" ry="1.13"/>
<ellipse transform="matrix(0.9204 -0.3909 0.3909 0.9204 -149.909 107.4628)" class="st14" cx="189.04" cy="422" rx="2.58" ry="11.57"/>
<ellipse transform="matrix(0.4787 -0.878 0.878 0.4787 -195.1753 508.7938)" class="st14" cx="330.85" cy="418.75" rx="11.57" ry="2.58"/>
<ellipse transform="matrix(0.4596 -0.8881 0.8881 0.4596 -179.4549 521.8578)" class="st15" cx="339.08" cy="408.39" rx="6.5" ry="3.5"/>
<ellipse transform="matrix(0.4596 -0.8881 0.8881 0.4596 -179.4549 521.8578)" class="st13" cx="339.08" cy="408.39" rx="4.64" ry="2.5"/>
<ellipse transform="matrix(0.8669 -0.4985 0.4985 0.8669 -179.5719 147.0007)" class="st15" cx="185.48" cy="409.76" rx="3.5" ry="6.5"/>
<ellipse transform="matrix(0.8669 -0.4985 0.4985 0.8669 -179.5719 147.0007)" class="st13" cx="185.48" cy="409.76" rx="2.5" ry="4.64"/>
<ellipse transform="matrix(0.4596 -0.8881 0.8881 0.4596 -183.9288 516.9613)" class="st15" cx="332.82" cy="409.61" rx="4.35" ry="1.91"/>
<ellipse transform="matrix(0.4596 -0.8881 0.8881 0.4596 -183.9288 516.9613)" class="st13" cx="332.82" cy="409.61" rx="3.11" ry="1.37"/>
<path class="st24" d="M364.39,90.7c0,0,8.6-11.86,10.46-12.47c0,0-6.68,22.79-6.78,33.11s3.28,27.42,9.15,35.26
	c0,0-12.52-16.16-11.29-37.88c0.82-14.91,6.21-25.83,6.21-25.83S368.06,86.51,364.39,90.7z"/>
<ellipse transform="matrix(0.9984 -0.0562 0.0562 0.9984 -5.8905 20.6096)" class="st24" cx="363.66" cy="115.09" rx="2.38" ry="9.47"/>
<ellipse transform="matrix(0.1505 -0.9886 0.9886 0.1505 200.3668 446.8649)" class="st24" cx="360.2" cy="106.85" rx="5" ry="1.97"/>
<ellipse transform="matrix(0.1505 -0.9886 0.9886 0.1505 216.5595 442.8106)" class="st24" cx="365.94" cy="95.4" rx="5" ry="1.97"/>
<path class="st3" d="M346.81,180.9c-0.12,0.11-1.56,1.42-3.64,3.15c-0.02,0.02-0.03,0.03-0.04,0.04c0,0,0,0-0.01,0.01
	c-1.35,1.12-2.98,2.41-4.68,3.66c-1.58,1.16-3.23,2.28-4.81,3.18c-0.51,0.3-1.01,0.57-1.5,0.81c-0.01,0-0.01,0-0.01,0
	c-0.86,0.43-1.68,0.77-2.44,0.99c0,0,3.24-8.58-9.17-16.95c0,0-8.28,1.95-12.85,3.01c0.5-0.15,4.09-1.26,8.72-3.94c0,0,0,0,0.01,0
	c0,0,0.01,0,0.02-0.01c1.4-0.82,2.91-1.78,4.45-2.91c1.71-1.25,3.47-2.71,5.2-4.38c0,0,0-0.01,0-0.01
	c3.22-3.15,6.33-7.09,8.81-11.97c-0.1,0.34-3.53,11.35-7.55,14.43C323.22,173.13,337.93,187.21,346.81,180.9z"/>
<path class="st16" d="M346.81,180.9c-0.2,0.18-4.01,3.66-8.37,6.86l-17.59-15.83c4.92-3.6,10.21-8.87,14.01-16.36
	c-0.1,0.34-3.53,11.35-7.55,14.43C323.22,173.13,337.93,187.21,346.81,180.9z"/>
<path class="st7" d="M343.16,184.06l-0.03,0.03c0,0,0,0-0.01,0.01c-1.35,1.12-2.98,2.41-4.68,3.66c-1.58,1.16-3.23,2.28-4.81,3.18
	c0.98-0.63,2.13-1.59,2.35-2.74c0.41-2.1-13.58-14.25-15.42-14.35c-1.73-0.1-3.9,0.88-4.16,0.99c1.4-0.82,2.91-1.78,4.45-2.91
	c1.71-1.25,3.47-2.71,5.2-4.38c-0.11,0.19-1.82,3.26-3.14,4.12c-1.36,0.89,13.79,13.62,16.29,13.32
	C341.65,184.67,342.87,184.27,343.16,184.06z"/>
<path class="st16" d="M320.59,414.8c0.03-0.08,0.06-0.16,0.09-0.24C320.65,414.65,320.61,414.73,320.59,414.8z"/>
<path class="st16" d="M333.5,355.54c5.88-4.43,11.95-8.72,14.64-10.61c-6.6,4.99-11.23,13.97-11.23,13.97
	c-6.3,13.77,5.45,32.54,5.45,32.54c-1.93,0.02-5.1,1.32-8.07,2.59c-1.22,0.52-2.4,1.03-3.44,1.45c-3.27,1.3-9.1,16.26-10.17,19.06
	c8.62-23.23,12.53-53.48,10.17-53.48c-2.35,0-10.25,5.3-10.5,5.46C322.61,363.99,327.98,359.7,333.5,355.54z"/>
<path class="st16" d="M348.15,344.93c0.43-0.32,0.87-0.63,1.32-0.92C349.27,344.15,348.81,344.47,348.15,344.93z"/>
<path class="st3" d="M320.59,414.8c0.03-0.08,0.06-0.16,0.09-0.24C320.65,414.65,320.61,414.73,320.59,414.8z"/>
<path class="st3" d="M334.29,394.05c-1.22,0.52-2.4,1.03-3.44,1.45c-3.27,1.3-9.1,16.26-10.17,19.06
	c8.62-23.23,12.53-53.48,10.17-53.48c-2.35,0-10.25,5.3-10.5,5.46c2.27-2.55,7.63-6.83,13.16-10.99L334.29,394.05z"/>
<path class="st7" d="M330.08,358.16c0,0,10.44-7.85,7.73-5.81s-6.77,19.98-1.45,40.83l-4.11,1.74
	C332.25,394.92,336.09,353.21,330.08,358.16z"/>
<g>
	<g>
		<path class="st2" d="M195.94,356.76c-0.03,0-0.05,0-0.05,0v0C195.91,356.76,195.93,356.76,195.94,356.76z"/>
	</g>
	<g>
		<path class="st16" d="M236.3,483.63c0.06,0.46,0.12,0.91,0.18,1.37c-7.28-1.91-12.75-4.58-16.83-7.32
			c-3.24-2.18-5.6-4.39-7.28-6.3c-2.64-3.01-3.59-5.26-3.65-5.4c0,0,0-0.01,0-0.01c-4.42-37.69-14.37-64.94-22.44-68.13
			c-5.33-2.11-12.07-3.78-12.07-3.78c-5.1-1.12-9.82-1.94-9.82-1.94c-4.98-3.5-16.55-47.42-21.25-65.97
			c10.48,5.28,39.02,20.76,60.95,42.86c3.43,3.46,6.9,6.49,10.33,9.15c0.02,0.01,0.03,0.02,0.03,0.02
			c6.15,4.76,12.2,8.31,17.79,10.97c2.54,1.2,4.99,2.22,7.31,3.08c0.05,0.02,0.08,0.03,0.09,0.03c0,0,0,0,0,0
			s-13.61-1.55-29.1-12.25c3.13,3.4,6.85,9.24,9.28,19.06c4.03,16.31,7.75,24.27,14.01,66.91
			C234.61,471.29,235.43,477.15,236.3,483.63z"/>
		<path class="st3" d="M219.65,477.68c-3.24-2.18-5.6-4.39-7.28-6.3c-2.64-3.01-3.59-5.26-3.65-5.4c0,0,0-0.01,0-0.01
			c-4.42-37.69-14.37-64.94-22.44-68.13c-5.33-2.11-12.07-3.78-12.07-3.78c-5.1-1.12-9.82-1.94-9.82-1.94
			c-4.98-3.5-16.55-47.42-21.25-65.97c10.48,5.28,39.02,20.76,60.95,42.86c3.43,3.46,6.9,6.49,10.33,9.15
			c-0.58-0.31-9.87-5.23-12.51-7.24c-2.72-2.08-26-20.49-32.41-22.57c0.05,0.04,0.57,0.48,1.43,1.24
			c5.21,4.58,22.96,20.82,27.71,31.85c8.24,19.15,16.33,58.55,19.72,84.53c0.45,3.43,0.82,6.62,1.09,9.5
			C219.53,476.23,219.59,476.97,219.65,477.68z"/>
	</g>
	<path class="st7" d="M212.22,469.57c0.06,0.63,0.11,1.23,0.16,1.8c-2.64-3.01-3.59-5.26-3.65-5.4c0,0,0-0.01,0-0.01
		c-4.42-37.69-14.37-64.94-22.44-68.13c-5.33-2.11-12.07-3.78-12.07-3.78c-5.1-1.12-9.82-1.94-9.82-1.94
		c-4.98-3.5-16.55-47.42-21.25-65.97c10.48,5.28,39.02,20.76,60.95,42.86c3.43,3.46,6.9,6.49,10.33,9.15
		c0.02,0.01,0.03,0.02,0.03,0.02c6.15,4.76,12.2,8.31,17.79,10.97c-9.82-4.26-26.59-11.96-32.33-17.21
		c-4.32-3.96-17.15-13.78-28.98-22.34c-10.92-7.91-20.97-14.75-22.64-14.92c0,0,19.75,45.43,22.34,47.5
		c2.59,2.08,18.29-0.62,25.3,6.37c5.36,5.34,13.35,53.27,15.92,77.43C211.99,467.24,212.11,468.45,212.22,469.57z"/>
</g>
<path class="st13" d="M188.13,364.02c0,0,0.08,0.1,0.23,0.28c1.46,1.8,5.85,6.44,9.53,14.1s8.92,30.16,21.54,89.06
	c0,0-12.62-80.39-20.11-90.04C191.83,367.78,188.13,364.02,188.13,364.02z"/>
<ellipse transform="matrix(0.9692 -0.2461 0.2461 0.9692 -93.3508 64.4642)" class="st13" cx="211.23" cy="405.71" rx="4.04" ry="10.5"/>
<ellipse transform="matrix(0.9692 -0.2461 0.2461 0.9692 -100.6477 66.5361)" class="st13" cx="215.87" cy="435.94" rx="2.02" ry="5.25"/>
<path class="st24" d="M361.22,336.81c0,0,10.11-6.59,14.25-8.43c0,0-6.89,34.73-19.02,61.22c0,0-3.95,0.41-5.65,1.23
	c0,0,2.66-2.85,4.36-2.49c0,0,15.63-40.33,17.2-56.76C372.36,331.59,363.67,335.47,361.22,336.81z"/>
<ellipse transform="matrix(0.3164 -0.9486 0.9486 0.3164 -83.3569 582.5946)" class="st24" cx="362.56" cy="349.14" rx="9.76" ry="6.24"/>
<ellipse transform="matrix(0.3164 -0.9486 0.9486 0.3164 -101.177 592.5065)" class="st24" cx="360.53" cy="366.46" rx="4.65" ry="3.09"/>
<path class="st24" d="M273.58,394.01c0,0,15.42-2.25,24-8.96c0,0-7.76,6.77-9.5,7.69c-1.74,0.92,2.64,76.26,7.15,81.24
	c4.51,4.98,10.49-1.77,10.49-1.77s0.14,3.61-16.07,9.84c0,0,3.95-3.1,3.54-5.14s-7.97-81.71-12.56-81.92
	C276.03,394.78,273.58,394.01,273.58,394.01z"/>
<path class="st3" d="M156.32,91.82c-4.26-3.52-4.66-3.84-4.7-3.87c0.34,0.58,16.54,28.45,0.53,73.73
	c-3.69-4.62-7.19-9.61-10.44-15.01c4.38-6.3,10.05-16.7,10.25-30.06c0.02-1.44-0.01-3.36-0.41-7.2c-0.85-8.29-2.86-20.37-8.03-35.43
	c7.55,7.01,17.06,17.24,25.28,31.13C168.51,104.77,160.93,95.63,156.32,91.82z"/>
<path class="st7" d="M147.96,81.92c0,0,16.41,37.58-4.41,67.59c-0.61-0.95-1.2-1.92-1.8-2.9c4.38-6.3,10.05-16.7,10.25-30.06
	c0.02-1.44-0.01-3.36-0.41-7.2c-0.85-8.29-2.86-20.37-8.03-35.43c3.86,3.58,8.23,8.01,12.67,13.33
	C156.04,87.09,149.88,82.23,147.96,81.92z"/>
<path class="st12" d="M260.91,487.9v12.93c-38.57,0-56.49-11.03-54.99-17.71c1.5-6.67,6.45-11.68,6.45-11.68
	c1.68,1.91,4.04,4.13,7.28,6.3c4.08,2.74,9.55,5.41,16.83,7.32c6.53,1.72,14.51,2.83,24.24,2.83H260.91z"/>
<path class="st12" d="M260.84,487.9v12.93c38.57,0,56.49-11.03,54.99-17.71c-1.5-6.67-6.45-11.68-6.45-11.68
	c-1.68,1.91-4.04,4.13-7.28,6.3c-4.08,2.74-9.55,5.41-16.83,7.32c-6.53,1.72-14.51,2.83-24.24,2.83H260.84z"/>
<polygon class="st12" points="266.05,494.19 260.84,487.9 255.15,494.43 260.84,500.83 "/>
<path class="st12" d="M145.84,262.8c-1.56,11.54-9.23,27.98-18.42,25.26c-9.99-2.96-28.05,3.19-30.06,4.24
	c-2.01,1.05-9.26,5.59-12.61,1.86c-5.04-5.29-3.8-15.18-2.46-21.1c0.66-2.88,1.35-4.83,1.35-4.83l2.16-9.67
	c0,0,60.81-10.07,60.31,1.34C146.06,260.83,145.97,261.8,145.84,262.8z"/>
<path class="st9" d="M145.84,262.8L145.84,262.8c0,0-39.52-2.92-50.15-0.33c-5.53,1.35-10.2,6.23-13.41,10.59
	c0.66-2.88,1.35-4.83,1.35-4.83l2.16-9.67c0,0,60.81-10.07,60.31,1.34C146.06,260.83,145.97,261.8,145.84,262.8z"/>
<path class="st12" d="M155.87,247.29c0,0-15.24-26.49-48.39-34.08s-29.88,60.2-29.88,60.2s14.44-13.31,20.77-14.11
	c12.24-1.56,43.43-1.6,51.34,1.58C149.72,260.89,155.41,254.64,155.87,247.29z"/>
<path class="st19" d="M148.99,257.89c0,0-38.91-7.78-52.6-1.64c-13.69,6.14-16.88,12.01-16.88,12.01s7.42-13.95,16.32-17.11
	S136.45,251.21,148.99,257.89z"/>
<ellipse transform="matrix(0.5579 -0.8299 0.8299 0.5579 -135.0194 214.2266)" class="st19" cx="133.56" cy="233.84" rx="6" ry="9.39"/>
<ellipse transform="matrix(0.5587 -0.8294 0.8294 0.5587 -135.0007 213.972)" class="st13" cx="133.56" cy="233.84" rx="4.08" ry="6.38"/>
<ellipse transform="matrix(0.1592 -0.9873 0.9873 0.1592 -137.5758 338.2402)" class="st19" cx="129.78" cy="249.89" rx="3.39" ry="9.3"/>
<ellipse transform="matrix(0.1595 -0.9872 0.9872 0.1595 -137.6083 338.1417)" class="st13" cx="129.78" cy="249.89" rx="2.31" ry="6.32"/>
<path class="st19" d="M138.86,276.52c0,0-3.24,8.59-7.38,9.04c-4.14,0.44-7.14-1.2-15.71-0.2s-19.22,4.41-23.23,7.33
	c-4.01,2.92-6.94-0.77-9.19-5.75c0,0,3.73,4.06,6.37,3.28c2.64-0.79,19.76-8.67,40.81-7.78
	C130.53,282.43,132.33,284.03,138.86,276.52z"/>
<ellipse transform="matrix(0.9962 -0.0867 0.0867 0.9962 -23.8441 11.4706)" class="st19" cx="120.14" cy="280.25" rx="9.3" ry="3.39"/>
<ellipse transform="matrix(0.9963 -0.0863 0.0863 0.9963 -23.7452 11.4176)" class="st13" cx="120.14" cy="280.25" rx="6.32" ry="2.31"/>
<path class="st8" d="M123.25,316.13c-1.21,8.45-2.5,17.92-3.62,27.02c-0.11-0.03-2.05-0.46-2.86-0.26c0,0,3.76-21.83,3.17-23.61
	c-0.55-1.69-20.17-1.67-22.38-1.66c0.06-0.91,0.12-1.82,0.18-2.72C99.09,314.87,110.08,314.74,123.25,316.13z"/>
<path class="st8" d="M116.9,369.69c-13.38,1.71-21.15-3.08-21.15-3.08c-0.01-0.47-0.01-0.99-0.01-1.53c6.1,2.64,18.48,3.7,18.48,3.7
	s4.16-20.96,1.83-21.65c-2.18-0.64-17.91,0.23-19.96,0.35c0.05-1.34,0.1-2.72,0.15-4.12l0,0c9.23-0.91,21.26,0.48,23.27,0.73
	C118.35,353.61,117.38,362.67,116.9,369.69z"/>
<ellipse transform="matrix(0.2549 -0.967 0.967 0.2549 -222.9249 351.3108)" class="st13" cx="116.5" cy="320.31" rx="2.46" ry="4.04"/>
<ellipse transform="matrix(0.2549 -0.967 0.967 0.2549 -192.7872 333.8161)" class="st13" cx="120.22" cy="292.01" rx="2.46" ry="4.04"/>
<ellipse transform="matrix(0.2549 -0.967 0.967 0.2549 -251.8894 368.7577)" class="st13" cx="113.34" cy="347.83" rx="2.46" ry="4.04"/>
<path class="st12" d="M119.92,442.18c0,0-17.92,14.39-41.77-0.81c0,0-2.38-64.12,0.63-79.23c0,0,36.32,11.17,45.58,6.33
	C124.36,368.47,125.15,418.45,119.92,442.18z"/>
<ellipse transform="matrix(0.1592 -0.9873 0.9873 0.1592 -281.3297 423.6575)" class="st19" cx="108.05" cy="376.99" rx="3.39" ry="9.3"/>
<ellipse transform="matrix(0.1595 -0.9872 0.9872 0.1595 -281.3468 423.5141)" class="st13" cx="108.05" cy="376.99" rx="2.31" ry="6.32"/>
<path class="st19" d="M80.61,364.63c0,0,25.73,9.54,41.11,6.55c0,0,0.39,22.08-0.56,32.55c0,0-0.55-26.73-2.95-28.53
	C118.21,375.2,92.79,372.78,80.61,364.63z"/>
<path class="st11" d="M78.29,252.56c0,0-1.17-5.7-0.78-12.58c0.26-4.61,1.21-9.75,3.68-14.08c1.93-3.39,4.8-6.27,9-8
	C95.07,232.37,86.41,247.14,78.29,252.56z"/>
<path class="st11" d="M77.9,433.53c0,0-3.44-9.14-5.39-23.79c0-0.02,0-0.03,0-0.04c0-0.01-0.01-0.02-0.01-0.03l0,0
	c-1.18-8.9-1.81-19.84-0.79-32c0,0,0,0,0-0.01c0.7-8.32,2.18-17.2,4.78-26.4C83.48,372.05,85.9,402.55,77.9,433.53z"/>
<path class="st14" d="M77.9,433.53c0,0-3.44-9.14-5.39-23.79c0.14,0.97,1.74,11.34,5.14,11.78c3.56,0.46,0.66-52.46-0.87-59.02
	c-1.51-6.46-4.97,14.57-5.07,15.16c0.7-8.32,2.18-17.2,4.78-26.4C83.48,372.05,85.9,402.55,77.9,433.53z"/>
<path class="st14" d="M78.29,252.56c0,0-1.17-5.7-0.78-12.58c0,0,0.82,8.44,2.49,7.07c1.66-1.36,8.97-5.01,8.63-25.04
	c0,0-0.9-1.51-7.44,3.89c1.93-3.39,4.8-6.27,9-8C95.07,232.37,86.41,247.14,78.29,252.56z"/>
<ellipse transform="matrix(0.2116 -0.9773 0.9773 0.2116 -156.6536 264.762)" class="st14" cx="85.79" cy="229.48" rx="7.07" ry="2.09"/>
<ellipse transform="matrix(0.9987 -0.0509 0.0509 0.9987 -18.9962 4.3661)" class="st14" cx="76.18" cy="374.95" rx="2.09" ry="7.07"/>
<ellipse transform="matrix(0.9987 -0.0509 0.0509 0.9987 -19.6401 4.4637)" class="st14" cx="77.77" cy="387.63" rx="1.4" ry="4.39"/>
<path class="st15" d="M74.44,363.03c0,0,2.33-5.89,3.69,0.08s3.54,22.06,3.71,24.64c0,0-0.82-24.84-5.03-30.46
	C76.81,357.29,76.11,357.55,74.44,363.03z"/>
<ellipse transform="matrix(0.9893 -0.1459 0.1459 0.9893 -53.4404 15.3453)" class="st15" cx="77.89" cy="371.97" rx="2.15" ry="3.36"/>
<ellipse transform="matrix(0.9893 -0.1459 0.1459 0.9893 -53.4319 15.3449)" class="st13" cx="77.89" cy="371.92" rx="1.63" ry="2.56"/>
<ellipse transform="matrix(0.9893 -0.1459 0.1459 0.9893 -52.3569 15.2156)" class="st15" cx="77.55" cy="364.52" rx="1.08" ry="2.93"/>
<ellipse transform="matrix(0.9893 -0.1459 0.1459 0.9893 -52.3496 15.2148)" class="st13" cx="77.54" cy="364.47" rx="0.82" ry="2.23"/>
<path class="st15" d="M84.52,222.71c0,0,3.39-3.04,5.11-1.48s-0.67,14.76-0.67,14.76s3.26-5.96,1.33-16.39
	C90.29,219.6,88.45,218.38,84.52,222.71z"/>
<ellipse transform="matrix(0.0967 -0.9953 0.9953 0.0967 -145.3561 292.109)" class="st15" cx="88.26" cy="226.14" rx="3.36" ry="2.15"/>
<ellipse transform="matrix(0.0967 -0.9953 0.9953 0.0967 -145.2862 292.0741)" class="st13" cx="88.27" cy="226.08" rx="2.56" ry="1.63"/>
<path class="st0" d="M424.55,484.59c0,0-2.38,0.49-4.69-1.69c-2.32-2.18,11.98-41.98,11.48-40.02c-0.51,1.96,5.49,42.37,5.09,42.48
	C436.02,485.46,424.55,484.59,424.55,484.59z"/>
<path class="st1" d="M437.62,492.49c0,0-1.43,3.82-2.9,4.23c-1.47,0.41-13.33-1.52-13.29-4.74s9.31-36.81,6.15-50.47
	c-3.15-13.66,11.3,41.64,11.3,41.64L437.62,492.49z"/>
<path class="st2" d="M404.79,468.38c0.39,0.37,0.99,0.64,1.72,0.81c2.94,0.67,7.96-0.31,9.82-2.71c0.58-0.75,0.85-1.64,0.65-2.66
	c-0.73-3.75-3.36-20.69-0.36-24.44c0.69-0.85,1.66-1.02,3.02-0.19c0.37,0.23,0.78,0.53,1.21,0.92c0.17,0.16,0.35,0.33,0.54,0.51
	c0.28,0.27,0.57,0.58,0.87,0.91c0.71,0.79,1.33,1.67,1.88,2.64c0.85,1.48,1.52,3.14,2.05,4.93c0.48,1.62,0.83,3.33,1.09,5.13
	c0.17,1.16,0.3,2.35,0.39,3.56l0,0c0.73,9.57-0.78,20.28-1.79,26.88c-0.47,3.06-0.82,5.24-0.8,6c0.07,2.03,4.24,3.9,8.71,3.59
	c1.13-0.08,2.27-0.3,3.37-0.68c2.14-0.75,4.11-2.15,5.47-4.43c0.29-0.49,0.55-1.11,0.76-1.84c3.45-11.43-1.33-50.42-1.33-50.42
	s-7.54-1.6-15.54-2.96c-0.71-0.12-1.43-0.24-2.15-0.36c-3.58-0.58-7.13-1.08-10.02-1.34c-0.98-0.09-1.89-0.15-2.7-0.17
	c-1.4-0.05-2.49,0.02-3.14,0.22c0,0,0,0,0,0c-0.17,0.06-0.31,0.12-0.42,0.19c-0.07,0.05-0.14,0.1-0.21,0.15
	c-1.44,1.08-2.93,3.12-4.28,5.34c-0.36,0.59-0.71,1.19-1.05,1.79c-1.07,1.88-2.02,3.75-2.77,5.16
	C397.84,448.58,402.32,466.02,404.79,468.38z"/>
<path class="st3" d="M421.39,440.62c0.28,0.27,0.57,0.58,0.87,0.91c0.71,0.79,1.33,1.67,1.88,2.64c0.85,1.48,1.52,3.14,2.05,4.93
	c0,0,0.84-0.11,2.06-0.3c0.3-0.04,0.62-0.09,0.95-0.15c0.18-0.03,0.37-0.06,0.56-0.09c0.63-0.11,1.31-0.22,1.99-0.34
	c2.41-0.44,4.87-0.98,5.63-1.47c0.86-0.56,0.41,13-0.91,27.09l0,0c-0.19,2-0.39,4-0.61,5.98c-0.21,1.86-0.43,3.69-0.66,5.47
	c-0.43,3.24-0.9,6.28-1.4,8.95c1.13-0.08,2.27-0.3,3.37-0.68c2.14-0.75,4.11-2.15,5.47-4.43c0.29-0.49,0.55-1.11,0.76-1.84
	c3.45-11.43-1.33-50.42-1.33-50.42s-7.54-1.6-15.54-2.96L421.39,440.62z"/>
<path class="st4" d="M417.91,434.71l1.73,4.48c0.52,0.32,1.1,0.79,1.75,1.43c0.28,0.27,0.57,0.58,0.87,0.91
	c0.71,0.79,1.33,1.67,1.88,2.64c1.04-0.23,2.35-0.53,3.78-0.88c0.13-0.03,0.25-0.06,0.37-0.09c4.67-1.14,10.54-2.71,12.9-3.96
	c0,0,3.27,30.11,2.2,48.07c3.45-11.43-1.33-50.42-1.33-50.42s-7.54-1.6-15.54-2.96c-0.71-0.12-1.43-0.24-2.15-0.36
	C420.54,434.25,417.91,434.71,417.91,434.71z"/>
<path class="st3" d="M406.51,469.19c3.86,0.88,11.3-1.09,10.47-5.37c-0.73-3.75-3.36-20.69-0.36-24.44
	c-1.05-3.3-1.91-6.03-2.26-7.15c-0.11-0.36-0.17-0.55-0.17-0.55l-2.52,0.38l-3.77,0.56c-1.83,1.37-3.71,4.27-5.34,7.13
	c0,0,6.72,4.85,8.71,4.87c0,0,1.17,17.13,2.18,20.25C414.1,466.93,410.11,468.37,406.51,469.19z"/>
<path class="st4" d="M414.44,442.84c0,0,0.1,21.9,1.88,23.64l0,0c0.58-0.75,0.85-1.64,0.65-2.66c-0.73-3.75-3.36-20.69-0.36-24.44
	c0.69-0.85,1.66-1.02,3.02-0.19c0.37,0.23,0.78,0.53,1.21,0.92c0.04-3.06,0.05-5.19,0.02-5.24c-0.08-0.13-7.49-1.62-12.35-2.59
	c0,0,0,0,0,0c-0.17,0.06-0.31,0.12-0.42,0.19c-0.07,0.05-0.14,0.1-0.21,0.15c-1.44,1.08-2.93,3.12-4.28,5.34
	C406.16,439.23,413.59,442.87,414.44,442.84z"/>
<path class="st5" d="M446.05,345.88c0,0-4.45,6.69-5.88,15.1c-1.43,8.4,9.05,4.79,9.05,4.79L446.05,345.88z"/>
<path class="st6" d="M443.76,356.76c0,0-27.53,1.76-45.58,6.33l23.46,13.22L443.76,356.76z"/>
<path class="st7" d="M395.14,282.96c0,0,1.74,11.03,3.83,25.59c0.1,0.72,0.21,1.46,0.31,2.19c1.21,8.45,2.5,17.92,3.62,27.02
	c0.04,0.31,0.08,0.63,0.12,0.94c1.16,9.52,2.13,18.59,2.61,25.6c0.2,2.95,0.31,5.53,0.32,7.64c0.05,20.91,20.28,1.9,20.77-8.49
	c0.03-0.62,0.05-1.36,0.06-2.23c0.01-0.47,0.01-0.99,0.01-1.53c0.02-4.22-0.11-10.45-0.35-17.6c-0.05-1.34-0.1-2.72-0.15-4.12
	c-0.32-8.19-0.77-17.25-1.32-25.75c-0.06-0.91-0.12-1.82-0.18-2.72c-0.55-8.06-1.2-15.45-1.91-20.91c-0.09-0.7-0.18-1.37-0.27-2
	c-0.68-4.61-2.72-7.16-5.42-8.37c-5.35-2.41-13.25,0.42-18,2.63C396.75,281.99,395.14,282.96,395.14,282.96z"/>
<path class="st8" d="M395.14,282.96c0,0,1.74,11.03,3.83,25.59c1.15-0.61,2.88-0.26,2.88-0.26c-0.2-2.92-2.92-22.74-2.92-22.74
	c5.24-2.12,23.96,3.05,23.96,3.05c-0.09-0.7-0.18-1.37-0.27-2c-0.68-4.61-2.72-7.16-5.42-8.37l-18,2.63
	C396.75,281.99,395.14,282.96,395.14,282.96z"/>
<path class="st6" d="M444.93,268.04c0,0-3.39-0.1-8.02-1.37c-4.63-1.27,4.22-6.96,4.22-6.96L444.93,268.04z"/>
<path class="st12" d="M376.7,257.42c1.56,11.54,9.23,27.98,18.42,25.26c9.99-2.96,28.05,3.19,30.06,4.24
	c2.01,1.05,9.26,5.59,12.61,1.86c5.04-5.29,3.8-15.18,2.46-21.1c-0.66-2.88-1.35-4.83-1.35-4.83l-2.16-9.67
	c0,0-60.81-10.07-60.31,1.34C376.47,255.45,376.57,256.42,376.7,257.42z"/>
<path class="st9" d="M376.7,257.42L376.7,257.42c0,0,39.52-2.92,50.15-0.33c5.53,1.35,10.2,6.23,13.41,10.59
	c-0.66-2.88-1.35-4.83-1.35-4.83l-2.16-9.67c0,0-60.81-10.07-60.31,1.34C376.47,255.45,376.57,256.42,376.7,257.42z"/>
<path class="st12" d="M366.66,241.91c0,0,15.24-26.49,48.39-34.08s29.88,60.2,29.88,60.2s-14.44-13.31-20.77-14.11
	c-12.24-1.56-43.43-1.6-51.34,1.58C372.82,255.51,367.12,249.25,366.66,241.91z"/>
<path class="st19" d="M373.54,252.51c0,0,38.91-7.78,52.6-1.64c13.69,6.14,16.88,12.01,16.88,12.01s-7.42-13.95-16.32-17.11
	C417.8,242.6,386.08,245.83,373.54,252.51z"/>
<path class="st19" d="M383.67,271.14c0,0,3.24,8.59,7.38,9.04s7.14-1.2,15.71-0.2c8.57,1,19.22,4.41,23.23,7.33
	c4.01,2.92,6.94-0.77,9.19-5.75c0,0-3.73,4.06-6.37,3.28c-2.64-0.79-19.76-8.67-40.81-7.78
	C392.01,277.05,390.2,278.65,383.67,271.14z"/>
<path class="st8" d="M399.28,310.74c1.21,8.45,2.5,17.92,3.62,27.02c0.11-0.03,2.05-0.45,2.86-0.26c0,0-3.76-21.83-3.17-23.61
	c0.55-1.69,20.17-1.67,22.38-1.66c-0.06-0.91-0.12-1.82-0.18-2.72C423.44,309.49,412.45,309.35,399.28,310.74z"/>
<path class="st8" d="M405.63,364.3c13.38,1.71,21.15-3.08,21.15-3.08c0.01-0.47,0.01-0.99,0.01-1.53c-6.1,2.64-18.48,3.7-18.48,3.7
	s-4.16-20.96-1.83-21.65c2.18-0.64,17.91,0.23,19.96,0.35c-0.05-1.34-0.1-2.72-0.15-4.12l0,0c-9.23-0.91-21.26,0.48-23.27,0.73
	C404.19,348.22,405.16,357.29,405.63,364.3z"/>
<path class="st12" d="M402.61,436.8c0,0,17.92,14.39,41.77-0.81c0,0,2.38-64.12-0.63-79.23c0,0-36.32,11.17-45.58,6.33
	C398.18,363.09,397.38,413.07,402.61,436.8z"/>
<ellipse transform="matrix(0.9873 -0.1592 0.1592 0.9873 -53.8601 70.7054)" class="st19" cx="414.49" cy="371.6" rx="9.3" ry="3.39"/>
<ellipse transform="matrix(0.9872 -0.1595 0.1595 0.9872 -53.9709 70.8779)" class="st13" cx="414.49" cy="371.6" rx="6.32" ry="2.31"/>
<path class="st19" d="M441.93,359.25c0,0-25.73,9.54-41.11,6.55c0,0-0.39,22.08,0.56,32.55c0,0,0.55-26.73,2.95-28.53
	C404.33,369.82,429.75,367.4,441.93,359.25z"/>
<path class="st11" d="M444.24,247.18c0,0,1.17-5.7,0.78-12.58c-0.26-4.61-1.21-9.75-3.68-14.08c-1.93-3.39-4.8-6.27-9-8
	C427.46,226.99,436.13,241.75,444.24,247.18z"/>
<path class="st11" d="M444.64,428.15c0,0,3.44-9.14,5.39-23.79c0-0.02,0-0.03,0-0.04c0-0.01,0.01-0.02,0.01-0.03l0,0
	c1.18-8.9,1.81-19.84,0.79-32c0,0,0,0,0-0.01c-0.7-8.32-2.18-17.2-4.78-26.4C439.06,366.66,436.64,397.17,444.64,428.15z"/>
<path class="st14" d="M444.64,428.15c0,0,3.44-9.14,5.39-23.79c-0.14,0.97-1.74,11.34-5.14,11.78c-3.56,0.46-0.66-52.46,0.87-59.02
	c1.51-6.46,4.97,14.57,5.07,15.16c-0.7-8.32-2.18-17.2-4.78-26.4C439.06,366.66,436.64,397.17,444.64,428.15z"/>
<path class="st14" d="M444.24,247.18c0,0,1.17-5.7,0.78-12.58c0,0-0.82,8.44-2.49,7.07c-1.66-1.36-8.97-5.01-8.63-25.04
	c0,0,0.9-1.51,7.44,3.89c-1.93-3.39-4.8-6.27-9-8C427.46,226.99,436.13,241.75,444.24,247.18z"/>
<ellipse transform="matrix(0.9773 -0.2116 0.2116 0.9773 -37.5346 97.5068)" class="st14" cx="436.75" cy="224.1" rx="2.09" ry="7.07"/>
<ellipse transform="matrix(0.0509 -0.9987 0.9987 0.0509 54.5417 796.5197)" class="st14" cx="446.36" cy="369.56" rx="7.07" ry="2.09"/>
<ellipse transform="matrix(0.0509 -0.9987 0.9987 0.0509 40.3621 806.9678)" class="st14" cx="444.76" cy="382.25" rx="4.39" ry="1.4"/>
<path class="st15" d="M448.09,357.65c0,0-2.33-5.89-3.69,0.08c-1.36,5.97-3.54,22.06-3.71,24.64c0,0,0.82-24.84,5.03-30.46
	C445.73,351.91,446.43,352.17,448.09,357.65z"/>
<ellipse transform="matrix(0.1459 -0.9893 0.9893 0.1459 17.103 752.9911)" class="st15" cx="444.65" cy="366.59" rx="3.36" ry="2.15"/>
<ellipse transform="matrix(0.1459 -0.9893 0.9893 0.1459 17.1589 752.9396)" class="st13" cx="444.65" cy="366.53" rx="2.56" ry="1.63"/>
<ellipse transform="matrix(0.1459 -0.9893 0.9893 0.1459 24.7646 746.9668)" class="st15" cx="444.99" cy="359.14" rx="2.93" ry="1.08"/>
<ellipse transform="matrix(0.1459 -0.9893 0.9893 0.1459 24.816 746.9261)" class="st13" cx="444.99" cy="359.09" rx="2.23" ry="0.82"/>
<path class="st15" d="M438.02,217.33c0,0-3.39-3.04-5.11-1.48c-1.72,1.55,0.67,14.76,0.67,14.76s-3.26-5.96-1.33-16.39
	C432.25,214.21,434.09,213,438.02,217.33z"/>
<ellipse transform="matrix(0.9953 -0.0967 0.0967 0.9953 -19.3164 43.0409)" class="st15" cx="434.28" cy="220.75" rx="2.15" ry="3.36"/>
<ellipse transform="matrix(0.9953 -0.0967 0.0967 0.9953 -19.3111 43.0391)" class="st13" cx="434.26" cy="220.7" rx="1.63" ry="2.56"/>
<path class="st4" d="M141.38,434.52L141.38,434.52z"/>
<ellipse transform="matrix(0.9619 -0.2735 0.2735 0.9619 -43.2511 127.7337)" class="st15" cx="436.47" cy="218.98" rx="0.72" ry="1.69"/>
<ellipse transform="matrix(0.9619 -0.2735 0.2735 0.9619 -43.2442 127.7296)" class="st13" cx="436.46" cy="218.95" rx="0.55" ry="1.29"/>
</svg>
