<?xml version="1.0" encoding="utf-8"?>
<!-- Generator: Adobe Illustrator 27.3.1, SVG Export Plug-In . SVG Version: 6.00 Build 0)  -->
<svg version="1.1" id="Camada_1" xmlns="http://www.w3.org/2000/svg" xmlns:xlink="http://www.w3.org/1999/xlink" x="0px" y="0px"
	 viewBox="0 0 780 512" style="enable-background:new 0 0 780 512;" xml:space="preserve">
<style type="text/css">
	.st0{fill:#B55B9D;}
	.st1{fill:#914381;}
	.st2{fill:#54BFD9;}
	.st3{fill:#1F6DAF;}
	.st4{fill:#664211;stroke:#000000;stroke-width:8;stroke-miterlimit:10;}
	.st5{fill:#492D0B;stroke:#000000;stroke-width:8;stroke-miterlimit:10;}
	.st6{fill:#1658A5;stroke:#000000;stroke-width:8;stroke-miterlimit:10;}
	.st7{fill:#EAEFF1;stroke:#000000;stroke-width:8;stroke-miterlimit:10;}
	.st8{fill:#1D63AA;stroke:#000000;stroke-width:8;stroke-miterlimit:10;}
	.st9{fill:#131F32;stroke:#000000;stroke-width:8;stroke-miterlimit:10;}
	.st10{fill:#D6DDE2;stroke:#000000;stroke-width:8;stroke-miterlimit:10;}
	.st11{fill:#2092C1;stroke:#000000;stroke-width:8;stroke-miterlimit:10;}
	.st12{fill:#1B2941;stroke:#000000;stroke-width:8;stroke-miterlimit:10;}
	.st13{fill:#0F1219;stroke:#000000;stroke-width:8;stroke-miterlimit:10;}
	.st14{fill:#B1BCC3;stroke:#000000;stroke-width:8;stroke-miterlimit:10;}
	.st15{fill:#9CA7AF;stroke:#000000;stroke-width:8;stroke-miterlimit:10;}
	.st16{fill:#BEC9D0;stroke:#000000;stroke-width:8;stroke-miterlimit:10;}
	.st17{fill:#54BFD9;stroke:#000000;stroke-width:8;stroke-miterlimit:10;}
	.st18{fill:#0D1829;stroke:#000000;stroke-width:8;stroke-miterlimit:10;}
	.st19{fill:#F0F2F4;stroke:#000000;stroke-width:8;stroke-miterlimit:10;}
	.st20{fill:#664211;}
	.st21{fill:#492D0B;}
	.st22{fill:#1658A5;}
	.st23{fill:#EAEFF1;}
	.st24{fill:#1D63AA;}
	.st25{fill:#131F32;}
	.st26{fill:#D6DDE2;}
	.st27{fill:#2092C1;}
	.st28{fill:#1B2941;}
	.st29{fill:#0F1219;}
	.st30{fill:#B1BCC3;}
	.st31{fill:#9CA7AF;}
	.st32{fill:#BEC9D0;}
	.st33{fill:#0D1829;}
	.st34{fill:#F0F2F4;}
</style>
<polygon class="st0" points="780,175.84 780,512.01 0.01,512.01 0.01,291.07 172.68,265.56 210.59,259.96 210.73,259.94 
	269.06,251.32 269.08,251.32 288.22,248.5 535.61,211.95 535.62,211.95 543.18,210.83 543.23,210.83 571.71,206.61 571.73,206.61 
	591.69,203.66 615.86,200.09 "/>
<polygon class="st1" points="779.99,-1.72 779.99,211.52 0,314.88 0,-1.72 "/>
<path class="st2" d="M599.59,328.35H190.38c-13.82,0-25.02-11.2-25.02-25.02V99.33c0-13.82,11.2-25.02,25.02-25.02h409.21
	c13.82,0,25.02,11.2,25.02,25.02v203.99C624.61,317.14,613.41,328.35,599.59,328.35z"/>
<path class="st3" d="M290.92,224.03c-2.48-0.15-3.78-1.36-4.46-2.71c-0.67-1.33-1.1-2.83-0.96-4.22c0.3-3.05,1.38-6.08,1.47-9.13
	c0.1-3.7-0.33-7.43-3.29-10.75c-0.11-0.13-0.28-0.23-0.41-0.34c-1.88,0.21-3.29,0.73-4.01,2c-2,3.53-4.15,7.02-6.08,10.57
	c-0.78,1.43-1.87,2.62-3.82,3.34c-0.62,0.23-1.57,0.22-2.27,0.09c-0.33-0.06-0.71-0.7-0.61-1.01c0.31-0.99,0.72-1.97,1.29-2.9
	c0.82-1.33,1.9-2.58,2.71-3.91c1.12-1.84,2.12-3.71,3.1-5.59c0.35-0.67,0.46-1.4,0.69-2.11c0.26-0.81-0.2-1.47-1.35-1.53
	c-1.05-0.05-2.27,0.14-2.7,1.04c-0.51,1.09-0.99,2.19-1.56,3.27c-0.3,0.56-0.64,1.14-1.17,1.61c-1.06,0.92-2.8,0.72-3.66-0.3
	c-1.27-1.51-1.46-3.12-0.99-4.77c0.72-2.52,1.37-5.03,0.64-7.63c-0.17-0.61,0.49-1.34,0.88-2.26c-0.8-0.34-1.85-0.84-2.96-1.26
	c-1.29-0.49-1.44-1.06-0.33-1.76c0.58-0.37,1.13-0.77,1.79-1.05c1.77-0.75,1.95-1.97,1.49-3.04c-0.49-1.13-1.02-2.39-3.31-2.76
	c-3.6-0.59-6.97-0.65-10.15,0.88c-1.66,0.8-3.51,1.41-5.14,2.23c-2.44,1.23-5.21,1.84-8.14,2.07c-2.2,0.17-4.5,0.07-5.79-1.44
	c-0.46-0.54-0.59-1.29-0.52-1.93c0.15-1.52,2.39-3.15,4.53-3.55c4.78-0.9,9.58-1.77,14.31-2.78c0.91-0.2,1.8-0.89,2.27-1.51
	c0.81-1.06,1.38-2.21,1.87-3.36c0.47-1.1-0.56-1.47-2.01-1.56c-2.97-0.19-2.88-0.21-2.8-2.26c0.07-1.86-0.54-3.49-3.21-4.56
	c-4.47-1.8-8.86-3.65-13.96-4.6c-1.41-0.26-2.74-0.89-3.9-1.52c-0.52-0.28-0.78-1.01-0.7-1.5c0.1-0.59,0.72-1.18,1.86-1.03
	c2.58,0.34,5.21,0.58,7.69,1.13c2.88,0.65,5.6,1.62,8.43,2.38c1.86,0.5,5.51-0.28,6.66-1.42c1.28-1.25,2.44-2.57,3.82-4.04
	c1.25,0.27,2.72,0.61,4.21,0.88c0.59,0.11,1.53,0.22,1.79,0.02c0.38-0.3,0.47-0.88,0.38-1.32c-0.55-2.89-2.54-5.25-5.41-7.45
	c-3.27-2.52-6.16-5.29-8.88-8.1c-2.32-2.4-5.27-4.35-8.66-5.9c-3.96-1.81-7.19-4.04-10.26-6.45c-0.7-0.55-1.68-0.98-2.64-1.33
	c-1.34-0.48-2.83-0.77-4.15-1.27c-2.16-0.81-2.89-2.36-3.56-3.79c-0.95-2.04-2.72-3.53-5.12-4.83c-1.8-0.98-3.4-2.13-5.02-3.26
	c-1.47-1.03-1.97-3.9,0.67-4.69c1.23-0.37,3.6-0.28,4.68,0.49c3.2,2.26,6.27,4.61,9.51,6.84c1.15,0.79,2.53,1.67,4.03,1.93
	c3.63,0.63,5.34,2.5,6.81,4.44c1.11,1.46,2.34,2.74,4.14,3.84c1.87,1.15,3.65,2.43,4.28,4.18c0.97,2.69,3.04,4.9,6.09,6.73
	c1.35,0.81,2.65,1.69,3.75,2.65c4.09,3.57,9.47,6.09,14.92,8.56c2.86,1.3,7.01,0.97,9.22-0.77c1.09-0.86,1.13-1.79,0.55-2.79
	c-2.16-3.74-4.34-7.47-6.47-11.22c-0.34-0.59-1.19-1.41,0.19-1.76c1.31-0.33,1.78,0.63,2.23,1.24c0.71,0.99,1.13,2.08,1.92,3.03
	c0.68,0.82,1.6,1.57,2.6,2.23c1.9,1.25,3.92,2.43,5.92,3.61c0.61,0.36,1.34,0.64,2.28,1.07c0.17-0.64,0.37-1.03,0.37-1.42
	c0-0.8-0.18-1.61-0.14-2.41c0.09-1.71,0.17-3.42,0.44-5.12c0.29-1.84-0.18-3.57-0.99-5.31c-0.76-1.64-1.54-3.28-2.12-4.95
	c-0.19-0.54,0.01-1.23,0.37-1.75c0.98-1.41,2.66-1.53,4.03-0.28c1.78,1.63,2.54,3.56,2.27,5.52c-0.35,2.5,0.23,4.92,1.19,7.27
	c0.92,2.24,2.31,4.39,3.59,6.55c0.67,1.12,1.98,1.43,3.49,0.72c1.83-0.87,3.57-1.87,5.12-2.96c1.36-0.95,2.42-2.09,3.59-3.16
	c0.71-0.64,1.53-0.96,2.75-0.67c2.45,0.58,3.32,0.29,4.33-1.32c2.15-3.45,3.57-7.01,3.96-10.76c0.04-0.43,0.23-0.97,0.65-1.24
	c0.54-0.35,1.39-0.63,2.11-0.63c0.33,0,0.99,0.77,0.93,1.15c-0.36,2.46-0.7,4.94-1.4,7.36c-0.82,2.85-2.95,5.34-5.29,7.77
	c-0.78,0.81-1.18,1.84-1.42,2.81c-0.25,0.99,0.95,1.62,2.11,1.84c1.56,0.3,3.29,0.72,4.81-0.23c2.03-1.27,3.26-2.83,3.71-4.66
	c0.31-1.25,1.42-1.74,3.15-1.76c1.11-0.01,2.28-0.13,3.32,0.06c1.34,0.24,1.46,0.85,0.46,1.51c-0.72,0.48-1.54,0.9-2.25,1.39
	c-2.28,1.55-2.53,3.64-2.91,5.62c-0.49,2.5-0.59,5.04-0.92,7.55c-0.31,2.42,1.08,3,4,2.79c1.45-0.1,2.91-0.36,4.26-0.72
	c2.08-0.55,2.54-1.43,1.8-2.87c-0.24-0.46-0.42-0.95-0.49-1.44c-0.03-0.21,0.2-0.57,0.45-0.64c0.25-0.06,0.82,0.09,0.97,0.26
	c1.98,2.23,3.37,2.1,6.11,0.02c3.78-2.87,8.69-4.46,13.72-5.94c6.59-1.94,12.47-4.55,17.71-7.92c2.37-1.52,5.29-2.83,8.3-3.68
	c7.13-2.02,13.56-4.69,19.33-8.14c6.27-3.75,13.33-6.68,20.65-9.36c5.12-1.88,9.62-4.27,13.61-7.14c0.79-0.57,1.82-1.03,2.86-1.37
	c1.82-0.58,2.83-0.35,3.58,0.6c0.76,0.96,0.28,2.13-1.2,2.77c-1.43,0.62-2.96,1.13-4.33,1.8c-4.99,2.44-9.97,4.89-14.86,7.42
	c-6.38,3.3-12.57,6.76-19.04,9.96c-2.37,1.17-5.25,1.94-8.02,2.65c-4.99,1.28-9.7,2.91-14.17,4.87c-1.17,0.51-1.98,0.98-0.54,1.82
	c0.21,0.12,0.39,0.5,0.29,0.59c-0.22,0.17-0.63,0.27-0.98,0.3c-0.32,0.03-0.8,0.01-0.97-0.12c-2.61-2.01-4.78-0.22-6.63,0.56
	c-11.4,4.82-21.57,10.74-31.71,16.66c-2.01,1.17-4.19,1.99-6.73,2.51c-1.58,0.32-3.06,1-4.38,1.7c-0.6,0.32-1.22,1.33-0.95,1.57
	c0.78,0.68,1.9,1.32,3.09,1.63c2.24,0.58,4.58,1.08,6.94,1.29c1.95,0.17,4-0.08,5.98-0.27c1.49-0.14,2.93-0.54,4.42-0.7
	c0.45-0.05,1,0.3,1.5,0.46c-0.4,0.25-0.75,0.57-1.22,0.72c-1.08,0.35-2.22,0.62-3.34,0.92c0.01,0.16,0.01,0.31,0.02,0.47
	c1.2,0.18,2.39,0.47,3.61,0.52c1.63,0.08,3.28,0.01,4.92-0.05c1.46-0.05,2.69,0.22,3.96,0.74c1.34,0.55,2.35,1.35,1.72,2.16
	c-0.49,0.64-2.2,1.23-3.31,1.18c-2.21-0.09-4.38-0.63-6.56-0.99c-0.77-0.13-1.5-0.33-2.27-0.45c-1.42-0.23-2.93,0.37-3.39,1.3
	c-0.29,0.58-0.67,1.15-0.86,1.74c-0.35,1.11-0.5,2.17,1.27,2.94c0.46,0.2,0.76,0.86,0.68,1.27c-0.28,1.43,0.47,2.42,2.25,3.14
	c0.67,0.27,1.29,0.63,1.83,1.02c3.97,2.78,9.55,3.32,14.41,4.86c4.68,1.48,9.43,1.57,14.38,0.96c2.82-0.35,5.46,0.15,7.93,1.15
	c3.15,1.28,6.33,2.52,9.57,3.69c1.65,0.59,1.98,1.61,1.86,2.59c-0.12,0.98-0.77,1.81-2.63,2.18c-3.19,0.62-6.04-0.23-8.98-0.6
	c-4.57-0.57-9-1.46-12.74-3.48c-3.56-1.92-7.91-2.62-12.18-3.28c-4.88-0.76-9.79-1.59-14.88-1.37c-0.96,0.04-1.94,0.29-2.82,0.57
	c-1.66,0.52-3.07,1.47-5.14,1.28c-0.27-0.02-0.65,0.13-0.87,0.27c-2.98,1.93-4.63,4.28-4.86,7.09c-0.08,0.91,0.41,1.58,1.23,2.28
	c3.73,3.18,7.43,6.37,11,9.63c0.67,0.61,0.86,1.55,0.95,2.35c0.04,0.4-0.66,1.2-1,1.19c-1.18-0.02-2.66-0.08-3.45-0.56
	c-1.39-0.84-2.73-1.9-3.42-3.05c-1.88-3.15-5.15-5.45-8.97-7.47c-3.43-1.82-6.87-3.62-10.43-5.32c-2.37-1.13-4.91-1.63-8.07-1.36
	c-5.7,0.49-9.71,2.67-13.54,5.21c-1.01,0.67-1.9,1.42-2.93,2.07c-4.1,2.61-3.95,5.8-2.82,9.14c0.65,1.92,2.27,3.47,4.12,4.94
	c0.8,0.64,1.49,1.35,2.25,2.01c2.07,1.81,3.2,3.9,3.32,6.14c0.07,1.25-0.58,2.54-1.1,3.77c-0.33,0.78-0.94,1.52-1.55,2.22
	c-1.34,1.52-3.54,2.12-5.99,2.4C291.6,224.03,291.26,224.03,290.92,224.03z"/>
<path class="st3" d="M462.64,153.4c-0.83,0.7-1.48,1.59-2.54,2.04c-0.77,0.33-2.35,0.38-3.07,0.04c-0.72-0.33-1.2-1.32-1.07-1.96
	c0.15-0.72,0.91-1.49,1.73-2.01c1.72-1.1,3.36-0.88,4.95,0.5C462.64,152.48,462.64,152.94,462.64,153.4z"/>
<path class="st3" d="M338.58,121.67c0.03,0.89-1.4,2.28-2.68,2.61c-1.08,0.27-1.71,0.01-1.57-0.78c0.21-1.14,1.23-1.97,2.68-2.49
	C337.95,120.67,338.56,120.98,338.58,121.67z"/>
<path class="st3" d="M340.59,193.34c1.55,0.04,3.12,1.16,2.89,1.89c-0.09,0.28-0.65,0.64-1.05,0.68c-1.05,0.1-2.7-1.08-2.55-1.81
	C339.94,193.78,340.42,193.51,340.59,193.34z"/>
<path class="st3" d="M507.26,137.59c2.45-0.44,3.99,0.43,4.97,1.58c0.97,1.14,1.73,2.49,1.93,3.88c0.43,3.04,0.08,6.23,0.72,9.22
	c0.77,3.62,2.07,7.14,5.72,9.67c0.14,0.1,0.33,0.16,0.48,0.23c1.78-0.64,3.03-1.48,3.43-2.88c1.12-3.9,2.39-7.8,3.42-11.71
	c0.42-1.57,1.2-2.99,2.93-4.15c0.55-0.37,1.47-0.58,2.19-0.63c0.33-0.02,0.85,0.51,0.83,0.84c-0.07,1.03-0.23,2.08-0.57,3.12
	c-0.48,1.48-1.24,2.95-1.71,4.43c-0.65,2.05-1.19,4.1-1.7,6.16c-0.18,0.74-0.12,1.47-0.18,2.21c-0.07,0.85,0.54,1.39,1.68,1.17
	c1.04-0.2,2.18-0.67,2.38-1.65c0.24-1.18,0.45-2.36,0.75-3.54c0.16-0.61,0.35-1.26,0.76-1.84c0.81-1.14,2.55-1.36,3.63-0.57
	c1.59,1.17,2.15,2.69,2.08,4.4c-0.1,2.62-0.15,5.21,1.17,7.56c0.31,0.56-0.17,1.41-0.32,2.4c0.86,0.15,2,0.38,3.17,0.53
	c1.37,0.17,1.65,0.69,0.74,1.63c-0.48,0.49-0.92,1.01-1.5,1.44c-1.54,1.14-1.43,2.38-0.73,3.31c0.74,0.98,1.55,2.08,3.86,1.91
	c3.64-0.27,6.93-1,9.66-3.24c1.42-1.16,3.08-2.19,4.47-3.37c2.08-1.77,4.63-3.01,7.42-3.92c2.1-0.69,4.36-1.13,5.97,0.04
	c0.57,0.42,0.87,1.11,0.96,1.75c0.21,1.51-1.58,3.63-3.56,4.52c-4.44,1.99-8.89,3.97-13.25,6.06c-0.84,0.4-1.54,1.29-1.85,2
	c-0.54,1.22-0.82,2.47-1.03,3.7c-0.2,1.18,0.89,1.3,2.32,1.05c2.93-0.51,2.85-0.48,3.26,1.54c0.37,1.82,1.35,3.26,4.2,3.68
	c4.77,0.7,9.47,1.47,14.65,1.19c1.43-0.08,2.87,0.22,4.14,0.56c0.57,0.15,1,0.8,1.03,1.29c0.04,0.6-0.42,1.31-1.57,1.44
	c-2.58,0.28-5.2,0.66-7.74,0.71c-2.95,0.05-5.82-0.26-8.76-0.34c-1.92-0.05-5.29,1.57-6.14,2.94c-0.95,1.52-1.76,3.07-2.77,4.83
	c-1.28,0.04-2.79,0.05-4.3,0.14c-0.59,0.04-1.54,0.14-1.74,0.4c-0.3,0.38-0.24,0.97-0.06,1.37c1.22,2.68,3.71,4.5,7.01,5.97
	c3.77,1.68,7.23,3.69,10.53,5.79c2.82,1.79,6.14,3,9.8,3.7c4.27,0.83,7.94,2.23,11.49,3.85c0.81,0.37,1.87,0.56,2.88,0.67
	c1.41,0.16,2.93,0.08,4.34,0.25c2.29,0.28,3.37,1.61,4.35,2.85c1.4,1.76,3.47,2.79,6.12,3.5c1.98,0.53,3.81,1.27,5.64,1.99
	c1.67,0.65,2.83,3.33,0.45,4.71c-1.11,0.65-3.43,1.12-4.67,0.62c-3.64-1.45-7.17-3.01-10.85-4.42c-1.3-0.5-2.85-1.03-4.37-0.93
	c-3.68,0.24-5.78-1.17-7.67-2.72c-1.42-1.16-2.92-2.11-4.92-2.76c-2.09-0.68-4.12-1.5-5.14-3.05c-1.58-2.39-4.11-4.04-7.5-5.11
	c-1.5-0.47-2.97-1.02-4.27-1.7c-4.82-2.51-10.64-3.69-16.52-4.81c-3.09-0.59-7.04,0.71-8.78,2.92c-0.85,1.09-0.68,2,0.12,2.84
	c2.98,3.13,5.97,6.25,8.93,9.38c0.47,0.5,1.49,1.09,0.23,1.76c-1.2,0.63-1.88-0.19-2.46-0.69c-0.92-0.79-1.58-1.76-2.58-2.5
	c-0.85-0.63-1.93-1.15-3.05-1.55c-2.14-0.77-4.38-1.44-6.6-2.12c-0.68-0.21-1.45-0.3-2.47-0.51c-0.02,0.66-0.11,1.09-0.02,1.47
	c0.19,0.78,0.55,1.52,0.7,2.31c0.32,1.68,0.64,3.37,0.78,5.08c0.15,1.85,1.02,3.43,2.21,4.93c1.12,1.42,2.26,2.83,3.23,4.32
	c0.31,0.48,0.28,1.2,0.05,1.79c-0.62,1.6-2.23,2.11-3.85,1.22c-2.11-1.16-3.31-2.86-3.5-4.84c-0.25-2.52-1.37-4.73-2.86-6.78
	c-1.42-1.96-3.27-3.73-5.03-5.53c-0.91-0.93-2.26-0.93-3.56,0.12c-1.58,1.28-3.03,2.66-4.29,4.08c-1.1,1.24-1.86,2.6-2.75,3.91
	c-0.54,0.79-1.26,1.29-2.52,1.3c-2.52,0.01-3.3,0.5-3.89,2.3c-1.28,3.85-1.83,7.65-1.32,11.39c0.06,0.43,0.01,1-0.34,1.36
	c-0.44,0.47-1.21,0.94-1.9,1.11c-0.33,0.08-1.14-0.52-1.18-0.9c-0.23-2.48-0.48-4.97-0.37-7.49c0.13-2.97,1.62-5.89,3.32-8.79
	c0.57-0.97,0.71-2.07,0.72-3.07c0.01-1.02-1.3-1.35-2.48-1.29c-1.59,0.08-3.36,0.07-4.62,1.35c-1.67,1.71-2.5,3.52-2.52,5.4
	c-0.01,1.29-0.97,2.03-2.65,2.45c-1.08,0.27-2.18,0.66-3.24,0.73c-1.36,0.09-1.61-0.48-0.8-1.36c0.59-0.64,1.28-1.24,1.86-1.88
	c1.85-2.04,1.6-4.13,1.51-6.14c-0.11-2.55-0.61-5.04-0.88-7.56c-0.26-2.42-1.75-2.66-4.54-1.78c-1.38,0.44-2.74,1.03-3.98,1.7
	c-1.89,1.02-2.13,1.99-1.08,3.21c0.34,0.39,0.63,0.83,0.81,1.28c0.08,0.2-0.06,0.61-0.29,0.72c-0.23,0.12-0.82,0.11-1-0.03
	c-2.45-1.7-3.77-1.25-5.94,1.41c-3,3.68-7.4,6.38-11.94,9c-5.95,3.44-11.05,7.35-15.36,11.86c-1.95,2.04-4.48,3.99-7.2,5.53
	c-6.45,3.64-12.08,7.75-16.88,12.45c-5.21,5.11-11.39,9.63-17.87,13.95c-4.54,3.03-8.35,6.41-11.55,10.14
	c-0.63,0.73-1.52,1.43-2.46,2c-1.63,0.99-2.67,1.01-3.62,0.26c-0.96-0.76-0.77-2.01,0.52-2.98c1.24-0.94,2.61-1.8,3.79-2.77
	c4.27-3.55,8.54-7.1,12.7-10.7c5.42-4.7,10.63-9.52,16.17-14.16c2.03-1.7,4.64-3.12,7.18-4.46c4.55-2.42,8.74-5.11,12.63-8.07
	c1.02-0.77,1.7-1.41,0.1-1.9c-0.23-0.07-0.5-0.4-0.42-0.5c0.17-0.22,0.55-0.41,0.88-0.52c0.3-0.1,0.77-0.2,0.98-0.11
	c3.01,1.34,4.7-0.91,6.32-2.1c9.95-7.36,18.44-15.5,26.91-23.65c1.68-1.61,3.6-2.92,5.96-4.02c1.46-0.68,2.74-1.69,3.86-2.68
	c0.51-0.45,0.87-1.58,0.56-1.75c-0.92-0.48-2.16-0.84-3.38-0.86c-2.31-0.04-4.71,0.02-7.05,0.38c-1.93,0.29-3.87,1.02-5.75,1.67
	c-1.42,0.49-2.72,1.21-4.13,1.72c-0.43,0.15-1.04-0.05-1.56-0.1c0.34-0.33,0.6-0.73,1.02-0.99c0.97-0.59,2.01-1.12,3.03-1.68
	c-0.04-0.15-0.09-0.3-0.13-0.45c-1.21,0.1-2.44,0.11-3.63,0.34c-1.6,0.31-3.19,0.77-4.77,1.2c-1.41,0.39-2.66,0.42-4.03,0.21
	c-1.43-0.22-2.6-0.76-2.18-1.7c0.33-0.74,1.85-1.71,2.94-1.93c2.17-0.43,4.41-0.42,6.61-0.58c0.77-0.05,1.54-0.03,2.31-0.09
	c1.44-0.11,2.76-1.04,2.99-2.06c0.14-0.63,0.38-1.27,0.43-1.89c0.08-1.16-0.02-2.23-1.92-2.56c-0.49-0.08-0.95-0.66-0.96-1.07
	c-0.06-1.45-1.03-2.24-2.93-2.53c-0.72-0.11-1.4-0.31-2.02-0.56c-4.51-1.77-10.06-0.99-15.15-1.34c-4.9-0.33-9.54,0.69-14.21,2.45
	c-2.66,1-5.34,1.14-7.98,0.75c-3.36-0.5-6.75-0.96-10.17-1.33c-1.74-0.19-2.3-1.1-2.42-2.08c-0.11-0.98,0.32-1.94,2.04-2.73
	c2.96-1.35,5.93-1.19,8.87-1.53c4.57-0.52,9.09-0.69,13.21,0.39c3.91,1.03,8.3,0.69,12.61,0.33c4.92-0.41,9.89-0.76,14.78-2.17
	c0.92-0.27,1.81-0.74,2.61-1.22c1.49-0.9,2.64-2.15,4.69-2.45c0.27-0.04,0.6-0.28,0.78-0.47c2.44-2.58,3.5-5.24,3.06-8.03
	c-0.14-0.9-0.77-1.44-1.73-1.92c-4.37-2.21-8.72-4.45-12.95-6.78c-0.8-0.44-1.2-1.3-1.48-2.06c-0.14-0.38,0.36-1.32,0.69-1.4
	c1.15-0.26,2.6-0.55,3.48-0.27c1.55,0.49,3.1,1.2,4.04,2.16c2.56,2.62,6.29,4.09,10.47,5.16c3.76,0.96,7.53,1.91,11.39,2.72
	c2.57,0.54,5.15,0.43,8.16-0.57c5.43-1.82,8.81-4.88,11.93-8.25c0.82-0.89,1.52-1.83,2.36-2.71c3.37-3.5,2.48-6.57,0.59-9.55
	c-1.09-1.72-3.03-2.84-5.16-3.83c-0.93-0.43-1.76-0.96-2.66-1.43c-2.44-1.27-4.02-3.04-4.67-5.19c-0.36-1.2-0.03-2.6,0.18-3.92
	c0.14-0.83,0.55-1.69,0.99-2.52c0.94-1.8,2.94-2.89,5.26-3.74C506.6,137.75,506.93,137.67,507.26,137.59z"/>
<path class="st3" d="M356.94,246.59c0.64-0.88,1.07-1.89,1.99-2.58c0.67-0.51,2.2-0.92,2.97-0.76c0.77,0.15,1.48,1,1.5,1.65
	c0.02,0.73-0.54,1.66-1.21,2.36c-1.41,1.47-3.06,1.64-4.93,0.68C357.15,247.48,357.04,247.04,356.94,246.59z"/>
<path class="st3" d="M565.45,149.07c-0.75-2.98,1.82-6.1,5.83-7.07c3.74-0.9,7.36,0.6,8.06,3.34c0.75,2.92-1.85,6.14-5.76,7.13
	C569.79,153.43,566.16,151.91,565.45,149.07z"/>
<path class="st3" d="M557.49,231.68c-1.98,0.11-3.21-0.64-4.05-1.56c-1.43-1.56-2.54-3.28-3.86-4.9c-0.56-0.68-1.36-1.24-1.93-1.92
	c-0.26-0.32-0.22-0.79-0.31-1.19c0.65-0.01,1.56-0.21,1.91,0.01c1.19,0.76,2.26,1.62,3.22,2.53c1.9,1.81,3.69,3.68,5.53,5.53
	C558.55,230.73,558.65,231.25,557.49,231.68z"/>
<path class="st3" d="M576.72,232.27c-0.33,0.2-0.83,0.69-1.37,0.79c-1.85,0.34-5.18-1.14-5.6-2.37c-0.23-0.7,0.15-1.14,1.26-1.3
	C572.93,229.12,576.35,230.64,576.72,232.27z"/>
<path class="st3" d="M589.79,136.24c0.44-0.05,1.17-0.26,1.73-0.17c0.73,0.12,1.33,0.48,1.99,0.74c-0.54,0.46-0.99,1.11-1.65,1.34
	c-1.01,0.35-2.19,0.56-3.23,0.56c-0.64,0-1.16-0.51-1.73-0.79c0.51-0.43,0.98-0.88,1.55-1.26
	C588.73,136.47,589.19,136.42,589.79,136.24z"/>
<path class="st3" d="M554.31,171.73c-0.38,0.61-0.49,1.11-0.88,1.35c-1.52,0.94-3.1,1.84-4.73,2.67c-0.36,0.18-1,0.05-1.51,0.06
	c0.16-0.33,0.2-0.72,0.5-0.97C549.35,173.39,551.24,172.2,554.31,171.73z"/>
<path class="st3" d="M484.98,248.29c-0.23-0.86,0.82-2.55,2-3.16c0.99-0.52,1.66-0.41,1.71,0.39c0.07,1.16-0.74,2.2-2.02,3.05
	C485.83,249.1,485.16,248.95,484.98,248.29z"/>
<path class="st3" d="M587.8,236.53c0.33-0.17,0.88-0.65,1.3-0.65c1.52,0,2.51,0.62,2.98,1.57c0.29,0.59-0.23,0.99-1.14,1.07
	C589.82,238.62,588,237.61,587.8,236.53z"/>
<path class="st3" d="M466.19,179.09c-1.52,0.33-3.31-0.4-3.25-1.15c0.02-0.29,0.48-0.78,0.86-0.91c1-0.34,2.88,0.42,2.9,1.16
	C466.72,178.51,466.31,178.89,466.19,179.09z"/>
<g>
	<g>
		<g>
			<path class="st4" d="M582.15,306.14c-1.92,5.98-61.57-85.53-58.8-93.16c0,0,2.65-3.85,8.36-6.61c3.16-1.53,7.27-2.71,12.39-2.71
				c13.37,0,36.46,83.56,38.06,99.98C582.28,304.87,582.28,305.72,582.15,306.14z"/>
			<path class="st5" d="M582.16,303.65c-13.11-28.67-39.78-77.82-50.45-97.27c3.16-1.53,7.27-2.71,12.39-2.71
				C557.47,203.67,580.56,287.23,582.16,303.65z"/>
		</g>
		<path class="st6" d="M572.7,384.68c0,0-4.01-5.09-7.57-10.65c0.93,0.04,1.81,0.07,2.6,0.11
			C570.42,380.64,572.7,384.68,572.7,384.68z"/>
		<rect x="254.54" y="506.49" class="st7" width="0.02" height="0.01"/>
		<path class="st8" d="M238.05,343.35c0,0,0.44,6.39,4.74,8.48c3,1.46,10.35,1.74,14.52,1.78c4.62-6.87,10.21-17.71,10.41-31.48
			c0.02-1.55-0.01-3.62-0.44-7.76c-0.82-7.95-2.62-19.14-6.94-32.94l-0.04-0.08c0,0-0.39-0.01-1.06-0.01
			c-3.22-0.03-12.89,0.04-16.45,1.78c-4.29,2.09-4.74,8.48-4.74,8.48s0.33-0.02,0.9,0c3.24,0.07,14.14,1.1,13.86,11.79v28.18
			c0.11,4.11-1.43,6.79-3.55,8.53c-3.44,2.83-8.41,3.22-10.37,3.25c-0.04,0-0.08,0-0.11,0
			C238.31,343.36,238.05,343.35,238.05,343.35z"/>
		<path class="st9" d="M238.88,343.35c1.96-0.03,6.93-0.42,10.37-3.25c2.12-1.75,3.66-4.43,3.55-8.53v-28.18
			c0.28-10.69-10.62-11.72-13.86-11.79C238.75,292.21,230.67,317.57,238.88,343.35z"/>
		<g>
			<g>
				<path class="st7" d="M478.32,320.63c-0.03,0.11-0.51,1.55-1.75,3.81C477.11,323.21,477.69,321.95,478.32,320.63z"/>
			</g>
			<path class="st7" d="M293.3,324.01c0,0.01,0,0.01,0.01,0.02C293.31,324.03,293.3,324.03,293.3,324.01
				C293.31,324.02,293.3,324.02,293.3,324.01z M293.25,323.89c-0.43-0.96-0.89-1.94-1.38-2.95c0,0,0,0-0.01-0.01
				c-0.01-0.03-0.02-0.06-0.04-0.09c-0.02-0.03-0.02-0.05-0.03-0.08c0-0.02-0.01-0.02-0.01-0.03v-0.02
				c-0.02-0.01-0.02-0.02-0.02-0.03l-0.01-0.01c0,0.01,0.01,0.02,0.01,0.04c0,0.01,0.01,0.02,0.01,0.03
				c0.01,0.02,0.02,0.03,0.02,0.05c0.02,0.03,0.03,0.08,0.05,0.12v0.01c0.02,0.04,0.03,0.08,0.05,0.14c0,0,0,0,0,0.01
				c0.02,0.04,0.04,0.08,0.06,0.13c0,0.01,0,0.02,0.01,0.02v0.01c0.02,0.05,0.05,0.11,0.07,0.18l0.01,0.01
				c0.02,0.03,0.03,0.07,0.05,0.11c0.02,0.03,0.03,0.06,0.04,0.09l0.01,0.01c0.03,0.08,0.06,0.15,0.1,0.24
				c0.04,0.08,0.08,0.16,0.11,0.24c0,0,0,0,0.01,0.01c0.05,0.09,0.08,0.18,0.13,0.28c0.04,0.08,0.08,0.16,0.11,0.24
				c0.01,0.02,0.02,0.02,0.02,0.04c0.01,0.01,0.01,0.01,0.02,0.02c0.02,0.05,0.05,0.11,0.08,0.16c0.08,0.16,0.16,0.33,0.25,0.5
				c0.06,0.11,0.12,0.23,0.18,0.35c0.04,0.07,0.08,0.14,0.11,0.21c0,0,0,0,0.01,0.01c0.02,0.03,0.03,0.06,0.05,0.09
				c0,0-0.01,0,0-0.01C293.29,323.97,293.26,323.93,293.25,323.89z"/>
			<path class="st7" d="M513.37,354.55c-41.69,69.18-121.13,77.06-128.05,77.62c-0.11,0.01-0.5,0-0.5,0
				c-4.48-0.36-41.93-3.99-78.69-27.38l-0.01-0.01c-10.19-6.48-20.33-14.5-29.7-24.37c-7.12-7.49-13.77-16.05-19.68-25.86
				c0.21-0.3,0.42-0.62,0.64-0.94c4.61-6.86,10.2-17.71,10.41-31.48c0.02-1.55-0.02-3.63-0.44-7.77
				c-0.82-7.97-2.62-19.17-6.96-33.01c-0.52-1.69-1.09-3.41-1.7-5.18c1.22,1.14,2.48,2.34,3.79,3.63
				c9.38,9.29,20.61,22.7,29.28,40.82c0,0,0,0.01,0.01,0.01c0.01,0.02,0.02,0.05,0.03,0.08v0.01c-0.02-0.02-0.03-0.05-0.04-0.07
				c-0.01-0.01-0.01-0.02-0.02-0.03c0,0.02,0.02,0.05,0.03,0.09c0.02,0.05,0.05,0.11,0.08,0.2c0.03,0.08,0.07,0.19,0.12,0.31
				c0.05,0.11,0.1,0.24,0.16,0.39c0.25,0.59,0.64,1.41,1.19,2.43c-0.02-0.05-0.05-0.1-0.07-0.16c0.03,0.07,0.07,0.13,0.1,0.2
				c0,0,0.01,0,0.01,0.01c2.2,4.04,7.02,11.05,16.53,17.88c13.57,9.77,36.69,19.19,75.38,19.19c65.03,0,85.78-26.62,91.32-36.71
				c1.25-2.27,1.72-3.7,1.76-3.82c0-0.01,0-0.01,0-0.01c0.48-1,0.96-1.97,1.44-2.93c0.16-0.3,0.32-0.62,0.47-0.91
				c0.34-0.65,0.68-1.29,1.02-1.93c0.17-0.31,0.33-0.62,0.51-0.93c0.43-0.79,0.87-1.57,1.31-2.34c0.17-0.31,0.36-0.62,0.53-0.93
				c0.07-0.12,0.14-0.24,0.21-0.36c0.16-0.28,0.33-0.56,0.49-0.84c0.98-1.64,1.98-3.24,2.98-4.79c0.24-0.37,0.49-0.74,0.73-1.11
				c0.62-0.93,1.25-1.85,1.88-2.75c0.28-0.4,0.57-0.81,0.85-1.21c0.3-0.43,0.6-0.84,0.9-1.25c1.19-1.63,2.39-3.22,3.59-4.73
				c3.78-4.77,7.55-8.94,11.1-12.53c1.76-1.78,3.45-3.41,5.07-4.92c-0.62,1.79-1.19,3.55-1.73,5.27
				c-4.32,13.8-6.13,24.98-6.94,32.93c-0.43,4.14-0.46,6.22-0.44,7.77c0.21,13.77,5.8,24.61,10.41,31.48
				C512.95,353.94,513.16,354.26,513.37,354.55z"/>
		</g>
		<path class="st7" d="M293.33,324.08c-1.12-2.05-1.56-3.34-1.59-3.45c0.02,0.03,0.03,0.07,0.05,0.1c0,0.01,0.01,0.02,0.01,0.03
			c0.13,0.37,0.57,1.48,1.45,3.12C293.27,323.96,293.3,324.02,293.33,324.08z"/>
		<path class="st10" d="M507.88,270.02c0,0-0.78,0.77-2.12,2.21c-2.27,2.45-6.14,6.82-10.52,12.57c-2.03,2.66-4.17,5.62-6.29,8.81
			c-0.53,0.79-1.05,1.6-1.57,2.41c-0.02,0.03-0.05,0.07-0.07,0.1c-0.22,0.36-0.46,0.71-0.68,1.07c-0.23,0.36-0.45,0.72-0.68,1.09
			c-0.03,0.05-0.06,0.1-0.09,0.14c-0.26,0.42-0.51,0.84-0.76,1.26c-0.25,0.42-0.51,0.84-0.76,1.26c-0.23,0.4-0.45,0.78-0.68,1.18
			c-0.02,0.04-0.05,0.08-0.07,0.11c-0.25,0.43-0.49,0.87-0.74,1.31c-0.24,0.43-0.49,0.88-0.72,1.32c-0.24,0.42-0.46,0.84-0.68,1.26
			c-0.6,1.13-1.19,2.28-1.76,3.44c-0.11,0.24-0.24,0.47-0.34,0.71c-0.17,0.35-0.34,0.7-0.51,1.06c-0.14,0.3-0.28,0.61-0.43,0.91
			c-0.36,0.77-0.69,1.54-1.03,2.3l0.02,0.11c0,0-0.02,0.02-0.05,0.07c-1.1,1.75-23.85,36.53-91.3,36.53
			c-69.2,0-92.96-36.59-92.96-36.59l-0.01-0.01l-0.06-0.17c-0.21-0.51-0.44-1.02-0.67-1.52c0-0.01-0.01-0.01-0.01-0.01
			c-0.21-0.49-0.44-0.97-0.66-1.45c-0.03-0.06-0.05-0.12-0.08-0.18c-0.19-0.4-0.37-0.78-0.56-1.18c-0.3-0.62-0.61-1.24-0.91-1.85
			c-0.22-0.44-0.45-0.87-0.67-1.31c-0.29-0.55-0.59-1.12-0.88-1.66c-0.22-0.41-0.44-0.82-0.67-1.22c0-0.02-0.01-0.02-0.02-0.04
			c-0.25-0.46-0.51-0.92-0.77-1.38c-0.55-0.97-1.1-1.91-1.66-2.84c-0.21-0.36-0.43-0.72-0.65-1.08c-0.06-0.1-0.12-0.21-0.19-0.3
			c-0.28-0.46-0.56-0.91-0.84-1.37c-0.29-0.45-0.56-0.9-0.85-1.34c-0.28-0.44-0.57-0.88-0.85-1.32c-0.32-0.49-0.65-0.98-0.97-1.46
			c-0.25-0.36-0.5-0.73-0.74-1.09c-0.28-0.41-0.56-0.83-0.85-1.23c0-0.01,0-0.01,0-0.01c-0.28-0.4-0.57-0.81-0.85-1.21
			c-0.28-0.4-0.56-0.79-0.84-1.18c-0.28-0.39-0.56-0.78-0.84-1.16c-0.74-1-1.47-1.97-2.17-2.9c-0.24-0.3-0.46-0.6-0.69-0.89
			c-0.93-1.2-1.83-2.33-2.69-3.39c-0.25-0.3-0.49-0.6-0.74-0.89c-1.09-1.32-2.11-2.52-3.03-3.58c-0.13-0.14-0.25-0.29-0.38-0.43
			c-0.26-0.3-0.52-0.59-0.77-0.87c-0.18-0.21-0.36-0.4-0.54-0.59c-0.1-0.12-0.21-0.24-0.3-0.34c-0.15-0.17-0.3-0.33-0.44-0.49
			c-0.47-0.52-0.89-0.97-1.25-1.35c-0.12-0.14-0.24-0.27-0.35-0.38c-0.74-0.77-1.15-1.18-1.15-1.18
			c5.83-29.55,26.43-38.9,29.55-40.15c0.27-0.11,0.4-0.16,0.4-0.16c-0.74-4.7,2.27-6.32,2.27-6.32c1.66,2.36,3.42,4.59,5.27,6.69
			c0.33,0.39,0.68,0.78,1.03,1.15l0.03,0.12c0.19,0.21,0.37,0.41,0.57,0.61c2.22,2.38,4.55,4.58,6.97,6.62
			c3.65,3.08,7.48,5.78,11.4,8.15c13.23,8.01,27.5,12.28,39.33,14.56c0.02,0,0.02,0,0.02,0c9.11,1.76,16.77,2.33,21.36,2.5
			c0.13,0,0.25,0.01,0.37,0.01c0.08,0.01,0.17,0.02,0.24,0.02c0.21,0.01,0.4,0.01,0.59,0.02h0.17c0.11,0.01,0.22,0.01,0.33,0.02
			c1.37,0.03,2.29,0.02,2.69,0.02h0.08c0.06,0,0.11-0.01,0.14-0.01c0.01,0,0.01,0,0.02,0v0.19h0.65c0.48,0,1.1,0,1.87-0.02
			c0.11,0,0.21-0.01,0.33-0.01h0.17c0.63-0.02,1.35-0.05,2.13-0.08c1.11-0.05,2.36-0.12,3.76-0.24c0.24-0.02,0.47-0.04,0.72-0.05
			c11.23-0.89,30.32-3.79,48.55-12.98c0.11-0.05,0.23-0.11,0.34-0.17c2.62-1.33,5.22-2.8,7.78-4.4c0.13-0.08,0.26-0.16,0.39-0.25
			c0.02-0.01,0.03-0.02,0.05-0.03c4.41-2.8,8.67-6.02,12.67-9.75c0.9-0.84,1.79-1.7,2.68-2.6c0.14-0.15,0.29-0.3,0.43-0.44
			c0.43-0.43,0.84-0.87,1.25-1.32c0.4-0.43,0.79-0.86,1.17-1.3c0.08-0.08,0.15-0.17,0.23-0.25c0.05-0.05,0.09-0.11,0.14-0.16
			c0.05-0.05,0.08-0.09,0.12-0.14l0.55,0.14c-0.08-0.08-0.21-0.18-0.38-0.33c0.02-0.01,0.02-0.02,0.03-0.04
			c1.65-1.9,3.22-3.92,4.71-6.04c0,0,3.01,1.62,2.27,6.32C477.92,229.71,501.57,238,507.88,270.02z"/>
		<path class="st7" d="M385.31,263.66c-0.03,0-0.08,0-0.14,0c0.02,0,0.04,0,0.06,0H385.31z"/>
		<path class="st7" d="M293.09,314.64c-0.01-0.02-0.04-0.08-0.06-0.17L293.09,314.64z"/>
		<path class="st7" d="M381.06,263.61c-0.12,0-0.25-0.01-0.38-0.01c-4.59-0.18-12.25-0.75-21.36-2.5c0,0,0,0-0.02,0
			c-15.33-2.95-34.79-9.26-50.73-22.71c-2.62-2.21-5.15-4.61-7.54-7.23l-0.03-0.13c0.03,0.04,0.07,0.08,0.11,0.13
			c2.39,2.61,4.92,5.01,7.54,7.23c15.94,13.45,35.4,19.76,50.73,22.71c0.01,0,0.02,0,0.02,0c9.11,1.76,16.77,2.33,21.36,2.5
			C380.87,263.6,380.97,263.61,381.06,263.61z"/>
		<path class="st7" d="M385.4,263.66v0.19h-0.08v-0.19C385.37,263.66,385.4,263.66,385.4,263.66z"/>
		<path class="st7" d="M471.29,229.81l-0.55-0.14c0,0,0.01-0.01,0.01-0.02c0.05-0.06,0.1-0.12,0.15-0.18
			C471.08,229.62,471.21,229.73,471.29,229.81z"/>
		<path class="st7" d="M385.4,263.66c0,0-0.03,0-0.08,0c0,0,0,0-0.01,0c-0.03,0-0.08,0-0.14,0h-0.08c-0.4,0-1.32,0.01-2.69-0.02
			c-0.11,0-0.22,0-0.33-0.01c-0.06,0-0.12,0-0.18,0c-0.19,0-0.38-0.01-0.58-0.02c-0.17-0.01-0.35-0.01-0.54-0.02l0,0l4.54,0.06
			H385.4z"/>
		<path class="st7" d="M385.97,263.85h-0.08c-0.19,0-0.35,0-0.49,0v-0.19L385.97,263.85z"/>
		<path class="st11" d="M293.1,314.66L293.1,314.66z"/>
		<g>
			<path class="st8" d="M300.82,230.25L300.82,230.25c-0.07-0.06-0.11-0.11-0.17-0.17c0.05-0.1,0.08-0.14,0.08-0.14L300.82,230.25z"
				/>
			<path class="st8" d="M386.28,208.11h0.25C386.45,208.11,386.37,208.11,386.28,208.11L386.28,208.11z"/>
			<path class="st8" d="M471.29,229.8l-0.55-0.14c-0.04,0.05-0.08,0.09-0.12,0.14c-1.92,2.2-3.92,4.26-6,6.18
				c-3.97,3.69-8.19,6.88-12.56,9.65c-0.02,0.01-0.03,0.02-0.05,0.03c-0.01-0.01-0.02-0.02-0.03-0.03c4.36-2.77,8.6-5.97,12.57-9.65
				c2.08-1.92,4.09-3.98,6-6.18c0.04-0.05,0.09-0.1,0.13-0.15c0.06-0.07,0.13-0.14,0.19-0.22c0.02,0.02,0.03,0.03,0.05,0.04
				C471.08,229.62,471.21,229.73,471.29,229.8z"/>
			<path class="st8" d="M470.86,229.43c-0.06,0.08-0.13,0.15-0.19,0.22c-0.04,0.05-0.09,0.1-0.13,0.15c-1.91,2.2-3.91,4.26-6,6.18
				c-3.97,3.68-8.2,6.88-12.57,9.65c-0.14,0.1-0.3,0.19-0.44,0.28c-20.42,12.82-43.66,16.5-56.59,17.54
				c-0.25,0.02-0.49,0.04-0.72,0.05c-1.38,0.11-2.65,0.18-3.76,0.24c-0.78,0.03-1.5,0.05-2.13,0.08h-0.17
				c-0.11,0-0.22,0.01-0.33,0.01c-0.77,0.02-1.39,0.02-1.87,0.02h-0.65v-0.19c0,0-0.03,0-0.09,0c-0.04,0-0.08,0.01-0.14,0.01
				c-0.4,0-1.32,0.02-2.69-0.02c-0.11-0.01-0.21-0.01-0.33-0.02h-0.17c-0.19-0.01-0.38-0.01-0.59-0.02c-0.08,0-0.16-0.01-0.24-0.02
				c-0.12,0-0.24-0.01-0.37-0.01c-4.59-0.17-12.25-0.74-21.36-2.5c0,0,0,0-0.02,0c-12.18-2.35-26.96-6.81-40.52-15.29
				c-3.51-2.19-6.94-4.65-10.22-7.42c-2.62-2.21-5.15-4.61-7.54-7.23l-0.03-0.12l-0.2-0.78v-0.02l-0.08-0.31v-0.01
				c0.05-0.05,0.96-0.88,2.82-2.18c1.86-1.31,4.68-3.09,8.57-5.06c3.22-1.62,7.15-3.36,11.9-5.06c5.58-2,12.26-3.95,20.15-5.54
				c1.79-0.36,3.63-0.71,5.55-1.03c6.28-1.06,13.24-1.91,20.93-2.41c4.91-0.32,10.12-0.51,15.64-0.52h0.37
				c0.78,0,1.54,0.01,2.3,0.02c3.19,0.03,6.29,0.13,9.27,0.27c4.03,0.21,7.87,0.49,11.52,0.87c10.44,1.06,19.38,2.76,26.95,4.74
				c4.45,1.16,8.42,2.42,11.93,3.71h0.01c10.56,3.86,17.1,7.93,20.32,10.25C469.83,228.6,470.45,229.11,470.86,229.43z"/>
			<path class="st8" d="M470.74,229.67c-0.04,0.05-0.08,0.09-0.12,0.14c-1.92,2.2-3.92,4.26-6,6.18c-3.97,3.69-8.19,6.88-12.56,9.65
				c-0.02,0.01-0.03,0.02-0.05,0.03c-0.01-0.01-0.02-0.02-0.03-0.03c4.36-2.77,8.6-5.97,12.57-9.65c2.08-1.92,4.09-3.98,6-6.18
				c0.04-0.05,0.09-0.1,0.13-0.15L470.74,229.67z"/>
		</g>
		<path class="st8" d="M506.33,281.09c-3.55,3.59-7.32,7.76-11.1,12.53c-1.2,1.51-2.4,3.09-3.59,4.73c-0.3,0.41-0.6,0.83-0.9,1.25
			c-0.28,0.4-0.57,0.81-0.85,1.21c-0.63,0.9-1.25,1.82-1.87,2.75c-0.25,0.37-0.49,0.74-0.73,1.11c-1,1.55-2,3.14-2.98,4.79
			c-0.16,0.28-0.33,0.56-0.49,0.84c-0.07,0.12-0.14,0.24-0.21,0.36c-0.18,0.31-0.36,0.61-0.53,0.92c-0.44,0.77-0.88,1.55-1.31,2.35
			c-0.17,0.31-0.34,0.62-0.5,0.93c-0.35,0.64-0.68,1.28-1.02,1.93c-0.16,0.31-0.32,0.61-0.47,0.92c-0.49,0.96-0.97,1.94-1.45,2.93
			c0,0,0,0,0,0.01c-0.03,0.11-0.51,1.55-1.75,3.81c-5.53,10.09-26.29,36.71-91.32,36.71c-18.51,0-33.45-2.16-45.5-5.47
			c-9.02-2.48-16.41-5.63-22.45-9c-14.55-8.13-21.25-17.62-23.96-22.6c0,0,0,0,0-0.01c-1.12-2.05-1.56-3.34-1.59-3.45
			c0,0,0-0.01,0-0.01c-8.67-18.13-19.91-31.53-29.29-40.82v-0.01c0.01-4.08,0.64-7.01,1.18-8.78c0.11,0.12,0.23,0.24,0.35,0.38
			c0.36,0.38,0.78,0.83,1.26,1.35c0.14,0.16,0.28,0.31,0.44,0.48c0.1,0.11,0.21,0.22,0.31,0.34c0.17,0.19,0.35,0.39,0.54,0.6
			c0.25,0.28,0.5,0.57,0.77,0.87c0.13,0.14,0.25,0.28,0.38,0.43c0.93,1.06,1.95,2.26,3.04,3.58c0.24,0.29,0.49,0.59,0.73,0.89
			c0.86,1.06,1.77,2.19,2.7,3.39c0.23,0.29,0.46,0.59,0.69,0.89c0.71,0.93,1.44,1.9,2.17,2.9c0.28,0.38,0.56,0.76,0.84,1.15
			c0.28,0.39,0.56,0.79,0.84,1.18c0.28,0.4,0.57,0.8,0.85,1.21c0,0,0,0,0,0c0.28,0.41,0.57,0.82,0.85,1.23
			c0.25,0.36,0.49,0.72,0.74,1.1c0.32,0.48,0.65,0.97,0.97,1.46c0.28,0.44,0.57,0.87,0.85,1.32c0.28,0.44,0.57,0.89,0.85,1.34
			c0.28,0.45,0.57,0.91,0.85,1.37c0.06,0.1,0.13,0.2,0.19,0.3c0.22,0.36,0.44,0.72,0.65,1.08c0.56,0.93,1.11,1.88,1.65,2.84
			c0.26,0.46,0.52,0.91,0.77,1.38c0.01,0.01,0.01,0.02,0.02,0.03c0.22,0.4,0.44,0.81,0.66,1.22c0.3,0.55,0.59,1.1,0.88,1.66
			c0.22,0.43,0.45,0.87,0.67,1.31c0.31,0.61,0.61,1.23,0.91,1.85c0.19,0.39,0.38,0.79,0.56,1.18c0.03,0.06,0.06,0.12,0.09,0.18
			c0.22,0.48,0.44,0.96,0.66,1.45c0,0,0,0,0,0.01c0.23,0.5,0.45,1.01,0.67,1.52l0.06,0.17l0,0.01c0,0,23.76,36.59,92.96,36.59
			s91.35-36.59,91.35-36.59l-0.02-0.11c0.34-0.77,0.68-1.54,1.03-2.3c0.14-0.31,0.28-0.61,0.43-0.91c0.17-0.35,0.34-0.71,0.5-1.06
			c0.11-0.24,0.23-0.47,0.35-0.7c0.57-1.16,1.16-2.31,1.76-3.45c0.22-0.42,0.45-0.84,0.68-1.26c0.24-0.44,0.48-0.88,0.73-1.32
			c0.25-0.44,0.49-0.88,0.74-1.31c0.02-0.04,0.04-0.08,0.06-0.12c0.23-0.39,0.45-0.79,0.68-1.17c0.25-0.42,0.5-0.85,0.75-1.27
			c0.25-0.42,0.51-0.84,0.76-1.26c0.03-0.05,0.06-0.1,0.09-0.15c0.23-0.36,0.45-0.72,0.68-1.08c0.22-0.36,0.45-0.72,0.68-1.07
			c0.02-0.03,0.04-0.07,0.06-0.1c0.53-0.82,1.05-1.62,1.57-2.41c2.13-3.2,4.26-6.15,6.29-8.81c4.38-5.75,8.26-10.12,10.53-12.57
			C506.23,274.13,506.63,277.06,506.33,281.09z"/>
		<path class="st8" d="M531.96,343.35c0,0-0.44,6.39-4.74,8.48c-0.49,0.24-1.08,0.44-1.76,0.62c-3.53,0.93-9.27,1.13-12.76,1.16
			c-4.61-6.86-10.2-17.71-10.41-31.48c-0.02-1.55,0.02-3.63,0.44-7.77c0.75-7.26,2.32-17.22,5.88-29.4
			c0.33-1.16,0.69-2.33,1.06-3.53l0.04-0.08c0,0,0.4-0.01,1.06-0.01c3.22-0.03,12.89,0.04,16.45,1.77c4.29,2.1,4.74,8.48,4.74,8.48
			s-0.33-0.02-0.9,0c-3.24,0.07-14.14,1.09-13.86,11.78v28.19c-0.11,4.1,1.44,6.78,3.56,8.53c3.44,2.84,8.41,3.22,10.37,3.25
			c0.04,0.01,0.08,0.01,0.11,0.01C531.7,343.36,531.96,343.35,531.96,343.35z"/>
		<path class="st9" d="M531.12,343.35c-1.96-0.03-6.93-0.42-10.37-3.25c-2.12-1.75-3.66-4.43-3.55-8.53v-28.18
			c-0.28-10.69,10.62-11.72,13.86-11.79C531.26,292.21,539.34,317.57,531.12,343.35z"/>
		<path class="st7" d="M254.53,506.83L254.53,506.83z"/>
		<path class="st7" d="M254.6,506.54L254.6,506.54z"/>
		<g>
			<path class="st8" d="M517.38,464.16c-0.21,2.49-0.47,4.55-0.65,5.77c-0.11,0.78-0.17,1.22-0.17,1.22
				c-0.7,13.41-1.95,27.27-3.94,41.54H260.45c-1.61-11.54-2.74-22.82-3.48-33.81c-0.17-2.59-0.33-5.16-0.46-7.72
				c0,0-1.09-6.68-1.18-13.9c-0.02-1.22-0.01-2.46,0.05-3.69c0.06-1.43,0.17-2.84,0.36-4.17c0.59-4.38,1.91-8.03,4.52-9.3
				c0,0,4.16-1.43,12.47-3.38c4.29-1.01,9.71-2.17,16.23-3.33c10.8-1.94,24.66-3.92,41.57-5.4c4.06-0.36,8.29-0.68,12.71-0.97
				c3.76-0.24,7.66-0.46,11.68-0.65c9.09-0.42,18.84-0.68,29.25-0.71c1.58-0.01,3.15-0.01,4.72,0c9.44,0.03,18.33,0.25,26.69,0.61
				c4.08,0.17,8.04,0.37,11.87,0.61c23.92,1.46,42.8,4.02,56.65,6.51c3.63,0.65,6.91,1.29,9.85,1.91c4.67,0.98,8.46,1.89,11.39,2.66
				c0.2,0.05,0.39,0.1,0.58,0.14c4.59,1.21,6.88,1.99,6.88,1.99C518.28,442.76,518.09,455.86,517.38,464.16z"/>
		</g>
		<polygon class="st7" points="386.74,469.16 386.74,469.43 386.49,469.3 		"/>
		<polygon class="st7" points="386.49,469.3 386.23,469.43 386.23,469.16 		"/>
		<g>
			<path class="st10" d="M523.31,475.72L523.31,475.72c-0.09,5.28-0.33,10.68-0.68,15.98c-0.47,7.4-1.15,14.6-1.84,21H252.26
				c-0.71-6.58-1.4-14.01-1.89-21.63c-0.13-2.05-0.24-4.11-0.33-6.18c-0.19-3.98-0.3-7.97-0.33-11.86c-0.02-1.03-0.01-2.06,0-3.09
				c0.03-4.52,0.21-8.89,0.56-12.95c0.11-1.27,0.24-2.51,0.38-3.71c0.18-1.48,0.4-2.9,0.63-4.27c0.43-2.4,0.95-4.61,1.57-6.59
				c2.51-7.93,6.39-12.99,10.57-16.2c9.5-7.24,20.63-4.94,21.26-4.8c0.02,0.01,0.03,0.01,0.03,0.01s1.7,5.09,4.23,11.97
				c5.25,14.32,14.07,36.43,18.53,36.63c6.61,0.3,21.36-12.56,79-12.57h0.08c57.64,0.02,72.39,12.87,79,12.57
				c4.47-0.2,13.29-22.31,18.54-36.63c2.52-6.89,4.23-11.97,4.23-11.97s10.39-2.4,19.82,3.76c0.94,0.61,1.86,1.31,2.77,2.1
				c3.69,3.22,7.03,8.03,9.28,15.13c2.11,6.65,2.99,15.93,3.13,26.1C523.36,470.87,523.36,473.28,523.31,475.72z"/>
		</g>
		<path class="st12" d="M425.54,438.71c-33.04,10.83-80.62,0-80.62,0c-0.68-3.14-1.16-6.33-1.48-9.49
			c-0.51-5.06-0.61-10.03-0.49-14.56c0.29-11.46,1.98-20.11,1.98-20.11c15.9-4.92,33.31-5.53,47.88-4.67h0.01
			c18.72,1.12,32.73,4.67,32.73,4.67c1.28,6.44,1.94,12.39,2.19,17.7c0,0.01,0,0.01,0,0.01
			C428.5,428.46,425.54,438.71,425.54,438.71z"/>
		<path class="st12" d="M557.26,391.64L557.26,391.64z"/>
		<path class="st13" d="M191.33,469.31c0,0,3.66-0.11,8.65-1.48c4.99-1.37-4.55-7.51-4.55-7.51L191.33,469.31z"/>
		<path class="st12" d="M572.7,375.15c-0.11-0.1-0.22-0.21-0.33-0.3c-0.11-0.11-0.22-0.2-0.33-0.3c-1.13-0.99-2.42-1.86-3.81-2.64
			c-0.36-0.21-0.74-0.42-1.13-0.61c-0.02-0.01-0.03-0.02-0.05-0.02c-0.33-0.17-0.67-0.34-1.02-0.49c-0.08-0.04-0.15-0.08-0.23-0.11
			c-0.18-0.09-0.36-0.17-0.55-0.24c-0.26-0.12-0.52-0.23-0.79-0.34c-0.22-0.09-0.45-0.18-0.68-0.27c-0.49-0.19-0.97-0.37-1.47-0.55
			c0,0,0,0-0.01,0c-0.24-0.08-0.47-0.17-0.71-0.24c-0.32-0.11-0.64-0.21-0.96-0.31c-0.47-0.15-0.95-0.29-1.43-0.43
			c-0.26-0.08-0.52-0.14-0.78-0.21c-4.14-1.11-8.38-1.78-12.03-2.17c-0.21-0.02-0.42-0.05-0.62-0.07c-0.78-0.08-1.51-0.14-2.22-0.21
			c-0.3-0.02-0.59-0.05-0.88-0.07c-0.43-0.03-0.84-0.06-1.25-0.08c-0.67-0.04-1.28-0.08-1.84-0.1c-0.37-0.02-0.71-0.02-1.03-0.04
			c0,0,0,0-0.01,0c-0.31-0.01-0.59-0.02-0.85-0.02c-0.95-0.02-1.48-0.02-1.48-0.02c-0.3-3.48-0.41-8.67-0.39-14.73
			c0.07-23.76,2.11-60.9,2.11-60.9c1.12-0.43,2.27-0.81,3.43-1.11c11.96-3.18,25.73-0.02,32.35,1.95h0.02
			c2.48,0.74,3.95,1.3,3.95,1.3C582.92,307.74,572.7,375.15,572.7,375.15z"/>
		<path class="st12" d="M572.04,374.79c-1.41-0.59-3.79-0.63-6.92-0.76c-6.81-0.29-17.19-1-28.92-8.71c0,0,0.53-0.01,1.48,0.02
			c0.26,0.01,0.54,0.02,0.85,0.02c0.01,0,0.01,0,0.01,0c0.32,0.02,0.66,0.02,1.03,0.04c0.55,0.02,1.17,0.06,1.84,0.1
			c0.4,0.02,0.81,0.05,1.25,0.08c0.29,0.02,0.59,0.05,0.88,0.07c0.71,0.06,1.44,0.12,2.22,0.21c0.21,0.02,0.41,0.05,0.62,0.07
			c3.65,0.4,7.89,1.06,12.03,2.17c0.26,0.07,0.52,0.14,0.78,0.21c0.48,0.14,0.96,0.27,1.43,0.43c0.32,0.1,0.64,0.2,0.96,0.31
			c0.24,0.08,0.48,0.16,0.71,0.24c0.01,0,0.01,0,0.01,0c0.49,0.17,0.98,0.36,1.47,0.55c0.23,0.08,0.46,0.17,0.68,0.27
			c0.27,0.11,0.53,0.22,0.79,0.34c0.18,0.08,0.36,0.16,0.55,0.24c0.08,0.03,0.15,0.07,0.23,0.11c0.35,0.15,0.68,0.32,1.02,0.49
			c0.02,0.01,0.03,0.02,0.05,0.02c0.39,0.19,0.77,0.4,1.13,0.61c1.39,0.78,2.68,1.65,3.81,2.64v0.01L572.04,374.79z"/>
		<path class="st13" d="M572.7,375.15c-0.19-0.14-0.4-0.27-0.65-0.36l-0.02-0.23c0.11,0.09,0.23,0.19,0.33,0.29
			C572.48,374.95,572.58,375.06,572.7,375.15z"/>
		<path class="st14" d="M556.48,404.92c-0.85,6.46-1.54,11.3-1.58,11.55c-5.21,0.94-11.09,2.62-16.97,4.6
			c0.6-5.26,1.27-11.14,2.01-17.52C542.67,402.93,556.48,404.92,556.48,404.92z"/>
		<path class="st14" d="M541.84,386.99c6.91,0.39,16.62,1.85,16.62,1.85c-0.2,1.82-0.42,3.67-0.64,5.52
			c-0.07,0.54-0.13,1.08-0.2,1.61c-0.17,1.44-0.36,2.88-0.53,4.27c-0.06,0.46-0.11,0.9-0.17,1.35c-0.08,0.58-0.14,1.16-0.22,1.72
			c-3.73-1.03-16.62-0.94-16.62-0.94C540.62,397.51,541.21,392.37,541.84,386.99z"/>
		<path class="st14" d="M559.63,376.11c-0.04,0.74-0.09,1.53-0.16,2.36c-0.03,0.33-0.05,0.65-0.08,1c-0.07,0.84-0.15,1.72-0.24,2.63
			c-0.02,0.18-0.04,0.36-0.05,0.55c-0.04,0.37-0.08,0.74-0.11,1.13c-0.02,0.14-0.03,0.3-0.05,0.44c-0.02,0.21-0.04,0.42-0.06,0.63
			c-0.05,0.47-0.1,0.95-0.15,1.43c-0.03,0.33-0.07,0.65-0.11,0.99c0,0.02,0,0.04-0.01,0.06c-0.04,0.35-0.08,0.71-0.11,1.06
			c0,0.02-0.01,0.05-0.01,0.08c-2.56-1.03-11.32-2.03-16.54-2.55c0.68-5.8,1.38-11.87,2.11-18.15c5.31,0.24,14.13,0.86,15.36,2.48
			c0.08,0.11,0.14,0.3,0.2,0.59c0.03,0.18,0.06,0.4,0.08,0.65C559.78,372.52,559.75,374.12,559.63,376.11z"/>
		<path class="st14" d="M573.72,290.53h-0.02c-1.86-0.55-4.29-1.2-7.08-1.78c-7.14-1.46-16.67-2.45-25.27-0.17
			c0,0-8.63-19.19,2.74-27.1c2.95-2.05,7.25-3.34,13.39-3.34C587.32,258.14,573.72,290.53,573.72,290.53z"/>
		<path class="st15" d="M563.01,369.54c-0.33,6.51-1.47,27.29-3.15,46.26c-1.57,0.13-3.23,0.36-4.97,0.68
			c0.04-0.24,0.73-5.09,1.58-11.55c0,0-13.8-1.99-16.54-1.38c0.04-0.39,0.08-0.78,0.13-1.18c0,0,12.89-0.09,16.62,0.94
			c0.08-0.56,0.14-1.14,0.22-1.72c0.06-0.44,0.11-0.9,0.17-1.35c0.17-1.39,0.36-2.83,0.53-4.27c0.07-0.53,0.13-1.07,0.2-1.61
			c0.22-1.85,0.44-3.7,0.64-5.52c0,0-9.71-1.47-16.62-1.85c0.05-0.36,0.08-0.71,0.12-1.08c5.22,0.52,13.98,1.52,16.54,2.55
			c0-0.03,0.01-0.05,0.01-0.08c0.04-0.36,0.08-0.71,0.11-1.06c0.01-0.02,0.01-0.04,0.01-0.06c0.04-0.33,0.08-0.66,0.11-0.99
			c0.05-0.48,0.11-0.96,0.15-1.43c0.02-0.21,0.05-0.42,0.06-0.63c0.02-0.14,0.03-0.3,0.05-0.44c0.04-0.38,0.08-0.75,0.11-1.13
			c0.02-0.18,0.03-0.36,0.05-0.55c0.08-0.91,0.17-1.79,0.24-2.63c0.02-0.34,0.05-0.67,0.08-1c0.07-0.84,0.12-1.63,0.16-2.36
			c0.12-1.99,0.15-3.6,0.08-4.64c-0.02-0.25-0.05-0.47-0.08-0.65c-0.05-0.28-0.11-0.48-0.2-0.59c-1.23-1.62-10.06-2.24-15.36-2.48
			c0.01-0.1,0.02-0.19,0.03-0.29c0.07-0.6,0.14-1.19,0.22-1.76C549.65,366.18,556.77,367.23,563.01,369.54z"/>
		<path class="st15" d="M559.16,382.1c0.08-0.91,0.16-1.79,0.24-2.63C559.33,380.31,559.24,381.19,559.16,382.1z"/>
		<path class="st15" d="M559.47,378.48c0.06-0.84,0.11-1.63,0.16-2.36C559.59,376.85,559.54,377.64,559.47,378.48z"/>
		<path class="st15" d="M559.71,371.48c-0.02-0.25-0.05-0.47-0.08-0.65C559.66,371,559.69,371.22,559.71,371.48z"/>
		<path class="st15" d="M573.72,290.53h-0.02c-1.86-0.55-4.29-1.2-7.08-1.78c0,0,14.61-27.03-22.52-27.27
			c2.95-2.05,7.25-3.34,13.39-3.34C587.32,258.14,573.72,290.53,573.72,290.53z"/>
		<path class="st8" d="M572.7,384.68c0,0-1.18-2.09-2.84-5.69c-0.65-1.41-1.38-3.03-2.13-4.86c-6.77-16.33-16.2-48.18,1.19-70.57
			c1.15-1.47,2.4-2.9,3.79-4.29C572.7,299.28,603.49,336.03,572.7,384.68z"/>
		<path class="st16" d="M477.36,314.72c0.01-0.05,0.02-0.11,0.02-0.17l0.02,0.11C477.4,314.65,477.39,314.68,477.36,314.72z"/>
		<path class="st16" d="M507.88,270.02c0,0-0.78,0.77-2.12,2.21c-2.27,2.45-6.14,6.82-10.52,12.57c-2.03,2.66-4.17,5.62-6.29,8.81
			c-0.53,0.79-1.05,1.6-1.57,2.41c-0.02,0.03-0.05,0.07-0.07,0.1c-0.22,0.36-0.46,0.71-0.68,1.07c-0.23,0.36-0.45,0.72-0.68,1.09
			c-0.03,0.05-0.06,0.1-0.09,0.14c-0.26,0.42-0.51,0.84-0.76,1.26c-0.25,0.42-0.51,0.84-0.76,1.26c-0.23,0.4-0.45,0.78-0.68,1.18
			c-0.02,0.04-0.05,0.08-0.07,0.11c-0.25,0.43-0.49,0.87-0.74,1.31c-0.24,0.43-0.49,0.88-0.72,1.32c-0.24,0.42-0.46,0.84-0.68,1.26
			c-0.6,1.13-1.19,2.28-1.76,3.44c-0.11,0.24-0.24,0.47-0.34,0.71c-0.17,0.35-0.34,0.7-0.51,1.06c-0.14,0.3-0.28,0.61-0.43,0.91
			c-0.36,0.77-0.69,1.54-1.03,2.3c3.54-26.66,25.71-45.8,24.91-48.64c-0.8-2.85-22.62-35.45-27.93-31.31
			c-3.94,3.06-21.61,11.53-30.53,15.72c2.62-1.33,5.22-2.8,7.78-4.4c0.13-0.08,0.26-0.16,0.39-0.25c0.02-0.01,0.03-0.02,0.05-0.03
			c4.41-2.8,8.67-6.02,12.67-9.75c1.98-1.84,3.91-3.82,5.75-5.91c0.05-0.05,0.09-0.11,0.14-0.16c0.05-0.05,0.08-0.09,0.12-0.14
			l0.55,0.14c-0.08-0.08-0.21-0.18-0.38-0.33c0.02-0.01,0.02-0.02,0.03-0.04c1.65-1.9,3.22-3.92,4.71-6.04c0,0,3.01,1.62,2.27,6.32
			C477.92,229.71,501.57,238,507.88,270.02z"/>
		<path class="st16" d="M319.92,246.63c-0.11,0.17-0.19,0.32-0.25,0.43c-0.52-0.25-1.04-0.5-1.57-0.76
			c-8.82-4.25-19.19-9.45-22.1-11.71c-5.31-4.14-27.13,28.46-27.93,31.31c-0.8,2.84,21.37,21.98,24.91,48.64
			c-0.34-0.77-0.68-1.54-1.03-2.3c-0.14-0.3-0.28-0.61-0.43-0.91c-0.17-0.36-0.33-0.71-0.51-1.06c-0.11-0.24-0.23-0.47-0.34-0.71
			c-0.57-1.16-1.16-2.31-1.76-3.44c-0.22-0.43-0.45-0.84-0.68-1.26c-0.24-0.44-0.48-0.89-0.72-1.32c-0.25-0.44-0.49-0.87-0.74-1.31
			c-0.02-0.04-0.05-0.08-0.07-0.11c-0.23-0.4-0.45-0.78-0.68-1.18c-0.25-0.42-0.51-0.84-0.76-1.26c-0.25-0.43-0.5-0.84-0.76-1.26
			c-0.03-0.05-0.06-0.1-0.09-0.14c-0.23-0.36-0.45-0.73-0.68-1.09c-0.22-0.36-0.46-0.71-0.68-1.07c-0.02-0.03-0.05-0.07-0.07-0.1
			c-0.52-0.81-1.04-1.62-1.57-2.41c-2.12-3.19-4.26-6.15-6.29-8.81c-4.38-5.75-8.26-10.12-10.52-12.57
			c-1.35-1.44-2.12-2.21-2.12-2.21c6.31-32.02,29.96-40.31,29.96-40.31c-0.74-4.7,2.27-6.32,2.27-6.32c1.5,2.12,3.06,4.14,4.71,6.04
			c0.01,0.02,0.02,0.03,0.03,0.04c-0.17,0.15-0.3,0.26-0.38,0.33l0.55-0.14c0.04,0.05,0.08,0.09,0.12,0.14
			c0.62,0.71,1.25,1.41,1.89,2.1c5.09,5.45,10.76,9.98,16.66,13.73c0.02,0.01,0.03,0.02,0.05,0.03c0.13,0.09,0.26,0.17,0.39,0.25
			C319.13,246.16,319.53,246.4,319.92,246.63z"/>
		<path class="st16" d="M326.53,250.31c-1.95-0.92-4.31-2.04-6.86-3.25c0.06-0.11,0.14-0.25,0.25-0.43
			C322.1,247.96,324.31,249.19,326.53,250.31z"/>
		<path class="st16" d="M267.72,291.6c0,0,15.61,34.92,8.01,62.58c0,0,6.68,20.01,30.39,50.61c-10.19-6.48-20.33-14.5-29.7-24.37
			c-7.12-7.49-13.77-16.05-19.68-25.86c0.21-0.3,0.42-0.62,0.64-0.94c4.61-6.86,10.2-17.71,10.41-31.48
			c0.02-1.55-0.02-3.63-0.44-7.77c-0.82-7.97-2.62-19.17-6.96-33.01c-0.52-1.69-1.09-3.41-1.7-5.18c1.22,1.14,2.48,2.34,3.79,3.63
			c9.38,9.29,20.61,22.7,29.28,40.82c0,0,0,0.01,0.01,0.01c0.01,0.02,0.02,0.05,0.03,0.08v0.02c0,0.01,0.01,0.02,0.01,0.03
			c0.01,0.02,0.02,0.05,0.03,0.08c0.5,1.05,0.97,2.06,1.42,3.05c0.03,0.07,0.07,0.13,0.1,0.2c0,0,0.01,0,0.01,0.01
			c2.2,4.04,7.02,11.05,16.53,17.88c0,0.01,0,0.01,0,0.01s-17.31-5.05-24.29-17.54C278.6,311.96,270.03,293.35,267.72,291.6z"/>
		<path class="st16" d="M502.39,291.6c0,0-15.61,34.92-8.01,62.58c0,0-6.68,20.01-30.39,50.61c10.19-6.48,20.33-14.5,29.7-24.37
			c7.12-7.49,13.77-16.05,19.68-25.86c-0.21-0.3-0.42-0.62-0.64-0.94c-4.61-6.86-10.2-17.71-10.41-31.48
			c-0.02-1.55,0.02-3.63,0.44-7.77c0.82-7.97,2.62-19.17,6.96-33.01c0.52-1.69,1.09-3.41,1.7-5.18c-1.22,1.14-2.48,2.34-3.79,3.63
			c-9.38,9.29-20.61,22.7-29.28,40.82c0,0,0,0.01-0.01,0.01c-0.01,0.02-0.02,0.05-0.03,0.08v0.02c0,0.01-0.01,0.02-0.01,0.03
			c-0.01,0.02-0.02,0.05-0.03,0.08c-0.5,1.05-0.97,2.06-1.42,3.05c-0.03,0.07-0.07,0.13-0.1,0.2c0,0-0.01,0-0.01,0.01
			c-2.2,4.04-7.02,11.05-16.53,17.88c0,0.01,0,0.01,0,0.01s17.31-5.05,24.29-17.54C491.51,311.96,500.07,293.35,502.39,291.6z"/>
		<path class="st16" d="M427.73,412.24c-0.25-5.31-0.9-11.26-2.19-17.7c0,0-44.28-11.25-80.62,0c0,0-1.69,8.64-1.98,20.11
			c-1.82-4.85-4.4-14.88,1.25-23.01c7.77-11.16,80.49-5.66,83.53-2.1C430.74,393.07,427.8,411.76,427.73,412.24z"/>
		<path class="st11" d="M470.48,229.96c-0.08,0.08-0.15,0.17-0.23,0.25c-0.38,0.44-0.78,0.87-1.17,1.3
			c-0.41,0.45-0.83,0.89-1.25,1.32c-0.14,0.14-0.28,0.29-0.43,0.44c-0.87,0.89-1.77,1.76-2.68,2.6
			c-9.9-22.31-74.93-11.24-74.93-11.24s74.34,9.19,46.58,21.61c-27.75,12.42-104.8,3.88-98.81-4.26
			c6.01-8.16,18.07-12.62,18.07-12.62c-23.84,0.17-33.56,13.7-35.67,17.17c-3.92-2.37-7.75-5.07-11.4-8.15
			c-2.42-2.04-4.75-4.24-6.97-6.62l-0.02-0.08v-0.02c-0.06-0.05-0.11-0.11-0.16-0.17c0.05-0.1,0.08-0.14,0.08-0.14v-0.01
			c0.05-0.05,0.96-0.88,2.82-2.18c1.86-1.31,4.68-3.09,8.57-5.06c3.22-1.62,7.15-3.36,11.9-5.06c5.58-2,12.26-3.95,20.15-5.54
			c1.79-0.36,3.63-0.71,5.55-1.03c6.28-1.06,13.24-1.91,20.93-2.41c4.91-0.32,10.12-0.51,15.64-0.52h0.37c0.78,0,1.54,0.01,2.3,0.02
			c3.19,0.03,6.29,0.13,9.27,0.27c4.03,0.21,7.87,0.49,11.52,0.87c10.44,1.06,19.38,2.76,26.95,4.74c4.45,1.16,8.42,2.42,11.93,3.71
			h0.01c10.56,3.86,17.1,7.93,20.32,10.25C470.01,229.61,470.25,229.8,470.48,229.96z"/>
		
			<ellipse transform="matrix(0.0675 -0.9977 0.9977 0.0675 116.8544 606.8397)" class="st8" cx="383.08" cy="240.9" rx="12.15" ry="23.04"/>
		<path class="st17" d="M313.53,239.18c0,0-6.4-3.88-8.54-8.15s72.59-43.38,163.03-1.6c0,0-1.29,1.86-2.2,1.92
			C464.92,231.42,374.22,186.46,313.53,239.18z"/>
		<path class="st11" d="M572.7,384.68c0,0-1.18-2.09-2.84-5.69c6.92-7.5,5.88-18.9,5.88-18.9c-0.84,2.33-3.69,7.66-3.69,7.66
			c-12.56-31.42-4.26-57.73-3.13-57.23c1.13,0.49,6.83,6.95,6.83,6.95c-0.97-7.88-6.83-13.9-6.83-13.9c1.15-1.47,2.4-2.9,3.79-4.29
			C572.7,299.28,603.49,336.03,572.7,384.68z"/>
		<path class="st8" d="M569.91,348.96c-3.81,0-6.9-5.86-6.9-13.08s3.09-13.08,6.9-13.08c3.81,0,6.9,5.86,6.9,13.08
			S573.73,348.96,569.91,348.96z"/>
		<path class="st17" d="M571.27,379.35c0,0,27.85-38.87,0-75.54l1.42-1.1c0,0,28.59,30.99,0.39,79.12L571.27,379.35z"/>
		<path class="st11" d="M531.96,343.35c0,0-0.44,6.39-4.74,8.48c-0.49,0.24-1.08,0.44-1.76,0.62c-4.89-2.85-12.13-8.84-14.09-14.73
			c-2.72-8.16,0-40.11,0-40.11c-4.27,2.2-4.93,33.58-4.93,33.58c-3.32-8.52,2.15-46.06,2.15-46.06l0.02-0.16
			c0.33-1.16,0.69-2.33,1.06-3.53l0.04-0.08c0,0,0.4-0.01,1.06-0.01c3.22-0.03,12.89,0.04,16.45,1.77c4.29,2.1,4.74,8.48,4.74,8.48
			s-0.33-0.02-0.9,0c-3.24,0.07-14.14,1.09-13.86,11.78v28.19c-0.11,4.1,1.44,6.78,3.56,8.53c3.44,2.84,8.41,3.22,10.37,3.25
			c0.04,0.01,0.08,0.01,0.11,0.01C531.7,343.36,531.96,343.35,531.96,343.35z"/>
		<path class="st17" d="M528.96,288.29c0,0-0.19-5.63-16.59-5.73c0,0-0.39,1.26-0.58,2.86
			C511.79,285.42,521.98,285.41,528.96,288.29z"/>
		<path class="st11" d="M238.05,343.35c0,0,0.44,6.39,4.74,8.48c0.49,0.24,1.08,0.44,1.76,0.62c4.89-2.85,12.13-8.84,14.09-14.73
			c2.72-8.16,0-40.11,0-40.11c4.27,2.2,4.93,33.58,4.93,33.58c3.32-8.52-2.15-46.06-2.15-46.06l-0.02-0.16
			c-0.33-1.16-0.69-2.33-1.06-3.53l-0.04-0.08c0,0-0.4-0.01-1.06-0.01c-3.22-0.03-12.89,0.04-16.45,1.77
			c-4.29,2.1-4.74,8.48-4.74,8.48s0.33-0.02,0.9,0c3.24,0.07,14.14,1.09,13.86,11.78v28.19c0.11,4.1-1.44,6.78-3.56,8.53
			c-3.44,2.84-8.41,3.22-10.37,3.25c-0.04,0.01-0.08,0.01-0.11,0.01C238.31,343.36,238.05,343.35,238.05,343.35z"/>
		<path class="st17" d="M241.04,288.28c0,0,0.19-5.63,16.59-5.73c0,0,0.39,1.26,0.58,2.86
			C258.22,285.42,248.03,285.41,241.04,288.28z"/>
		<path class="st18" d="M425.54,438.71c-33.04,10.83-80.62,0-80.62,0c-0.68-3.14-1.16-6.33-1.48-9.49c0,0,43.2,3.34,52-8.26
			c8.79-11.6-2.64-31.09-2.64-31.09h0.01c18.72,1.12,32.73,4.67,32.73,4.67c1.28,6.44,1.94,12.39,2.19,17.7c0,0.01,0,0.01,0,0.01
			C428.5,428.46,425.54,438.71,425.54,438.71z"/>
		<path class="st16" d="M273.04,425.67c-4.96,5.37,5.85,13.61,5.85,13.61s-3.28,17.77-7.15,19.63c-3.88,1.85-4.1-0.9-4.1-0.9
			s-9.14,30.7-17.26,33.05c-0.13-2.05-0.24-4.11-0.33-6.18c-0.19-3.98-0.3-7.97-0.33-11.86c-0.02-1.03-0.01-2.06,0-3.09
			c0.03-4.52,0.21-8.89,0.56-12.95c0.11-1.27,0.24-2.51,0.38-3.71c0.18-1.48,0.4-2.9,0.63-4.27c0.43-2.4,0.95-4.61,1.57-6.59
			c2.51-7.93,6.39-12.99,10.57-16.2c9.5-7.24,20.63-4.94,21.26-4.8C284.23,421.34,277.8,420.49,273.04,425.67z"/>
		<path class="st14" d="M245.02,485.4c0,0,0,0.02-0.01,0.04c0,0.02-0.01,0.05-0.02,0.1c0,0.02-0.01,0.05-0.01,0.08
			c-0.01,0.02-0.01,0.04-0.02,0.06c-0.01,0.04-0.02,0.09-0.02,0.14c-0.02,0.15-0.05,0.36-0.09,0.59c-0.04,0.24-0.08,0.52-0.13,0.84
			c-0.02,0.13-0.05,0.27-0.07,0.4c-0.03,0.21-0.06,0.43-0.1,0.68c-0.03,0.2-0.07,0.4-0.1,0.62c-0.01,0.04-0.02,0.08-0.02,0.11
			c-0.05,0.29-0.09,0.59-0.14,0.92c-0.02,0.1-0.03,0.2-0.05,0.3c-0.02,0.1-0.03,0.21-0.05,0.31c-0.21,1.33-0.45,2.89-0.71,4.64
			c-0.08,0.54-0.17,1.1-0.25,1.69c-0.24,1.58-0.49,3.3-0.77,5.12c-0.09,0.59-0.17,1.19-0.27,1.79c-0.1,0.68-0.21,1.38-0.31,2.09
			c-0.13,0.9-0.26,1.81-0.4,2.74c-0.19,1.3-0.38,2.64-0.58,4.01h-2.99c-0.1,0.02-0.15,0.02-0.15,0.02v-0.02h-24.65
			c0.58-8.17,1.24-15.63,1.96-21.21c0.1-0.75,0.2-1.47,0.3-2.16c0.04-0.26,0.08-0.52,0.13-0.77c0.02-0.11,0.05-0.24,0.07-0.35
			c0.03-0.16,0.07-0.32,0.11-0.47c0.05-0.21,0.1-0.41,0.16-0.61c-0.01-0.02,0-0.03,0.01-0.05c0.02-0.05,0.03-0.11,0.05-0.16
			c0.38-1.33,0.9-2.45,1.52-3.38c0.11-0.16,0.21-0.3,0.33-0.45c0.07-0.11,0.15-0.21,0.24-0.3c0.1-0.13,0.2-0.25,0.31-0.36
			c0.12-0.14,0.25-0.27,0.39-0.4c0.32-0.3,0.65-0.58,0.99-0.83c0.16-0.11,0.33-0.23,0.49-0.33c0.14-0.08,0.27-0.16,0.4-0.24
			c0.08-0.05,0.16-0.09,0.24-0.13c0.07-0.04,0.14-0.07,0.21-0.1c0.07-0.03,0.14-0.07,0.21-0.1c5.77-2.6,14.28,0.46,19.41,2.84
			c0.33,0.15,0.65,0.3,0.94,0.45c0.25,0.12,0.49,0.24,0.72,0.36c0.68,0.34,1.26,0.65,1.7,0.89
			C244.65,485.18,245.02,485.4,245.02,485.4z"/>
		<path class="st15" d="M244.97,485.68c-0.01,0.04-0.02,0.09-0.02,0.14c-0.02,0.15-0.05,0.36-0.09,0.59
			c-0.04,0.24-0.08,0.52-0.13,0.84c-0.02,0.13-0.05,0.27-0.07,0.4c-0.03,0.21-0.06,0.43-0.1,0.68c-0.03,0.2-0.07,0.4-0.1,0.62
			c-0.01,0.04-0.02,0.08-0.02,0.11c-0.05,0.29-0.09,0.59-0.14,0.92c-0.02,0.1-0.03,0.2-0.05,0.3c-0.02,0.1-0.03,0.21-0.05,0.31
			c-0.21,1.33-0.45,2.89-0.71,4.64c-0.08,0.54-0.17,1.1-0.25,1.69c-0.24,1.58-0.49,3.3-0.77,5.12c-0.09,0.59-0.17,1.19-0.27,1.79
			c-0.1,0.68-0.21,1.38-0.31,2.09c-0.13,0.9-0.26,1.81-0.4,2.74c-0.19,1.3-0.38,2.64-0.58,4.01h-2.96
			c0.68-6.45,2.96-24.04,2.96-24.04c-5.66-2.42-25.84,3.48-25.84,3.48c0.1-0.79,0.2-1.56,0.3-2.28c0.04-0.27,0.08-0.55,0.13-0.81
			c0.02-0.12,0.05-0.25,0.07-0.37c0.03-0.17,0.07-0.33,0.11-0.5c0.05-0.21,0.1-0.43,0.16-0.64c-0.01-0.02,0-0.04,0.01-0.05
			c0.02-0.05,0.03-0.11,0.05-0.17c0.38-1.41,0.9-2.59,1.52-3.58c0.11-0.17,0.21-0.32,0.33-0.47c0.07-0.11,0.15-0.22,0.24-0.33
			c0.1-0.14,0.2-0.27,0.31-0.39c0.12-0.15,0.25-0.29,0.39-0.43c0.32-0.32,0.65-0.61,0.99-0.87c0.16-0.12,0.33-0.24,0.49-0.35
			c0.14-0.08,0.27-0.17,0.4-0.24c0.08-0.05,0.16-0.1,0.24-0.14c0.07-0.04,0.14-0.08,0.21-0.11c0.07-0.03,0.14-0.07,0.21-0.1l19.41,3
			c0.33,0.16,0.65,0.32,0.94,0.47c0.25,0.13,0.49,0.26,0.72,0.38c0.68,0.36,1.26,0.68,1.7,0.94
			C244.52,485.4,244.86,485.6,244.97,485.68z"/>
		<path class="st9" d="M264.91,457.87c-1.68,12.44-9.95,30.17-19.86,27.24c-10.77-3.19-30.25,3.44-32.42,4.58
			c-2.16,1.13-9.98,6.02-13.6,2.01c-5.43-5.7-4.1-16.37-2.65-22.75c0.71-3.11,1.45-5.2,1.45-5.2l2.33-10.43
			c0,0,65.57-10.86,65.03,1.44C265.15,455.73,265.05,456.78,264.91,457.87z"/>
		<path class="st18" d="M264.91,457.87L264.91,457.87c0,0-42.61-3.15-54.07-0.35c-5.97,1.46-11,6.72-14.46,11.42
			c0.71-3.11,1.45-5.2,1.45-5.2l2.33-10.43c0,0,65.57-10.86,65.03,1.44C265.15,455.73,265.05,456.78,264.91,457.87z"/>
		<path class="st9" d="M275.72,441.14c0,0-16.43-28.57-52.18-36.74c-35.75-8.18-32.21,64.91-32.21,64.91s15.57-14.35,22.39-15.22
			c13.2-1.68,46.83-1.72,55.36,1.71C269.09,455.8,275.23,449.06,275.72,441.14z"/>
		<path class="st8" d="M196.81,442.69c-0.81,0.87-1.63,1.68-2.47,2.39c0,0-0.01,0.01-0.02,0.02c-0.74,0.64-1.5,1.21-2.24,1.71
			c0,0-1.25-6.15-0.84-13.57c0.28-4.97,1.31-10.51,3.97-15.18c2.09-3.66,5.18-6.76,9.71-8.62c0.07,0.19,0.13,0.39,0.18,0.58
			c0.1,0.3,0.19,0.59,0.27,0.9C208.79,423.2,203.47,435.48,196.81,442.69z"/>
		<path class="st11" d="M205.37,415.54c-0.26,7.37-7.25,24-8.99,24.58c-1.74,0.59-1.28-9.06-1.28-9.06
			c-2.24,5.82-0.76,14.02-0.76,14.02s-0.01,0.01-0.02,0.02c-0.74,0.64-1.5,1.21-2.24,1.71c0,0-1.25-6.15-0.84-13.57
			c0.28-4.97,1.31-10.51,3.97-15.18c2.09-3.66,5.18-6.76,9.71-8.62c0.07,0.19,0.13,0.39,0.18,0.58c-4.54,2.52-7.14,13.92-7.14,13.92
			S205.63,408.17,205.37,415.54z"/>
		<path class="st17" d="M203.56,410.93c0,0-9.65,9.08-11.2,22.92C192.36,433.85,191.15,418.41,203.56,410.93z"/>
		<path class="st16" d="M523.31,475.72L523.31,475.72c-0.09,5.28-0.33,10.68-0.68,15.98c-4,0-27.44-29.12-27.44-29.12
			s2.52-26.78,5.18-28.53s10.54-6.77,10.54-6.77c3.69,3.22,7.03,8.03,9.28,15.13c2.11,6.65,2.99,15.93,3.13,26.1
			C523.36,470.87,523.36,473.28,523.31,475.72z"/>
		<g>
			<path class="st12" d="M586.96,456.41c-3.97,16.05-12.37,50.04-41.84,40.93c-29.48-9.11-44.74-38.33-44.74-38.33l3.06-23.24
				c0.94-0.81,17.69-9.03,34.5-14.71c7.83-2.64,15.67-4.74,21.94-5.28c0.72-0.06,1.42-0.1,2.1-0.12
				C581.16,415.12,590.92,440.37,586.96,456.41z"/>
			<path class="st8" d="M568.91,493.78c-1.02-1.27-1.96-2.51-2.84-3.72c-22.35-30.73-1.79-43.01,11.52-47.48
				c5.2-1.76,9.3-2.31,9.3-2.31C596.3,476.97,568.91,493.78,568.91,493.78z"/>
			<path class="st11" d="M568.91,493.78c-1.02-1.27-1.96-2.51-2.84-3.72c10.32-0.46,11.16-16.36,11.16-16.36
				c-5.69,9.71-10.61,9.31-10.61,9.31c-12.94-22.12,4.92-35.32,8.28-35.32c3.37,0,7.12,10.09,7.12,10.09
				c1.29-10.09-4.42-15.2-4.42-15.2c5.2-1.76,9.3-2.31,9.3-2.31C596.3,476.97,568.91,493.78,568.91,493.78z"/>
			<path class="st17" d="M581.76,443.42c0,0,4.78,23.16-1.42,32.22c0,0,11.52-11.39,5.95-32.99
				C586.28,442.65,583.97,441.8,581.76,443.42z"/>
		</g>
		<g>
			<path class="st19" d="M540.48,203.88c-4.8,5.77-14.66,6.45-14.66,6.45c-8.54-4.91-10.25-14.55-9.94-20.18
				c0.11-2.11,0.5-3.66,0.93-4.2c1.55-1.95-0.13-11.13-0.13-11.13c3.88,2.33,5.44,9.83,5.44,9.83c1.16-3.1-6.6-14.23-6.6-14.23
				c9.88,1.8,16.65,6.75,20.88,12.37C542.52,190.91,543.31,200.46,540.48,203.88z"/>
			<path class="st8" d="M536.39,182.78c0,0-2.77-1.5-5.49-0.27c-2.71,1.22-1.03,2.58-3.69,4.46c-2.65,1.88-1.62-0.59-5.63,0
				c-4.01,0.58-2.53,3.43-4.14,3.88c-0.68,0.19-1.13-0.21-1.57-0.71c0.11-2.11,0.5-3.66,0.93-4.2c1.55-1.95-0.13-11.13-0.13-11.13
				c3.88,2.33,5.44,9.83,5.44,9.83c1.16-3.1-6.6-14.23-6.6-14.23C525.39,172.21,532.17,177.16,536.39,182.78z"/>
		</g>
	</g>
	<g>
		<g>
			<path class="st20" d="M582.15,306.14c-1.92,5.98-61.57-85.53-58.8-93.16c0,0,2.65-3.85,8.36-6.61c3.16-1.53,7.27-2.71,12.39-2.71
				c13.37,0,36.46,83.56,38.06,99.98C582.28,304.87,582.28,305.72,582.15,306.14z"/>
			<path class="st21" d="M582.16,303.65c-13.11-28.67-39.78-77.82-50.45-97.27c3.16-1.53,7.27-2.71,12.39-2.71
				C557.47,203.67,580.56,287.23,582.16,303.65z"/>
		</g>
		<path class="st22" d="M572.7,384.68c0,0-4.01-5.09-7.57-10.65c0.93,0.04,1.81,0.07,2.6,0.11
			C570.42,380.64,572.7,384.68,572.7,384.68z"/>
		<rect x="254.55" y="506.49" class="st23" width="0.02" height="0.01"/>
		<path class="st24" d="M238.05,343.35c0,0,0.44,6.39,4.74,8.48c3,1.46,10.35,1.74,14.52,1.78c4.62-6.87,10.21-17.71,10.41-31.48
			c0.02-1.55-0.01-3.62-0.44-7.76c-0.82-7.95-2.62-19.14-6.94-32.94l-0.04-0.08c0,0-0.39-0.01-1.06-0.01
			c-3.22-0.03-12.89,0.04-16.45,1.78c-4.29,2.09-4.74,8.48-4.74,8.48s0.33-0.02,0.9,0c3.24,0.07,14.14,1.1,13.86,11.79v28.18
			c0.11,4.11-1.43,6.79-3.55,8.53c-3.44,2.83-8.41,3.22-10.37,3.25c-0.04,0-0.08,0-0.11,0
			C238.31,343.37,238.05,343.35,238.05,343.35z"/>
		<path class="st25" d="M238.88,343.35c1.96-0.03,6.93-0.42,10.37-3.25c2.12-1.75,3.66-4.43,3.55-8.53v-28.18
			c0.28-10.69-10.62-11.72-13.86-11.79C238.75,292.21,230.67,317.57,238.88,343.35z"/>
		<g>
			<g>
				<path class="st23" d="M478.32,320.64c-0.03,0.11-0.51,1.55-1.75,3.81C477.11,323.22,477.69,321.95,478.32,320.64z"/>
			</g>
			<path class="st23" d="M293.3,324.01c0,0.01,0,0.01,0.01,0.02C293.31,324.03,293.3,324.03,293.3,324.01
				C293.31,324.02,293.3,324.02,293.3,324.01z M293.25,323.89c-0.43-0.96-0.89-1.94-1.38-2.95c0,0,0,0-0.01-0.01
				c-0.01-0.03-0.02-0.06-0.04-0.09c-0.02-0.03-0.02-0.05-0.03-0.08c0-0.02-0.01-0.02-0.01-0.03v-0.02
				c-0.02-0.01-0.02-0.02-0.02-0.03l-0.01-0.01c0,0.01,0.01,0.02,0.01,0.04c0,0.01,0.01,0.02,0.01,0.03
				c0.01,0.02,0.02,0.03,0.02,0.05c0.02,0.03,0.03,0.08,0.05,0.12v0.01c0.02,0.04,0.03,0.08,0.05,0.14c0,0,0,0,0,0.01
				c0.02,0.04,0.04,0.08,0.06,0.13c0,0.01,0,0.02,0.01,0.02v0.01c0.02,0.05,0.05,0.11,0.07,0.18l0.01,0.01
				c0.02,0.03,0.03,0.07,0.05,0.11c0.02,0.03,0.03,0.06,0.04,0.09l0.01,0.01c0.03,0.08,0.06,0.15,0.1,0.24
				c0.04,0.08,0.08,0.16,0.11,0.24c0,0,0,0,0.01,0.01c0.05,0.09,0.08,0.18,0.13,0.28c0.04,0.08,0.08,0.16,0.11,0.24
				c0.01,0.02,0.02,0.02,0.02,0.04c0.01,0.01,0.01,0.01,0.02,0.02c0.02,0.05,0.05,0.11,0.08,0.16c0.08,0.16,0.16,0.33,0.25,0.5
				c0.06,0.11,0.12,0.23,0.18,0.35c0.04,0.07,0.08,0.14,0.11,0.21c0,0,0,0,0.01,0.01c0.02,0.03,0.03,0.06,0.05,0.09
				c0,0-0.01,0,0-0.01C293.29,323.97,293.26,323.93,293.25,323.89z"/>
			<path class="st23" d="M513.37,354.56c-41.69,69.18-121.13,77.06-128.05,77.62c-0.11,0.01-0.5,0-0.5,0
				c-4.48-0.36-41.93-3.99-78.69-27.38l-0.01-0.01c-10.19-6.48-20.33-14.5-29.7-24.37c-7.12-7.49-13.77-16.05-19.68-25.86
				c0.21-0.3,0.42-0.62,0.64-0.94c4.61-6.86,10.2-17.71,10.41-31.48c0.02-1.55-0.02-3.63-0.44-7.77
				c-0.82-7.97-2.62-19.17-6.96-33.01c-0.52-1.69-1.09-3.41-1.7-5.18c1.22,1.14,2.48,2.34,3.79,3.63
				c9.38,9.29,20.61,22.7,29.28,40.82c0,0,0,0.01,0.01,0.01c0.01,0.02,0.02,0.05,0.03,0.08v0.01c-0.02-0.02-0.03-0.05-0.04-0.07
				c-0.01-0.01-0.01-0.02-0.02-0.03c0,0.02,0.02,0.05,0.03,0.09c0.02,0.05,0.05,0.11,0.08,0.2c0.03,0.08,0.07,0.19,0.12,0.31
				c0.05,0.11,0.1,0.24,0.16,0.39c0.25,0.59,0.64,1.41,1.19,2.43c-0.02-0.05-0.05-0.1-0.07-0.16c0.03,0.07,0.07,0.13,0.1,0.2
				c0,0,0.01,0,0.01,0.01c2.2,4.04,7.02,11.05,16.53,17.88c13.57,9.77,36.69,19.19,75.38,19.19c65.03,0,85.78-26.62,91.32-36.71
				c1.25-2.27,1.72-3.7,1.76-3.82c0-0.01,0-0.01,0-0.01c0.48-1,0.96-1.97,1.44-2.93c0.16-0.3,0.32-0.62,0.47-0.91
				c0.34-0.65,0.68-1.29,1.02-1.93c0.17-0.31,0.33-0.62,0.51-0.93c0.43-0.79,0.87-1.57,1.31-2.34c0.17-0.31,0.36-0.62,0.53-0.93
				c0.07-0.12,0.14-0.24,0.21-0.36c0.16-0.28,0.33-0.56,0.49-0.84c0.98-1.64,1.98-3.24,2.98-4.79c0.24-0.37,0.49-0.74,0.73-1.11
				c0.62-0.93,1.25-1.85,1.88-2.75c0.28-0.4,0.57-0.81,0.85-1.21c0.3-0.43,0.6-0.84,0.9-1.25c1.19-1.63,2.39-3.22,3.59-4.73
				c3.78-4.77,7.55-8.94,11.1-12.53c1.76-1.78,3.45-3.41,5.07-4.92c-0.62,1.79-1.19,3.55-1.73,5.27
				c-4.32,13.8-6.13,24.98-6.94,32.93c-0.43,4.14-0.46,6.22-0.44,7.77c0.21,13.77,5.8,24.61,10.41,31.48
				C512.95,353.94,513.16,354.26,513.37,354.56z"/>
		</g>
		<path class="st23" d="M293.33,324.08c-1.12-2.05-1.56-3.34-1.59-3.45c0.02,0.03,0.03,0.07,0.05,0.1c0,0.01,0.01,0.02,0.01,0.03
			c0.13,0.37,0.57,1.48,1.45,3.12C293.27,323.96,293.3,324.02,293.33,324.08z"/>
		<path class="st26" d="M507.88,270.02c0,0-0.78,0.77-2.12,2.21c-2.27,2.45-6.14,6.82-10.52,12.57c-2.03,2.66-4.17,5.62-6.29,8.81
			c-0.53,0.79-1.05,1.6-1.57,2.41c-0.02,0.03-0.05,0.07-0.07,0.1c-0.22,0.36-0.46,0.71-0.68,1.07c-0.23,0.36-0.45,0.72-0.68,1.09
			c-0.03,0.05-0.06,0.1-0.09,0.14c-0.26,0.42-0.51,0.84-0.76,1.26c-0.25,0.42-0.51,0.84-0.76,1.26c-0.23,0.4-0.45,0.78-0.68,1.18
			c-0.02,0.04-0.05,0.08-0.07,0.11c-0.25,0.43-0.49,0.87-0.74,1.31c-0.24,0.43-0.49,0.88-0.72,1.32c-0.24,0.42-0.46,0.84-0.68,1.26
			c-0.6,1.13-1.19,2.28-1.76,3.44c-0.11,0.24-0.24,0.47-0.34,0.71c-0.17,0.35-0.34,0.7-0.51,1.06c-0.14,0.3-0.28,0.61-0.43,0.91
			c-0.36,0.77-0.69,1.54-1.03,2.3l0.02,0.11c0,0-0.02,0.02-0.05,0.07c-1.1,1.75-23.85,36.53-91.3,36.53
			c-69.2,0-92.96-36.59-92.96-36.59l-0.01-0.01l-0.06-0.17c-0.21-0.51-0.44-1.02-0.67-1.52c0-0.01-0.01-0.01-0.01-0.01
			c-0.21-0.49-0.44-0.97-0.66-1.45c-0.03-0.06-0.05-0.12-0.08-0.18c-0.19-0.4-0.37-0.78-0.56-1.18c-0.3-0.62-0.61-1.24-0.91-1.85
			c-0.22-0.44-0.45-0.87-0.67-1.31c-0.29-0.55-0.59-1.12-0.88-1.66c-0.22-0.41-0.44-0.82-0.67-1.22c0-0.02-0.01-0.02-0.02-0.04
			c-0.25-0.46-0.51-0.92-0.77-1.38c-0.55-0.97-1.1-1.91-1.66-2.84c-0.21-0.36-0.43-0.72-0.65-1.08c-0.06-0.1-0.12-0.21-0.19-0.3
			c-0.28-0.46-0.56-0.91-0.84-1.37c-0.29-0.45-0.56-0.9-0.85-1.34c-0.28-0.44-0.57-0.88-0.85-1.32c-0.32-0.49-0.65-0.98-0.97-1.46
			c-0.25-0.36-0.5-0.73-0.74-1.09c-0.28-0.41-0.56-0.83-0.85-1.23c0-0.01,0-0.01,0-0.01c-0.28-0.4-0.57-0.81-0.85-1.21
			c-0.28-0.4-0.56-0.79-0.84-1.18c-0.28-0.39-0.56-0.78-0.84-1.16c-0.74-1-1.47-1.97-2.17-2.9c-0.24-0.3-0.46-0.6-0.69-0.89
			c-0.93-1.2-1.83-2.33-2.69-3.39c-0.25-0.3-0.49-0.6-0.74-0.89c-1.09-1.32-2.11-2.52-3.03-3.58c-0.13-0.14-0.25-0.29-0.38-0.43
			c-0.26-0.3-0.52-0.59-0.77-0.87c-0.18-0.21-0.36-0.4-0.54-0.59c-0.1-0.12-0.21-0.24-0.3-0.34c-0.15-0.17-0.3-0.33-0.44-0.49
			c-0.47-0.52-0.89-0.97-1.25-1.35c-0.12-0.14-0.24-0.27-0.35-0.38c-0.74-0.77-1.15-1.18-1.15-1.18
			c5.83-29.55,26.43-38.9,29.55-40.15c0.27-0.11,0.4-0.16,0.4-0.16c-0.74-4.7,2.27-6.32,2.27-6.32c1.66,2.36,3.42,4.59,5.27,6.69
			c0.33,0.39,0.68,0.78,1.03,1.15l0.03,0.12c0.19,0.21,0.37,0.41,0.57,0.61c2.22,2.38,4.55,4.58,6.97,6.62
			c3.65,3.08,7.48,5.78,11.4,8.15c13.23,8.01,27.5,12.28,39.33,14.56c0.02,0,0.02,0,0.02,0c9.11,1.76,16.77,2.33,21.36,2.5
			c0.13,0,0.25,0.01,0.37,0.01c0.08,0.01,0.17,0.02,0.24,0.02c0.21,0.01,0.4,0.01,0.59,0.02h0.17c0.11,0.01,0.22,0.01,0.33,0.02
			c1.37,0.03,2.29,0.02,2.69,0.02h0.08c0.06,0,0.11-0.01,0.14-0.01c0.01,0,0.01,0,0.02,0v0.19h0.65c0.48,0,1.1,0,1.87-0.02
			c0.11,0,0.21-0.01,0.33-0.01h0.17c0.63-0.02,1.35-0.05,2.13-0.08c1.11-0.05,2.36-0.12,3.76-0.24c0.24-0.02,0.47-0.04,0.72-0.05
			c11.23-0.89,30.32-3.79,48.55-12.98c0.11-0.05,0.23-0.11,0.34-0.17c2.62-1.33,5.22-2.8,7.78-4.4c0.13-0.08,0.26-0.16,0.39-0.25
			c0.02-0.01,0.03-0.02,0.05-0.03c4.41-2.8,8.67-6.02,12.67-9.75c0.9-0.84,1.79-1.7,2.68-2.6c0.14-0.15,0.29-0.3,0.43-0.44
			c0.43-0.43,0.84-0.87,1.25-1.32c0.4-0.43,0.79-0.86,1.17-1.3c0.08-0.08,0.15-0.17,0.23-0.25c0.05-0.05,0.09-0.11,0.14-0.16
			c0.05-0.05,0.08-0.09,0.12-0.14l0.55,0.14c-0.08-0.08-0.21-0.18-0.38-0.33c0.02-0.01,0.02-0.02,0.03-0.04
			c1.65-1.9,3.22-3.92,4.71-6.04c0,0,3.01,1.62,2.27,6.32C477.92,229.71,501.57,238,507.88,270.02z"/>
		<path class="st23" d="M385.31,263.67c-0.03,0-0.08,0-0.14,0c0.02,0,0.04,0,0.06,0H385.31z"/>
		<path class="st23" d="M293.09,314.65c-0.01-0.02-0.04-0.08-0.06-0.17L293.09,314.65z"/>
		<path class="st23" d="M381.06,263.62c-0.12,0-0.25-0.01-0.38-0.01c-4.59-0.18-12.25-0.75-21.36-2.5c0,0,0,0-0.02,0
			c-15.33-2.95-34.79-9.26-50.73-22.71c-2.62-2.21-5.15-4.61-7.54-7.23l-0.03-0.13c0.03,0.04,0.07,0.08,0.11,0.13
			c2.39,2.61,4.92,5.01,7.54,7.23c15.94,13.45,35.4,19.76,50.73,22.71c0.01,0,0.02,0,0.02,0c9.11,1.76,16.77,2.33,21.36,2.5
			C380.87,263.61,380.97,263.61,381.06,263.62z"/>
		<path class="st23" d="M385.4,263.66v0.19h-0.08v-0.19C385.37,263.66,385.4,263.66,385.4,263.66z"/>
		<path class="st23" d="M471.29,229.81l-0.55-0.14c0,0,0.01-0.01,0.01-0.02c0.05-0.06,0.1-0.12,0.15-0.18
			C471.08,229.63,471.21,229.74,471.29,229.81z"/>
		<path class="st23" d="M385.4,263.66c0,0-0.03,0-0.08,0c0,0,0,0-0.01,0c-0.03,0-0.08,0-0.14,0h-0.08c-0.4,0-1.32,0.01-2.69-0.02
			c-0.11,0-0.22,0-0.33-0.01c-0.06,0-0.12,0-0.18,0c-0.19,0-0.38-0.01-0.58-0.02c-0.17-0.01-0.35-0.01-0.54-0.02l0,0l4.54,0.06
			H385.4z"/>
		<path class="st23" d="M385.97,263.86h-0.08c-0.19,0-0.35,0-0.49,0v-0.19L385.97,263.86z"/>
		<path class="st27" d="M293.1,314.66L293.1,314.66z"/>
		<g>
			<path class="st24" d="M300.82,230.25L300.82,230.25c-0.07-0.06-0.11-0.11-0.17-0.17c0.05-0.1,0.08-0.14,0.08-0.14L300.82,230.25z
				"/>
			<path class="st24" d="M386.28,208.12h0.25C386.45,208.12,386.37,208.12,386.28,208.12L386.28,208.12z"/>
			<path class="st24" d="M471.29,229.81l-0.55-0.14c-0.04,0.05-0.08,0.09-0.12,0.14c-1.92,2.2-3.92,4.26-6,6.18
				c-3.97,3.69-8.19,6.88-12.56,9.65c-0.02,0.01-0.03,0.02-0.05,0.03c-0.01-0.01-0.02-0.02-0.03-0.03c4.36-2.77,8.6-5.97,12.57-9.65
				c2.08-1.92,4.09-3.98,6-6.18c0.04-0.05,0.09-0.1,0.13-0.15c0.06-0.07,0.13-0.14,0.19-0.22c0.02,0.02,0.03,0.03,0.05,0.04
				C471.08,229.62,471.21,229.73,471.29,229.81z"/>
			<path class="st24" d="M470.86,229.43c-0.06,0.08-0.13,0.15-0.19,0.22c-0.04,0.05-0.09,0.1-0.13,0.15c-1.91,2.2-3.91,4.26-6,6.18
				c-3.97,3.68-8.2,6.88-12.57,9.65c-0.14,0.1-0.3,0.19-0.44,0.28c-20.42,12.82-43.66,16.5-56.59,17.54
				c-0.25,0.02-0.49,0.04-0.72,0.05c-1.38,0.11-2.65,0.18-3.76,0.24c-0.78,0.03-1.5,0.05-2.13,0.08h-0.17
				c-0.11,0-0.22,0.01-0.33,0.01c-0.77,0.02-1.39,0.02-1.87,0.02h-0.65v-0.19c0,0-0.03,0-0.09,0c-0.04,0-0.08,0.01-0.14,0.01
				c-0.4,0-1.32,0.02-2.69-0.02c-0.11-0.01-0.21-0.01-0.33-0.02h-0.17c-0.19-0.01-0.38-0.01-0.59-0.02c-0.08,0-0.16-0.01-0.24-0.02
				c-0.12,0-0.24-0.01-0.37-0.01c-4.59-0.17-12.25-0.74-21.36-2.5c0,0,0,0-0.02,0c-12.18-2.35-26.96-6.81-40.52-15.29
				c-3.51-2.19-6.94-4.65-10.22-7.42c-2.62-2.21-5.15-4.61-7.54-7.23l-0.03-0.12l-0.2-0.78v-0.02l-0.08-0.31v-0.01
				c0.05-0.05,0.96-0.88,2.82-2.18c1.86-1.31,4.68-3.09,8.57-5.06c3.22-1.62,7.15-3.36,11.9-5.06c5.58-2,12.26-3.95,20.15-5.54
				c1.79-0.36,3.63-0.71,5.55-1.03c6.28-1.06,13.24-1.91,20.93-2.41c4.91-0.32,10.12-0.51,15.64-0.52h0.37
				c0.78,0,1.54,0.01,2.3,0.02c3.19,0.03,6.29,0.13,9.27,0.27c4.03,0.21,7.87,0.49,11.52,0.87c10.44,1.06,19.38,2.76,26.95,4.74
				c4.45,1.16,8.42,2.42,11.93,3.71h0.01c10.56,3.86,17.1,7.93,20.32,10.25C469.83,228.61,470.45,229.11,470.86,229.43z"/>
			<path class="st24" d="M470.74,229.67c-0.04,0.05-0.08,0.09-0.12,0.14c-1.92,2.2-3.92,4.26-6,6.18
				c-3.97,3.69-8.19,6.88-12.56,9.65c-0.02,0.01-0.03,0.02-0.05,0.03c-0.01-0.01-0.02-0.02-0.03-0.03c4.36-2.77,8.6-5.97,12.57-9.65
				c2.08-1.92,4.09-3.98,6-6.18c0.04-0.05,0.09-0.1,0.13-0.15L470.74,229.67z"/>
		</g>
		<path class="st24" d="M506.33,281.09c-3.55,3.59-7.32,7.76-11.1,12.53c-1.2,1.51-2.4,3.09-3.59,4.73c-0.3,0.41-0.6,0.83-0.9,1.25
			c-0.28,0.4-0.57,0.81-0.85,1.21c-0.63,0.9-1.25,1.82-1.87,2.75c-0.25,0.37-0.49,0.74-0.73,1.11c-1,1.55-2,3.14-2.98,4.79
			c-0.16,0.28-0.33,0.56-0.49,0.84c-0.07,0.12-0.14,0.24-0.21,0.36c-0.18,0.31-0.36,0.61-0.53,0.92c-0.44,0.77-0.88,1.55-1.31,2.35
			c-0.17,0.31-0.34,0.62-0.5,0.93c-0.35,0.64-0.68,1.28-1.02,1.93c-0.16,0.31-0.32,0.61-0.47,0.92c-0.49,0.96-0.97,1.94-1.45,2.93
			c0,0,0,0,0,0.01c-0.03,0.11-0.51,1.55-1.75,3.81c-5.53,10.09-26.29,36.71-91.32,36.71c-18.51,0-33.45-2.16-45.5-5.47
			c-9.02-2.48-16.41-5.63-22.45-9c-14.55-8.13-21.25-17.62-23.96-22.6c0,0,0,0,0-0.01c-1.12-2.05-1.56-3.34-1.59-3.45
			c0,0,0-0.01,0-0.01c-8.67-18.13-19.91-31.53-29.29-40.82v-0.01c0.01-4.08,0.64-7.01,1.18-8.78c0.11,0.12,0.23,0.24,0.35,0.38
			c0.36,0.38,0.78,0.83,1.26,1.35c0.14,0.16,0.28,0.31,0.44,0.48c0.1,0.11,0.21,0.22,0.31,0.34c0.17,0.19,0.35,0.39,0.54,0.6
			c0.25,0.28,0.5,0.57,0.77,0.87c0.13,0.14,0.25,0.28,0.38,0.43c0.93,1.06,1.95,2.26,3.04,3.58c0.24,0.29,0.49,0.59,0.73,0.89
			c0.86,1.06,1.77,2.19,2.7,3.39c0.23,0.29,0.46,0.59,0.69,0.89c0.71,0.93,1.44,1.9,2.17,2.9c0.28,0.38,0.56,0.76,0.84,1.15
			s0.56,0.79,0.84,1.18c0.28,0.4,0.57,0.8,0.85,1.21c0,0,0,0,0,0c0.28,0.41,0.57,0.82,0.85,1.23c0.25,0.36,0.49,0.72,0.74,1.1
			c0.32,0.48,0.65,0.97,0.97,1.46c0.28,0.44,0.57,0.87,0.85,1.32c0.28,0.44,0.57,0.89,0.85,1.34c0.28,0.45,0.57,0.91,0.85,1.37
			c0.06,0.1,0.13,0.2,0.19,0.3c0.22,0.36,0.44,0.72,0.65,1.08c0.56,0.93,1.11,1.88,1.65,2.84c0.26,0.46,0.52,0.91,0.77,1.38
			c0.01,0.01,0.01,0.02,0.02,0.03c0.22,0.4,0.44,0.81,0.66,1.22c0.3,0.55,0.59,1.1,0.88,1.66c0.22,0.43,0.45,0.87,0.67,1.31
			c0.31,0.61,0.61,1.23,0.91,1.85c0.19,0.39,0.38,0.79,0.56,1.18c0.03,0.06,0.06,0.12,0.09,0.18c0.22,0.48,0.44,0.96,0.66,1.45
			c0,0,0,0,0,0.01c0.23,0.5,0.45,1.01,0.67,1.52l0.06,0.17l0,0.01c0,0,23.76,36.59,92.96,36.59s91.35-36.59,91.35-36.59l-0.02-0.11
			c0.34-0.77,0.68-1.54,1.03-2.3c0.14-0.31,0.28-0.61,0.43-0.91c0.17-0.35,0.34-0.71,0.5-1.06c0.11-0.24,0.23-0.47,0.35-0.7
			c0.57-1.16,1.16-2.31,1.76-3.45c0.22-0.42,0.45-0.84,0.68-1.26c0.24-0.44,0.48-0.88,0.73-1.32c0.25-0.44,0.49-0.88,0.74-1.31
			c0.02-0.04,0.04-0.08,0.06-0.12c0.23-0.39,0.45-0.79,0.68-1.17c0.25-0.42,0.5-0.85,0.75-1.27c0.25-0.42,0.51-0.84,0.76-1.26
			c0.03-0.05,0.06-0.1,0.09-0.15c0.23-0.36,0.45-0.72,0.68-1.08c0.22-0.36,0.45-0.72,0.68-1.07c0.02-0.03,0.04-0.07,0.06-0.1
			c0.53-0.82,1.05-1.62,1.57-2.41c2.13-3.2,4.26-6.15,6.29-8.81c4.38-5.75,8.26-10.12,10.53-12.57
			C506.23,274.14,506.63,277.07,506.33,281.09z"/>
		<path class="st24" d="M531.96,343.35c0,0-0.44,6.39-4.74,8.48c-0.49,0.24-1.08,0.44-1.76,0.62c-3.53,0.93-9.27,1.13-12.76,1.16
			c-4.61-6.86-10.2-17.71-10.41-31.48c-0.02-1.55,0.02-3.63,0.44-7.77c0.75-7.26,2.32-17.22,5.88-29.4
			c0.33-1.16,0.69-2.33,1.06-3.53l0.04-0.08c0,0,0.4-0.01,1.06-0.01c3.22-0.03,12.89,0.04,16.45,1.77c4.29,2.1,4.74,8.48,4.74,8.48
			s-0.33-0.02-0.9,0c-3.24,0.07-14.14,1.09-13.86,11.78v28.19c-0.11,4.1,1.44,6.78,3.56,8.53c3.44,2.84,8.41,3.22,10.37,3.25
			c0.04,0.01,0.08,0.01,0.11,0.01C531.7,343.37,531.96,343.35,531.96,343.35z"/>
		<path class="st25" d="M531.13,343.35c-1.96-0.03-6.93-0.42-10.37-3.25c-2.12-1.75-3.66-4.43-3.55-8.53v-28.18
			c-0.28-10.69,10.62-11.72,13.86-11.79C531.26,292.21,539.34,317.57,531.13,343.35z"/>
		<path class="st23" d="M254.53,506.83L254.53,506.83z"/>
		<path class="st23" d="M254.6,506.55L254.6,506.55z"/>
		<g>
			<path class="st24" d="M517.38,464.17c-0.21,2.49-0.47,4.55-0.65,5.77c-0.11,0.78-0.17,1.22-0.17,1.22
				c-0.7,13.41-1.95,27.27-3.94,41.54H260.45c-1.61-11.54-2.74-22.82-3.48-33.81c-0.17-2.59-0.33-5.16-0.46-7.72
				c0,0-1.09-6.68-1.18-13.9c-0.02-1.22-0.01-2.46,0.05-3.69c0.06-1.43,0.17-2.84,0.36-4.17c0.59-4.38,1.91-8.03,4.52-9.3
				c0,0,4.16-1.43,12.47-3.38c4.29-1.01,9.71-2.17,16.23-3.33c10.8-1.94,24.66-3.92,41.57-5.4c4.06-0.36,8.29-0.68,12.71-0.97
				c3.76-0.24,7.66-0.46,11.68-0.65c9.09-0.42,18.84-0.68,29.25-0.71c1.58-0.01,3.15-0.01,4.72,0c9.44,0.03,18.33,0.25,26.69,0.61
				c4.08,0.17,8.04,0.37,11.87,0.61c23.92,1.46,42.8,4.02,56.65,6.51c3.63,0.65,6.91,1.29,9.85,1.91c4.67,0.98,8.46,1.89,11.39,2.66
				c0.2,0.05,0.39,0.1,0.58,0.14c4.59,1.21,6.88,1.99,6.88,1.99C518.28,442.76,518.09,455.86,517.38,464.17z"/>
		</g>
		<polygon class="st23" points="386.74,469.16 386.74,469.43 386.49,469.3 		"/>
		<polygon class="st23" points="386.49,469.3 386.23,469.43 386.23,469.16 		"/>
		<g>
			<path class="st26" d="M523.31,475.72L523.31,475.72c-0.09,5.28-0.33,10.68-0.68,15.98c-0.47,7.4-1.15,14.6-1.84,21H252.26
				c-0.71-6.58-1.4-14.01-1.89-21.63c-0.13-2.05-0.24-4.11-0.33-6.18c-0.19-3.98-0.3-7.97-0.33-11.86c-0.02-1.03-0.01-2.06,0-3.09
				c0.03-4.52,0.21-8.89,0.56-12.95c0.11-1.27,0.24-2.51,0.38-3.71c0.18-1.48,0.4-2.9,0.63-4.27c0.43-2.4,0.95-4.61,1.57-6.59
				c2.51-7.93,6.39-12.99,10.57-16.2c9.5-7.24,20.63-4.94,21.26-4.8c0.02,0.01,0.03,0.01,0.03,0.01s1.7,5.09,4.23,11.97
				c5.25,14.32,14.07,36.43,18.53,36.63c6.61,0.3,21.36-12.56,79-12.57h0.08c57.64,0.02,72.39,12.87,79,12.57
				c4.47-0.2,13.29-22.31,18.54-36.63c2.52-6.89,4.23-11.97,4.23-11.97s10.39-2.4,19.82,3.76c0.94,0.61,1.86,1.31,2.77,2.1
				c3.69,3.22,7.03,8.03,9.28,15.13c2.11,6.65,2.99,15.93,3.13,26.1C523.36,470.88,523.36,473.28,523.31,475.72z"/>
		</g>
		<path class="st28" d="M425.54,438.71c-33.04,10.83-80.62,0-80.62,0c-0.68-3.14-1.16-6.33-1.48-9.49
			c-0.51-5.06-0.61-10.03-0.49-14.56c0.29-11.46,1.98-20.11,1.98-20.11c15.9-4.92,33.31-5.53,47.88-4.67h0.01
			c18.72,1.12,32.73,4.67,32.73,4.67c1.28,6.44,1.94,12.39,2.19,17.7c0,0.01,0,0.01,0,0.01
			C428.5,428.47,425.54,438.71,425.54,438.71z"/>
		<path class="st28" d="M557.26,391.64L557.26,391.64z"/>
		<path class="st29" d="M191.33,469.31c0,0,3.66-0.11,8.65-1.48c4.99-1.37-4.55-7.51-4.55-7.51L191.33,469.31z"/>
		<path class="st28" d="M572.7,375.16c-0.11-0.1-0.22-0.21-0.33-0.3c-0.11-0.11-0.22-0.2-0.33-0.3c-1.13-0.99-2.42-1.86-3.81-2.64
			c-0.36-0.21-0.74-0.42-1.13-0.61c-0.02-0.01-0.03-0.02-0.05-0.02c-0.33-0.17-0.67-0.34-1.02-0.49c-0.08-0.04-0.15-0.08-0.23-0.11
			c-0.18-0.09-0.36-0.17-0.55-0.24c-0.26-0.12-0.52-0.23-0.79-0.34c-0.22-0.09-0.45-0.18-0.68-0.27c-0.49-0.19-0.97-0.37-1.47-0.55
			c0,0,0,0-0.01,0c-0.24-0.08-0.47-0.17-0.71-0.24c-0.32-0.11-0.64-0.21-0.96-0.31c-0.47-0.15-0.95-0.29-1.43-0.43
			c-0.26-0.08-0.52-0.14-0.78-0.21c-4.14-1.11-8.38-1.78-12.03-2.17c-0.21-0.02-0.42-0.05-0.62-0.07c-0.78-0.08-1.51-0.14-2.22-0.21
			c-0.3-0.02-0.59-0.05-0.88-0.07c-0.43-0.03-0.84-0.06-1.25-0.08c-0.67-0.04-1.28-0.08-1.84-0.1c-0.37-0.02-0.71-0.02-1.03-0.04
			c0,0,0,0-0.01,0c-0.31-0.01-0.59-0.02-0.85-0.02c-0.95-0.02-1.48-0.02-1.48-0.02c-0.3-3.48-0.41-8.67-0.39-14.73
			c0.07-23.76,2.11-60.9,2.11-60.9c1.12-0.43,2.27-0.81,3.43-1.11c11.96-3.18,25.73-0.02,32.35,1.95h0.02
			c2.48,0.74,3.95,1.3,3.95,1.3C582.92,307.74,572.7,375.16,572.7,375.16z"/>
		<path class="st28" d="M572.04,374.79c-1.41-0.59-3.79-0.63-6.92-0.76c-6.81-0.29-17.19-1-28.92-8.71c0,0,0.53-0.01,1.48,0.02
			c0.26,0.01,0.54,0.02,0.85,0.02c0.01,0,0.01,0,0.01,0c0.32,0.02,0.66,0.02,1.03,0.04c0.55,0.02,1.17,0.06,1.84,0.1
			c0.4,0.02,0.81,0.05,1.25,0.08c0.29,0.02,0.59,0.05,0.88,0.07c0.71,0.06,1.44,0.12,2.22,0.21c0.21,0.02,0.41,0.05,0.62,0.07
			c3.65,0.4,7.89,1.06,12.03,2.17c0.26,0.07,0.52,0.14,0.78,0.21c0.48,0.14,0.96,0.27,1.43,0.43c0.32,0.1,0.64,0.2,0.96,0.31
			c0.24,0.08,0.48,0.16,0.71,0.24c0.01,0,0.01,0,0.01,0c0.49,0.17,0.98,0.36,1.47,0.55c0.23,0.08,0.46,0.17,0.68,0.27
			c0.27,0.11,0.53,0.22,0.79,0.34c0.18,0.08,0.36,0.16,0.55,0.24c0.08,0.03,0.15,0.07,0.23,0.11c0.35,0.15,0.68,0.32,1.02,0.49
			c0.02,0.01,0.03,0.02,0.05,0.02c0.39,0.19,0.77,0.4,1.13,0.61c1.39,0.78,2.68,1.65,3.81,2.64v0.01L572.04,374.79z"/>
		<path class="st29" d="M572.7,375.16c-0.19-0.14-0.4-0.27-0.65-0.36l-0.02-0.23c0.11,0.09,0.23,0.19,0.33,0.29
			C572.48,374.95,572.58,375.06,572.7,375.16z"/>
		<path class="st30" d="M556.48,404.92c-0.85,6.46-1.54,11.3-1.58,11.55c-5.21,0.94-11.09,2.62-16.97,4.6
			c0.6-5.26,1.27-11.14,2.01-17.52C542.67,402.93,556.48,404.92,556.48,404.92z"/>
		<path class="st30" d="M541.84,386.99c6.91,0.39,16.62,1.85,16.62,1.85c-0.2,1.82-0.42,3.67-0.64,5.52
			c-0.07,0.54-0.13,1.08-0.2,1.61c-0.17,1.44-0.36,2.88-0.53,4.27c-0.06,0.46-0.11,0.9-0.17,1.35c-0.08,0.58-0.14,1.16-0.22,1.72
			c-3.73-1.03-16.62-0.94-16.62-0.94C540.62,397.51,541.21,392.37,541.84,386.99z"/>
		<path class="st30" d="M559.63,376.11c-0.04,0.74-0.09,1.53-0.16,2.36c-0.03,0.33-0.05,0.65-0.08,1c-0.07,0.84-0.15,1.72-0.24,2.63
			c-0.02,0.18-0.04,0.36-0.05,0.55c-0.04,0.37-0.08,0.74-0.11,1.13c-0.02,0.14-0.03,0.3-0.05,0.44c-0.02,0.21-0.04,0.42-0.06,0.63
			c-0.05,0.47-0.1,0.95-0.15,1.43c-0.03,0.33-0.07,0.65-0.11,0.99c0,0.02,0,0.04-0.01,0.06c-0.04,0.35-0.08,0.71-0.11,1.06
			c0,0.02-0.01,0.05-0.01,0.08c-2.56-1.03-11.32-2.03-16.54-2.55c0.68-5.8,1.38-11.87,2.11-18.15c5.31,0.24,14.13,0.86,15.36,2.48
			c0.08,0.11,0.14,0.3,0.2,0.59c0.03,0.18,0.06,0.4,0.08,0.65C559.78,372.52,559.75,374.12,559.63,376.11z"/>
		<path class="st30" d="M573.72,290.53h-0.02c-1.86-0.55-4.29-1.2-7.08-1.78c-7.14-1.46-16.67-2.45-25.27-0.17
			c0,0-8.63-19.19,2.74-27.1c2.95-2.05,7.25-3.34,13.39-3.34C587.32,258.14,573.72,290.53,573.72,290.53z"/>
		<path class="st31" d="M563.01,369.54c-0.33,6.51-1.47,27.29-3.15,46.26c-1.57,0.13-3.23,0.36-4.97,0.68
			c0.04-0.24,0.73-5.09,1.58-11.55c0,0-13.8-1.99-16.54-1.38c0.04-0.39,0.08-0.78,0.13-1.18c0,0,12.89-0.09,16.62,0.94
			c0.08-0.56,0.14-1.14,0.22-1.72c0.06-0.44,0.11-0.9,0.17-1.35c0.17-1.39,0.36-2.83,0.53-4.27c0.07-0.53,0.13-1.07,0.2-1.61
			c0.22-1.85,0.44-3.7,0.64-5.52c0,0-9.71-1.47-16.62-1.85c0.05-0.36,0.08-0.71,0.12-1.08c5.22,0.52,13.98,1.52,16.54,2.55
			c0-0.03,0.01-0.05,0.01-0.08c0.04-0.36,0.08-0.71,0.11-1.06c0.01-0.02,0.01-0.04,0.01-0.06c0.04-0.33,0.08-0.66,0.11-0.99
			c0.05-0.48,0.11-0.96,0.15-1.43c0.02-0.21,0.05-0.42,0.06-0.63c0.02-0.14,0.03-0.3,0.05-0.44c0.04-0.38,0.08-0.75,0.11-1.13
			c0.02-0.18,0.03-0.36,0.05-0.55c0.08-0.91,0.17-1.79,0.24-2.63c0.02-0.34,0.05-0.67,0.08-1c0.07-0.84,0.12-1.63,0.16-2.36
			c0.12-1.99,0.15-3.6,0.08-4.64c-0.02-0.25-0.05-0.47-0.08-0.65c-0.05-0.28-0.11-0.48-0.2-0.59c-1.23-1.62-10.06-2.24-15.36-2.48
			c0.01-0.1,0.02-0.19,0.03-0.29c0.07-0.6,0.14-1.19,0.22-1.76C549.65,366.19,556.77,367.24,563.01,369.54z"/>
		<path class="st31" d="M559.16,382.1c0.08-0.91,0.16-1.79,0.24-2.63C559.33,380.31,559.24,381.19,559.16,382.1z"/>
		<path class="st31" d="M559.47,378.48c0.06-0.84,0.11-1.63,0.16-2.36C559.59,376.85,559.54,377.64,559.47,378.48z"/>
		<path class="st31" d="M559.71,371.48c-0.02-0.25-0.05-0.47-0.08-0.65C559.66,371.01,559.69,371.23,559.71,371.48z"/>
		<path class="st31" d="M573.72,290.53h-0.02c-1.86-0.55-4.29-1.2-7.08-1.78c0,0,14.61-27.03-22.52-27.27
			c2.95-2.05,7.25-3.34,13.39-3.34C587.32,258.14,573.72,290.53,573.72,290.53z"/>
		<path class="st24" d="M572.7,384.68c0,0-1.18-2.09-2.84-5.69c-0.65-1.41-1.38-3.03-2.13-4.86c-6.77-16.33-16.2-48.18,1.19-70.57
			c1.15-1.47,2.4-2.9,3.79-4.29C572.7,299.29,603.49,336.03,572.7,384.68z"/>
		<path class="st32" d="M477.36,314.72c0.01-0.05,0.02-0.11,0.02-0.17l0.02,0.11C477.41,314.66,477.39,314.68,477.36,314.72z"/>
		<path class="st32" d="M507.88,270.02c0,0-0.78,0.77-2.12,2.21c-2.27,2.45-6.14,6.82-10.52,12.57c-2.03,2.66-4.17,5.62-6.29,8.81
			c-0.53,0.79-1.05,1.6-1.57,2.41c-0.02,0.03-0.05,0.07-0.07,0.1c-0.22,0.36-0.46,0.71-0.68,1.07c-0.23,0.36-0.45,0.72-0.68,1.09
			c-0.03,0.05-0.06,0.1-0.09,0.14c-0.26,0.42-0.51,0.84-0.76,1.26c-0.25,0.42-0.51,0.84-0.76,1.26c-0.23,0.4-0.45,0.78-0.68,1.18
			c-0.02,0.04-0.05,0.08-0.07,0.11c-0.25,0.43-0.49,0.87-0.74,1.31c-0.24,0.43-0.49,0.88-0.72,1.32c-0.24,0.42-0.46,0.84-0.68,1.26
			c-0.6,1.13-1.19,2.28-1.76,3.44c-0.11,0.24-0.24,0.47-0.34,0.71c-0.17,0.35-0.34,0.7-0.51,1.06c-0.14,0.3-0.28,0.61-0.43,0.91
			c-0.36,0.77-0.69,1.54-1.03,2.3c3.54-26.66,25.71-45.8,24.91-48.64c-0.8-2.85-22.62-35.45-27.93-31.31
			c-3.94,3.06-21.61,11.53-30.53,15.72c2.62-1.33,5.22-2.8,7.78-4.4c0.13-0.08,0.26-0.16,0.39-0.25c0.02-0.01,0.03-0.02,0.05-0.03
			c4.41-2.8,8.67-6.02,12.67-9.75c1.98-1.84,3.91-3.82,5.75-5.91c0.05-0.05,0.09-0.11,0.14-0.16c0.05-0.05,0.08-0.09,0.12-0.14
			l0.55,0.14c-0.08-0.08-0.21-0.18-0.38-0.33c0.02-0.01,0.02-0.02,0.03-0.04c1.65-1.9,3.22-3.92,4.71-6.04c0,0,3.01,1.62,2.27,6.32
			C477.92,229.71,501.57,238,507.88,270.02z"/>
		<path class="st32" d="M319.92,246.64c-0.11,0.17-0.19,0.32-0.25,0.43c-0.52-0.25-1.04-0.5-1.57-0.76
			c-8.82-4.25-19.19-9.45-22.1-11.71c-5.31-4.14-27.13,28.46-27.93,31.31c-0.8,2.84,21.37,21.98,24.91,48.64
			c-0.34-0.77-0.68-1.54-1.03-2.3c-0.14-0.3-0.28-0.61-0.43-0.91c-0.17-0.36-0.33-0.71-0.51-1.06c-0.11-0.24-0.23-0.47-0.34-0.71
			c-0.57-1.16-1.16-2.31-1.76-3.44c-0.22-0.43-0.45-0.84-0.68-1.26c-0.24-0.44-0.48-0.89-0.72-1.32c-0.25-0.44-0.49-0.87-0.74-1.31
			c-0.02-0.04-0.05-0.08-0.07-0.11c-0.23-0.4-0.45-0.78-0.68-1.18c-0.25-0.42-0.51-0.84-0.76-1.26c-0.25-0.43-0.5-0.84-0.76-1.26
			c-0.03-0.05-0.06-0.1-0.09-0.14c-0.23-0.36-0.45-0.73-0.68-1.09c-0.22-0.36-0.46-0.71-0.68-1.07c-0.02-0.03-0.05-0.07-0.07-0.1
			c-0.52-0.81-1.04-1.62-1.57-2.41c-2.12-3.19-4.26-6.15-6.29-8.81c-4.38-5.75-8.26-10.12-10.52-12.57
			c-1.35-1.44-2.12-2.21-2.12-2.21c6.31-32.02,29.96-40.31,29.96-40.31c-0.74-4.7,2.27-6.32,2.27-6.32c1.5,2.12,3.06,4.14,4.71,6.04
			c0.01,0.02,0.02,0.03,0.03,0.04c-0.17,0.15-0.3,0.26-0.38,0.33l0.55-0.14c0.04,0.05,0.08,0.09,0.12,0.14
			c0.62,0.71,1.25,1.41,1.89,2.1c5.09,5.45,10.76,9.98,16.66,13.73c0.02,0.01,0.03,0.02,0.05,0.03c0.13,0.09,0.26,0.17,0.39,0.25
			C319.13,246.16,319.53,246.4,319.92,246.64z"/>
		<path class="st32" d="M326.53,250.32c-1.95-0.92-4.31-2.04-6.86-3.25c0.06-0.11,0.14-0.25,0.25-0.43
			C322.1,247.96,324.31,249.19,326.53,250.32z"/>
		<path class="st32" d="M267.72,291.6c0,0,15.61,34.92,8.01,62.58c0,0,6.68,20.01,30.39,50.61c-10.19-6.48-20.33-14.5-29.7-24.37
			c-7.12-7.49-13.77-16.05-19.68-25.86c0.21-0.3,0.42-0.62,0.64-0.94c4.61-6.86,10.2-17.71,10.41-31.48
			c0.02-1.55-0.02-3.63-0.44-7.77c-0.82-7.97-2.62-19.17-6.96-33.01c-0.52-1.69-1.09-3.41-1.7-5.18c1.22,1.14,2.48,2.34,3.79,3.63
			c9.38,9.29,20.61,22.7,29.28,40.82c0,0,0,0.01,0.01,0.01c0.01,0.02,0.02,0.05,0.03,0.08v0.02c0,0.01,0.01,0.02,0.01,0.03
			c0.01,0.02,0.02,0.05,0.03,0.08c0.5,1.05,0.97,2.06,1.42,3.05c0.03,0.07,0.07,0.13,0.1,0.2c0,0,0.01,0,0.01,0.01
			c2.2,4.04,7.02,11.05,16.53,17.88c0,0.01,0,0.01,0,0.01s-17.31-5.05-24.29-17.54C278.6,311.97,270.03,293.35,267.72,291.6z"/>
		<path class="st32" d="M502.39,291.6c0,0-15.61,34.92-8.01,62.58c0,0-6.68,20.01-30.39,50.61c10.19-6.48,20.33-14.5,29.7-24.37
			c7.12-7.49,13.77-16.05,19.68-25.86c-0.21-0.3-0.42-0.62-0.64-0.94c-4.61-6.86-10.2-17.71-10.41-31.48
			c-0.02-1.55,0.02-3.63,0.44-7.77c0.82-7.97,2.62-19.17,6.96-33.01c0.52-1.69,1.09-3.41,1.7-5.18c-1.22,1.14-2.48,2.34-3.79,3.63
			c-9.38,9.29-20.61,22.7-29.28,40.82c0,0,0,0.01-0.01,0.01c-0.01,0.02-0.02,0.05-0.03,0.08v0.02c0,0.01-0.01,0.02-0.01,0.03
			c-0.01,0.02-0.02,0.05-0.03,0.08c-0.5,1.05-0.97,2.06-1.42,3.05c-0.03,0.07-0.07,0.13-0.1,0.2c0,0-0.01,0-0.01,0.01
			c-2.2,4.04-7.02,11.05-16.53,17.88c0,0.01,0,0.01,0,0.01s17.31-5.05,24.29-17.54C491.51,311.97,500.07,293.35,502.39,291.6z"/>
		<path class="st32" d="M427.73,412.25c-0.25-5.31-0.9-11.26-2.19-17.7c0,0-44.28-11.25-80.62,0c0,0-1.69,8.64-1.98,20.11
			c-1.82-4.85-4.4-14.88,1.25-23.01c7.77-11.16,80.49-5.66,83.53-2.1C430.74,393.07,427.8,411.76,427.73,412.25z"/>
		<path class="st27" d="M470.48,229.97c-0.08,0.08-0.15,0.17-0.23,0.25c-0.38,0.44-0.78,0.87-1.17,1.3
			c-0.41,0.45-0.83,0.89-1.25,1.32c-0.14,0.14-0.28,0.29-0.43,0.44c-0.87,0.89-1.77,1.76-2.68,2.6
			c-9.9-22.31-74.93-11.24-74.93-11.24s74.34,9.19,46.58,21.61c-27.75,12.42-104.8,3.88-98.81-4.26
			c6.01-8.16,18.07-12.62,18.07-12.62c-23.84,0.17-33.56,13.7-35.67,17.17c-3.92-2.37-7.75-5.07-11.4-8.15
			c-2.42-2.04-4.75-4.24-6.97-6.62l-0.02-0.08v-0.02c-0.06-0.05-0.11-0.11-0.16-0.17c0.05-0.1,0.08-0.14,0.08-0.14v-0.01
			c0.05-0.05,0.96-0.88,2.82-2.18c1.86-1.31,4.68-3.09,8.57-5.06c3.22-1.62,7.15-3.36,11.9-5.06c5.58-2,12.26-3.95,20.15-5.54
			c1.79-0.36,3.63-0.71,5.55-1.03c6.28-1.06,13.24-1.91,20.93-2.41c4.91-0.32,10.12-0.51,15.64-0.52h0.37c0.78,0,1.54,0.01,2.3,0.02
			c3.19,0.03,6.29,0.13,9.27,0.27c4.03,0.21,7.87,0.49,11.52,0.87c10.44,1.06,19.38,2.76,26.95,4.74c4.45,1.16,8.42,2.42,11.93,3.71
			h0.01c10.56,3.86,17.1,7.93,20.32,10.25C470.01,229.62,470.25,229.8,470.48,229.97z"/>
		
			<ellipse transform="matrix(0.0675 -0.9977 0.9977 0.0675 116.8519 606.8426)" class="st24" cx="383.08" cy="240.91" rx="12.15" ry="23.04"/>
		<path class="st2" d="M313.53,239.19c0,0-6.4-3.88-8.54-8.15s72.59-43.38,163.03-1.6c0,0-1.29,1.86-2.2,1.92
			C464.92,231.42,374.22,186.46,313.53,239.19z"/>
		<path class="st27" d="M572.7,384.68c0,0-1.18-2.09-2.84-5.69c6.92-7.5,5.88-18.9,5.88-18.9c-0.84,2.33-3.69,7.66-3.69,7.66
			c-12.56-31.42-4.26-57.73-3.13-57.23c1.13,0.49,6.83,6.95,6.83,6.95c-0.97-7.88-6.83-13.9-6.83-13.9c1.15-1.47,2.4-2.9,3.79-4.29
			C572.7,299.29,603.49,336.03,572.7,384.68z"/>
		<path class="st24" d="M569.91,348.96c-3.81,0-6.9-5.86-6.9-13.08s3.09-13.08,6.9-13.08c3.81,0,6.9,5.86,6.9,13.08
			S573.73,348.96,569.91,348.96z"/>
		<path class="st2" d="M571.28,379.36c0,0,27.85-38.87,0-75.54l1.42-1.1c0,0,28.59,30.99,0.39,79.12L571.28,379.36z"/>
		<path class="st27" d="M531.96,343.35c0,0-0.44,6.39-4.74,8.48c-0.49,0.24-1.08,0.44-1.76,0.62c-4.89-2.85-12.13-8.84-14.09-14.73
			c-2.72-8.16,0-40.11,0-40.11c-4.27,2.2-4.93,33.58-4.93,33.58c-3.32-8.52,2.15-46.06,2.15-46.06l0.02-0.16
			c0.33-1.16,0.69-2.33,1.06-3.53l0.04-0.08c0,0,0.4-0.01,1.06-0.01c3.22-0.03,12.89,0.04,16.45,1.77c4.29,2.1,4.74,8.48,4.74,8.48
			s-0.33-0.02-0.9,0c-3.24,0.07-14.14,1.09-13.86,11.78v28.19c-0.11,4.1,1.44,6.78,3.56,8.53c3.44,2.84,8.41,3.22,10.37,3.25
			c0.04,0.01,0.08,0.01,0.11,0.01C531.7,343.37,531.96,343.35,531.96,343.35z"/>
		<path class="st2" d="M528.97,288.29c0,0-0.19-5.63-16.59-5.73c0,0-0.39,1.26-0.58,2.86C511.79,285.43,521.98,285.41,528.97,288.29
			z"/>
		<path class="st27" d="M238.05,343.35c0,0,0.44,6.39,4.74,8.48c0.49,0.24,1.08,0.44,1.76,0.62c4.89-2.85,12.13-8.84,14.09-14.73
			c2.72-8.16,0-40.11,0-40.11c4.27,2.2,4.93,33.58,4.93,33.58c3.32-8.52-2.15-46.06-2.15-46.06l-0.02-0.16
			c-0.33-1.16-0.69-2.33-1.06-3.53l-0.04-0.08c0,0-0.4-0.01-1.06-0.01c-3.22-0.03-12.89,0.04-16.45,1.77
			c-4.29,2.1-4.74,8.48-4.74,8.48s0.33-0.02,0.9,0c3.24,0.07,14.14,1.09,13.86,11.78v28.19c0.11,4.1-1.44,6.78-3.56,8.53
			c-3.44,2.84-8.41,3.22-10.37,3.25c-0.04,0.01-0.08,0.01-0.11,0.01C238.31,343.36,238.05,343.35,238.05,343.35z"/>
		<path class="st2" d="M241.04,288.29c0,0,0.19-5.63,16.59-5.73c0,0,0.39,1.26,0.58,2.86C258.22,285.42,248.03,285.41,241.04,288.29
			z"/>
		<path class="st33" d="M425.54,438.71c-33.04,10.83-80.62,0-80.62,0c-0.68-3.14-1.16-6.33-1.48-9.49c0,0,43.2,3.34,52-8.26
			c8.79-11.6-2.64-31.09-2.64-31.09h0.01c18.72,1.12,32.73,4.67,32.73,4.67c1.28,6.44,1.94,12.39,2.19,17.7c0,0.01,0,0.01,0,0.01
			C428.5,428.47,425.54,438.71,425.54,438.71z"/>
		<path class="st32" d="M273.04,425.67c-4.96,5.37,5.85,13.61,5.85,13.61s-3.28,17.77-7.15,19.63c-3.88,1.85-4.1-0.9-4.1-0.9
			s-9.14,30.7-17.26,33.05c-0.13-2.05-0.24-4.11-0.33-6.18c-0.19-3.98-0.3-7.97-0.33-11.86c-0.02-1.03-0.01-2.06,0-3.09
			c0.03-4.52,0.21-8.89,0.56-12.95c0.11-1.27,0.24-2.51,0.38-3.71c0.18-1.48,0.4-2.9,0.63-4.27c0.43-2.4,0.95-4.61,1.57-6.59
			c2.51-7.93,6.39-12.99,10.57-16.2c9.5-7.24,20.63-4.94,21.26-4.8C284.23,421.34,277.8,420.49,273.04,425.67z"/>
		<path class="st30" d="M245.02,485.41c0,0,0,0.02-0.01,0.04c0,0.02-0.01,0.05-0.02,0.1c0,0.02-0.01,0.05-0.01,0.08
			c-0.01,0.02-0.01,0.04-0.02,0.06c-0.01,0.04-0.02,0.09-0.02,0.14c-0.02,0.15-0.05,0.36-0.09,0.59c-0.04,0.24-0.08,0.52-0.13,0.84
			c-0.02,0.13-0.05,0.27-0.07,0.4c-0.03,0.21-0.06,0.43-0.1,0.68c-0.03,0.2-0.07,0.4-0.1,0.62c-0.01,0.04-0.02,0.08-0.02,0.11
			c-0.05,0.29-0.09,0.59-0.14,0.92c-0.02,0.1-0.03,0.2-0.05,0.3c-0.02,0.1-0.03,0.21-0.05,0.31c-0.21,1.33-0.45,2.89-0.71,4.64
			c-0.08,0.54-0.17,1.1-0.25,1.69c-0.24,1.58-0.49,3.3-0.77,5.12c-0.09,0.59-0.17,1.19-0.27,1.79c-0.1,0.68-0.21,1.38-0.31,2.09
			c-0.13,0.9-0.26,1.81-0.4,2.74c-0.19,1.3-0.38,2.64-0.58,4.01h-2.99c-0.1,0.02-0.15,0.02-0.15,0.02v-0.02h-24.65
			c0.58-8.17,1.24-15.63,1.96-21.21c0.1-0.75,0.2-1.47,0.3-2.16c0.04-0.26,0.08-0.52,0.13-0.77c0.02-0.11,0.05-0.24,0.07-0.35
			c0.03-0.16,0.07-0.32,0.11-0.47c0.05-0.21,0.1-0.41,0.16-0.61c-0.01-0.02,0-0.03,0.01-0.05c0.02-0.05,0.03-0.11,0.05-0.16
			c0.38-1.33,0.9-2.45,1.52-3.38c0.11-0.16,0.21-0.3,0.33-0.45c0.07-0.11,0.15-0.21,0.24-0.3c0.1-0.13,0.2-0.25,0.31-0.36
			c0.12-0.14,0.25-0.27,0.39-0.4c0.32-0.3,0.65-0.58,0.99-0.83c0.16-0.11,0.33-0.23,0.49-0.33c0.14-0.08,0.27-0.16,0.4-0.24
			c0.08-0.05,0.16-0.09,0.24-0.13c0.07-0.04,0.14-0.07,0.21-0.1c0.07-0.03,0.14-0.07,0.21-0.1c5.77-2.6,14.28,0.46,19.41,2.84
			c0.33,0.15,0.65,0.3,0.94,0.45c0.25,0.12,0.49,0.24,0.72,0.36c0.68,0.34,1.26,0.65,1.7,0.89
			C244.65,485.19,245.02,485.41,245.02,485.41z"/>
		<path class="st31" d="M244.97,485.68c-0.01,0.04-0.02,0.09-0.02,0.14c-0.02,0.15-0.05,0.36-0.09,0.59
			c-0.04,0.24-0.08,0.52-0.13,0.84c-0.02,0.13-0.05,0.27-0.07,0.4c-0.03,0.21-0.06,0.43-0.1,0.68c-0.03,0.2-0.07,0.4-0.1,0.62
			c-0.01,0.04-0.02,0.08-0.02,0.11c-0.05,0.29-0.09,0.59-0.14,0.92c-0.02,0.1-0.03,0.2-0.05,0.3c-0.02,0.1-0.03,0.21-0.05,0.31
			c-0.21,1.33-0.45,2.89-0.71,4.64c-0.08,0.54-0.17,1.1-0.25,1.69c-0.24,1.58-0.49,3.3-0.77,5.12c-0.09,0.59-0.17,1.19-0.27,1.79
			c-0.1,0.68-0.21,1.38-0.31,2.09c-0.13,0.9-0.26,1.81-0.4,2.74c-0.19,1.3-0.38,2.64-0.58,4.01h-2.96
			c0.68-6.45,2.96-24.04,2.96-24.04c-5.66-2.42-25.84,3.48-25.84,3.48c0.1-0.79,0.2-1.56,0.3-2.28c0.04-0.27,0.08-0.55,0.13-0.81
			c0.02-0.12,0.05-0.25,0.07-0.37c0.03-0.17,0.07-0.33,0.11-0.5c0.05-0.21,0.1-0.43,0.16-0.64c-0.01-0.02,0-0.04,0.01-0.05
			c0.02-0.05,0.03-0.11,0.05-0.17c0.38-1.41,0.9-2.59,1.52-3.58c0.11-0.17,0.21-0.32,0.33-0.47c0.07-0.11,0.15-0.22,0.24-0.33
			c0.1-0.14,0.2-0.27,0.31-0.39c0.12-0.15,0.25-0.29,0.39-0.43c0.32-0.32,0.65-0.61,0.99-0.87c0.16-0.12,0.33-0.24,0.49-0.35
			c0.14-0.08,0.27-0.17,0.4-0.24c0.08-0.05,0.16-0.1,0.24-0.14c0.07-0.04,0.14-0.08,0.21-0.11c0.07-0.03,0.14-0.07,0.21-0.1l19.41,3
			c0.33,0.16,0.65,0.32,0.94,0.47c0.25,0.13,0.49,0.26,0.72,0.38c0.68,0.36,1.26,0.68,1.7,0.94
			C244.52,485.4,244.86,485.6,244.97,485.68z"/>
		<path class="st25" d="M264.91,457.87c-1.68,12.44-9.95,30.17-19.86,27.24c-10.77-3.19-30.25,3.44-32.42,4.58
			c-2.16,1.13-9.98,6.02-13.6,2.01c-5.43-5.7-4.1-16.37-2.65-22.75c0.71-3.11,1.45-5.2,1.45-5.2l2.33-10.43
			c0,0,65.57-10.86,65.03,1.44C265.15,455.74,265.05,456.79,264.91,457.87z"/>
		<path class="st33" d="M264.91,457.87L264.91,457.87c0,0-42.61-3.15-54.07-0.35c-5.97,1.46-11,6.72-14.46,11.42
			c0.71-3.11,1.45-5.2,1.45-5.2l2.33-10.43c0,0,65.57-10.86,65.03,1.44C265.15,455.74,265.05,456.79,264.91,457.87z"/>
		<path class="st25" d="M275.72,441.14c0,0-16.43-28.57-52.18-36.74c-35.75-8.18-32.21,64.91-32.21,64.91s15.57-14.35,22.39-15.22
			c13.2-1.68,46.83-1.72,55.36,1.71C269.09,455.8,275.23,449.06,275.72,441.14z"/>
		<path class="st24" d="M196.81,442.7c-0.81,0.87-1.63,1.68-2.47,2.39c0,0-0.01,0.01-0.02,0.02c-0.74,0.64-1.5,1.21-2.24,1.71
			c0,0-1.25-6.15-0.84-13.57c0.28-4.97,1.31-10.51,3.97-15.18c2.09-3.66,5.18-6.76,9.71-8.62c0.07,0.19,0.13,0.39,0.18,0.58
			c0.1,0.3,0.19,0.59,0.27,0.9C208.79,423.21,203.47,435.48,196.81,442.7z"/>
		<path class="st27" d="M205.37,415.54c-0.26,7.37-7.25,24-8.99,24.58c-1.74,0.59-1.28-9.06-1.28-9.06
			c-2.24,5.82-0.76,14.02-0.76,14.02s-0.01,0.01-0.02,0.02c-0.74,0.64-1.5,1.21-2.24,1.71c0,0-1.25-6.15-0.84-13.57
			c0.28-4.97,1.31-10.51,3.97-15.18c2.09-3.66,5.18-6.76,9.71-8.62c0.07,0.19,0.13,0.39,0.18,0.58c-4.54,2.52-7.14,13.92-7.14,13.92
			S205.63,408.17,205.37,415.54z"/>
		<path class="st2" d="M203.56,410.93c0,0-9.65,9.08-11.2,22.92C192.36,433.85,191.15,418.41,203.56,410.93z"/>
		<path class="st32" d="M523.31,475.72L523.31,475.72c-0.09,5.28-0.33,10.68-0.68,15.98c-4,0-27.44-29.12-27.44-29.12
			s2.52-26.78,5.18-28.53c2.66-1.75,10.54-6.77,10.54-6.77c3.69,3.22,7.03,8.03,9.28,15.13c2.11,6.65,2.99,15.93,3.13,26.1
			C523.36,470.88,523.36,473.28,523.31,475.72z"/>
		<g>
			<path class="st28" d="M586.96,456.41c-3.97,16.05-12.37,50.04-41.84,40.93c-29.48-9.11-44.74-38.33-44.74-38.33l3.06-23.24
				c0.94-0.81,17.69-9.03,34.5-14.71c7.83-2.64,15.67-4.74,21.94-5.28c0.72-0.06,1.42-0.1,2.1-0.12
				C581.16,415.13,590.92,440.37,586.96,456.41z"/>
			<path class="st24" d="M568.91,493.78c-1.02-1.27-1.96-2.51-2.84-3.72c-22.35-30.73-1.79-43.01,11.52-47.48
				c5.2-1.76,9.3-2.31,9.3-2.31C596.3,476.97,568.91,493.78,568.91,493.78z"/>
			<path class="st27" d="M568.91,493.78c-1.02-1.27-1.96-2.51-2.84-3.72c10.32-0.46,11.16-16.36,11.16-16.36
				c-5.69,9.71-10.61,9.31-10.61,9.31c-12.94-22.12,4.92-35.32,8.28-35.32c3.37,0,7.12,10.09,7.12,10.09
				c1.29-10.09-4.42-15.2-4.42-15.2c5.2-1.76,9.3-2.31,9.3-2.31C596.3,476.97,568.91,493.78,568.91,493.78z"/>
			<path class="st2" d="M581.76,443.43c0,0,4.78,23.16-1.42,32.22c0,0,11.52-11.39,5.95-32.99
				C586.28,442.65,583.97,441.8,581.76,443.43z"/>
		</g>
		<g>
			<path class="st34" d="M540.48,203.88c-4.8,5.77-14.66,6.45-14.66,6.45c-8.54-4.91-10.25-14.55-9.94-20.18
				c0.11-2.11,0.5-3.66,0.93-4.2c1.55-1.95-0.13-11.13-0.13-11.13c3.88,2.33,5.44,9.83,5.44,9.83c1.16-3.1-6.6-14.23-6.6-14.23
				c9.88,1.8,16.66,6.75,20.88,12.37C542.52,190.92,543.31,200.47,540.48,203.88z"/>
			<path class="st24" d="M536.39,182.78c0,0-2.77-1.5-5.49-0.27c-2.71,1.22-1.03,2.58-3.69,4.46c-2.65,1.88-1.62-0.59-5.63,0
				c-4.01,0.58-2.53,3.43-4.14,3.88c-0.68,0.19-1.13-0.21-1.57-0.71c0.11-2.11,0.5-3.66,0.93-4.2c1.55-1.95-0.13-11.13-0.13-11.13
				c3.88,2.33,5.44,9.83,5.44,9.83c1.16-3.1-6.6-14.23-6.6-14.23C525.39,172.22,532.17,177.17,536.39,182.78z"/>
		</g>
	</g>
</g>
</svg>
