<?xml version="1.0" encoding="utf-8"?>
<!-- Generator: Adobe Illustrator 27.3.1, SVG Export Plug-In . SVG Version: 6.00 Build 0)  -->
<svg version="1.1" id="Camada_1" xmlns="http://www.w3.org/2000/svg" xmlns:xlink="http://www.w3.org/1999/xlink" x="0px" y="0px"
	 viewBox="0 0 512 512" style="enable-background:new 0 0 512 512;" xml:space="preserve">
<style type="text/css">
	.st0{fill:none;stroke:#006AFF;stroke-width:15;stroke-miterlimit:10;}
	.st1{fill:#006AFF;stroke:#006AFF;stroke-width:15;stroke-miterlimit:10;}
	.st2{fill:#006AFF;}
	.st3{fill:none;stroke:#1866A6;stroke-width:15;stroke-miterlimit:10;}
</style>
<g>
	<path class="st0" d="M173.57,159.73c-1.92,15.48,42.53,45.82,82.48,54.16v198.79"/>
	<line class="st0" x1="388.54" y1="187.68" x2="209.43" y2="366.78"/>
	<path class="st0" d="M167.6,324.44"/>
	<path class="st0" d="M169.39,326.23"/>
	<path class="st0" d="M170.04,326.68V180.7c0,0-3.34-72.51,87.08-76.6"/>
</g>
<g>
	<line class="st0" x1="123.94" y1="187.67" x2="303.05" y2="366.78"/>
	<path class="st0" d="M344.88,324.44"/>
	<path class="st0" d="M343.09,326.23"/>
	<path class="st0" d="M342.04,326.68V180.69c0,0,3.28-72.51-85.52-76.6"/>
</g>
<path class="st1" d="M342.26,233.96c9.94,1.89-37.72-9.96-86.52-20.07"/>
<circle class="st2" cx="113.04" cy="177.18" r="7.5"/>
<circle class="st2" cx="400.04" cy="177.18" r="7.5"/>
<circle class="st2" cx="256.04" cy="177.18" r="7.5"/>
<circle class="st0" cx="256.04" cy="256.18" r="217"/>
<path class="st3" d="M367.18,405.04"/>
<polyline class="st0" points="465.54,306.18 426.04,306.18 426.04,244.7 255.87,414.9 86.04,245.03 86.04,307.18 44.54,307.18 "/>
</svg>
