<?xml version="1.0" encoding="utf-8"?>
<!-- Generator: Adobe Illustrator 27.3.1, SVG Export Plug-In . SVG Version: 6.00 Build 0)  -->
<svg version="1.1" id="Camada_1" xmlns="http://www.w3.org/2000/svg" xmlns:xlink="http://www.w3.org/1999/xlink" x="0px" y="0px"
	 viewBox="0 0 500 200" style="enable-background:new 0 0 500 200;" xml:space="preserve">
<style type="text/css">
	.st0{fill:url(#SVGID_1_);}
</style>
<linearGradient id="SVGID_1_" gradientUnits="userSpaceOnUse" x1="0" y1="0" x2="0" y2="200">
	<stop  offset="0" style="stop-color:#131D50"/>
	<stop  offset="1" style="stop-color:#0F0738"/>
</linearGradient>
<path class="st0" d="M500,40.56v118.88c-20.53,32.88-35.37,34.37-41.3,33.86c-11.26-0.96-23.13-12.31-52.09-30.06
	c-0.79-0.48-1.6-0.98-2.42-1.47c-8.26-5-15.62-9.2-25.74-9.53c-11.13-0.36-19.23,4.52-23.93,6.46
	c-20.84,8.56-39.44,19.35-67.34,16.37c-32.18-3.43-35.47-33.55-59.16-32c-29.61,1.94-38.53,50.54-62.51,49.02
	c-2.42-0.15-4.87-0.81-7.27-1.86c-6.23-2.74-12.15-8.15-16.53-14.38c-1.23-2.46-2.58-4.73-4.01-6.81
	c-18.1-26.21-54.16-29.86-68.73-30.51c-2.37-0.07-4.79-0.06-7.26,0.03c-25.22,0.97-46.21,10.7-61.7,20.87V40.56
	c15.49,10.17,36.47,19.9,61.7,20.87c2.47,0.09,4.89,0.1,7.26,0.03c14.57-0.65,50.63-4.3,68.73-30.51c1.44-2.08,2.79-4.34,4.01-6.81
	c4.38-6.22,10.3-11.64,16.53-14.38c2.4-1.05,4.85-1.71,7.27-1.86c23.98-1.52,32.9,47.08,62.51,49.02
	c23.69,1.55,26.98-28.56,59.16-32c27.91-2.98,46.51,7.81,67.34,16.37c4.71,1.93,12.8,6.82,23.93,6.46
	c10.12-0.33,17.48-4.52,25.74-9.53c0.82-0.5,1.63-0.99,2.42-1.47c28.96-17.75,40.83-29.1,52.09-30.06
	C464.63,6.19,479.47,7.68,500,40.56z"/>
</svg>
