<?xml version="1.0" encoding="utf-8"?>
<!-- Generator: Adobe Illustrator 27.3.1, SVG Export Plug-In . SVG Version: 6.00 Build 0)  -->
<svg version="1.1" id="Camada_1" xmlns="http://www.w3.org/2000/svg" xmlns:xlink="http://www.w3.org/1999/xlink" x="0px" y="0px"
	 viewBox="0 0 500 250" style="enable-background:new 0 0 500 250;" xml:space="preserve">
<style type="text/css">
	.st0{fill:url(#SVGID_1_);}
</style>
<linearGradient id="SVGID_1_" gradientUnits="userSpaceOnUse" x1="0" y1="0" x2="0" y2="200">
	<stop  offset="0" style="stop-color:#131D50"/>
	<stop  offset="1" style="stop-color:#1F0A4F"/>
</linearGradient>
<path class="st0" d="M499.9,56.32V125h-0.1v68.68c-0.35,0.01-0.96,0.02-1.7,0.08c-22.22,1.7-27.61,28.61-47.73,43.28
	c-18.41,13.43-47.81,15.71-67.69,10.1c-5.88-1.67-10.5-3.84-14.38-6.4c-25.23-16.68-33.97-31.12-48.1-42.91
	c-21.43-17.88-54.35-20.38-76.18-14.98c-38.8,9.6-40.77,43.74-80.76,49.27c-20.9,2.89-43.04-1.93-43.04-1.93
	c-3.13-0.69-12.58-2.87-24.23-7.88c-18.26-7.84-26.03-15.77-35.15-21.23c-11.23-6.71-29.74-12.81-60.84-7.4V125h0.1V56.32
	c31.1,5.41,49.61-0.69,60.84-7.4c9.12-5.46,16.89-13.39,35.15-21.23c11.65-5.01,21.1-7.19,24.23-7.88c0,0,22.14-4.82,43.04-1.93
	c39.99,5.53,41.96,39.67,80.76,49.27c21.83,5.4,54.75,2.9,76.18-14.98c14.13-11.79,22.87-26.23,48.1-42.91
	c3.88-2.56,8.5-4.73,14.38-6.4c19.88-5.61,49.28-3.33,67.69,10.1c20.12,14.67,25.51,41.58,47.73,43.28
	C498.94,56.3,499.55,56.31,499.9,56.32z"/>
</svg>
