<?xml version="1.0" encoding="utf-8"?>
<!-- Generator: Adobe Illustrator 27.3.1, SVG Export Plug-In . SVG Version: 6.00 Build 0)  -->
<svg version="1.1" id="Camada_1" xmlns="http://www.w3.org/2000/svg" xmlns:xlink="http://www.w3.org/1999/xlink" x="0px" y="0px"
	 viewBox="0 0 500 200" style="enable-background:new 0 0 500 200;" xml:space="preserve">
<style type="text/css">
	.st0{fill:url(#SVGID_1_);}
</style>
<linearGradient id="SVGID_1_" gradientUnits="userSpaceOnUse" x1="0" y1="0" x2="0" y2="200">
	<stop  offset="0" style="stop-color:#291077"/>
	<stop  offset="1" style="stop-color:#400E66"/>
</linearGradient>
<path class="st0" d="M500,37.59v124.15c-78.47,0-88.21,28.53-115.75,28.53c-27.53,0-33.21-37.97-60.28-37.97
	c-27.07,0-21.21,27.28-73.98,27.28c-47.1,0-62.09-44.12-100.99-43.47c-43.96,0.74-64.52,57.12-94.11,44.83
	c-9.49-3.94-23.06-16.25-48-18.65c-2.91-0.28-5.32-0.36-6.91-0.39V37.42c1.59-0.02,3.99-0.11,6.91-0.38
	c24.93-2.34,38.51-14.36,48-18.21c29.59-11.99,50.15,43.05,94.11,43.77c38.9,0.63,53.88-42.43,100.99-42.43
	c52.77,0,46.91,26.63,73.98,26.63c27.07,0,32.74-37.07,60.28-37.07C411.79,9.73,421.53,37.59,500,37.59z"/>
</svg>
