<?xml version="1.0" encoding="utf-8"?>
<!-- Generator: Adobe Illustrator 27.3.1, SVG Export Plug-In . SVG Version: 6.00 Build 0)  -->
<svg version="1.1" id="Camada_1" xmlns="http://www.w3.org/2000/svg" xmlns:xlink="http://www.w3.org/1999/xlink" x="0px" y="0px"
	 viewBox="0 0 1440 680" style="enable-background:new 0 0 1440 680;" xml:space="preserve">
<style type="text/css">
	.st0{fill:#001D50;stroke:#A9D0FF;stroke-width:2;stroke-miterlimit:10;}
	.st1{fill:#006AFF;}
</style>
<path class="st0" d="M-35.57,607.61c0,0,337.02-211.4,772.09-211.4s739.91,199.15,739.91,199.15v130.21l-1502.81-6.13L-35.57,607.61
	z"/>
<g>
	<path class="st1" d="M-6.36,682h-2.19v-2.39C-8.55,681.75-8.37,682-6.36,682z"/>
	<path class="st1" d="M114.07,575.62c-0.43-0.04-0.84-0.39-1.3-0.62c0.22-0.35,0.3-0.62,0.48-0.75c2.36-1.57,4.63-3.32,7.13-4.63
		c3.62-1.9,7.36-3.62,11.16-5.11c1.64-0.63,3.59-0.54,5.4-0.66c0.39-0.03,1.12,0.38,1.18,0.68c0.09,0.46-0.13,1.16-0.48,1.49
		c-0.9,0.87-1.92,1.61-2.93,2.34c-3.19,2.27-6.36,4.59-9.64,6.75c-0.92,0.6-2.16,0.99-3.26,0.99
		C119.23,576.09,116.64,575.83,114.07,575.62z"/>
	<path class="st1" d="M78.41,604.92c0.4-0.72,0.52-1.23,0.86-1.5c3.11-2.6,5.66-5.66,8.06-8.89c0.98-1.33,2.27-2.46,3.58-3.49
		c2.84-2.19,5.76-4.31,8.7-6.37c1.02-0.71,2.15-1.34,3.32-1.74c1.84-0.63,2.66,0,2.82,1.91c0.04,0.42,0,0.85,0.03,1.26
		c0.17,1.86,1.19,2.37,2.63,1.12c0.97-0.85,1.83-1.98,2.31-3.16c2.14-5.19,3.41-6.27,9-6.11c3.74,0.11,7.13-0.7,10.37-2.45
		c0.81-0.43,1.65-0.82,2.53-1.12c2.47-0.84,4.49-2.12,5.62-4.63c0.6-1.34,1.81-2.08,3.28-2.52c4.92-1.43,9.82-2.88,15.04-2.49
		c0.82,0.06,1.65-0.23,2.48-0.3c0.83-0.07,1.7-0.23,2.49-0.04c0.55,0.12,1.27,0.68,1.4,1.19c0.13,0.48-0.23,1.37-0.67,1.67
		c-2.06,1.43-4.07,3.03-6.35,4c-5.75,2.46-10.92,5.83-16.06,9.29c-1.04,0.69-2.14,1.33-3.28,1.83c-7.66,3.38-15.35,6.71-23.01,10.08
		c-1.76,0.77-3.52,1.6-5.18,2.56c-2.16,1.25-4.52,1.67-6.91,2.15c-6.17,1.23-12.26,2.73-17.71,6.1c-1.13,0.69-2.41,1.16-3.65,1.64
		C79.72,605.05,79.21,604.92,78.41,604.92z"/>
	<path class="st1" d="M631.41,477.2c0.97,2.24-0.13,4-2.56,4.28c-1.17,0.13-2.35,0.29-3.52,0.23c-2.84-0.15-5.43,0.69-8.03,1.73
		c-1.77,0.7-3.63,1.34-5.51,1.62c-4.3,0.64-8.62,1.05-12.94,1.55c-2.51,0-4.79-0.62-7.12-1.5c-4.6-1.72-9.45-2.14-14.34-2.04
		c-0.41,0.01-0.84,0.09-1.25,0.11c-2.24,0.1-2.66-0.2-2.76-1.89c-0.13-2.22,0.49-3.17,2.51-3.18c2.46,0,4.77-0.44,7.12-1.17
		c1.79-0.54,3.82-0.46,5.74-0.42c0.74,0.01,1.54,0.58,2.18,1.08c4.88,3.78,11.43,3.96,16.58,0.6c4.05-2.65,8.4-4.51,13.43-4.17
		c2.01,0.13,4.02,0,6.04,0.02C629.18,474.07,630.59,475.32,631.41,477.2z"/>
	<path class="st1" d="M633.21,419.48c-1.18-0.35-2.46-0.51-3.7-0.52c-4.71-0.04-9.41-0.01-14.11,0.05
		c-4.45,0.05-8.68,0.95-12.2,3.84c-2.15,1.77-4.59,2.13-7.25,2.34c-3.4,0.27-6.89,0.59-10.13,1.56c-3.1,0.92-6.12,0.73-9.21,0.76
		c-0.37,0-0.75-0.24-1.25-0.41c0.16-0.59,0.27-1.06,0.4-1.52c1.01-3.51,0.19-4.64-3.47-4.63c-3.57,0-6.98-0.75-10.35-1.83
		c-1.26-0.4-2.61-0.66-3.92-0.68c-5.8-0.07-11.59,0.05-17.38-0.06c-5.91-0.11-11.68,1-17.48,1.78c-2.4,0.32-4.79,0.96-7.19,1.06
		c-3.77,0.14-7.55-0.02-11.33-0.1c-4.84-0.1-9.42,1.22-13.45,3.6c-3.73,2.22-7.65,3.74-11.72,5.08c-8.89,2.93-17.56,6.61-26.86,8.26
		c-1.8,0.32-3.65,0.74-5.3,1.49c-4.35,1.96-9.04,2.66-13.63,3.29c-5.02,0.69-9.55,2.38-14.06,4.42c-2.6,1.17-5.11,2.59-7.79,3.5
		c-3.32,1.15-6.77,1.9-10.16,2.8c-4.95,1.31-9.91,2.61-14.4,5.14c-2.73,1.55-5.59,2.72-8.62,3.39c-3.01,0.66-6.11,0.99-9.12,1.68
		c-4.14,0.97-8.33,1.79-12.33,3.34c-2.41,0.94-4.86,1.79-7.29,2.68c0.85-0.5,1.65-1.16,2.57-1.5c3.37-1.27,6.79-2.42,10.17-3.64
		c0.73-0.25,1.42-0.6,2.14-0.91c-0.04-0.22-0.07-0.44-0.1-0.66c-0.69-0.09-1.37-0.28-2.05-0.25c-7.72,0.38-15.33,1.59-22.93,2.94
		c-15.78,2.82-30.71,8.24-45.48,14.27c-27.16,11.08-54.43,21.92-81.62,32.92c-5.28,2.13-10.53,4.36-15.68,6.78
		c-2.25,1.07-4.31,2.6-6.24,4.18c-1.2,0.98-2.25,2.3-2.92,3.69c-1.52,3.13,0.1,5.96,3.58,6.39c1.4,0.16,2.86,0.1,4.27-0.05
		c7-0.78,13.99-1.66,20.97-2.46c4.3-0.48,8.34-1.89,12.31-3.46c3.58-1.43,7.09-3.03,10.64-4.55c0.3-0.13,0.6-0.29,0.91-0.42
		c0.77-0.31,1.63-0.9,2.27,0.03c0.66,0.97,0.04,1.79-0.76,2.34c-0.95,0.67-1.95,1.34-3.02,1.76c-2.57,1.02-5.14,2.07-7.81,2.77
		c-7.86,2.05-15.77,3.95-23.67,5.88c-5.81,1.4-11.71,2-17.71,1.94c-2.39-0.02-4.82,0.49-7.17,1.06c-2.34,0.56-4.4,1.96-5.58,4.03
		c-2.23,3.91-5.88,4.68-9.84,4.86c-2.51,0.12-5.03,0.05-7.55,0.01c-4.27-0.05-7.6,1.78-10.31,4.9c-1.52,1.75-1.46,3.17,0.45,4.41
		c2.96,1.92,6.09,3.07,9.72,1.56c2.47-1.03,5.08-1.7,7.61-2.6c4.58-1.63,9.14-3.3,13.69-4.97c3.56-1.31,7.12-2.53,10.98-2.45
		c2,0.03,4.1,0.2,4.81,2.38c0.72,2.21-1.02,3.57-2.58,4.7c-3.71,2.69-8.02,3.66-12.49,4.16c-3.41,0.38-6.81,0.93-10.18,1.54
		c-1.34,0.24-2.62,0.89-4,1.37c0.56,2.03,2.06,2.4,3.37,2.67c2.7,0.53,5.45,0.81,8.2,1.19c0.41,0.06,0.84,0.02,1.26,0.05
		c4.29,0.39,8.26-0.33,12.07-2.53c2.52-1.44,5.34-2.45,8.15-3.26c3.95-1.13,8.15,0.5,10.21,3.64c-0.41,1.15-1.53,1.49-2.53,1.74
		c-2.44,0.59-4.89,1.22-7.37,1.49c-6.99,0.75-13.71,2.35-20.09,5.31c-3.52,1.63-6.88,1.74-10.33-0.25c-2.99-1.73-6.3-1.85-9.5-0.65
		c-2.72,1.04-5.48,2.17-7.92,3.72c-14.72,9.35-30.32,16.85-46.93,22.22c-6.35,2.05-12.18,5.17-17.85,8.59
		c-2.64,1.6-5.17,3.43-7.59,5.34c-1.22,0.97-2.31,2.22-3.11,3.56c-1.71,2.86-0.64,5.85,2.45,7.21c1.72,0.76,3.54,0.96,5.41,0.67
		c1.7-0.26,3.43-0.44,5.27-0.24c-2.09,1.14-4.15,2.3-6.26,3.41c-3.87,2.02-7.76,3.97-11.62,6.01c-4.48,2.35-8.58,5.23-12.12,8.87
		c-1.55,1.59-2.72,3.4-3.22,5.57c-0.39,1.72-1.28,3.12-2.66,4.13c-1.8,1.34-3.65,2.68-5.63,3.75c-6.26,3.44-12.95,5.93-19.73,8.16
		c-4.41,1.45-8.62,3.33-12.47,5.89c-5.94,3.92-11.79,7.97-17.58,12.1c-1.41,1.02-2.81,0.89-4.3,0.91C-5.6,682-6.01,682-6.36,682
		h95.28c-4.84-0.05-8.19-0.12-9.15-0.22c1.06-1.67,2.41-2.44,3.9-2.99c10.8-3.9,21.75-6.81,33.42-6.11
		c6.44,0.39,12.92,0.49,19.37,0.59c5.3,0.07,10.56-0.36,15.69-1.85c1.8-0.53,2.76-0.26,3.08,1.15c0.8,3.55,2.71,6.4,5.34,8.95
		c-0.74,0.21-11.08,0.37-24.16,0.47h407.37c-1.99,0-3.97,0-5.96-0.01c-2.29-0.01-2.63-0.39-2.47-2.64c0.18-2.8,1.69-4.69,4.21-5.73
		c3.18-1.31,6.43-2.42,9.6-3.77c2.15-0.92,4.24-1.98,6.28-3.14c5.23-2.96,7.64-7.53,7.57-13.46c-0.02-2.09-0.02-4.18,0.08-6.27
		c0.17-3.91,1.64-5.37,5.52-6.26c3.83-0.88,7.67-1.82,11.35-3.17c2.4-0.89,4.56-2.45,6.73-3.87c0.94-0.61,1.98-1.51,1.65-2.86
		c-0.31-1.3-1.53-1.79-2.68-2c-2.14-0.39-4.31-0.86-6.46-0.83c-14.19,0.13-28.37,0.22-42.55,0.65c-8.11,0.24-16.26,0.45-24.42,2.29
		c-1.08-3.54-3.96-4.12-7.06-4.58c-5.12-0.73-10.22-0.53-15.31,0.21c-2.82,0.41-5.52,1.38-8,2.89c-5.39,3.28-11.21,2.94-17.07,1.8
		c-0.92-0.18-1.85-0.88-2.51-1.57c-1.41-1.47-3.07-2.27-5.08-2.41c-1.34-0.09-2.67-0.31-4.01-0.32c-6.65-0.04-13.25,0.57-19.67,2.35
		c-9.62,2.66-19.22,5.37-28.79,8.2c-2.88,0.86-5.69,2.05-8.41,3.32c-3.87,1.8-7.59,3.86-7.79,8.98c-0.63-0.06-1.06,0.01-1.39-0.15
		c-4.44-2.01-9.08-2.14-13.81-1.57c-3.08,0.37-6.14,0.87-9.23,1.22c-1.66,0.19-3.35,0.25-5.02,0.31c-2.05,0.08-3.48-0.8-4.47-2.64
		c-1.72-3.17-2.83-3.19-5.28-0.34c-1.14,1.33-2.32,2.65-3.62,3.82c-2.16,1.96-4.37,1.98-7.13,0.26c-2.05-1.28-2.72-3.23-1.91-5.93
		c0.42-1.35,1.07-2.63,1.59-3.94c0.3-0.77,0.76-1.58,0.04-2.34c-0.75-0.79-1.67-1.07-2.75-0.77c-5.21,1.39-9.82,3.9-13.68,7.63
		c-0.85,0.82-1.13,2.18-1.72,3.27c-0.76,1.37-1.34,2.92-2.37,4.03c-3.43,3.7-7.75,5.78-12.81,6.28c-3.28,0.33-6.34-0.44-9.14-2.16
		c-2.66-1.64-5.11-3.54-6.71-6.3c-1.97-3.39-0.66-6.09,3.24-6.7c1.41-0.22,2.83-0.42,4.26-0.5c3.54-0.19,6.76-1.37,9.61-3.37
		c4.39-3.08,8.57-6.44,13-9.47c3.72-2.56,7.61-4.87,11.5-7.17c3.59-2.11,7.26-2.18,11.04-0.27c3.89,1.95,7.83,3.82,11.86,5.49
		c2.15,0.9,4.51,1.29,6.77,1.89c0.4,0.1,0.83,0.14,1.25,0.17c3.9,0.23,5.29-1.83,3.47-5.3c-2.12-4.02-5.19-7.17-9.25-9.3
		c-2-1.06-4.09-1.92-6.13-2.92c-2.62-1.3-2.95-2.54-0.8-4.56c7.43-6.93,13.93-14.68,20.46-22.43c1.07-1.27,2.31-2.42,3.59-3.5
		c3.2-2.67,6.86-3.68,10.81-2.92c0.09,2.03-0.14,3.97,0.33,5.73c1.3,4.79,4.51,7.9,9.33,9.28c2.95,0.86,5.71,0.18,8.1-1.61
		c3.99-3.02,5.65-7.1,5.19-12.07c-0.18-2.07-0.26-4.17-0.37-6.24c-0.1-2,0.7-3.6,2.34-4.73c5.04-3.46,10.06-6.95,15.18-10.3
		c1.44-0.95,3.16-1.53,4.8-2.13c1.43-0.53,2.77-1.07,3.84-2.26c0.41-0.47,1.29-0.74,1.97-0.75c4.53-0.09,9.05-0.05,13.57-0.13
		c1.59-0.03,3.2-0.16,4.75-0.46c2.14-0.42,3.58-1.84,4.31-3.83c0.42-1.16,0.79-2.44,0.72-3.65c-0.23-4.25-0.45-8.5-1.08-12.7
		c-0.65-4.29-2.63-6.13-7-6.61c-3.49-0.39-7.03-0.37-10.55-0.38c-1.79-0.01-3.35,0.77-4.88,1.77c-1.21,0.79-2.69,1.44-4.11,1.61
		c-7.69,0.91-15.42,0.75-23.11-0.04c-2.47-0.26-4.95-0.94-7.29-1.78c-2.29-0.82-2.48-2.13-0.65-3.68c1.65-1.4,3.52-2.55,5.3-3.78
		c1.45-1,2.93-1.94,4.37-2.96c0.54-0.38,1.05-0.85,1.5-1.33c2.86-3.06,2.72-5.51-0.68-7.94c-1.47-1.07-3.17-1.89-4.85-2.61
		c-4.49-1.91-9.16-3.25-13.95-4.14c-3.93-0.73-7.49-0.03-10.73,2.31c-2.78,2.02-5.5,4.14-8.4,5.98c-2.75,1.73-5.62,3.37-8.6,4.65
		c-3.57,1.54-7.37,2.41-11.27,1.29c-1.33-0.38-2.68-1.03-3.78-1.86c-2.01-1.52-2.47-3.73-1.47-6.05c0.52-1.22,1.19-2.38,1.74-3.6
		c0.77-1.69,1.05-3.41-0.38-4.91c-1.33-1.39-3.01-1.34-4.67-0.72c-1.25,0.47-2.52,0.98-3.62,1.71c-1.6,1.06-3.16,2.22-4.58,3.51
		c-7.52,6.82-16.53,10.4-26.45,11.81c-3.04,0.43-6.2,0.52-9.22-0.59c-3.55-1.33-4.86-3.57-3.87-7.25c0.47-1.74,1.18-3.51,2.14-5.03
		c3.31-5.25,7.47-9.59,13.37-12.09c7.37-3.12,13.93-7.66,20.71-11.85c4.83-3,9.88-5.65,14.87-8.38c1-0.55,2.2-0.75,3.3-1.12
		c-2.48,1.55-5,3.05-7.43,4.66c-1.48,0.99-1.43,2.59-1.15,4.09c0.28,1.48,1.61,1.16,2.64,1.31c1.11,0.17,2.21,0.38,3.62,0.63
		c-0.52,0.85-0.72,1.44-1.12,1.77c-1.54,1.28-3.1,2.57-4.76,3.68c-1.84,1.24-3.88,1.8-6.17,1.78c-2.42-0.01-4.86,0.24-7.25,0.62
		c-1.28,0.21-2.49,0.92-3.7,1.47c-0.69,0.32-1.25,0.89-1.95,1.16c-0.44,0.17-1.07,0.13-1.53-0.04c-1.26-0.45-1.91-0.37-2.34,0.82
		c-0.42,1.16-0.72,2.4-0.81,3.63c-0.15,1.95,0.46,2.58,2.45,2.61c4.05,0.06,8.06-0.2,11.76-2.13c0.66-0.34,1.4-0.55,2.12-0.77
		c4-1.19,8.27-1.43,12.08-3.32c0.15-0.07,0.32-0.09,0.48-0.13c4.14-1.06,8.27-2.15,12.41-3.14c1.87-0.44,3.77-0.85,5.68-0.92
		c2.98-0.11,5.93,0.05,8.94,0.7c3.12,0.67,6.51,0.23,9.77,0.08c1.38-0.07,2.66-0.88,3.07-2.28c0.5-1.76,1.71-2.34,3.32-2.55
		c1.32-0.17,2.64-0.37,3.97-0.47c3.8-0.26,7.51,0.45,11.26,0.88c1.56,0.18,2.38,0.86,3.15,2.05c1.43,2.25,2.95,4.46,4.48,6.64
		c1.47,2.11,3.57,3.04,6.09,2.81c3.42-0.3,6.84-0.64,10.23-1.16c2.37-0.36,4.66-0.29,6.97,0.3c1.11,0.27,1.36,1.02,0.91,1.88
		c-0.76,1.42-1.7,2.7-3.54,2.86c-1.17,0.1-2.33,0.29-3.5,0.4c-1.49,0.13-2.52,0.82-2.94,2.29c-0.39,1.4,0.13,2.47,1.23,3.29
		c2.29,1.69,4.6,3.34,7.36,4.25c4.71,1.54,9.49,2.55,14.4,3.33c7.51,1.2,15.01,1.21,22.56,1.19c0.5,0,1.01,0.03,1.51,0
		c4.27-0.31,8.52-0.58,12.78-0.98c0.75-0.07,1.62-0.47,2.15-1.01c2.32-2.4,4.56-4.89,6.75-7.42c0.64-0.73,1.31-1.69,1.38-2.6
		c0.21-2.48,1.33-4.41,3.02-6.14c0.51-0.52,0.89-1.22,1.23-1.88c2.2-4.39,6.49-4.96,10.73-3.01c0.81,0.37,1.72,0.71,2.59,0.72
		c1.75,0.02,3.52-0.14,5.27-0.32c3.44-0.35,6.47-1.37,8.63-4.41c1.2-1.68,2.91-2.99,4.36-4.51c1.05-1.11,2.29-1.53,3.8-1.61
		c3.14-0.16,6.19,0.26,9.24,0.92c2.3,0.5,4.33,0.04,6.45-1.18c4.65-2.65,9.51-4.93,14.3-7.33c0.5-0.25,1.13-0.34,1.7-0.36
		c4.86-0.17,8.98-2.44,13.11-4.65c1.56-0.82,2.14-2.31,1.66-3.53c-0.56-1.48-1.89-1.12-3.01-1.16c-4.77-0.19-9.54-0.34-14.31-0.54
		c-0.35-0.01-0.69-0.25-1.02-0.38c0.11-0.34,0.13-0.52,0.22-0.64c0.15-0.19,0.35-0.35,0.54-0.52c3.73-3.35,8.37-4.49,13.15-5
		c2.82-0.29,5.71-0.05,8.56-0.05c0.76,0,1.51,0.03,2.27-0.01c0.9-0.04,2.11,0.1,2.24-1.04c0.06-0.57-0.82-1.27-1.33-1.86
		c-0.21-0.23-0.59-0.3-0.87-0.49c-1.14-0.78-1.27-1.75-0.23-2.66c0.53-0.46,1.3-0.9,1.98-0.93c1.67-0.1,3.42-0.23,5.01,0.14
		c3,0.71,5.95,0.73,8.97,0.32c3.38-0.47,4.72-1.99,4.51-5.35c-0.12-1.8-0.62-2.47-2.38-2.61c-2.6-0.18-5.3-0.27-7.48,1.44
		c-4.15,3.27-8.95,2.83-13.73,2.67c-0.97-0.03-1.86-0.36-2.05-1.48c-0.21-1.2,0.45-2,1.49-2.3c1.42-0.42,2.92-0.65,4.4-0.87
		c1.08-0.15,2.19-0.08,3.26-0.23c0.87-0.12,1.4-0.77,1.17-1.61c-0.18-0.64-0.63-1.33-1.16-1.71c-0.4-0.29-1.13-0.19-1.71-0.2
		c-1.34-0.01-2.68,0.08-4.02,0.02c-1.74-0.07-2.04-0.42-2.06-2.11c-0.02-1.85,0.27-2.21,2.15-2.24c3.19-0.05,6.38-0.02,9.57-0.03
		c1.59,0,3.13-0.2,4.69-0.86c-0.3-0.43-0.5-0.7-0.84-1.18c6.03,0.54,11.52-0.85,16.93-2.81c2.2-0.8,4.43-1.52,6.64-2.23
		c1.12-0.36,2.31-0.53,3.39-0.97c1.78-0.71,3.56-1.48,5.23-2.41c0.65-0.35,1.39-1.25,1.36-1.85
		C634.88,420.4,633.89,419.69,633.21,419.48z M124.4,608.38c-2.86,0.53-5.79,0.89-8.6,1.64c-1.38,0.37-2.6,1.43-3.82,2.28
		c-4.71,3.3-9.06,7.14-14.62,9.09c-0.51,0.18-1.04,0.31-1.76,0.17c0.47-0.54,0.94-1.09,1.4-1.63c2.19-2.51,4.38-5.01,6.57-7.51
		c0.44-0.49,0.9-1.05,1.46-1.34c4.34-2.22,8.81-3.98,13.82-3.97c3.39,0.01,6.79-0.12,10.17-0.18
		C127.75,608.24,126.01,608.08,124.4,608.38z M142.41,600.74c-3.69,1.95-7.41,3.85-11.15,5.7c-0.59,0.29-1.35,0.31-2.05,0.43
		c2.3-2.12,4.63-4.23,6.9-6.39c2.12-2.03,4.58-1.91,7.76-1.52C143.17,599.85,142.88,600.49,142.41,600.74z M225.28,549.63
		c2.25-1.11,4.5-2.24,6.84-3.17c2.38-0.95,3.71-2.42,3.55-5.08c-0.04-0.65,0.07-1.34,0.22-1.98c0.64-2.65,2.14-4.03,4.87-4.3
		c1.49-0.15,3.01-0.06,4.52-0.07H248c0.1,0.23,0.19,0.45,0.29,0.67c-2.24,1.39-3.9,3.56-6.57,4.36c-0.8,0.24-1.53,0.67-2.31,0.98
		c-1.12,0.43-1.92,1.07-1.71,2.4c0.19,1.31,0.73,2.39,2.06,2.92c0.22,0.09,0.48,0.15,0.74,0.15c5.59-0.09,11.24,0.65,16.72-1.16
		c1.76-0.58,3.47-1.27,4.54-2.94c0.22-0.34,0.51-0.67,0.85-0.92c1.2-0.91,2.31-0.51,2.59,0.94c0.13,0.63,0.14,1.3,0.21,2.03
		c0.91,0.08,1.7,0.16,2.56,0.25c0.46,1.32,0.27,2.23-1.17,2.51c-1.37,0.25-1.7,1.05-1.57,2.34c0.08,0.83-0.14,1.71-0.29,3.22
		c-0.92-0.88-1.47-1.21-1.77-1.71c-0.8-1.3-1.94-1.74-3.39-1.73c-1.59,0.03-3.19-0.05-4.78,0.02c-2.11,0.09-3.02,0.85-3.62,2.82
		c-0.95,3.14-2.38,4.04-5.34,2.49c-3.32-1.72-6.72-1.79-10.25-1.77c-3.01,0.01-6.03-0.04-9.04-0.19c-1.12-0.06-2.22-0.47-3.33-0.73
		C223.43,550.46,224.43,550.05,225.28,549.63z M185.35,623.5c-0.21,0.23-0.51,0.39-1.06,0.79c-0.24-0.77-0.56-1.35-0.57-1.92
		c-0.05-2.17-0.01-4.35,0-6.51c0.02-1.55,0.88-2.68,1.92-3.68c3.01-2.91,6.21-5.55,9.96-7.53c2.58-1.36,4.88-3.26,7.49-4.52
		c2.07-0.99,4.4-1.65,6.66-1.92c3.49-0.41,4.56-1.23,4.82-4.72c0.01-0.24,0.06-0.5,0.01-0.74c-0.52-2.72,0.9-4.17,3.19-5.23
		c2.43-1.13,4.75-2.47,7.17-3.63c0.93-0.44,1.99-0.6,2.97-0.9c0.21,0.22,0.41,0.43,0.63,0.64c-0.31,0.79-0.46,1.7-0.96,2.34
		c-1.19,1.55-1.57,3.31-1.72,5.15c-0.17,2.12,0.07,2.39,2.14,2.94c0.31,0.08,0.64,0.16,1.26,0.32c-0.06,0.77-0.05,1.56-0.21,2.31
		c-0.19,0.9-0.55,1.74-0.81,2.63c-0.57,2.03-1.98,3.27-4.08,3.49c-0.76,0.08-1.51,0.01-2.27,0.07c-1.79,0.13-2.33,0.88-1.95,2.64
		c0.37,1.75,1.61,2.85,3.53,3.02c1.17,0.11,2.35,0.06,3.53,0.09c0.89,0.02,1.4,0.46,1.46,1.37c0.04,0.5,0.06,1.01,0.04,1.5
		c-0.06,2.01-0.35,2.36-2.35,2.36c-2.01,0-4.01-0.19-6.02-0.25c-2.27-0.07-4.54-0.13-6.8-0.13c-1.23,0-1.77-0.45-1.94-1.72
		c-0.32-2.42-0.66-2.69-2.98-2.76c-2.35-0.06-4.71-0.08-7.05,0c-0.58,0.02-1.48,0.37-1.62,0.78c-0.16,0.44,0.25,1.33,0.7,1.67
		c1.43,1.12,2.97,2.1,4.52,3.08c0.84,0.54,1.76,0.94,2.64,1.43c1.01,0.57,1.33,1.49,1.06,2.57c-0.28,1.08-1.14,1.36-2.14,1.38
		c-0.68,0.02-1.34,0.04-2.02,0.04c-3.44,0.02-6.88,0.04-10.31,0.03C190.76,619.98,187.73,620.91,185.35,623.5z M300.55,667.97
		c2.35-0.85,4.59-2.01,6.86-3.09c1.44-0.67,2.81-1.5,4.25-2.16c2.81-1.3,5.77-1.76,8.84-1.2c5.14,0.95,10.2,0.53,15.16-1.02
		c3.75-1.17,7.53-1.3,11.43-1.02c6.11,0.44,12.25,0.61,18.35-0.29c2.77-0.42,5.33-1.44,7.71-2.9c1.36-0.83,2.74-1.64,4.07-2.51
		c2.59-1.67,5.3-1.93,8.17-0.78c0.54,0.22,1.11,0.39,1.66,0.58c3.87,1.3,5.33,5.28,3.21,8.77c-0.35,0.57-0.81,1.08-1.18,1.63
		c-1.43,2.05-2.17,4.32-2.09,6.82c0.11,3.24,1.86,5.37,5.03,5.96c1.48,0.28,3,0.32,4.5,0.54c1.07,0.15,2.16,0.33,3.18,0.68
		c1.1,0.37,1.78,1.24,1.98,2.4c0.13,0.87-0.14,1.49-1.13,1.57c-0.33,0.03-0.68,0.02-1.01,0.02c-6.89,0-13.77,0-20.65-0.01
		c-0.33,0-0.67-0.06-0.96-0.09c-1.41-1.57-1.72-3.38-1.62-5.36c0.12-2.58,0.21-5.16-1.5-7.37c-4.22,1.08-8.46,2-12.91,1.86
		c-5.7-0.18-11.41-0.05-17.12-0.04c-1.25,0-2.49-0.13-3.62,0.7c-0.41,0.3-1.13,0.18-1.7,0.3c-1.11,0.23-2.22,0.53-3.34,0.74
		c-0.74,0.14-1.49,0.23-2.23,0.24c-3.61,0.02-7.24-0.22-10.83,0.08c-2.72,0.24-5.55,0.53-7.85,2.47c-0.9,0.76-2.24,1.01-3.39,1.47
		c-0.45,0.18-0.98,0.23-1.39,0.47c-2.24,1.34-4.74,1.9-7.2,2.6c-1.9,0.53-3.74,1.23-5.63,1.78c-0.55,0.16-1.16,0.15-1.74,0.15
		h-98.48c-0.4,0-0.81-0.04-1.29-0.47c1.39-0.31,2.78-0.64,4.19-0.92c1.47-0.3,2.95-0.69,4.45-0.78c5.45-0.3,10.89-0.19,16.31,0.75
		c5.56,0.96,11.19,1.27,16.8,0.64c2.37-0.26,4.68-1.24,7-1.95c0.41-0.13,0.75-0.57,1.16-0.92c-0.55-1.43-1.75-1.67-2.88-1.76
		c-3.26-0.24-6.53-0.53-9.79-0.48c-5.39,0.07-10.49-1.1-15.44-3.09c-0.53-0.21-1.04-0.49-1.56-0.73c0.02-0.12,0.05-0.24,0.07-0.36
		c3.34,0,6.68-0.18,10.01,0.03c8.07,0.53,16.1,0.08,24.15-0.45c2.42-0.16,4.85-0.52,7.27-0.49c1.55,0.03,3.28,0.29,4.62,1.01
		c5.22,2.75,10.65,2.62,16.2,1.68C286.13,672.43,293.43,670.52,300.55,667.97z M332.21,592.65c-0.15,1.75-0.96,2.95-2.79,3.38
		c-3.07,0.73-6.12,0.63-9.22,0.18c-2.23-0.33-4.49-0.63-6.73-0.59c-3.25,0.07-5.09,1.66-5.9,4.8c-0.67,2.55-1.17,5.12-1.88,8.3
		c-0.66-1.98-1.1-3.39-1.58-4.78c-1.11-3.21-2.15-3.95-5.5-4.03c-3.02-0.06-6.03-0.08-8.84,1.36c-0.77,0.39-1.71,0.43-2.91,0.72
		c0.71-2.17,2.13-3.22,3.47-4.27c1.12-0.88,2.38-1.56,3.56-2.36c3-2.04,6.26-2.45,9.83-1.97c4.15,0.56,8.32,0.78,12.35-1.06
		c1.57-0.71,3.42-0.78,5.11-1.27c2.81-0.8,5.59-1.76,8.4-2.55c2.17-0.59,2.57-0.25,2.67,1.89
		C332.29,591.15,332.28,591.91,332.21,592.65z M410.48,539.7c6.29-2.03,12.57-1.65,18.76,0.53c1.49,0.52,2.92,1.23,3.69,3.06
		c-0.55,0.49-1.12,0.95-1.64,1.45c-0.95,0.93-1.99,1.79-2.78,2.83c-0.65,0.82-1.22,1.22-2.31,1c-3.51-0.71-7.01-0.32-10.49,0.34
		c-7.08,1.34-14.14,2.75-21.21,4.06c-2.19,0.4-4.43,0.58-6.63,0.87c-0.11-0.24-0.22-0.49-0.33-0.73c0.5-0.52,0.94-1.12,1.5-1.55
		C395.59,546.54,402.57,542.25,410.48,539.7z M296.26,532.03c3.37-2.73,7-1.5,10.56-0.65c1.15,0.28,1.43,1.51,1.64,2.62
		c0.42,2.32,0.52,2.38,2.91,2.45c7.31,0.2,7.31,0.19,13.15-4c0.65-0.47,1.33-0.89,2.33-1.04c-0.7,1.28-1.22,2.69-2.11,3.81
		c-1.81,2.28-3.95,3.95-7.27,3.54c-2.32-0.29-4.7-0.11-7.05-0.03c-2.56,0.08-3.65,1.16-3.7,3.45c-0.04,2.15,1.22,3.62,3.54,3.7
		c1.48,0.05,2.99-0.21,4.46-0.52c3.98-0.87,7.37-3.15,11.09-4.67c5.23-2.13,10.6-3.69,16.8-3.22c-0.73,0.33-1.09,0.54-1.49,0.66
		c-0.47,0.14-1.02,0.12-1.46,0.33c-0.32,0.15-0.77,0.58-0.75,0.86c0.03,0.41,0.33,0.94,0.69,1.18c0.38,0.26,0.95,0.32,1.44,0.36
		c4.74,0.39,9.32-0.31,13.89-1.64c2.93-0.86,6.03-1.47,9.08-1.62c8.38-0.42,15.52-3.19,20.9-9.81c1.51-1.85,3.42-2.93,5.89-2.84
		c1.34,0.05,2.69-0.03,4.01,0.13c1.11,0.13,1.48,0.92,0.82,1.79c-0.64,0.83-1.46,1.67-2.39,2.11c-4.57,2.15-8,5.77-11.76,8.94
		c-1.68,1.42-2.93,3.37-4.38,5.09c-1.11,1.33-2.52,1.75-4.24,1.71c-3.77-0.09-7.55-0.11-11.33,0c-3.27,0.09-6.3-0.88-9.34-1.81
		c-3.38-1.04-6.64-1.24-10.11-0.17c-1.95,0.59-4.14,0.37-6.23,0.43c-2.18,0.06-4.16,0.38-6.29,1.23c-3.69,1.46-7.73,2.06-11.63,3.01
		c-0.66,0.15-1.34,0.12-2,0.23c-1.99,0.34-2.55,0.99-2.7,2.98c-0.14,1.88,0.4,2.56,2.35,2.79c0.84,0.1,1.67,0.13,2.51,0.17
		c0.88,0.04,1.74,0.13,1.95,1.19c0.21,1.06-0.22,1.66-1.3,2.06c-0.57,0.21-1.17,0.94-1.34,1.55c-0.39,1.38,0.29,2.13,1.88,2.17
		c1.85,0.05,3.69-0.03,5.54-0.02c0.93,0,1.87-0.02,2.76,0.14c2.05,0.35,2.82,1.99,1.65,3.7c-1.16,1.68-2.6,3.05-4.9,3.1
		c-1.07,0.02-2.18,0.21-3.21,0.52c-0.88,0.27-1.87,0.86-1.68,1.9c0.12,0.7,0.78,1.5,1.41,1.86c0.84,0.47,1.89,0.63,2.86,0.8
		c0.98,0.17,2.03,0.11,2.72,1.53c-2.19,0.41-4.01,0.29-5.92-0.23c-1.31-0.36-2.78-0.33-4.17-0.22c-1.22,0.11-1.89,0.99-1.85,2.28
		c0.02,0.58,0.02,1.17-0.02,1.75c-0.1,1.55-0.11,1.55-2.33,1.54c0.13-1.07,0.28-2.11,0.37-3.16c0.3-3.63-1.46-5.5-5.05-4.98
		c-3.81,0.55-7.54,1.35-10.61,4.06c-2.32,2.05-5.08,3.2-8.33,2.9c-1.24-0.12-2.52,0.08-3.77-0.04c-5.62-0.54-10.77,1.22-15.87,3.17
		c-1.17,0.44-2.34,1.02-3.31,1.78c-1.34,1.05-2.75,1.47-4.43,1.39c-4.28-0.2-8.54-0.32-12.82-0.5c-0.39-0.02-0.78-0.17-1.35-0.3
		c0.25-0.59,0.35-1.09,0.64-1.44c0.89-1.1,1.22-2.33,1.23-3.72c0.02-1.96,1.05-3.45,2.4-4.78c2.32-2.27,4.65-4.55,6.92-6.87
		c1.8-1.85,3.5-3.82,5.31-5.67c2.11-2.13,4.77-1.72,7.33-1.26c0.59,0.1,1.16,0.94,1.52,1.56c0.7,1.15,1.67,1.59,2.94,1.55
		c2.76-0.1,5.53-0.19,8.29-0.36c1.41-0.09,2.52-0.8,3.4-1.92c1.65-2.11,3.86-3.4,6.35-4.32c3.85-1.42,7.7-2.8,11.82-3.33
		c2.03-0.26,3.08-1.66,3.03-3.64c-0.04-2.05-1.27-3.88-3.13-3.97c-3.07-0.15-6.16-0.56-9.19,0.7c-2.84,1.19-5.82,2.05-8.77,2.95
		c-1.34,0.4-2.76,0.39-4.33-0.04c0.82-1.79,2.36-2.28,3.76-2.27c2.68,0,4.58-1.5,6.56-2.85c1.53-1.04,1.56-3.25,0.22-4.56
		c-2.84-2.8-2.82-3.11,0.48-5.52C294.6,533.17,295.48,532.66,296.26,532.03z"/>
	<path class="st1" d="M994.64,436.48c-0.07-0.18-0.13-0.36-0.19-0.54c1.09-0.53,2.14-1.36,3.28-1.54c3.35-0.51,6.74-0.84,10.11-1.12
		c1.66-0.14,3.36-0.09,5.03,0c0.98,0.06,1.95,0.4,2.92,0.53c1.47,0.19,2.97,0.46,4.46,0.41c3.07-0.11,5.88,0.85,8.73,1.69
		c1.35,0.39,2.71,0.74,4.08,1.03c2.35,0.48,4.71,0.87,7.07,1.34c1.29,0.26,2.56,0.6,3.84,0.94c2.72,0.69,5.45,1.37,8.16,2.14
		c0.6,0.17,1.14,0.64,1.66,1.05c0.66,0.5,1.2,1.24,1.94,1.56c1.5,0.65,2.03,1.86,2.38,3.49c-2.21-0.51-4.31-0.94-6.37-1.5
		c-4.79-1.3-9.73-1.64-14.6-2.45c-3.53-0.58-6.99-1.66-10.5-2.43c-3.35-0.73-6.71-1.45-10.09-2c-4.29-0.71-8.59-1.32-12.91-1.84
		C1000.65,436.86,997.63,436.72,994.64,436.48z"/>
	<path class="st1" d="M647.91,505.8c0.02-0.98,0.77-1.45,1.63-1.65c0.56-0.14,1.16-0.2,1.74-0.2c1.73,0,3.25-0.5,4.66-1.56
		c1.93-1.44,4.09-2.14,6.57-2.09c2.25,0.05,4.51-0.28,6.77-0.33c1.5-0.03,3.02,0.03,4.51,0.26c2.75,0.41,3.5,1.41,3.57,4.28
		c-0.23,1.05-0.32,2.15-0.74,3.13c-0.66,1.55-1.87,2.7-3.66,2.56c-2.26-0.17-4.05,0.63-5.77,1.95c-3.8,2.92-7.76,2.6-11.81,0.54
		c-1.26-0.64-2.26-1.49-2.6-2.88c-0.33-1.39-1.02-2.26-2.57-2.19c-0.24,0.01-0.5-0.06-0.75-0.12
		C648.58,507.26,647.89,506.77,647.91,505.8z"/>
	<path class="st1" d="M741.61,433.6c0.47-1.35,1.64-1.75,2.97-1.92c2.08-0.27,4.16-0.51,6.19-1c1.51-0.37,2.92-1.12,4.52-1.74
		c-0.49-0.65-0.78-1.03-1.14-1.51c0.34-0.19,0.6-0.44,0.9-0.47c2.91-0.28,5.84-0.48,8.74-0.81c2.91-0.33,5.8-0.82,8.71-1.18
		c2.15-0.27,4.34-0.66,6.48-0.57c3.46,0.14,6.64-0.58,9.73-2.05c2.34-1.12,4.73-2.14,7.06-3.28c2.53-1.23,5.13-1.88,7.99-1.86
		c3.62,0.02,7.19,0.29,10.75,0.95c9.26,1.71,18.58,2.42,28,2.04c1.91-0.08,3.85,0.2,5.74,0.55c0.82,0.15,1.68,0.75,2.26,1.39
		c0.85,0.94,1.42,2.12,0.82,3.45c-0.57,1.24-1.73,1.46-2.95,1.49c-6.48,0.18-12.8,1.54-19.14,2.66c-6.39,1.13-12.69,0.45-19.01-0.45
		c-1.06-0.15-2.13-0.27-3.25-0.19c1.19,1.45,2.87,1.86,4.55,2.08c5.47,0.74,10.97,1.36,16.45,2.06c1.24,0.16,2.53,0.32,3.66,0.8
		c0.75,0.3,1.51,1.1,1.74,1.84c0.11,0.35-0.93,1.37-1.61,1.58c-2.14,0.67-4.34,1.34-6.56,1.57c-2.4,0.26-4.86,0.07-7.29-0.01
		c-0.82-0.03-1.74-0.13-2.43-0.53c-2.46-1.46-5.23-1.7-7.93-2.23c-2.55-0.5-5.13-0.78-7.71-1.13c-2.27-0.29-4.32,0.18-6.06,1.76
		c-4.86,4.41-10.58,6.29-17.12,5.73c-0.67-0.05-1.34-0.04-2.01,0c-4.8,0.31-9.53-0.48-14.29-0.81c-2.01-0.14-4.02-0.22-6.04-0.24
		c-3.18-0.03-6.12-0.95-8.94-2.26c-1.04-0.48-1.94-1.3-2.81-2.06C741.45,436.27,741.1,434.99,741.61,433.6z"/>
	<path class="st1" d="M915.55,643.95c0.42,2.61-0.96,4.69-3.37,6.35c-2.34,1.62-3.54,4.18-4.99,6.5c-0.71,1.13-1.16,2.4-1.83,3.56
		c-1.31,2.3-2.5,2.76-5.18,2.37c-1.48-0.21-3-0.17-4.51-0.22c-4.6-0.15-9.21-0.23-13.8-0.5c-1.29-0.08-2.61-0.62-3.78-1.23
		c-0.65-0.32-1.24-1.17-1.4-1.87c-0.21-0.95,0.69-1.35,1.49-1.72c1.2-0.57,2.41-1.19,3.49-1.96c1.8-1.28,1.66-2.18-0.39-3.2
		c-0.75-0.37-1.54-0.66-2.28-1.06c-1.58-0.84-2.65-2.03-2.45-3.98c0.19-1.94,1.45-2.91,3.19-3.42c0.81-0.23,1.6-0.5,2.43-0.64
		c5.6-0.94,11.21-1.8,16.6-3.7c1.16-0.4,2.48-0.51,3.71-0.48c3.43,0.08,6.85,0.24,10.26,0.5c2.69,0.21,2.77,0.4,2.81,3.05
		C915.56,642.7,915.55,643.13,915.55,643.95z"/>
	<path class="st1" d="M971.16,465.38c0.84-0.43,1.93-0.63,2.88-0.59c3.74,0.15,7.29-0.95,10.92-1.54c0.78-0.12,1.66-0.84,2.12-1.53
		c2.12-3.31,5.1-4.74,8.96-4.3c4.57,0.51,9.17,0.92,13.68,1.75c3.9,0.71,7.74,1.15,11.72,0.88c7.58-0.51,15.02,0.66,22.49,1.81
		c5.28,0.8,10.65,1.17,15.99,1.43c3.56,0.18,7,0.66,10.29,1.97c1.39,0.54,2.79,1.12,3.36,2.93c-2.66,1.27-5.23,2.47-8.15,2.27
		c-4.44-0.29-8.8-0.91-13-2.62c-1.89-0.77-4.04-1.24-6.08-1.23c-5.03,0.03-10.05,0.41-15.07,0.66c-1.25,0.06-2.5,0.16-3.76,0.17
		c-5.36,0.05-10.74,0.12-16.1,0.06c-2.28-0.02-4.3,0.49-6.11,1.87c-0.8,0.6-1.66,1.11-2.48,1.7c-6.61,4.82-13.84,4.74-21.34,2.72
		c-2.78-1.96-6.01-2.82-9.25-3.66c-0.47-0.12-0.95-0.37-1.33-0.67C969.32,468.24,969.38,466.32,971.16,465.38z"/>
	<path class="st1" d="M1105.99,682H805.74c0.04-0.01,0.08-0.03,0.11-0.05c1.33-0.81,2.72-0.63,4.13-0.73
		c3.54-0.25,7.2,0.77,10.62-0.94c0.2-0.11,0.5-0.06,0.75-0.04c3.88,0.25,7.21-1.59,10.66-2.86c2.34-0.85,4.55-2.09,6.79-3.21
		c5.43-2.72,10.98-5.24,15.27-9.8c0.97-1.03,2.52-1.88,3.9-2.05c2.2-0.26,4.02-0.93,5.59-2.44c0.73-0.7,1.55-0.95,2.7-0.08
		c0,1.02-0.13,2.18,0.03,3.32c0.17,1.2,0.83,2.34,0.91,3.54c0.1,1.39,0.16,2.73,1.41,3.54c1.17,0.76,2.42,1.7,3.73,1.9
		c2.75,0.41,5.4,1.67,8.3,1.15c0.45-0.08,0.97,0.17,1.45,0.28c0.95,0.22,1.89,0.64,2.83,0.65c5.28,0.06,10.58,0.06,15.87,0.01
		c2.05-0.02,4.19,0.47,6.1-0.86c0.29-0.21,0.82-0.12,1.23-0.12c3.81,0.04,6.26-2.05,7.88-5.18c1.58-3.05,3.34-5.89,5.94-8.26
		c2.59-2.36,4.05-5.41,3.96-9.05c-0.02-0.72,0.12-1.51,0.38-2.18c1.16-3.01,0.83-6.15,0.31-9.1c-0.27-1.61-0.68-3.2-0.73-4.86
		c-0.05-1.9-2.55-5.3-4.38-5.53c-3.13-0.41-6.14-1.58-9.39-1.16c-1.13,0.14-2.45,0.15-3.46-0.29c-1.38-0.6-2.74-0.65-4.15-0.68
		c-0.85-0.01-1.7,0.04-2.51-0.14c-0.41-0.09-0.73-0.61-1.21-1.06c2.66-0.94,4.96-1.76,7.28-2.55c1.17-0.39,2.35-0.76,3.55-1.04
		c1.93-0.44,3.95-0.54,5.78-1.22c3.26-1.21,6.44-2.63,9.56-4.16c2.82-1.39,5.22-3.36,6.46-6.36c1.03-2.51,2.97-3.33,5.5-3.35
		c0.67,0,1.34-0.08,1.99-0.23c2.38-0.56,4.75-1.21,7.15-1.72c0.81-0.18,1.7,0.05,2.5-0.14c2.39-0.56,4.75-1.23,7.12-1.89
		c1.02-0.28,2.02-0.67,3.03-0.99c2.51-0.78,5.02-1.57,7.54-2.32c1.96-0.58,3.9-1.28,5.9-1.66c2.81-0.54,5.51-1.21,7.44-3.51
		c0.99-1.18,2.22-1.61,3.77-1.58c4.11,0.08,8.23,0.02,12.34,0.04c0.74,0,1.47,0.1,2.36,0.17c1.78,10.86,8.31,16.77,19.02,18.1
		c0.13,0.4,0.26,0.63,0.27,0.87c0.31,4.28-0.61,8.65,1.06,12.81c-0.35,2.71,1.05,4.88,2.43,6.91c0.9,1.32,2.43,2.22,3.7,3.28
		c1.18,0.97,2.86,0.53,3.99,1.12c2.03,1.06,4.05,0.78,6.1,0.81c3.85,0.06,7.72,0.15,11.58-0.03c2.12-0.1,4.28-0.55,6.28-1.22
		c1.37-0.46,2.54-1.55,3.76-2.41c0.47-0.33,1.05-0.73,1.23-1.23c0.78-2.17,2.76-3.31,4.09-4.98c2.37-3.01,5.55-2.05,8.57-2
		c1.34,1.23,2.99,0.85,4.55,0.86c3.36,0.03,6.73,0.11,10.07-0.03c1.8-0.07,3.39,0.42,4.64,1.51c2.16,1.85,4.16,3.88,6.13,5.94
		c0.85,0.9,0.58,1.87-0.62,2.34c-1.21,0.49-2.53,1.06-3.78,1.02c-2.43-0.07-3.85,1.42-4.82,3.09c-0.86,1.49-1.22,3.4-1.34,5.15
		c-0.21,2.91-0.09,5.85-0.04,8.76c0.01,0.73,0.21,1.47,0.37,2.18c0.17,0.79,0.57,1.58,0.57,2.35c-0.02,1.21,0.57,1.99,1.26,2.88
		c1.89,2.44,4.73,3.33,7.27,4.74c0.48,0.28,1.21,0.49,1.39,0.92c0.82,1.88,1.88,3.79,2.09,5.77c0.26,2.37,1.27,4.33,2.44,6.2
		C1103.24,680.39,1104.4,681.5,1105.99,682z"/>
	<path class="st1" d="M1193.4,662c-0.12-1.95-1.22-2.93-3.25-3.05c-0.76-0.05-1.57,0.08-2.24-0.18c-2.53-1-5.05-2.03-7.48-3.23
		c-1.23-0.61-2.31-0.77-3.43-0.32c-0.51,1.81-1.08,3.45-1.44,5.13c-0.45,2.1,0.47,3.57,2.49,4.31c2.05,0.74,4.1,1.31,6.34,1.16
		c0.87-0.06,1.79,0.26,2.65,0.53c2.07,0.64,4.08,0.58,6.37-0.01C1193.42,664.81,1193.49,663.4,1193.4,662z M1206.38,681.99
		c-1.95-0.01-3.88,0.01-5.83,0.01h27.55c-1.03,0-1.73-0.36-1.92-1.45c-0.38-2.39-2-3.99-3.65-5.53c-1.39-1.28-2.39-2.45-1.31-4.52
		c0.82-1.56,0.24-3.19-1-4.35c-1.96-1.82-4-3.56-6.13-5.18c-1.56-1.18-2.85-0.86-4.19,0.6c-1.25,1.35-2.52,2.68-3.82,3.97
		c-2.42,2.41-2.84,4.6-1.28,7.68c0.52,1.04,1.38,1.9,1.89,2.95c0.6,1.25,1.16,2.57,1.43,3.9
		C1208.34,681.21,1207.69,681.99,1206.38,681.99z M1229.68,656.96c-2.28-0.51-4.57-0.98-6.86-1.42c-0.48-0.09-1.01-0.01-1.5,0.07
		c-2.27,0.35-4.55,0.74-6.91,1.14c0.26,0.56,0.59,1.29,0.94,2.01c0.49,1.08,1.38,1.68,2.51,1.83c3.9,0.53,7.79,0.74,11.67-0.25
		c0.93-0.23,1.86-0.5,1.93-1.63C1231.52,657.53,1230.6,657.16,1229.68,656.96z M1373.15,642.3c-1.89-0.74-3.52-0.11-4.93,0.97
		c-3.13,2.37-6.24,4.79-9.2,7.37c-1.92,1.68-3.75,3.16-6.36,3.78c-1.72,0.41-3.36,1.52-4.82,2.61c-2.34,1.74-4.97,2.77-7.7,3.57
		c-2.24,0.66-4.16,1.74-5.73,3.46c-0.11,0.13-0.24,0.23-0.34,0.36c-4.49,6.05-10.66,6.6-17.38,5.2c-1.88-0.39-3.71-1.03-5.57-1.53
		c-0.73-0.2-1.45-0.38-2.19-0.53c-2.21-0.45-4.43-0.82-6.61-1.36c-0.78-0.19-1.46-0.75-2.17-1.19c-1.48-0.93-2.88-2-4.44-2.8
		c-2.23-1.16-4.52-2.21-6.87-3.12c-1.46-0.55-3.06-0.96-4.61-1.04c-4.28-0.23-8.54-0.17-12.66,1.35c-1.31,0.48-2.8,0.48-4.17,0.81
		c-0.51,0.13-1.3,0.58-1.31,0.93c-0.03,0.54,0.35,1.43,0.79,1.61c1.45,0.58,3.04,1.38,4.51,1.29c6.77-0.45,12.64,2.09,18.52,4.84
		c2.27,1.07,4.61,2.02,6.98,2.86c1.16,0.4,2.46,0.43,3.7,0.56c2.8,0.28,5.54,0.77,7.43,3.12c0.6,0.75,1.1,1.68,1.35,2.61
		c0.69,2.51,0.61,2.53,2.82,3.95h-23.29c-0.41,0-0.87,0-1.24-0.15c-2.37-0.98-4.77-1.89-7.05-3.03c-2.74-1.38-5.57-2.26-8.55-3.01
		c-2.23-0.56-4.5-0.33-6.55-0.95c-2.57-0.76-5.78-0.32-7.55-3.09c-0.31-0.48-0.93-0.97-0.91-1.44c0.08-2.6-1.48-4.87-1.22-7.55
		c0.26-2.6-2.86-5.71-5.52-5.76c-0.82-0.02-1.84,0.42-2.41,1.01c-1.34,1.34-2.88,2.26-4.6,2.94c-1.6,0.63-2.55,1.69-2.3,3.43
		c0.24,1.63-0.68,2.88-1.22,4.24c-0.21,0.54-0.86,1-1.41,1.31c-2.52,1.39-3.06,2.83-1.97,5.52c0.18,0.46,0.41,0.92,0.48,1.4
		c0.73,4.65,0.29,5.14-4.43,5.13c-1.43,0-2.85-0.02-4.29,0.01H1345c-7.05,0-14.1,0-21.15-0.01c-0.71,0-1.42-0.11-2.34-0.18
		c0.58-1.56,1.66-1.94,2.85-1.89c2.59,0.12,5.18,0.31,7.75,0.57c2.01,0.21,2.18,0.23,3.67-1.02c-0.45-1.55-1.75-2.28-3.02-3.09
		c-1.63-1.03-1.61-1.46-0.32-2.86c0.78-0.84,1.46-1.79,1.98-2.8c0.52-1.04,1.24-1.57,2.36-1.49c0.84,0.05,1.67,0.17,2.48,0.35
		c1.63,0.37,3.24,0.92,4.89,1.18c2.57,0.42,4.77,1.38,6.56,3.34c1.64,1.8,3.78,2.13,6,1.21c0.8-0.33,1.58-0.96,2.11-1.64
		c1.12-1.44,0.91-3.72-1.75-3.5c-3.01,0.25-5.81-0.66-8.63-1.42c-2.29-0.62-3.09-1.91-2.38-4.1c0.22-0.68,0.9-1.39,1.56-1.74
		c0.81-0.43,1.65-0.02,2.14,0.79c0.98,1.63,2.45,2.32,4.27,1.95c0.82-0.16,1.83-0.67,2.2-1.33c0.26-0.47-0.32-1.48-0.66-2.19
		c-0.21-0.43-0.79-0.71-0.95-1.15c-0.23-0.65-0.54-1.58-0.25-2.02c0.3-0.45,1.35-0.74,1.95-0.6c0.83,0.21,1.66,0.76,2.27,1.39
		c1.26,1.33,2.31,2.86,3.58,4.19c0.52,0.56,1.34,1.11,2.06,1.15c1.08,0.06,1.63-1,1.68-1.88c0.09-1.8,0.26-3.73-0.24-5.41
		c-0.84-2.78-0.59-5.03,1.51-7.1c1.48-1.47,2.87-3.04,4.19-4.66C1372.21,644.99,1373.47,644.06,1373.15,642.3z M1401.71,665.53
		c-2.44-2.3-5.31-4.01-8.37-5.36c-2.09-0.92-4.35-1.43-6.46-2.28c-1.4-0.56-2.77-0.84-4.29-1.02c-3.54-0.41-4.9,1.97-5.58,5.34
		c-0.14,0.72-0.13,1.51-0.01,2.24c0.39,2.48-0.55,4.75-1.2,7.03c-0.22,0.78-1.09,1.44-1.77,2.01c-0.49,0.42-1.15,0.68-1.77,0.93
		c-2.33,0.87-3.18,2.71-3.32,4.99c-0.17,2.56-0.16,2.58-2.78,2.58c-7.05,0.01-14.11,0.01-21.16,0.01h54.64
		c-1.1,0-1.65-0.42-1.68-1.6c-0.09-4.27,0.97-8.13,3.87-11.38C1403.27,667.41,1403.34,667.06,1401.71,665.53z M1399.68,682h3.83
		C1402.24,682,1400.96,681.98,1399.68,682z M1441.83,608.28c-2.73-0.4-4.86-1.91-6.51-3.95c-2.17-2.68-4.88-4.45-7.96-5.95
		c-3.3-1.61-6.4-3.62-9.51-5.59c-3.32-2.1-6.61-4.14-10.42-5.43c-3.78-1.29-7.39-3.14-10.99-4.94c-2.69-1.35-5.58-1.77-8.48-2.11
		c-0.54-0.07-1.36,0.28-1.69,0.71c-0.57,0.73,0.02,1.39,0.6,1.92c1.17,1.08,2.42,2.07,3.49,3.24c2.21,2.41,4.83,4.15,7.99,5
		c2.99,0.8,5.23,2.84,7.11,4.98c2.5,2.85,5.66,4.07,9.06,4.97c3.49,0.92,6.07,3.04,8.4,5.91c-0.56-0.12-1.14-0.18-1.67-0.36
		c-1.42-0.48-2.84-0.99-4.23-1.53c-1.47-0.57-2.96-1.13-4.38-1.83c-4.13-2.03-8.18-4.25-12.36-6.17c-1.78-0.82-3.82-1.11-5.75-1.62
		c-3.08-0.83-6.15-1.63-9.23-2.44c-0.56-0.15-1.19-0.19-1.7-0.44c-2.73-1.33-5.75-0.96-8.58-1.51c-5.03-0.98-10.34-1.25-14.79-4.27
		c-0.77-0.51-1.48-1.08-2.2-1.65c-0.39-0.31-0.69-0.88-1.11-1c-3.43-1.02-4.97-4.06-7.16-6.41c-1.6-1.72-1.89-3.96-1.88-6.09
		c0.02-2.87-1.31-4.28-3.79-5.48c-6.08-2.95-12.46-4.38-19.15-4.78c-0.67-0.04-1.32-0.18-1.99-0.31
		c-6.07-1.22-12.15-2.42-18.22-3.68c-1.14-0.24-2.28-0.61-3.34-1.09c-4.81-2.15-9.79-3.98-13.94-7.37
		c-3.09-2.52-6.56-4.31-10.36-5.56c-1.08-0.36-2.06-1.07-3.01-1.72c-2.97-2-5.87-4.01-9.52-4.89c-3.12-0.73-6.43-1.37-9.18-4.14
		c0.89-0.15,1.55-0.37,2.22-0.37c7.79,0.06,15.61-0.31,23.35,1.05c0.84,0.15,1.71,0.02,2.79,0.02c-0.54-2.05-1.91-2.9-3.21-3.74
		c-5.64-3.63-11.58-6.73-17.6-9.65c-2.65-1.29-5.51-1.96-8.46-2.15c-1.59-0.1-3.18-0.27-4.75-0.46c-1.98-0.24-2.2-0.49-2.38-2.52
		c-0.06-0.57-0.06-1.15-0.1-1.84c0.97-0.35,1.93-0.63,2.82-1.05c1.77-0.81,2-2.27,0.45-3.47c-0.7-0.54-1.62-0.97-2.49-1.06
		c-1.71-0.18-2.9-1.07-4.13-2.15c-1.73-1.55-3.52-3.12-5.51-4.32c-1.46-0.88-3.25-1.33-4.95-1.67c-3.25-0.66-6-2.03-8.07-4.68
		c-1.89-2.38-4.52-3.29-7.43-3.7c-1.64-0.22-3.26-0.63-4.88-1.02c-2.2-0.51-4.38-1.09-6.57-1.61c-2.37-0.56-4.74-1.09-7.11-1.64
		c-2.34-0.54-4.41-1.58-6.06-3.36c-1.8-1.95-2.38-1.97-4.98-0.01c1.06,2.75,2.57,5.17,5.67,6.05c3.71,1.06,7.47,1.9,11.2,2.86
		c0.9,0.22,1.83,0.41,2.63,0.82c5.6,2.86,11.24,5.63,16.26,9.47c1.26,0.96,2.36,2.06,2.99,3.48c-5.26,1.85-10.54,1.44-15.78,1.4
		c-0.67-0.01-1.34-0.1-2-0.24c-4.65-1.02-9.37-1.83-13.93-3.15c-3.76-1.08-7.34-2.78-11.02-4.16c-3.45-1.29-6.92-2.52-10.39-3.75
		c-0.47-0.17-1.1-0.13-1.43-0.42c-2.29-2.01-5.25-2.29-7.98-2.76c-3.35-0.58-6.84-0.43-10.26-0.46c-1.33-0.01-1.96,1.04-2.41,2.22
		c-1.29,3.38-1.66,3.62-5.29,3.69c-1.09,0.02-2.2-0.1-3.27,0.03c-4.08,0.49-7.39-1.14-10.29-3.73c-2.72-2.42-6.1-2.72-9.43-2.77
		c-8.81-0.14-17.64-0.01-26.45-0.08c-1.47-0.01-2.96-0.35-4.4-0.74c-4.87-1.36-9.33-3.57-13.67-6.19
		c-4.77-2.86-9.92-4.82-15.73-4.39c-2.67,0.2-5.37-0.02-8.06,0c-0.92,0.01-1.91,0.01-2.71,0.35c-0.68,0.28-1.53,0.99-1.65,1.63
		c-0.37,2.03-0.62,4.1,0.52,6.09c1.19,2.05,0.6,3.17-1.75,3.24c-3.52,0.11-7.08,0.3-10.57-0.07c-2.78-0.29-5.65-0.95-8.04-2.65
		c-1-0.71-1.99-1.55-2.75-2.51c-1.67-2.09-3.75-3.25-6.45-3.25c-2.52,0-5.04-0.04-7.56-0.01c-3.11,0.03-6.14-0.09-9.19-1
		c-3.19-0.95-6.54-1.34-9.81-2.02c-2.05-0.43-4.05-1.21-6.12-1.36c-4.59-0.34-9.21-0.47-13.81-0.52c-3.21-0.04-6.25-0.48-9.38-1.37
		c-3.14-0.89-6-2-8.53-4c-0.25-0.2-0.55-0.38-0.87-0.49c-3.23-1.08-5.84-3.19-8.66-4.97c-4.11-2.59-8.55-4.66-13.65-4.28
		c-1.16,0.09-2.31,0.37-3.42,0.7c-0.52,0.16-1.17,0.54-1.38,1c-0.81,1.73-1.45,3.53-2.17,5.29c-0.37,0.91-0.65,1.89-1.21,2.67
		c-1.14,1.54-2.44,2.97-3.7,4.43c-1.57,1.84-4.96,2.11-6.75,0.45c-0.97-0.91-1.76-2.01-2.55-3.09c-2.03-2.75-4.6-4.63-7.7-6.2
		c-3.48-1.75-6.97-2.16-10.7-2.05c-2.93,0.09-5.87,0.03-8.81,0.01c-1.69,0-3.27-0.34-4.82-1.17c-1.13-0.6-2.53-0.85-3.83-0.96
		c-1.84-0.16-3.7-0.16-5.54-0.02c-2.27,0.17-4.15-0.57-5.76-2.02c-1.33-1.22-2.8-1.66-4.59-1.62c-3.19,0.07-6.37,0.06-9.57-0.02
		c-3.43-0.09-6.88-0.17-10.28-0.52c-2.32-0.24-4.58-1.24-6.89-1.36c-5.02-0.25-9.91-1.77-14.98-1.46c-0.41,0.02-0.85,0-1.25-0.1
		c-7.79-1.83-15.72-0.87-23.57-0.8c-3.87,0.02-7.89,0.17-11.64,1.71c-0.66,0.27-1.5,0.27-2.24,0.19c-2.87-0.29-5.48,0.58-8.01,1.75
		c-0.82,0.38-1.62,0.91-2.24,1.55c-1.27,1.33-0.92,2.84,0.86,3.22c2.61,0.55,5.27,0.88,7.93,1.24c0.82,0.12,1.68-0.02,2.51,0.08
		c1.98,0.23,2.74,1.58,1.92,3.4c-0.7,1.54-1.95,2.21-3.62,2.2c-2.94-0.01-5.88,0.01-8.82,0.02c-2.51,0-5.04-0.1-7.55,0.04
		c-1.91,0.1-3.8,0.43-5.69,0.76c-2.88,0.51-5.73,1.24-8.62,1.66c-2.15,0.31-3.98,1.14-5.7,2.42c-1.53,1.16-3.11,2.29-4.78,3.23
		c-1.21,0.67-2.59,1.14-3.94,1.46c-1.26,0.3-1.86,0.97-2.06,2.17c-0.42,2.52-0.11,4.81,1.66,6.79c1.28,1.44,2.53,2.91,3.65,4.47
		c0.5,0.69,0.79,1.62,0.96,2.47c0.3,1.46-0.16,2.54-1.67,3.2c-2.15,0.93-4.24,1.99-6.29,3.13c-1.83,1.02-3.74,1.99-5.25,3.37
		c-2.39,2.16-5.08,3.08-8.21,3.05c-0.74-0.01-1.46-0.07-2.57-0.13c0.51-0.51,0.75-0.84,1.06-1.05c1.96-1.33,1.65-2.47-0.37-3.83
		c-2.15-1.43-4.66-2.02-7.18-1.97c-3.02,0.07-5.56-0.98-8.01-2.51c-1.97-1.23-4.07-2.06-6.44-1.62c-1.12,0.21-2.2,0.69-3.32,1.06
		c-0.37-2-0.37-2,1.1-2.34c0.32-0.07,0.68-0.07,0.99-0.16c1.39-0.41,2.23-1.33,2.23-2.39c0-1.36-0.97-1.9-2.06-2.18
		c-2.1-0.53-3.8-1.67-5.39-3.08c-1.54-1.37-2.57-1.43-3.94-0.11c-0.95,0.91-1.98,1.18-3.18,1.22c-4.02,0.13-8.05,0.27-12.07,0.4
		c-1.07,0.04-2.38-0.22-2.89,1c-0.56,1.36,0.65,2.1,1.52,2.86c1.48,1.26,3.14,2.12,5.09,2.57c1.87,0.43,3.66,1.2,5.44,1.91
		c0.58,0.24,1.29,0.69,1.5,1.22c0.64,1.61,1.87,1.48,3.13,1.28c0.9-0.15,1.76-0.54,2.67-0.68c1.01-0.14,2.05-0.12,3.08-0.17
		c0.03,0.2,0.07,0.41,0.11,0.62c-0.64,0.26-1.26,0.58-1.93,0.78c-0.47,0.14-1,0.09-1.49,0.17c-2.65,0.39-8.23,4.65-9.11,6.94
		c-0.74,1.9-0.4,2.63,1.59,3.04c2.45,0.49,4.92,1.06,7.41,1.22c1.33,0.09,2.88-0.32,4.06-0.99c2.95-1.68,6.05-1.65,9.27-1.2
		c-2.71,0.87-5.08,2.66-8.16,2.56c-1.73-0.06-3.5,0.27-5.23,0.51c-2.04,0.29-3.46,1.85-3.48,3.67c-0.02,1.97,1.14,3.43,3.26,3.83
		c1.06,0.19,2.17,0.16,3.26,0.17c2.69,0.03,5.37-0.02,8.06,0.05c0.99,0.03,2,0.24,2.94,0.51c0.94,0.27,1.65,0.88,1.6,1.98
		c-0.06,1.16-0.94,1.55-1.87,1.7c-1.49,0.24-2.99,0.42-4.5,0.49c-1.76,0.09-3.53,0.02-5.29,0.04c-0.67,0.01-1.4-0.08-1.99,0.16
		c-2.75,1.12-5.62,0.85-8.46,0.86c-5.03,0.01-10.07-0.02-15.11-0.02c-3.11,0.01-4.14,0.88-4.35,3.89c-0.15,2.24-0.12,4.51-0.04,6.76
		c0.06,1.79,0.45,2.37,2.33,2.74c2.29,0.45,4.63,0.71,6.97,0.83c2.76,0.14,5.54,0.1,8.31,0.04c1.89-0.05,3.44,0.53,4.89,2.16
		c-0.7,0.1-1.21,0.23-1.73,0.24c-2.18,0.01-4.37,0.06-6.54-0.04c-4.67-0.22-7.37,2.11-7.6,7.06c-0.15,3.17-1.28,4.51-4.06,5.48
		c-4.74,1.68-9.56,3.06-14.39,4.45c-4.74,1.37-8.96,3.73-12.43,7.29c-1.56,1.6-2.67,3.42-2.59,5.77c0.07,2.24,0.36,2.64,2.65,3.19
		c0.32,0.07,0.63,0.19,1.15,0.35c0.15,2.35,0.8,4.66-0.94,6.88c-1.08,1.37-0.47,2.54,1.3,2.85c3.46,0.61,6.42,2.34,9.45,3.96
		c0.69,0.37,1.33,1.06,1.7,1.75c0.76,1.43,1.91,2.3,3.32,2.93c6.37,2.83,12.88,5.24,19.88,5.93c0.25,0.03,0.52,0.01,0.75,0.1
		c4.04,1.58,8.41,1.48,12.59,2.29c3.02,0.58,6.15,0.79,9.25,0.88c5.11,0.14,10.24-0.04,15.36,0.08c3,0.07,5.63-0.71,7.98-2.53
		c2.48-1.92,5.2-3.38,8.25-4.16c1.53-0.39,3.11-0.73,4.68-0.78c3.52-0.11,7.06-0.15,10.58,0c2.24,0.1,4.5,0.48,6.71,0.92
		c1.78,0.36,2.14,0.97,2.23,2.81c0.08,1.53-0.06,2.93-1.14,4.22c-1.02,1.21-0.9,1.76,0.23,2.77c1.13,1,2.36,1.76,3.96,2
		c2.4,0.37,4.78,0.92,7.14,1.5c2.04,0.5,2.99,0.93,3.12,3.53c0.06,1.24,0.8,2.5,1.44,3.62c0.71,1.22,1.74,2.24,2.5,3.44
		c1.39,2.17,1.25,4.28-0.33,6.25c-1.47,1.82-2.86,3.68-5.14,4.69c-2.15,0.95-2.74,3.12-1.38,5.13c0.7,1.01,1.7,1.83,2.65,2.64
		c1.2,1.03,2.47,1.99,3.75,2.92c0.81,0.58,1.65,1.16,2.55,1.58c3.76,1.74,5.98,4.8,7.03,8.62c0.73,2.67,2.55,4.5,4.21,6.42
		c1.64,1.9,3.41,3.59,4.14,6.13c0.47,1.62,1.77,2.5,3.61,2.64c4.6,0.34,9.16,0.59,13.76-0.38c2.58-0.55,5.35-0.29,8.04-0.22
		c5.56,0.14,10.87-1.07,15.92-3.18c2.99-1.25,5.74-3.09,8.62-4.62c1.76-0.95,3.58-1.8,5.35-2.73c0.74-0.38,1.53-0.73,2.13-1.29
		c1.4-1.32,2.81-2.65,3.99-4.16c1.26-1.61,2.72-2.4,4.75-2.18c0.17,0.02,0.33,0,0.5,0c3.89-0.05,4.06-0.22,4.2-4.11
		c0.08-2.35,2.14-4.77,4.84-5.71c2.45-0.86,4.87-1.81,7.35-2.57c1.58-0.48,3.26-0.71,4.9-1c1.07-0.18,2.19-0.13,3.25-0.36
		c2.66-0.58,3.88-2.04,3.82-4.77c-0.07-2.91-0.42-5.82-0.48-8.72c-0.07-3.66,0.31-4,3.69-5.26c3.45-1.3,6.81-2.85,10.27-4.07
		c3.55-1.26,7.18-2.3,10.8-3.36c2.81-0.82,5.68-1.5,8.5-2.27c3.95-1.09,7.41-3.1,10.53-5.71c0.26-0.21,0.5-0.44,0.74-0.68
		c0.79-0.8,1.47-1.67,1.04-2.88c-0.43-1.19-1.52-1.56-2.61-1.67c-1.58-0.15-3.21-0.3-4.78-0.14c-3.25,0.33-6.07-0.94-8.97-2.02
		c-1.7-0.63-3.41-1.34-5.18-1.77c-3.57-0.87-7.12-1.72-10.87-1.82c-3.16-0.08-5.63-2.31-6.64-5.1c-1.94-5.3-6.25-8.07-10.44-11.12
		c-2.63-1.92-5.42-3.68-7.78-5.89c-2.61-2.43-4.85-5.27-7.19-8c-0.55-0.65-0.85-1.53-1.39-2.56c2.59-0.92,4.67-0.66,6.79,0.45
		c3.06,1.6,5.89,3.45,8.12,6.13c0.36,0.44,0.87,0.81,1.38,1.08c3.23,1.66,5.31,4.53,7.7,7.1c2.49,2.7,5.09,5.31,7.68,7.92
		c0.58,0.58,1.3,1.1,2.05,1.45c2.47,1.18,4.53,2.91,6.25,4.96c2.73,3.26,6.43,4.44,10.41,4.96c2.66,0.34,5.35,0.33,8.04,0.55
		c1.57,0.13,3.19,0.24,4.71,0.64c5.15,1.37,10.24,1.27,15.39-0.15c2.49-0.68,5.05-1.19,7.62-1.49c3.88-0.46,7.48-1.85,11.08-3.18
		c4.42-1.63,8.96-2.69,13.56-3.58c0.66-0.13,1.33-0.25,1.95-0.49c1.54-0.59,2.14-1.5,2.12-3.05c-0.03-1.68-0.68-2.77-2.31-3.13
		c-1.79-0.4-3.65-0.74-5.46-0.68c-3.6,0.12-6.96-0.42-10.26-1.92c-4.91-2.21-10.04-3.61-15.5-3.92c-3.96-0.23-6.18-3.16-7.99-6.52
		c3.59,1.06,7.2,2.08,10.78,3.16c10.84,3.27,21.66,6.6,32.52,9.82c1.73,0.51,3.62,0.78,5.43,0.79c8.31,0.09,16.63,0.05,24.93,0.06
		c0.84,0,1.68-0.01,2.52,0.03c2.39,0.11,2.65,0.39,3.12,2.7c0.51,2.53,1,5.06,1.69,7.54c0.92,3.27,3.28,5.42,6.18,6.92
		c2.39,1.24,4.93,1.96,7.71,2.04c3.09,0.08,6.18,0.41,9.24,0.91c2.89,0.46,3.76,2.94,1.91,5.3c-1.44,1.83-3.03,3.59-4.77,5.14
		c-1.25,1.12-1.76,2.32-1.86,3.9c-0.17,2.96,0.58,5.6,2.26,8.04c0.82,1.2,1.85,1.96,3.3,1.99c3.19,0.08,6.37,0.14,9.56,0.08
		c0.67-0.01,1.48-0.41,1.95-0.9c2.02-2.11,3.93-4.31,5.89-6.48c1.01-1.12,2.07-2.19,2.98-3.38c0.92-1.17,2.04-1.6,3.5-1.54
		c4.36,0.17,8.7,0.24,13.06,0.4c6.95,0.25,13.9,0.57,20.86,0.8c2.4,0.09,4.39,0.96,6.06,2.63c2.73,2.72,5.4,5.5,8.24,8.1
		c1.7,1.56,2.85,3.49,3.15,5.57c0.45,3.33,2.58,5.71,3.96,8.51c0.15,0.29,0.39,0.54,0.58,0.81c1.81,2.59,1.75,3.72-0.49,6.1
		c-0.73,0.76-0.92,1.54-0.63,2.49c0.17,0.56,0.42,1.1,0.56,1.66c0.32,1.33-0.09,2.2-1.42,2.42c-1.9,0.31-3.84,0.53-5.56-0.75
		c-1.87-1.41-3.7-2.87-5.65-4.17c-0.95-0.63-2.07-1.14-3.18-1.36c-1.33-0.27-1.83,0.26-2.03,1.57c-0.43,2.88,0.68,4.86,3.7,5.61
		c2.52,0.62,4.36,2.04,6.07,3.78c1.71,1.75,2.74,3.84,2.75,6.28c0.02,2.78,0.99,5.01,3.14,6.79c3.33,2.78,6.16,6.14,10.2,8.06
		c1.17,0.56,2.1,1.63,3.46,2.82c0.03,0.03,0.06,0.06,0.1,0.09c0.08,0.07,0.17,0.14,0.26,0.22h73.19c-1.74,0-3.5-0.01-5.24-0.06
		c-0.87-0.02-1.78-0.46-2.54-0.93c-4.4-2.71-9.06-4.27-14.32-3.96c-2.71,0.16-5.22-0.65-7.76-1.72c-3.06-1.3-6.35-2.07-9.58-2.95
		c-0.85-0.23-1.82,0.05-2.74,0.03c-3.6-0.05-7.2-0.05-10.79-0.24c-1.85-0.09-2.19-0.12-3,1.5c-1.44,2.89-1.52,5.6,1.73,8.3
		c-2.84,0-5.06,0.03-7.28-0.03c-0.44-0.02-0.94-0.33-1.32-0.63c-1.06-0.81-2.08-1.69-3.11-2.55c-1.9-1.56-2.52-3.78-2.67-6.01
		c-0.18-2.88-0.15-5.74,0.64-8.67c0.62-2.32,0.28-4.97,0.06-7.44c-0.15-1.71-1.32-3.05-2.77-4c-1.55-1.03-2.14-2.51-2.26-4.26
		c-0.07-1.04,0.37-1.62,1.41-1.65c1.59-0.05,3.19-0.07,4.78-0.05c1.19,0.01,1.93,0.62,1.96,1.83c0.06,3.07,2.29,4.91,4.01,7
		c1.05,1.27,2.55,1.8,4.27,1.79c5.55-0.03,11.08,0.05,16.63,0c3.15-0.03,3.99-0.94,4.56-4.12c0.36-2.05,0.89-4.07,1.31-6.11
		c0.78-3.73,0.42-7.11-2.79-9.76c-0.56-0.45-0.93-1.38-1.03-2.13c-0.18-1.37,0.26-1.84,1.65-1.93c2.19-0.14,4.1,0.27,6.17,1.45
		c3,1.71,5.5,4.06,8.43,5.8c0.85,0.5,1.86,0.73,2.77,1.13c1.6,0.67,3.31,1.18,4.76,2.09c4.69,2.94,9.51,5.18,15.26,5.03
		c6.04-0.16,12.09,0,18.14-0.06c2.56-0.02,4.99,0.39,7.35,1.39c2.75,1.16,5.62,0.95,8.42,0.36c2.48-0.51,3.81-2.33,3.79-4.93
		c-0.01-3.44-0.37-6.82-2.19-9.9c-0.48-0.84-0.74-1.81-1.23-3.07c1.11-0.17,1.89-0.39,2.67-0.4c2.51-0.05,5.03-0.03,7.55-0.03
		c0.42,0,0.88-0.05,1.25,0.08c4.24,1.5,8.64,0.8,12.98,0.97c1.34,0.05,2.69-0.02,4.03,0.11c1.48,0.14,2.07,0.74,2.2,2.23
		c0.1,1.08,0.11,2.17,0.01,3.25c-0.16,1.87-0.95,2.61-2.89,2.8c-1.25,0.11-2.52,0.07-3.77,0.23c-1.23,0.16-2.24,0.69-2.43,2.12
		c-0.18,1.37,0.24,2.44,1.64,3.07c1.75,0.76,3.57,1.55,5.43,1.86c2.78,0.47,5.13,1.53,6.94,3.66c1.35,1.59,3.09,1.84,5,1.68
		c1.14-0.1,1.89-0.62,2.26-1.68c0.73-2.03,1.52-4.04,2.16-6.1c0.35-1.15,1.09-1.68,2.15-1.8c2.58-0.3,5.16-0.67,7.75-0.74
		c4.11-0.13,8.23,0,12.34-0.05c1.48-0.02,2.5,0.56,3.48,1.64c3.8,4.22,8.81,6.1,14.31,6.3c7.63,0.28,15.28,0.1,22.92,0.1
		c2.93,0,5.87-0.02,8.79-0.04c2.13-0.01,3.92-0.89,5.51-2.19c2.06-1.71,2.21-4.21,0.41-6.18c-2.09-2.29-4.45-4.05-7.78-3.98
		c-3.43,0.07-5.93-2.17-8.64-3.72c-1.61-0.92-0.98-2.87-0.86-4.4c0.11-1.38,1.39-1.21,2.35-1.36c3.11-0.47,5.95,0.5,8.82,1.48
		c1.63,0.55,3.37,0.95,5.09,1.12c2,0.18,4.02,0.11,6.04,0.02c2.71-0.12,4.93,0.95,6.75,2.81c4.91,5,10.94,7.86,17.69,9.44
		c0.56,0.13,1.11,0.36,1.66,0.56c3.38,1.23,6.77,2.41,10.12,3.71c1.62,0.62,3.24,1.35,4.76,2.2c1.6,0.89,3.11,1.97,4.65,2.99
		c4.11,2.7,8.19,5.44,11.85,8.77c1.98,1.79,4.23,3.26,6.3,4.95c1.42,1.16,2.74,2.45,4.11,3.67c2.88,2.54,6.23,4.14,9.96,5v4.01
		c-1.86-0.96-3.75-1.85-5.59-2.86c-4.9-2.71-10.21-3.06-15.62-2.57c-1.21,0.11-1.96-0.05-2.88-0.86c-0.81-0.7-2.04-1.15-3.13-1.28
		c-1.61-0.18-2.28,1.12-1.33,2.45c0.6,0.86,1.46,1.55,2.16,2.25c-0.29,1.44-1.35,1.31-2.22,1.28c-2.12-0.08-4.02,0.11-5.2,2.23
		c-0.21,0.38-1.01,0.58-1.54,0.59c-0.91,0.03-1.8,0.04-2.71,0.04h38.32v-51.72c-0.35-0.35-0.83-0.63-1.05-1.05
		c-2.18-3.9-4.72-7.64-5.36-12.22c-0.2-1.42-0.85-2.77-1.34-4.33c3.13,0.14,5.32,1.9,7.75,3.06V608.28z M788.46,497
		c0.87-2.97,3.66-4.06,5.58-5.99c0.44-0.45,1.36-0.5,2.09-0.61c0.75-0.12,1.52-0.01,2.26-0.14c1.79-0.3,3-1.66,2.97-3.21
		c-0.03-1.36-0.96-2.21-3.07-2.25c-2.68-0.06-4.5-1.46-6.41-3.38c0.56-0.4,0.96-0.81,1.44-1.01c6.71-2.62,13.37-5.35,20.15-7.76
		c4.77-1.69,9.77-2.21,15.17-1.66c-1,2.5-2.3,3.65-4.96,3.65c-2.46,0-4.97,0.68-7.36,1.38c-2.8,0.81-5.52,1.94-8.25,3.02
		c-0.72,0.28-1.32,0.83-2.01,1.29c0.85,1.51,2.18,1.19,3.23,1.54c0.93,0.3,1.94,0.56,2.71,1.13c0.99,0.72,0.77,1.67-0.4,2.03
		c-0.79,0.24-1.65,0.26-2.47,0.44c-1.3,0.3-1.96,1.09-1.88,2.22c0.07,1.18,0.79,1.81,1.89,2.01c0.66,0.12,1.34,0.13,2.01,0.13
		c8.39,0.02,16.78,0.07,25.17,0.01c3-0.02,6.02-0.32,9.15-0.49c-3.62,1.73-7.36,1.35-11.06,1.36c-5.96,0-11.91,0.03-17.87-0.01
		c-2.19-0.02-4.13,0.54-5.86,1.88c-1.35,1.06-1.39,1.94-0.1,3.03c0.56,0.47,1.21,0.84,2.13,1.47c-0.74,0.23-1.14,0.47-1.55,0.48
		c-2.51,0.04-5.03,0.09-7.54,0.01c-1.57-0.04-2.97,0.3-4.31,1.11c-2.95,1.79-6.19,2.38-9.62,2.43c-6.03,0.09-12.05,0.32-18.08,0.48
		c-0.58,0.02-1.18,0.02-1.76,0c-3.03-0.12-4.11-1.19-4.53-4.46C772.99,497.48,780.68,497.59,788.46,497z M863.32,553.22
		c-1.41,1.43-3.14,2.06-5.22,2.04c-6.8-0.07-13.6-0.05-20.4,0.01c-1.52,0.01-2.7-0.41-3.84-1.45c-2.88-2.63-6.24-3.93-10.27-3.96
		c-3.4-0.03-6.8-0.84-10.2-1.2c-6.39-0.66-12.73-1.41-19.24-0.19c-6.17,1.16-12.49,1.36-18.65-0.73c-3.82-1.3-7.39-2.96-10.8-5.19
		c-3.56-2.32-7.46-3.98-12.01-3.88c-8.39,0.19-16.79-0.02-25.18,0.09c-3.77,0.05-7.54,0.38-11.28,0.8c-1.9,0.21-3.76,0.85-5.59,1.45
		c-4.77,1.56-9.51,3.24-14.29,4.79c-2.53,0.82-5.12,0.54-7.62,0.08c0.87-0.59,1.72-1.16,2.56-1.75c0.62-0.43,1.18-0.92,1.79-1.34
		c0.48-0.33,1.13-0.5,1.49-0.92c2.2-2.56,5.44-3.56,8.04-5.54c0.56-0.43,1.34-0.67,2.06-0.8c5.32-1,10.66-2.01,16-2.87
		c2.39-0.38,4.84-0.57,7.25-0.56c2.91,0.01,5.46-0.77,7.68-2.61c2.67-2.21,5.61-3.36,9.21-3.22c5.87,0.22,11.76,0.11,17.62,0.06
		c2.53-0.02,4.75,0.88,6.99,1.86c4.91,2.17,10,3.79,15.35,4.59c0.49,0.08,1,0.09,1.5,0.07c0.99-0.05,1.83-0.35,2.01-1.49
		c0.17-1.08,0.03-2.11-1.08-2.54c-1.24-0.48-2.55-0.75-3.84-1.09c-1.2-0.31-2.45-0.5-3.61-0.92c-2.21-0.79-4.4-1.66-6.55-2.59
		c-2.44-1.06-3.32-3.33-2.28-5.73c0.55-1.28,1.61-1.92,2.98-1.94c2.51-0.06,5.07-0.3,7.53,0.05c1.65,0.23,3.21,1.29,4.75,2.06
		c1.18,0.59,2.3,1.31,3.44,1.99c1.21,0.73,2.41,1.48,3.61,2.24c1.2,0.76,2.29,1.8,3.59,2.27c3.01,1.09,5.8,2.61,8.44,4.34
		c2.3,1.51,4.46,3.26,6.55,5.04c3.27,2.77,7.06,4.6,11.1,5.65c2.51,0.66,5.32,0.24,8,0.27c1.34,0.01,2.7-0.21,4.02-0.09
		c1.13,0.11,2.21,0.58,3.33,0.86c3.73,0.9,7.46,1.79,11.2,2.66c1.13,0.26,2.28,0.51,3.43,0.62c1.74,0.16,3.49,0.24,5.23,0.27
		c0.84,0.01,1.67-0.15,2.5-0.27c2.24-0.35,4.13,0.17,5.62,1.99c0.75,0.92,1.65,1.48,2.92,0.59
		C867.22,549.16,865.31,551.23,863.32,553.22z M959.15,553.75c-0.13,0.45-1.17,0.9-1.83,0.93c-2.58,0.11-5.14,0.24-7.62-0.98
		c-1.54-0.76-3.32-1.2-5.04-1.49c-3.37-0.56-6.32-2.11-9.33-3.56c-0.3-0.14-0.65-0.26-0.87-0.5c-0.36-0.39-0.64-0.88-0.95-1.32
		c0.47-0.25,0.93-0.66,1.42-0.71c1.07-0.12,2.17-0.03,3.26-0.05c0.82-0.02,1.63-0.09,2.96-0.17c-1.29-2.07-2.32-3.82-3.71-5.32
		c-1.47-1.59-3.07-3.08-4.59-4.62c-0.53-0.53-1.1-1.07-1.48-1.69c-0.95-1.54-0.39-2.72,1.37-2.7c5.18,0.06,10.39-0.46,15.53,0.65
		c2.12,0.46,4.32,0.5,6.46,0.82c0.78,0.12,1.51,0.51,2.52,0.87c-1.06,1.16-2.08,0.71-2.97,0.68c-2.51-0.08-5.01-0.28-7.52-0.31
		c-1.31-0.01-2.68,0.08-3.67,1.34c0.52,1.65,1.67,2.69,3.21,3.27c1.25,0.48,2.56,0.77,3.83,1.2c0.89,0.29,1.76,0.65,2.58,0.97
		c-0.11,0.51-0.09,0.73-0.19,0.82c-2.35,2.02-2.32,2.26,0.39,3.66c0.67,0.34,1.34,0.72,1.86,1.25c1.41,1.43,2.83,2.87,4.03,4.46
		C959.26,551.85,959.36,552.98,959.15,553.75z"/>
</g>
</svg>
