<?xml version="1.0" encoding="utf-8"?>
<!-- Generator: Adobe Illustrator 27.3.1, SVG Export Plug-In . SVG Version: 6.00 Build 0)  -->
<svg version="1.1" id="Camada_1" xmlns="http://www.w3.org/2000/svg" xmlns:xlink="http://www.w3.org/1999/xlink" x="0px" y="0px"
	 viewBox="0 0 1440 680" style="enable-background:new 0 0 1440 680;" xml:space="preserve">
<style type="text/css">
	.st0{fill:#9A9A9A;}
	.st1{fill:#00C9FF;}
</style>
<g>
	<path class="st0" d="M543.32,309.85c-0.79,1.51-1.4,3.15-2.4,4.5c-3.59,4.79-7.33,9.46-10.97,14.2
		c-4.78,6.22-8.66,12.59-10.01,20.77c-2.07,12.5-10.56,18.23-21.43,16c-7.4-1.51-13.07-8.11-13.59-15.82
		c-0.52-7.61,3.89-14.74,10.91-17.3c2.17-0.79,4.54-1.69,6.76-1.55c8.32,0.5,14.61-3.56,20.72-8.38c5.08-4.01,10.29-7.87,15.5-11.73
		c0.99-0.74,2.21-1.17,3.33-1.74C542.52,309.15,542.92,309.5,543.32,309.85z"/>
	<g>
		<polygon class="st1" points="849.03,216.42 850.74,210.99 852.56,216.42 858.11,216.42 853.57,219.74 855.36,225.16 
			850.74,221.82 846.13,225.16 847.83,219.74 843.3,216.38 		"/>
		<polygon class="st1" points="832.74,310.12 830.36,304.93 835.36,307.74 839.47,304.01 838.34,309.52 843.3,312.33 837.64,312.95 
			836.47,318.53 834.09,313.38 828.48,313.93 		"/>
		<polygon class="st1" points="922.66,354.42 927.09,350.84 925.6,356.37 930.23,359.44 924.61,359.7 923.11,365.2 921.11,359.86 
			915.42,360.1 919.82,356.52 917.91,351.22 		"/>
		<polygon class="st1" points="818.24,384.95 816.46,379.53 821.11,382.89 825.62,379.65 823.86,385 828.48,388.35 822.78,388.33 
			820.98,393.74 819.2,388.35 813.56,388.25 		"/>
		<polygon class="st1" points="834.08,355.22 833.4,353.14 835.19,354.43 836.92,353.18 836.24,355.23 838.01,356.52 835.83,356.51 
			835.14,358.59 834.45,356.52 832.29,356.48 		"/>
		<polygon class="st1" points="881.39,344.48 880.71,342.4 882.49,343.68 884.22,342.44 883.55,344.49 885.32,345.78 883.13,345.77 
			882.44,347.85 881.76,345.78 879.6,345.74 		"/>
		<polygon class="st1" points="884.93,378.89 884.25,376.81 886.03,378.1 887.76,376.85 887.09,378.9 888.86,380.19 886.67,380.18 
			885.98,382.26 885.3,380.19 883.14,380.15 		"/>
		<polygon class="st1" points="966.28,152.01 962.88,147.43 968.35,149.15 971.6,144.64 971.63,150.27 977.07,151.99 971.66,153.77 
			971.67,159.47 968.27,154.93 962.89,156.62 		"/>
		<polygon class="st1" points="999.97,234.29 994.38,233.19 999.58,230.78 998.96,225.26 1002.76,229.4 1007.95,227.02 
			1005.14,231.98 1008.98,236.19 1003.41,235.11 1000.56,239.98 		"/>
		<polygon class="st1" points="1088.53,187.33 1088.22,181.64 1091.83,186.09 1097.03,184.13 1093.95,188.84 1097.53,193.28 
			1092.04,191.77 1088.9,196.53 1088.57,190.86 1083.16,189.3 		"/>
		<polygon class="st1" points="1052.15,289.86 1046.72,288.13 1052.16,286.33 1052.17,280.77 1055.48,285.33 1060.9,283.55 
			1057.55,288.16 1060.88,292.78 1055.47,291.07 1052.09,295.58 		"/>
		<polygon class="st1" points="1037.32,259.6 1035.24,258.94 1037.32,258.25 1037.33,256.12 1038.6,257.86 1040.68,257.18 
			1039.39,258.95 1040.67,260.72 1038.59,260.07 1037.3,261.8 		"/>
		<polygon class="st1" points="1056.31,214.97 1054.22,214.3 1056.31,213.61 1056.32,211.48 1057.59,213.23 1059.66,212.54 
			1058.38,214.31 1059.66,216.09 1057.58,215.43 1056.28,217.16 		"/>
		<polygon class="st1" points="1086.28,232.24 1084.19,231.58 1086.28,230.89 1086.29,228.75 1087.56,230.5 1089.64,229.82 
			1088.35,231.59 1089.63,233.36 1087.55,232.7 1086.26,234.44 		"/>
		<polygon class="st1" points="501.35,161.91 501.18,156.21 504.68,160.75 509.93,158.93 506.73,163.56 510.19,168.08 
			504.74,166.44 501.48,171.11 501.3,165.44 495.93,163.75 		"/>
		<polygon class="st1" points="461.17,183.9 457.22,179.78 462.86,180.8 465.52,175.92 466.26,181.5 471.87,182.52 466.72,184.97 
			467.45,190.62 463.51,186.54 458.39,188.9 		"/>
		<polygon class="st1" points="560.64,196.24 563.66,191.4 564.06,197.12 569.44,198.5 564.22,200.59 564.6,206.28 560.96,201.89 
			555.66,203.98 558.65,199.16 555.11,194.77 		"/>
		<polygon class="st1" points="453.55,311.66 450.09,307.12 455.58,308.77 458.78,304.23 458.88,309.85 464.34,311.51 
			458.95,313.36 459.02,319.05 455.57,314.55 450.22,316.31 		"/>
		<polygon class="st1" points="477.23,226.06 475.91,224.32 478.02,224.95 479.24,223.21 479.28,225.37 481.37,226 479.31,226.71 
			479.34,228.9 478.01,227.17 475.96,227.85 		"/>
		<polygon class="st1" points="518.39,200.39 517.07,198.65 519.17,199.28 520.4,197.54 520.44,199.7 522.53,200.33 520.47,201.04 
			520.49,203.23 519.17,201.5 517.12,202.17 		"/>
		<polygon class="st1" points="533.03,231.73 531.71,229.99 533.81,230.63 535.04,228.88 535.08,231.04 537.17,231.68 535.1,232.39 
			535.13,234.57 533.81,232.84 531.75,233.52 		"/>
		<polygon class="st1" points="888.08,277.94 886,277.26 888.09,276.59 888.11,274.45 889.37,276.21 891.46,275.54 890.15,277.3 
			891.42,279.08 889.35,278.41 888.04,280.14 		"/>
		<polygon class="st1" points="917.93,295.43 915.85,294.75 917.94,294.07 917.96,291.94 919.22,293.7 921.3,293.03 920,294.79 
			921.27,296.57 919.2,295.9 917.89,297.63 		"/>
		<polygon class="st1" points="982.68,262.5 984.03,260.78 983.94,262.98 985.94,263.73 983.86,264.31 983.76,266.49 982.56,264.66 
			980.45,265.24 981.79,263.52 980.63,261.7 		"/>
		<polygon class="st1" points="955.95,284.46 957.3,282.74 957.21,284.94 959.21,285.69 957.13,286.27 957.03,288.45 955.83,286.62 
			953.72,287.19 955.06,285.48 953.9,283.66 		"/>
		<polygon class="st1" points="921.5,234.54 920.18,232.8 922.28,233.43 923.51,231.69 923.55,233.85 925.64,234.48 923.58,235.19 
			923.6,237.38 922.28,235.65 920.23,236.32 		"/>
		<polygon class="st1" points="936.14,265.88 934.82,264.14 936.92,264.78 938.15,263.03 938.19,265.19 940.28,265.83 
			938.21,266.54 938.24,268.72 936.92,266.99 934.86,267.67 		"/>
		<polygon class="st1" points="1016.41,294.89 1018.19,293.62 1017.5,295.71 1019.2,296.99 1017.04,296.96 1016.34,299.03 
			1015.7,296.95 1013.51,296.91 1015.28,295.64 1014.67,293.56 		"/>
		<polygon class="st1" points="984.65,308.59 986.42,307.32 985.73,309.41 987.44,310.68 985.28,310.66 984.58,312.73 
			983.93,310.64 981.75,310.61 983.51,309.34 982.9,307.26 		"/>
		<polygon class="st1" points="970.98,345.73 971.56,347.84 969.84,346.47 968.05,347.63 968.82,345.61 967.12,344.24 969.3,344.35 
			970.09,342.31 970.67,344.41 972.83,344.55 		"/>
		<polygon class="st1" points="997.67,340.77 999.86,340.73 998.1,342.05 998.78,344.07 997.02,342.83 995.27,344.14 995.92,342.05 
			994.14,340.78 996.32,340.74 996.99,338.68 		"/>
		<polygon class="st1" points="112.52,409.73 106.98,411.09 110.68,406.71 107.79,401.97 112.99,404.12 116.68,399.77 
			116.23,405.45 121.49,407.65 115.98,409.02 115.46,414.63 		"/>
		<polygon class="st1" points="353.87,438.36 350.69,443.09 350.49,437.36 345.16,435.79 350.45,433.89 350.26,428.19 353.75,432.7 
			359.12,430.8 355.96,435.51 359.35,440.02 		"/>
		<polygon class="st1" points="386.67,285.75 381.3,283.82 386.81,282.22 387.02,276.66 390.16,281.33 395.64,279.75 392.13,284.23 
			395.29,288.97 389.94,287.07 386.41,291.46 		"/>
		<polygon class="st1" points="425.32,411.79 421.62,416.12 422.07,410.41 416.95,408.24 422.43,406.96 422.89,401.27 
			425.84,406.15 431.39,404.87 427.72,409.2 430.57,414.06 		"/>
		<polygon class="st1" points="391.68,413.73 390.26,415.4 390.44,413.21 388.47,412.38 390.57,411.88 390.75,409.7 391.88,411.57 
			394.01,411.08 392.6,412.74 393.7,414.61 		"/>
		<polygon class="st1" points="357.89,378.94 356.47,380.6 356.64,378.41 354.68,377.58 356.78,377.09 356.96,374.9 358.09,376.78 
			360.22,376.28 358.81,377.94 359.9,379.81 		"/>
		<polygon class="st1" points="385.42,358 384,359.66 384.18,357.47 382.21,356.64 384.31,356.15 384.49,353.97 385.62,355.84 
			387.75,355.35 386.34,357.01 387.44,358.87 		"/>
		<polygon class="st1" points="421.92,69.13 419.78,74.42 418.4,68.86 412.86,68.43 417.65,65.47 416.29,59.93 420.63,63.63 
			425.49,60.65 423.38,65.92 427.62,69.63 		"/>
		<polygon class="st1" points="241.56,429.75 243.54,435.1 238.77,431.91 234.38,435.31 235.94,429.91 231.21,426.72 236.9,426.54 
			238.5,421.07 240.48,426.39 246.12,426.28 		"/>
		<polygon class="st1" points="115.88,283.88 111.18,287.11 113.1,281.71 108.72,278.29 114.35,278.47 116.27,273.1 117.85,278.58 
			123.54,278.79 118.87,282.01 120.36,287.44 		"/>
		<polygon class="st1" points="347.67,216.03 349.02,221.58 344.65,217.87 339.9,220.75 342.06,215.55 337.73,211.85 343.4,212.32 
			345.62,207.06 346.98,212.57 352.59,213.11 		"/>
		<polygon class="st1" points="204.25,289.98 204.77,292.11 203.09,290.69 201.27,291.79 202.1,289.8 200.43,288.38 202.61,288.56 
			203.46,286.54 203.98,288.66 206.14,288.86 		"/>
		<polygon class="st1" points="156.25,297.01 156.77,299.14 155.09,297.71 153.27,298.82 154.1,296.83 152.44,295.4 154.62,295.58 
			155.46,293.57 155.99,295.68 158.14,295.89 		"/>
		<polygon class="st1" points="155.4,262.43 155.92,264.55 154.24,263.13 152.42,264.24 153.25,262.24 151.58,260.82 153.76,261 
			154.61,258.99 155.13,261.1 157.28,261.31 		"/>
		<polygon class="st1" points="297.6,407.86 298.1,409.99 296.43,408.56 294.6,409.65 295.45,407.66 293.79,406.23 295.97,406.42 
			296.83,404.41 297.34,406.53 299.49,406.75 		"/>
		<polygon class="st1" points="296.99,373.27 297.49,375.4 295.83,373.97 294,375.06 294.84,373.07 293.19,371.64 295.36,371.83 
			296.23,369.83 296.73,371.94 298.89,372.16 		"/>
		<polygon class="st1" points="235.16,335.13 232.99,334.87 234.91,333.8 234.52,331.71 236.1,333.19 238.01,332.13 237.08,334.11 
			238.66,335.61 236.5,335.35 235.55,337.29 		"/>
		<polygon class="st1" points="267.83,346.52 265.66,346.26 267.58,345.19 267.19,343.1 268.76,344.58 270.68,343.52 269.74,345.5 
			271.33,347 269.16,346.74 268.21,348.69 		"/>
		<polygon class="st1" points="243.14,401.92 242.34,403.96 241.79,401.83 239.66,401.69 241.48,400.53 240.94,398.41 
			242.62,399.81 244.47,398.65 243.68,400.68 245.33,402.08 		"/>
		<polygon class="st1" points="262.28,373.1 261.48,375.14 260.93,373.01 258.8,372.87 260.62,371.71 260.08,369.6 261.76,370.99 
			263.61,369.83 262.82,371.86 264.47,373.26 		"/>
		<polygon class="st1" points="245.26,289.46 243.25,288.61 245.39,288.12 245.6,285.99 246.7,287.85 248.83,287.37 247.39,289.01 
			248.49,290.89 246.49,290.05 245.04,291.65 		"/>
		<polygon class="st1" points="273.5,309.46 271.48,308.6 273.63,308.11 273.83,305.98 274.93,307.84 277.07,307.36 275.62,309 
			276.73,310.88 274.72,310.04 273.27,311.64 		"/>
		<polygon class="st1" points="312.32,301.79 313.82,300.2 313.54,302.38 315.46,303.3 313.34,303.7 313.06,305.87 312.02,303.94 
			309.87,304.33 311.35,302.74 310.35,300.82 		"/>
		<polygon class="st1" points="294.19,281.58 293.02,279.74 295.06,280.55 296.43,278.92 296.28,281.07 298.32,281.88 
			296.19,282.41 296.04,284.59 294.87,282.76 292.76,283.25 		"/>
		<polygon class="st1" points="1353.1,214.49 1352.73,220.18 1349.67,215.34 1344.27,216.67 1347.89,212.36 1344.85,207.53 
			1350.14,209.67 1353.81,205.31 1353.47,210.98 1358.66,213.16 		"/>
		<polygon class="st1" points="1405.05,275.81 1408.61,280.26 1403.08,278.74 1399.98,283.35 1399.76,277.73 1394.27,276.19 
			1399.61,274.23 1399.41,268.53 1402.96,272.96 1408.28,271.08 		"/>
		<polygon class="st1" points="1297.21,174.85 1293.77,179.39 1293.89,173.66 1288.66,171.79 1294.05,170.19 1294.19,164.49 
			1297.41,169.19 1302.88,167.6 1299.46,172.13 1302.59,176.82 		"/>
		<polygon class="st1" points="1404.94,118.69 1407.97,123.53 1402.65,121.38 1399.05,125.61 1399.47,120 1394.18,117.85 
			1399.72,116.5 1400.17,110.82 1403.19,115.63 1408.69,114.37 		"/>
		<polygon class="st1" points="1396.69,151.36 1397.85,153.22 1395.81,152.39 1394.43,154.02 1394.59,151.86 1392.56,151.04 
			1394.69,150.52 1394.86,148.34 1396.02,150.18 1398.13,149.7 		"/>
		<polygon class="st1" points="1339.66,174.61 1340.82,176.46 1338.78,175.64 1337.4,177.26 1337.56,175.11 1335.53,174.28 
			1337.66,173.77 1337.83,171.59 1338.99,173.43 1341.1,172.95 		"/>
		<polygon class="st1" points="1341.65,140.58 1342.81,142.43 1340.77,141.61 1339.39,143.23 1339.55,141.08 1337.52,140.25 
			1339.65,139.74 1339.82,137.56 1340.98,139.4 1343.09,138.92 		"/>
		<polygon class="st1" points="1082.57,391.34 1086.97,394.96 1081.25,394.61 1079.17,399.77 1077.79,394.31 1072.1,393.94 
			1076.93,390.91 1075.55,385.38 1079.94,388.98 1084.75,386.05 		"/>
		<polygon class="st1" points="1250.97,310.02 1256.67,309.75 1252.19,313.33 1254.12,318.54 1249.43,315.43 1244.97,318.99 
			1246.51,313.5 1241.77,310.33 1247.44,310.04 1249.03,304.64 		"/>
		<polygon class="st1" points="1176.26,376.84 1177.92,382.3 1173.35,378.84 1168.77,381.99 1170.63,376.68 1166.09,373.23 
			1171.79,373.37 1173.7,368 1175.37,373.43 1181,373.64 		"/>
		<polygon class="st1" points="1186.99,268.58 1192.68,268.96 1187.82,272.01 1189.14,277.41 1184.84,273.78 1180,276.81 
			1182.16,271.53 1177.81,267.84 1183.48,268.2 1185.67,263.01 		"/>
		<polygon class="st1" points="1208.64,294.4 1210.82,294.54 1208.96,295.72 1209.47,297.79 1207.81,296.39 1205.96,297.56 
			1206.79,295.53 1205.12,294.11 1207.29,294.25 1208.14,292.26 		"/>
		<polygon class="st1" points="1200.91,342.29 1203.1,342.43 1201.23,343.6 1201.74,345.68 1200.09,344.28 1198.23,345.44 
			1199.06,343.42 1197.39,342 1199.57,342.14 1200.41,340.15 		"/>
		<polygon class="st1" points="1167.67,332.71 1169.86,332.85 1167.99,334.02 1168.5,336.09 1166.85,334.7 1164.99,335.86 
			1165.82,333.84 1164.15,332.42 1166.33,332.56 1167.17,330.57 		"/>
		<polygon class="st1" points="1349.12,240.8 1351.31,240.96 1349.44,242.12 1349.93,244.2 1348.29,242.79 1346.42,243.94 
			1347.26,241.92 1345.61,240.49 1347.78,240.65 1348.64,238.66 		"/>
		<polygon class="st1" points="1315.95,230.98 1318.14,231.14 1316.27,232.3 1316.76,234.38 1315.12,232.97 1313.25,234.12 
			1314.09,232.1 1312.44,230.67 1314.61,230.83 1315.47,228.84 		"/>
		<polygon class="st1" points="1260.99,278.49 1260.09,280.48 1259.65,278.32 1257.53,278.07 1259.42,277.01 1258.98,274.87 
			1260.59,276.35 1262.5,275.29 1261.6,277.28 1263.17,278.77 		"/>
		<polygon class="st1" points="1281.68,250.76 1280.77,252.75 1280.33,250.59 1278.21,250.34 1280.1,249.28 1279.67,247.14 
			1281.27,248.62 1283.18,247.56 1282.29,249.55 1283.85,251.04 		"/>
		<polygon class="st1" points="1327.09,290.95 1328.79,292.32 1326.59,292.22 1325.82,294.2 1325.27,292.12 1323.08,292 
			1324.92,290.82 1324.37,288.7 1326.07,290.06 1327.9,288.91 		"/>
		<polygon class="st1" points="1305.36,264.04 1307.06,265.41 1304.86,265.3 1304.09,267.29 1303.54,265.2 1301.35,265.08 
			1303.19,263.9 1302.64,261.78 1304.34,263.14 1306.17,262 		"/>
		<polygon class="st1" points="1220.47,255.12 1219.05,256.79 1219.23,254.59 1217.26,253.76 1219.37,253.27 1219.54,251.09 
			1220.67,252.96 1222.81,252.47 1221.39,254.13 1222.49,256 		"/>
		<polygon class="st1" points="1248.03,234.21 1246.6,235.87 1246.78,233.68 1244.82,232.84 1246.92,232.35 1247.1,230.17 
			1248.23,232.04 1250.36,231.55 1248.95,233.21 1250.04,235.08 		"/>
		<polygon class="st1" points="1252.39,194.87 1251.32,192.96 1253.31,193.89 1254.77,192.33 1254.51,194.48 1256.49,195.4 
			1254.35,195.81 1254.07,197.98 1253,196.08 1250.87,196.46 		"/>
		<polygon class="st1" points="1227.66,206.1 1225.55,206.66 1226.94,204.95 1225.79,203.15 1227.8,203.94 1229.19,202.25 
			1229.06,204.43 1231.09,205.24 1228.99,205.8 1228.83,207.96 		"/>
		<polygon class="st1" points="937.82,123.19 936.4,124.86 936.58,122.66 934.61,121.83 936.72,121.34 936.9,119.16 938.03,121.03 
			940.16,120.54 938.75,122.2 939.84,124.07 		"/>
		<polygon class="st1" points="1171.53,222.6 1170.11,224.26 1170.29,222.07 1168.32,221.23 1170.43,220.74 1170.61,218.56 
			1171.74,220.43 1173.87,219.94 1172.46,221.6 1173.55,223.47 		"/>
		<polygon class="st1" points="1175.9,183.26 1174.83,181.35 1176.82,182.28 1178.28,180.72 1178.02,182.87 1180,183.79 
			1177.85,184.2 1177.58,186.37 1176.51,184.47 1174.38,184.85 		"/>
		<polygon class="st1" points="1151.17,194.48 1149.06,195.05 1150.45,193.34 1149.3,191.54 1151.31,192.33 1152.7,190.64 
			1152.57,192.82 1154.6,193.63 1152.49,194.19 1152.33,196.35 		"/>
		<polygon class="st1" points="872.95,194.45 871.53,196.11 871.7,193.92 869.74,193.09 871.84,192.6 872.02,190.42 873.15,192.29 
			875.28,191.8 873.87,193.46 874.96,195.32 		"/>
		<polygon class="st1" points="900.5,173.53 899.08,175.2 899.25,173 897.29,172.17 899.39,171.68 899.57,169.5 900.7,171.37 
			902.83,170.88 901.42,172.54 902.51,174.41 		"/>
		<polygon class="st1" points="904.86,134.2 903.79,132.29 905.79,133.21 907.25,131.66 906.98,133.8 908.97,134.72 906.82,135.14 
			906.54,137.31 905.47,135.41 903.34,135.79 		"/>
		<polygon class="st1" points="880.14,145.42 878.02,145.98 879.41,144.28 878.27,142.48 880.28,143.27 881.66,141.57 
			881.53,143.76 883.56,144.56 881.46,145.13 881.3,147.29 		"/>
		<polygon class="st1" points="1131.69,153.45 1132.59,155.44 1130.68,154.35 1129.09,155.77 1129.54,153.66 1127.65,152.57 
			1129.82,152.34 1130.28,150.21 1131.19,152.19 1133.34,151.99 		"/>
		<polygon class="st1" points="1124.48,119.61 1125.38,121.61 1123.47,120.52 1121.88,121.94 1122.33,119.83 1120.43,118.74 
			1122.6,118.51 1123.07,116.37 1123.97,118.36 1126.12,118.16 		"/>
		<polygon class="st1" points="1090.73,98.94 1088.55,99.1 1090.23,97.68 1089.45,95.7 1091.27,96.85 1092.95,95.45 1092.41,97.57 
			1094.26,98.74 1092.09,98.9 1091.52,100.99 		"/>
		<polygon class="st1" points="1090.37,126.09 1089.98,128.24 1089.03,126.26 1086.92,126.53 1088.48,125.05 1087.54,123.07 
			1089.46,124.12 1091.05,122.62 1090.67,124.77 1092.55,125.83 		"/>
		<polygon class="st1" points="1144.07,68.58 1139.56,65.08 1145.29,65.26 1147.2,60.05 1148.75,65.46 1154.45,65.65 1149.72,68.82 
			1151.26,74.31 1146.77,70.85 1142.05,73.93 		"/>
		<polygon class="st1" points="1166.53,150.26 1160.84,150.7 1165.2,146.98 1163.12,141.83 1167.9,144.8 1172.25,141.11 
			1170.88,146.64 1175.71,149.66 1170.06,150.12 1168.63,155.58 		"/>
		<polygon class="st1" points="1281.49,58.42 1279.66,53.02 1284.34,56.33 1288.82,53.05 1287.12,58.41 1291.76,61.72 
			1286.07,61.75 1284.32,67.18 1282.49,61.81 1276.85,61.77 		"/>
		<polygon class="st1" points="1316.14,120.77 1310.44,120.57 1315.2,117.37 1313.71,112.02 1318.13,115.51 1322.87,112.34 
			1320.88,117.68 1325.33,121.23 1319.66,121.04 1317.62,126.3 		"/>
		<polygon class="st1" points="1230.39,141.82 1228.2,141.74 1230.02,140.52 1229.45,138.46 1231.15,139.8 1232.97,138.59 
			1232.2,140.63 1233.91,142 1231.74,141.93 1230.95,143.94 		"/>
		<polygon class="st1" points="1236.64,93.72 1234.45,93.64 1236.27,92.41 1235.7,90.36 1237.4,91.7 1239.22,90.48 1238.45,92.53 
			1240.16,93.89 1237.99,93.82 1237.2,95.84 		"/>
		<polygon class="st1" points="1270.15,102.27 1267.97,102.2 1269.79,100.97 1269.22,98.91 1270.92,100.25 1272.73,99.04 
			1271.97,101.09 1273.68,102.45 1271.5,102.38 1270.72,104.39 		"/>
		<polygon class="st1" points="1145.4,247.8 1143.97,249.46 1144.15,247.27 1142.18,246.44 1144.29,245.95 1144.47,243.76 
			1145.6,245.64 1147.73,245.15 1146.32,246.81 1147.41,248.67 		"/>
		<polygon class="st1" points="1094.2,317.59 1092.77,319.25 1092.95,317.06 1090.99,316.23 1093.09,315.73 1093.27,313.55 
			1094.4,315.43 1096.53,314.94 1095.12,316.6 1096.21,318.46 		"/>
		<polygon class="st1" points="1121.75,296.67 1120.33,298.33 1120.5,296.14 1118.54,295.31 1120.64,294.82 1120.82,292.64 
			1121.95,294.51 1124.08,294.02 1122.67,295.68 1123.76,297.54 		"/>
		<polygon class="st1" points="1126.11,257.34 1125.04,255.43 1127.04,256.35 1128.5,254.8 1128.23,256.94 1130.22,257.86 
			1128.07,258.27 1127.79,260.44 1126.72,258.55 1124.59,258.93 		"/>
		<polygon class="st1" points="1101.39,268.56 1099.27,269.12 1100.66,267.42 1099.52,265.62 1101.53,266.4 1102.91,264.71 
			1102.78,266.89 1104.81,267.7 1102.71,268.27 1102.55,270.42 		"/>
		<polygon class="st1" points="1019.61,124.79 1021.57,125.76 1019.4,126.13 1019.08,128.24 1018.09,126.32 1015.93,126.68 
			1017.47,125.13 1016.47,123.18 1018.42,124.14 1019.96,122.63 		"/>
		<polygon class="st1" points="1104.62,170.18 1106.58,171.15 1104.41,171.52 1104.09,173.63 1103.09,171.71 1100.94,172.08 
			1102.47,170.52 1101.48,168.58 1103.43,169.54 1104.97,168.02 		"/>
		<polygon class="st1" points="1077.58,148.61 1079.54,149.58 1077.37,149.95 1077.04,152.06 1076.05,150.14 1073.89,150.5 
			1075.43,148.95 1074.43,147 1076.39,147.96 1077.93,146.45 		"/>
		<polygon class="st1" points="1038.38,154.04 1036.79,155.55 1037.19,153.39 1035.33,152.35 1037.47,152.08 1037.88,149.93 
			1038.8,151.91 1040.97,151.65 1039.4,153.15 1040.29,155.12 		"/>
		<polygon class="st1" points="1055.33,175.25 1056.39,177.17 1054.4,176.24 1052.93,177.79 1053.2,175.65 1051.22,174.72 
			1053.37,174.31 1053.65,172.14 1054.72,174.04 1056.85,173.67 		"/>
		<polygon class="st1" points="1350.95,592.82 1345.42,591.39 1350.76,589.3 1350.47,583.75 1354.02,588.11 1359.34,586.04 
			1356.24,590.82 1359.82,595.26 1354.32,593.85 1351.2,598.54 		"/>
		<polygon class="st1" points="1400.41,545.42 1396.6,541.17 1402.21,542.38 1405.03,537.59 1405.58,543.19 1411.15,544.4 
			1405.93,546.68 1406.46,552.35 1402.66,548.14 1397.46,550.32 		"/>
		<polygon class="st1" points="1392.65,587.15 1390.61,587.94 1391.8,586.09 1390.47,584.43 1392.55,584.99 1393.74,583.16 
			1393.85,585.34 1395.96,585.92 1393.93,586.71 1394.01,588.87 		"/>
		<polygon class="st1" points="1276.39,474.51 1275.58,480.16 1272.9,475.09 1267.42,476 1271.36,471.98 1268.71,466.93 
			1273.81,469.48 1277.81,465.42 1277.03,471.04 1282.04,473.63 		"/>
		<polygon class="st1" points="1224.85,388.55 1219.17,389.15 1223.43,385.31 1221.2,380.22 1226.07,383.05 1230.31,379.24 
			1229.1,384.81 1234.01,387.7 1228.37,388.32 1227.1,393.81 		"/>
		<polygon class="st1" points="1329.14,419.49 1327.7,425.01 1325.62,419.67 1320.07,419.95 1324.44,416.4 1322.38,411.08 
			1327.16,414.19 1331.6,410.62 1330.18,416.12 1334.86,419.25 		"/>
		<polygon class="st1" points="1299.71,435.89 1299.15,438.01 1298.35,435.96 1296.22,436.06 1297.9,434.7 1297.11,432.66 
			1298.94,433.86 1300.65,432.49 1300.1,434.59 1301.9,435.8 		"/>
		<polygon class="st1" points="1254.13,419.27 1253.58,421.39 1252.78,419.34 1250.65,419.45 1252.33,418.09 1251.54,416.05 
			1253.37,417.24 1255.08,415.87 1254.53,417.98 1256.33,419.18 		"/>
		<polygon class="st1" points="1269.81,388.43 1269.26,390.55 1268.46,388.5 1266.33,388.61 1268.01,387.25 1267.22,385.21 
			1269.05,386.4 1270.75,385.03 1270.21,387.14 1272,388.34 		"/>
		<polygon class="st1" points="1325.85,583.96 1325.28,586.07 1324.5,584.02 1322.37,584.11 1324.06,582.76 1323.28,580.72 
			1325.11,581.92 1326.82,580.56 1326.26,582.67 1328.05,583.89 		"/>
		<polygon class="st1" points="1341.75,553.24 1341.18,555.35 1340.4,553.29 1338.27,553.39 1339.96,552.04 1339.18,549.99 
			1341,551.2 1342.72,549.84 1342.16,551.94 1343.95,553.16 		"/>
		<polygon class="st1" points="1305.46,490.3 1303.68,489.04 1305.88,489.01 1306.53,486.98 1307.21,489.03 1309.4,489.01 
			1307.63,490.31 1308.32,492.39 1306.54,491.13 1304.78,492.39 		"/>
		<polygon class="st1" points="1328.8,515.84 1327.01,514.58 1329.21,514.55 1329.86,512.52 1330.54,514.57 1332.73,514.55 
			1330.97,515.85 1331.65,517.93 1329.87,516.67 1328.11,517.93 		"/>
		<polygon class="st1" points="1280.76,552.86 1279.09,554.28 1279.61,552.14 1277.81,551.01 1279.96,550.86 1280.48,548.73 
			1281.3,550.76 1283.48,550.61 1281.83,552.03 1282.61,554.04 		"/>
		<polygon class="st1" points="1311.29,536.6 1309.62,538.01 1310.14,535.88 1308.34,534.74 1310.49,534.59 1311.01,532.47 
			1311.83,534.49 1314.01,534.35 1312.36,535.76 1313.14,537.78 		"/>
		<polygon class="st1" points="1336.05,454.92 1334.68,453.21 1336.8,453.79 1337.99,452.02 1338.07,454.18 1340.18,454.77 
			1338.13,455.52 1338.21,457.71 1336.85,456.01 1334.81,456.73 		"/>
		<polygon class="st1" points="1351.39,485.92 1350.03,484.21 1352.15,484.79 1353.34,483.02 1353.42,485.18 1355.53,485.77 
			1353.48,486.52 1353.56,488.71 1352.19,487.01 1350.16,487.73 		"/>
		<polygon class="st1" points="1389.2,497.62 1391.27,496.93 1389.99,498.71 1391.24,500.44 1389.19,499.78 1387.91,501.55 
			1387.91,499.36 1385.83,498.68 1387.9,497.99 1387.92,495.83 		"/>
		<polygon class="st1" points="1382.84,471.22 1382.69,469.04 1384.1,470.72 1386.08,469.94 1384.93,471.77 1386.33,473.45 
			1384.21,472.9 1383.04,474.75 1382.88,472.58 1380.79,472.01 		"/>
		<polygon class="st1" points="1377.22,412.99 1375.85,411.28 1377.97,411.86 1379.16,410.09 1379.25,412.25 1381.36,412.84 
			1379.3,413.59 1379.38,415.78 1378.02,414.08 1375.98,414.8 		"/>
		<polygon class="st1" points="1415.02,424.69 1417.1,424 1415.82,425.78 1417.07,427.51 1415.01,426.85 1413.73,428.62 
			1413.73,426.43 1411.66,425.75 1413.72,425.06 1413.75,422.9 		"/>
		<polygon class="st1" points="1408.66,398.29 1408.51,396.11 1409.92,397.79 1411.91,397.01 1410.75,398.84 1412.16,400.52 
			1410.04,399.97 1408.86,401.82 1408.7,399.65 1406.62,399.08 		"/>
		<polygon class="st1" points="1357.39,382.57 1356.03,380.86 1358.15,381.44 1359.34,379.67 1359.42,381.83 1361.53,382.41 
			1359.48,383.17 1359.56,385.36 1358.2,383.66 1356.16,384.38 		"/>
		<polygon class="st1" points="271.76,182.86 267.51,186.66 268.72,181.06 263.95,178.22 269.55,177.68 270.78,172.11 
			273.04,177.35 278.71,176.83 274.49,180.62 276.66,185.82 		"/>
		<polygon class="st1" points="259.79,115.4 254.14,116.21 258.25,112.22 255.84,107.21 260.8,109.86 264.9,105.9 263.89,111.51 
			268.91,114.21 263.3,115.04 262.23,120.57 		"/>
		<polygon class="st1" points="290.19,145.02 289.71,147.16 288.84,145.14 286.71,145.32 288.34,143.9 287.48,141.89 289.35,143.02 
			291,141.59 290.54,143.71 292.38,144.85 		"/>
		<polygon class="st1" points="131.97,179.21 136.21,183.01 130.51,182.43 128.22,187.49 127.07,181.98 121.4,181.39 126.34,178.56 
			125.2,172.97 129.43,176.75 134.36,174.01 		"/>
		<polygon class="st1" points="31.85,174.36 29.2,179.41 28.37,173.74 22.9,172.77 27.96,170.3 27.14,164.65 31.1,168.75 
			36.23,166.27 33.61,171.3 37.47,175.41 		"/>
		<polygon class="st1" points="115.48,104.78 119.27,109.05 113.67,107.81 110.82,112.58 110.3,106.98 104.73,105.74 109.97,103.49 
			109.47,97.82 113.25,102.05 118.46,99.9 		"/>
		<polygon class="st1" points="112.78,138.37 114.23,140.01 112.09,139.53 110.99,141.36 110.79,139.21 108.66,138.74 
			110.67,137.87 110.47,135.7 111.92,137.32 113.92,136.49 		"/>
		<polygon class="st1" points="73.66,167.05 75.12,168.69 72.97,168.22 71.87,170.05 71.68,167.9 69.54,167.42 71.55,166.56 
			71.36,164.38 72.81,166.01 74.8,165.18 		"/>
		<polygon class="st1" points="56.71,136.9 58.17,138.53 56.02,138.06 54.93,139.89 54.73,137.74 52.59,137.27 54.6,136.4 
			54.41,134.22 55.86,135.85 57.86,135.02 		"/>
		<polygon class="st1" points="250.46,198.81 251.9,200.46 249.76,199.97 248.65,201.79 248.47,199.64 246.34,199.15 248.35,198.3 
			248.17,196.12 249.61,197.76 251.62,196.94 		"/>
		<polygon class="st1" points="233.73,168.53 235.17,170.18 233.03,169.69 231.92,171.51 231.74,169.36 229.6,168.87 231.62,168.02 
			231.44,165.84 232.88,167.48 234.88,166.67 		"/>
		<polygon class="st1" points="161.24,163.79 159.2,164.57 160.4,162.73 159.07,161.06 161.15,161.63 162.35,159.8 162.45,161.98 
			164.55,162.57 162.52,163.35 162.59,165.52 		"/>
		<polygon class="st1" points="195.44,158.55 193.39,159.34 194.59,157.49 193.26,155.83 195.35,156.4 196.55,154.57 196.64,156.75 
			198.75,157.34 196.72,158.12 196.79,160.28 		"/>
		<polygon class="st1" points="199.56,219.06 199.81,221.23 198.32,219.61 196.38,220.49 197.45,218.61 195.97,216.99 
			198.11,217.44 199.2,215.55 199.46,217.71 201.57,218.18 		"/>
		<polygon class="st1" points="202.98,184.64 203.23,186.81 201.74,185.19 199.8,186.06 200.87,184.19 199.39,182.57 201.53,183.02 
			202.62,181.12 202.88,183.28 204.99,183.75 		"/>
		<polygon class="st1" points="148.78,118.7 146.6,118.89 148.26,117.45 147.45,115.48 149.29,116.61 150.95,115.18 150.44,117.31 
			152.3,118.45 150.13,118.64 149.6,120.74 		"/>
		<polygon class="st1" points="183.09,123.15 180.91,123.33 182.57,121.89 181.76,119.92 183.6,121.05 185.26,119.62 184.75,121.75 
			186.61,122.9 184.44,123.09 183.91,125.18 		"/>
		<polygon class="st1" points="213.8,98.19 214.38,96.08 215.15,98.14 217.29,98.06 215.59,99.4 216.36,101.45 214.54,100.24 
			212.82,101.59 213.39,99.48 211.61,98.26 		"/>
		<polygon class="st1" points="188.32,88.83 186.41,87.75 188.6,87.51 189.05,85.42 189.93,87.4 192.1,87.16 190.48,88.62 
			191.36,90.62 189.46,89.55 187.84,90.97 		"/>
		<polygon class="st1" points="136.76,61.18 134.58,61.37 136.24,59.93 135.43,57.96 137.27,59.09 138.93,57.66 138.42,59.79 
			140.28,60.93 138.11,61.12 137.58,63.22 		"/>
		<polygon class="st1" points="167.47,36.23 168.05,34.12 168.83,36.18 170.96,36.1 169.26,37.44 170.03,39.49 168.21,38.27 
			166.49,39.62 167.06,37.52 165.28,36.3 		"/>
		<polygon class="st1" points="141.99,26.87 140.09,25.79 142.27,25.54 142.72,23.46 143.6,25.43 145.78,25.2 144.15,26.66 
			145.03,28.66 143.13,27.59 141.51,29.01 		"/>
		<polygon class="st1" points="100.45,60.79 98.27,60.97 99.93,59.53 99.12,57.56 100.96,58.69 102.62,57.26 102.11,59.39 
			103.97,60.53 101.8,60.73 101.27,62.82 		"/>
		<polygon class="st1" points="731.33,151.3 735.01,155.66 729.44,154.29 726.47,158.98 726.1,153.37 720.56,151.99 725.85,149.87 
			725.49,144.19 729.17,148.51 734.43,146.49 		"/>
		<polygon class="st1" points="663.56,161.4 664.22,167.06 660.34,162.84 655.27,165.12 658.06,160.23 654.21,156.02 659.79,157.18 
			662.63,152.24 663.3,157.88 668.8,159.1 		"/>
		<polygon class="st1" points="694.02,131.83 696.14,132.36 694.1,133.18 694.23,135.31 692.85,133.65 690.82,134.45 691.99,132.61 
			690.61,130.92 692.72,131.45 693.91,129.64 		"/>
		<polygon class="st1" points="723.8,290.94 727.72,286.8 726.97,292.48 731.97,294.91 726.43,295.91 725.68,301.57 722.99,296.54 
			717.38,297.53 721.27,293.4 718.67,288.4 		"/>
		<polygon class="st1" points="610.44,378.95 615.42,381.73 609.72,382.41 608.6,387.85 606.27,382.73 600.6,383.38 604.81,379.54 
			602.47,374.35 607.43,377.1 611.64,373.36 		"/>
		<polygon class="st1" points="648.94,305.35 653.31,301.68 651.92,307.25 656.61,310.23 650.99,310.59 649.6,316.12 647.5,310.82 
			641.81,311.17 646.15,307.51 644.14,302.24 		"/>
		<polygon class="st1" points="682.44,308.98 684.12,307.58 683.58,309.71 685.38,310.85 683.23,310.99 682.69,313.12 
			681.89,311.08 679.7,311.22 681.37,309.81 680.6,307.79 		"/>
		<polygon class="st1" points="710.03,348.88 711.7,347.48 711.17,349.61 712.97,350.75 710.81,350.89 710.28,353.02 709.47,350.98 
			707.29,351.12 708.95,349.71 708.18,347.69 		"/>
		<polygon class="st1" points="679.41,364.99 681.09,363.58 680.55,365.72 682.35,366.86 680.2,367 679.66,369.12 678.86,367.09 
			676.67,367.22 678.34,365.82 677.57,363.8 		"/>
		<polygon class="st1" points="746.68,173.04 748.37,171.64 747.82,173.77 749.61,174.93 747.46,175.05 746.91,177.17 
			746.12,175.13 743.93,175.25 745.61,173.86 744.85,171.83 		"/>
		<polygon class="st1" points="715.95,188.92 717.64,187.53 717.09,189.66 718.88,190.81 716.73,190.94 716.18,193.05 
			715.38,191.02 713.2,191.13 714.87,189.74 714.12,187.71 		"/>
		<polygon class="st1" points="709.19,261.25 709.92,263.31 708.11,262.06 706.4,263.34 707.03,261.28 705.24,260.03 707.42,259.99 
			708.07,257.9 708.8,259.96 710.96,259.95 		"/>
		<polygon class="st1" points="704.91,226.92 705.64,228.99 703.83,227.74 702.13,229.02 702.75,226.95 700.96,225.7 703.14,225.66 
			703.79,223.58 704.52,225.63 706.68,225.62 		"/>
		<polygon class="st1" points="765.51,224.48 767.69,224.29 766.03,225.73 766.85,227.7 765,226.58 763.35,228.01 763.85,225.88 
			761.99,224.74 764.16,224.54 764.68,222.45 		"/>
		<polygon class="st1" points="731.19,220.11 733.37,219.92 731.71,221.36 732.53,223.33 730.69,222.21 729.03,223.64 
			729.54,221.51 727.67,220.37 729.84,220.17 730.37,218.07 		"/>
		<polygon class="st1" points="663.78,272.45 663.91,274.64 662.52,272.94 660.52,273.69 661.7,271.88 660.32,270.19 662.43,270.75 
			663.63,268.93 663.76,271.1 665.84,271.69 		"/>
		<polygon class="st1" points="669.18,238.28 669.3,240.47 667.91,238.76 665.92,239.52 667.09,237.71 665.71,236.01 667.82,236.58 
			669.02,234.75 669.15,236.93 671.23,237.52 		"/>
		<polygon class="st1" points="645.09,206.89 642.99,206.25 645.07,205.53 645.05,203.4 646.34,205.13 648.41,204.42 647.15,206.2 
			648.45,207.96 646.37,207.33 645.09,209.08 		"/>
		<polygon class="st1" points="635.02,232.1 633.88,233.97 633.7,231.78 631.63,231.27 633.63,230.45 633.46,228.27 634.87,229.93 
			636.9,229.11 635.77,230.97 637.15,232.64 		"/>
		<polygon class="st1" points="605.95,282.87 606.08,285.06 604.68,283.35 602.69,284.11 603.87,282.3 602.49,280.6 604.6,281.17 
			605.8,279.34 605.93,281.52 608.01,282.11 		"/>
		<polygon class="st1" points="581.86,251.48 579.77,250.84 581.85,250.12 581.82,247.99 583.12,249.72 585.19,249.01 
			583.92,250.79 585.22,252.55 583.14,251.92 581.87,253.67 		"/>
		<polygon class="st1" points="571.79,276.69 570.66,278.56 570.48,276.37 568.41,275.86 570.4,275.04 570.23,272.86 571.65,274.52 
			573.67,273.7 572.54,275.56 573.92,277.23 		"/>
		<polygon class="st1" points="604.54,319.16 604.67,321.34 603.28,319.64 601.28,320.4 602.46,318.59 601.08,316.89 603.19,317.46 
			604.39,315.63 604.52,317.8 606.6,318.39 		"/>
		<polygon class="st1" points="548.69,120.41 549.21,122.53 547.53,121.11 545.71,122.22 546.54,120.22 544.87,118.8 547.05,118.98 
			547.9,116.97 548.42,119.08 550.58,119.29 		"/>
		<polygon class="st1" points="579.6,165.56 577.43,165.29 579.35,164.23 578.96,162.13 580.54,163.61 582.45,162.55 581.52,164.53 
			583.1,166.03 580.94,165.78 579.99,167.72 		"/>
		<polygon class="st1" points="589.7,119.89 587.69,119.03 589.83,118.54 590.04,116.42 591.14,118.28 593.27,117.79 591.83,119.43 
			592.93,121.32 590.93,120.47 589.48,122.07 		"/>
		<polygon class="st1" points="617.94,139.88 615.92,139.02 618.07,138.53 618.27,136.41 619.37,138.27 621.51,137.78 
			620.06,139.42 621.17,141.31 619.16,140.46 617.71,142.06 		"/>
		<polygon class="st1" points="638.63,112.01 637.45,110.16 639.5,110.97 640.87,109.34 640.72,111.5 642.76,112.31 640.63,112.84 
			640.48,115.02 639.3,113.18 637.2,113.68 		"/>
		<polygon class="st1" points="217.57,262.01 219.1,263.58 216.93,263.2 215.92,265.08 215.62,262.94 213.47,262.56 215.44,261.61 
			215.15,259.44 216.67,261 218.63,260.08 		"/>
		<polygon class="st1" points="267.11,285.25 265.1,286.12 266.22,284.22 264.82,282.62 266.93,283.09 268.04,281.21 268.24,283.39 
			270.37,283.88 268.37,284.76 268.54,286.91 		"/>
		<polygon class="st1" points="252.66,240.76 250.49,241.05 252.09,239.53 251.19,237.6 253.08,238.64 254.67,237.14 254.26,239.29 
			256.17,240.35 254.01,240.64 253.57,242.76 		"/>
		<polygon class="st1" points="287.13,243.68 284.96,243.96 286.56,242.45 285.66,240.52 287.55,241.56 289.14,240.06 
			288.73,242.21 290.64,243.27 288.48,243.56 288.04,245.68 		"/>
		<polygon class="st1" points="290.83,209.16 288.89,208.17 291.06,207.83 291.42,205.73 292.38,207.66 294.54,207.33 
			292.98,208.86 293.95,210.82 292.01,209.83 290.45,211.33 		"/>
		<polygon class="st1" points="540.28,361.79 540.4,363.97 539.01,362.27 537.02,363.03 538.19,361.22 536.81,359.52 538.92,360.09 
			540.12,358.26 540.25,360.43 542.33,361.02 		"/>
		<polygon class="st1" points="516.19,330.39 514.09,329.75 516.17,329.04 516.15,326.9 517.44,328.63 519.51,327.93 518.25,329.71 
			519.55,331.47 517.47,330.84 516.19,332.59 		"/>
		<polygon class="st1" points="506.12,355.61 504.98,357.48 504.8,355.28 502.73,354.78 504.73,353.95 504.56,351.77 505.97,353.44 
			508,352.62 506.87,354.48 508.25,356.15 		"/>
		<polygon class="st1" points="538.87,398.07 539,400.26 537.6,398.55 535.61,399.31 536.79,397.5 535.41,395.8 537.52,396.37 
			538.72,394.54 538.85,396.72 540.93,397.31 		"/>
		<polygon class="st1" points="118.99,373.27 116.95,374.06 118.15,372.22 116.82,370.55 118.9,371.12 120.1,369.29 120.2,371.47 
			122.3,372.06 120.27,372.84 120.34,375 		"/>
		<polygon class="st1" points="78.15,409.69 78.13,407.5 79.44,409.28 81.47,408.62 80.2,410.37 81.49,412.13 79.41,411.46 
			78.12,413.22 78.1,411.05 76.05,410.35 		"/>
		<polygon class="st1" points="71.01,443.54 71,441.35 72.3,443.13 74.33,442.47 73.07,444.22 74.36,445.98 72.28,445.31 
			70.99,447.07 70.97,444.9 68.92,444.2 		"/>
		<polygon class="st1" points="124.73,413.89 125.32,411.78 126.09,413.85 128.22,413.78 126.52,415.11 127.27,417.16 
			125.46,415.94 123.73,417.28 124.31,415.18 122.54,413.94 		"/>
		<polygon class="st1" points="108.5,444.44 109.1,442.33 109.86,444.4 111.99,444.33 110.29,445.66 111.04,447.71 109.23,446.49 
			107.5,447.83 108.08,445.73 106.31,444.49 		"/>
		<polygon class="st1" points="138.78,461.41 140.47,460.01 139.92,462.14 141.72,463.3 139.56,463.42 139.01,465.54 138.22,463.51 
			136.04,463.63 137.71,462.23 136.95,460.21 		"/>
		<polygon class="st1" points="131.7,435.02 130.58,433.14 132.6,434.01 134.02,432.41 133.81,434.56 135.82,435.43 133.69,435.9 
			133.47,438.08 132.35,436.21 130.23,436.65 		"/>
		<polygon class="st1" points="1073.81,369.48 1075.17,367.76 1075.08,369.96 1077.07,370.71 1074.99,371.29 1074.89,373.47 
			1073.69,371.64 1071.58,372.22 1072.93,370.5 1071.77,368.68 		"/>
		<polygon class="st1" points="1047.08,391.44 1048.44,389.72 1048.35,391.92 1050.34,392.67 1048.26,393.25 1048.16,395.43 
			1046.96,393.6 1044.85,394.17 1046.2,392.46 1045.04,390.64 		"/>
		<polygon class="st1" points="1107.54,401.87 1109.32,400.6 1108.63,402.69 1110.33,403.97 1108.18,403.94 1107.48,406.01 
			1106.83,403.93 1104.65,403.89 1106.41,402.62 1105.8,400.54 		"/>
		<polygon class="st1" points="1075.78,415.57 1077.56,414.3 1076.86,416.39 1078.57,417.67 1076.41,417.64 1075.71,419.71 
			1075.07,417.62 1072.88,417.59 1074.65,416.32 1074.03,414.24 		"/>
	</g>
</g>
</svg>
