<?xml version="1.0" encoding="utf-8"?>
<!-- Generator: Adobe Illustrator 27.3.1, SVG Export Plug-In . SVG Version: 6.00 Build 0)  -->
<svg version="1.1" id="Camada_1" xmlns="http://www.w3.org/2000/svg" xmlns:xlink="http://www.w3.org/1999/xlink" x="0px" y="0px"
	 viewBox="0 0 512 512" style="enable-background:new 0 0 512 512;" xml:space="preserve">
<style type="text/css">
	.st0{fill:#006AFF;}
	.st1{fill:#0057AD;}
	.st2{fill:#90A0AF;}
	.st3{fill:#121F32;}
	.st4{fill:#E6F0FF;}
	.st5{fill:#D5DEEB;}
	.st6{fill:#0098FF;}
	.st7{fill:#52EFFF;}
	.st8{fill:#C9D7E2;}
	.st9{fill:#BEC9D3;}
	.st10{fill:#B1BCC4;}
	.st11{fill:#0C1829;}
	.st12{fill:#2C496B;}
	.st13{fill:#FFFFFF;}
</style>
<g>
	<path class="st0" d="M228.43,43.93c0,0,40.85-2.57,56.56,0.09c15.71,2.66-5.02,102.76-5.02,102.76l-23.51,21.17l-31.87-5.59
		l-12.83-56.98L228.43,43.93z"/>
	<g>
		<polygon class="st1" points="6.41,302.05 13.98,295.11 15.5,305.03 		"/>
		<polygon class="st1" points="6.41,204.26 11.9,212.55 16.57,202.57 		"/>
	</g>
	<path class="st2" d="M45.06,159.9c0,0,0.88,5.9,3.6,7.7c2.72,1.8,8.46-3.85,8.46-3.85l-6.95-5.72L45.06,159.9z"/>
	<g>
		<polygon class="st2" points="49.48,189.8 38.75,173.5 48.34,178.77 		"/>
		<polygon class="st2" points="151.14,437.12 154.96,434.45 159.89,439.23 		"/>
		<polygon class="st2" points="35.4,321.61 35.4,320.28 37.29,321.06 36.68,322.29 		"/>
		<path class="st2" d="M100.5,71.8c0,0,5.75-1.65,17.02,10.42s-10.75,12.12-10.75,12.12L100.5,71.8z"/>
	</g>
	<path class="st3" d="M256.47,178.22l-151.49-27.47L83.7,302.26c8.87,20.15,25.68,51.76,55.82,81.03
		c38.31,37.2,78.4,51.43,99.51,57.16c5.81,0,11.62,0,17.43,0V178.22z"/>
	<path class="st3" d="M7.3,204.24c0,0-14.9,48.9,0.63,97.8c10.36,18.66,31.7-7.56,31.7-7.56l2.27-58.97l-3.54-33.72l-21.47-3.88
		L7.3,204.24L7.3,204.24z"/>
	<g>
		<polygon class="st1" points="506.15,302.05 498.57,295.11 497.06,305.03 		"/>
		<polygon class="st1" points="506.15,204.26 500.66,212.55 495.98,202.57 		"/>
	</g>
	<path class="st2" d="M467.13,159.9c0,0-0.88,5.9-3.6,7.7s-8.46-3.85-8.46-3.85l6.95-5.72L467.13,159.9z"/>
	<g>
		<polygon class="st2" points="462.71,189.8 473.44,173.5 463.84,178.77 		"/>
		<polygon class="st2" points="361.05,437.12 357.23,434.45 352.3,439.23 		"/>
		<polygon class="st2" points="476.79,321.61 476.79,320.28 474.89,321.06 475.51,322.29 		"/>
		<path class="st2" d="M411.69,71.8c0,0-5.75-1.65-17.02,10.42c-11.27,12.07,10.75,12.12,10.75,12.12L411.69,71.8z"/>
	</g>
	<path class="st3" d="M255.72,178.22l151.49-27.47l21.27,151.51c-8.87,20.15-25.68,51.76-55.82,81.03
		c-38.31,37.2-78.4,51.43-99.51,57.16c-5.81,0-11.62,0-17.43,0V178.22z"/>
	<path class="st3" d="M504.89,204.24c0,0,14.9,48.9-0.63,97.8c-10.36,18.66-31.7-7.56-31.7-7.56l-2.27-58.97l3.54-33.72l21.47-3.88
		L504.89,204.24L504.89,204.24z"/>
	<path class="st0" d="M256.09,148.25V42.94c-9.64,0.02-18.73,0.37-27.29,0.99c-13.1,0.95-24.96,2.54-35.66,4.56
		c-3.26,0.61-6.41,1.26-9.45,1.95c-13.44,3.02-24.83,6.68-34.34,10.47c-8.07,3.21-14.79,6.5-20.27,9.57
		c-13.46,7.53-19.4,13.67-19.4,13.67s-0.04,0.11-0.13,0.29c-0.36,0.83-1.47,3.33-2.72,5.89c-1.83,3.71-3.95,7.53-4.58,6.52
		c-1.14-1.87,17.43,53.9,17.43,53.9l134.74-2.45l1.88-0.04L256.09,148.25z M104.16,218.8c10.8-24.98-55.5-59.11-55.5-59.11
		s-0.51,1.06-1.02,3.15c-1.23,5.07-2.4,16.2,4.04,32.86c9.02,23.33,47.02,68.99,47.62,69.7c-0.06-0.23-2.51-9.37-1.28-22.53
		C98.67,235.76,100.4,227.48,104.16,218.8z M66.18,232.02l-21.5-47.12c0,0-1.62-0.04-4.13-0.02c-6.91,0.02-20.58,0.46-26,3.36
		c-4.68,2.5-6.7,8.26-7.55,12.15c-0.5,2.26-0.59,3.88-0.59,3.88s25.95-1.46,25.38,22.27v53.25c0.19,7.76-2.46,12.82-6.11,16.12
		c-7.52,6.81-19.28,6.15-19.28,6.15s0.76,12.07,8.15,16.03c7.39,3.95,30.12,3.34,30.12,3.34l18.02-1.78l9.63-44.75L66.18,232.02z
		 M410.67,96.85c-0.3,0.49-0.93-0.14-1.73-1.33c-0.88-1.33-1.94-3.36-2.91-5.34c-1.51-3.08-2.78-6.04-2.78-6.04
		s-1.35-1.39-4.21-3.67c-5.55-4.39-16.78-12.08-34.95-19.37h-0.01c-6.05-2.43-12.88-4.81-20.52-7.01
		c-13.01-3.74-28.39-6.95-46.35-8.95c-6.28-0.7-12.89-1.26-19.82-1.64c-5.13-0.28-10.45-0.46-15.95-0.52
		c-1.52-0.02-3.05-0.04-4.6-0.04v105.31l-0.37,0.01l17.87,0.33l54.55,0.99l14.45,0.26l49.9,0.91c0,0,7.55-22.67,12.72-38.61
		C408.91,103.06,411.08,96.17,410.67,96.85z M464.28,159.69c0,0-66.3,34.13-55.5,59.11c10.71,24.77,4.95,46.26,4.86,46.6
		c0.59-0.71,38.6-46.37,47.61-69.7C470.34,172.18,464.28,159.69,464.28,159.69z M505.28,302.06c-3.23-0.04-12-0.69-18.03-6.15
		c-3.65-3.3-6.3-8.36-6.11-16.12v-53.25c-0.56-23.73,25.39-22.27,25.39-22.27s-0.76-12.07-8.15-16.03
		c-6.12-3.28-22.76-3.42-28.3-3.36c-1.15,0.01-1.83,0.02-1.83,0.02l-21.5,47.12l-6.16,42.87l9.63,44.75l18.03,1.78
		c0,0,22.73,0.61,30.12-3.34c7.38-3.95,8.15-16.03,8.15-16.03S506.07,302.07,505.28,302.06z"/>
	<g>
		<path class="st4" d="M255.72,468.34c0,0,146.05-9.99,221.07-146.72c-8.12-12.84-18.64-34.02-19.01-61.26
			c-0.04-2.93,0.02-6.85,0.76-14.67c1.58-16.9,5.3-41.5,14.9-72.18c-17.19,17.55-39.89,44.99-56.89,84.01
			c-17.77,40.77-15.04,61.41-28.61,85.85c-15.12,27.25-49.05,56.66-132.22,64.34V468.34z"/>
	</g>
	<path class="st0" d="M356.56,262.86c-0.25,18.31-12.38,11.65-17.68,8.88c-5.3-2.78-20.44-1.39-26,1.1
		c-0.01,0.01-0.01,0.01-0.01,0.01c-5.56,2.49-13.13,11.1-16.92,11.1c-3.78,0-8.58-4.72-8.33-9.99c0.22-4.65-0.73-28.36,21.84-35.16
		c2.98-0.9,6.38-1.51,10.24-1.74C352.77,235.1,356.56,262.86,356.56,262.86z"/>
	<path class="st4" d="M124.25,343.37c-13.57-24.45-10.85-45.08-28.61-85.86c0,0,0,0-0.01-0.01c-17-39.01-39.69-66.46-56.88-84
		c9.6,30.68,13.32,55.28,14.9,72.18c0.73,7.83,0.8,11.75,0.76,14.67c-0.37,27.23-10.88,48.42-19,61.26
		c10.16,18.52,21.62,34.71,33.85,48.87c78.04,90.39,187.21,97.86,187.21,97.86V407.7C173.3,400.02,139.37,370.62,124.25,343.37z"/>
	<path class="st5" d="M256.46,148.25v56.06c-44.7-0.84-75.89-29.28-86.38-30.8c-46.75-6.9-68.86,58.89-72.07,69.37
		c-0.28,0.9-0.42,1.39-0.42,1.39c-15.59-39.57-41.71-71.81-49.96-81.42c-1.64-1.92-2.57-2.93-2.57-2.93
		c10.03-55.85,45.45-73.5,50.83-75.88c0.45-0.2,0.69-0.29,0.69-0.29c-1.26-8.88,3.92-11.93,3.92-11.93
		c2.86,4.47,5.88,8.67,9.05,12.63c4.7,5.88,9.7,11.21,14.94,16.06c27.42,25.42,60.88,37.33,87.25,42.92c0.02,0,0.03,0,0.03,0
		c24.37,5.16,42.68,4.89,44.54,4.85C256.41,148.25,256.46,148.25,256.46,148.25z"/>
	<path class="st0" d="M313.81,350.69c-10.92,7.23-25.87,18.44-58.09,18.44c-1.74,0-3.45-0.04-5.13-0.11c-0.01,0-0.01,0-0.01,0
		c-29.33-1.3-48.64-13.47-54.73-20.42c-6.44-7.35,3.23-15.83,13.38-9.3c0,0,14.18,14.22,46.49,13.21c32.32-1,34.97-4.47,46.96-13.21
		c12-8.74,16.79-1.25,16.79-1.25S324.74,343.47,313.81,350.69z"/>
	<path class="st0" d="M224.58,273.95c0.25,5.27-4.55,9.99-8.33,9.99c-3.79,0-11.37-8.61-16.92-11.1c-4.38-1.96-14.7-3.24-21.48-2.35
		c-0.01,0.01-0.01,0.01-0.01,0.01c-1.83,0.24-3.41,0.64-4.53,1.23c-5.3,2.77-17.43,9.43-17.68-8.88c0,0,2.31-16.88,19.02-23.39
		c0.01,0,0.01,0,0.01,0c4.71-1.83,10.57-2.84,17.84-2.41C225.59,238.99,224.33,268.68,224.58,273.95z"/>
	<path class="st5" d="M300.81,394.04h-89.43l0.01-0.01c0.01-0.01,0.01-0.01,0.01-0.02c0.17-0.29,1.85-2.71,8.09-5.09
		c5.73-2.18,15.3-4.33,31.09-4.74c0.01,0,0.01,0,0.01,0c1.75-0.05,3.58-0.07,5.49-0.07C294.5,384.11,300.62,393.73,300.81,394.04
		L300.81,394.04z"/>
	<path class="st6" d="M257.48,42.94v84.88c-1.59,0.02-3.19,0.03-4.82,0.03c-53.77,0-109.92-21.23-101.5-31.01
		c8.41-9.79,30.98-19.78,30.98-19.78c-26.01,2.49-57.5,23.42-57.5,23.42c-5.28-4.85-10.34-10.18-15.08-16.06
		c0.09-0.19,0.13-0.29,0.13-0.29s6-6.14,19.58-13.67c5.53-3.06,12.31-6.36,20.46-9.57c9.6-3.78,21.1-7.45,34.66-10.47
		c3.07-0.68,6.25-1.34,9.54-1.95c10.8-2.01,22.78-3.6,35.99-4.56C238.57,43.31,247.75,42.96,257.48,42.94z"/>
	<path class="st6" d="M403.04,83.93c-9.8,12.37-20.97,22.36-32.68,30.44c-18.7-18.89-48.28-20.02-48.28-20.02
		c11.05,3.54,26.83,16.44,20.02,19.36c-6.57,2.8-35.4,13.37-85.27,14.11V42.94c1.55,0,3.08,0.02,4.6,0.04
		c5.5,0.07,10.82,0.24,15.95,0.52c6.93,0.38,13.53,0.94,19.82,1.64c17.96,2,33.34,5.21,46.35,8.95c7.64,2.2,14.47,4.58,20.52,7.01
		h0.01c18.17,7.29,29.4,14.98,34.95,19.37C401.25,82.23,402.56,83.47,403.04,83.93z"/>
	<path class="st6" d="M224.58,273.95c0.25,5.27-4.55,9.99-8.33,9.99c-3.79,0-11.37-8.61-16.92-11.1c-4.38-1.96-14.7-3.24-21.48-2.35
		c0.48-0.24,18.81-9.56,36.76,0.01c0,0,6.06-19.24-33.34-24.65c0,0,14.28-5.4,26.84,0c12.56,5.41-8.8-9.44-33.44-6.39
		c4.71-1.83,10.57-2.84,17.84-2.41C225.59,238.99,224.33,268.68,224.58,273.95z"/>
	<path class="st7" d="M200.58,270.62c0,0,8.58,6.24,12.12,9.78s10.61-1.87,10.23-4.89c-0.38-3.02,0.16-21.26-13.07-29.66
		c0,0,9.98,12.56,10.67,26.64c0.25,4.86-3.09,6.87-4.36,6.45S206.71,272.84,200.58,270.62z"/>
	<path class="st6" d="M35.97,318.07c-22.26,0.83-25.98-13.04-25.98-13.04c14.46,11.52,26.35,3.72,26.35,3.72
		c22.89-48.3,2.4-115.68,2.4-115.68c-10.48-2.08-19.91,2.08-19.91,2.08c6.73,0,11.83,2.78,11.83,2.78C15.47,196.58,7,200.4,7,200.4
		v-0.02c0.85-3.89,2.87-9.64,7.55-12.15c5.42-2.89,19.09-3.33,26-3.36c0.45,1.39,0.72,2.4,0.72,2.4
		C68.74,279.78,35.97,318.07,35.97,318.07z"/>
	<path class="st7" d="M9.45,196.81c0,0,2.65-8.12,11.93-9.57s17.99-1.25,17.99-1.25s-14.58,1.35-17.67,2.62
		S13.36,191.68,9.45,196.81z"/>
	<path class="st7" d="M39.37,185.99c0,0,2.25,6.1,2.69,8.01c0,0-2.75-7.18-3.66-7.39c-0.92-0.21-19.04-0.1-28.95,10.2
		c0,0,4.51-8.57,9.91-8.39s6.19-1.32,6.19-1.32L39.37,185.99z"/>
	<path class="st8" d="M211.74,143.41c-1.34-0.05-45.21-1.64-79.16-20.73c-34.48-19.38-58.16,55.96-58.16,55.96
		s16.69,33.15,23.59,64.23c-0.28,0.9-0.42,1.39-0.42,1.39c-15.59-39.57-41.71-71.81-49.96-81.42c-1.64-1.92-2.57-2.93-2.57-2.93
		c10.03-55.85,45.45-73.5,50.83-75.88c0.45-0.2,0.69-0.29,0.69-0.29c-1.26-8.88,3.92-11.93,3.92-11.93
		c2.86,4.47,5.88,8.67,9.05,12.63c4.7,5.88,9.7,11.21,14.94,16.06c8.12,7.53,16.79,13.88,25.63,19.23
		C171.12,132.41,193.18,139.48,211.74,143.41z"/>
	<path class="st9" d="M150.1,119.71c-1.06-0.51-34.9-16.78-47.89-26.83c-13.2-10.2-56.59,53.6-38.02,78.88
		c18.59,25.29,33.41,72.5,33.41,72.5c-7.63-19.37-17.78-36.97-27.13-51.03c0-0.01,0-0.02-0.01-0.02c0-0.01-0.01-0.02-0.01-0.03
		c-9.75-14.65-18.61-25.44-22.81-30.35c-1.64-1.92-2.57-2.93-2.57-2.93c10.03-55.85,45.45-73.5,50.83-75.88
		c0.45-0.2,0.69-0.29,0.69-0.29c-1.26-8.88,3.92-11.93,3.92-11.93c2.86,4.47,5.88,8.67,9.05,12.63c3.75,4.7,7.7,9.04,11.8,13.07
		c1.03,1.02,2.08,2.01,3.13,2.99C132.6,108.01,141.26,114.36,150.1,119.71z"/>
	<path class="st10" d="M121.36,97.5c-8.16-3.71-16.23-9.08-16.23-9.08s-2.92-3.02-6.64-1.56c-34.86,18.94-42.62,52.86-46.07,63.89
		c-3.45,11.03,4.02,14.99,6.83,19.78c2.71,4.64,10.72,21.61,11.22,22.67c-9.75-14.65-18.61-25.44-22.81-30.35
		c-1.64-1.92-2.57-2.93-2.57-2.93c10.03-55.85,45.45-73.5,50.83-75.88c0.45-0.2,0.69-0.29,0.69-0.29
		c-1.26-8.88,3.92-11.93,3.92-11.93c2.86,4.47,5.88,8.67,9.05,12.63C113.3,89.13,117.25,93.47,121.36,97.5z"/>
	<path class="st4" d="M150.1,119.83c0,0-45.49-24.43-47.89-27.76c-2.4-3.33-9.22,0.42-12.63,3.23
		c-3.41,2.81-34.36,34.13-30.35,67.19c0,0,1.18,6.96,5.09,11.13s27.8,55.01,27.8,55.01s-18.64-48-24.99-57.16
		c-6.35-9.16-8.18-38.92,23.39-75.55c0,0,7.34-6.04,11.08-3.17C105.35,95.61,141.41,117.72,150.1,119.83z"/>
	<g>
		<path class="st5" d="M361.05,437.11c0,0-23.64,13.1-53.79,22.56c0,0-0.01,0-0.04,0.01c-15.94,5.01-33.7,8.97-50.75,9.46
			c-0.13,0.01-0.24,0.02-0.37,0.02c-0.13,0-0.24,0.01-0.37,0.01V388c0,0,0.13-0.02,0.37-0.05c3.69-0.43,33.86-3.68,44.71,6.07
			l0.01,0.01c1.38,4.92,3.08,8.76,4.42,11.43c1.87,3.72,5.57,10.87,12.81,16.78c2.05,1.66,4.36,3.22,7.69,4.92
			C338.11,433.5,352.93,436.06,361.05,437.11z"/>
		<path class="st5" d="M467.13,159.9c0,0-33.85,36.9-52.54,84.36c0,0-21.72-78.25-72.49-70.76c-10.48,1.52-41.67,29.96-86.38,30.8
			v-56.06c0,0,62.63,1.98,114.64-33.89c11.72-8.08,22.88-18.07,32.68-30.44c3.03-3.81,5.91-7.85,8.65-12.13
			c0,0,5.18,3.06,3.91,11.93C415.6,83.73,456.27,99.41,467.13,159.9z"/>
	</g>
	<path class="st5" d="M256.09,387.95c-1.5-0.17-7.36-0.82-14.53-0.86c-7.57-0.04-16.59,0.58-23.44,3.11
		c-2.63,0.97-4.93,2.22-6.72,3.81c-0.01,0.01-0.01,0.01-0.01,0.02l-0.01,0.01c-1.39,4.92-3.08,8.76-4.42,11.43
		c-1.88,3.72-5.57,10.87-12.82,16.78c-2.05,1.66-4.36,3.22-7.69,4.92c-12.36,6.34-27.18,8.89-35.3,9.95c0,0,48.54,26.91,95.23,31.43
		l2.28,0.2c0.07,0.01,0.1,0.01,0.1,0.01c2.33,0.19,4.65,0.32,6.97,0.38c0.13,0.01,0.24,0.02,0.37,0.02c0.13,0,0.24,0.01,0.37,0.01
		V388C256.46,388,256.34,387.99,256.09,387.95z"/>
	<path class="st8" d="M307.21,459.69c-15.94,5.01-33.7,8.97-50.75,9.46v0.02c-0.13,0-0.24-0.01-0.37-0.01
		c-0.13,0-0.24,0.01-0.37,0.01v-0.02c-49.32-1.39-104.58-32.03-104.58-32.03c8.12-1.06,22.94-3.61,35.3-9.95
		c3.34-1.7,5.65-3.26,7.69-4.92c7.25-5.9,10.94-13.06,12.82-16.78c1.34-2.67,3.03-6.5,4.42-11.43l0.01-0.01
		c0.17-0.29,5.69-8.97,39.2-9.84c-0.14,0.04-4.37,1.26-9.02,2.9c-5.91,2.09-12.52,4.91-12.38,6.94c0.25,3.68-14.02,45.17,2.08,59.11
		c4.98,4.32,14.16,6.59,24.45,7.66c0.24,0.02,0.5,0.05,0.74,0.07C278.77,463.09,305.94,459.84,307.21,459.69z"/>
	<path class="st9" d="M248.38,468.73l-2-0.18c-16.41-1.59-33.05-5.94-47.73-10.92c0,0-0.07-0.02-0.21-0.07
		c-26.98-9.18-47.29-20.44-47.29-20.44c8.12-1.06,22.94-3.61,35.3-9.95c3.34-1.7,5.65-3.26,7.69-4.92
		c7.25-5.9,10.94-13.06,12.82-16.78c1-2,2.2-4.65,3.32-7.92c0.01-0.02,0.01-0.02,0.01-0.02c0.38-1.09,0.74-2.26,1.09-3.49l0.01-0.01
		c0.01-0.01,0.01-0.01,0.01-0.02c0.17-0.29,1.85-2.71,8.09-5.09l0.22,0.15c0,0-0.68,0.46-1.59,1.12c-1.42,1.05-3.39,2.63-4.09,3.84
		c-0.16,0.28-0.26,0.54-0.26,0.77c0,1.8-13.19,36.13-5.62,53.55C215.26,464.68,244.73,468.33,248.38,468.73z"/>
	<path class="st10" d="M198.44,457.55c-26.98-9.18-47.29-20.44-47.29-20.44c8.12-1.06,22.94-3.61,35.3-9.95
		c3.34-1.7,5.65-3.26,7.69-4.92c7.25-5.9,10.94-13.06,12.82-16.78c1-2,2.2-4.65,3.32-7.92c-0.17,0.92-5.36,27.18-23.38,32.7
		c0,0-5.14,10.21-2.61,16.64C186.62,452.83,196.86,456.94,198.44,457.55z"/>
	<path class="st11" d="M98.48,220.88c0,2.07-1.53,3.75-3.41,3.75s-3.41-1.68-3.41-3.75c0-2.07,1.53-3.75,3.41-3.75
		S98.48,218.81,98.48,220.88z M77.83,181.11c-1.88,0-3.41,1.68-3.41,3.75s1.53,3.75,3.41,3.75s3.41-1.68,3.41-3.75
		S79.72,181.11,77.83,181.11z M55.31,154.92c-1.86,0.31-3.14,2.22-2.86,4.27c0.28,2.05,2.02,3.45,3.88,3.14
		c1.86-0.31,3.14-2.22,2.86-4.27C58.91,156.01,57.17,154.6,55.31,154.92z M184.29,436.7c-1.88,0-3.41,1.68-3.41,3.75
		s1.53,3.75,3.41,3.75c1.88,0,3.41-1.68,3.41-3.75S186.18,436.7,184.29,436.7z M413.71,220.88c0,2.07,1.53,3.75,3.41,3.75
		c1.88,0,3.41-1.68,3.41-3.75c0-2.07-1.53-3.75-3.41-3.75C415.24,217.14,413.71,218.81,413.71,220.88z M430.95,184.86
		c0,2.07,1.53,3.75,3.41,3.75s3.41-1.68,3.41-3.75s-1.53-3.75-3.41-3.75S430.95,182.79,430.95,184.86z M453,158.05
		c-0.28,2.05,1,3.96,2.86,4.27s3.6-1.09,3.88-3.14s-1-3.96-2.86-4.27C455.02,154.6,453.28,156.01,453,158.05z M324.49,440.45
		c0,2.07,1.53,3.75,3.41,3.75c1.88,0,3.41-1.68,3.41-3.75s-1.53-3.75-3.41-3.75C326.01,436.7,324.49,438.38,324.49,440.45z"/>
	<path class="st8" d="M76.01,235.44c0,0,24.05,82.34-6.76,135.03c-4.97-5.75-9.82-11.84-14.49-18.29
		c-5.6-7.7-10.96-15.92-16.03-24.67c-1.13-1.94-2.23-3.9-3.33-5.9c8.12-12.84,18.63-34.02,19-61.26c0.04-2.93-0.02-6.85-0.76-14.67
		c-1.58-16.9-5.3-41.5-14.9-72.18c7.15,7.3,15.26,16.31,23.5,27.16l0.01,0.01c7.89,10.38,15.92,22.42,23.37,36.26l0.01,0.01
		c0.01,0.01,0.01,0.02,0.01,0.02c3.48,6.46,6.83,13.3,9.99,20.55C95.32,257.04,85.22,242.2,76.01,235.44z"/>
	<path class="st4" d="M58.45,339.82c0,0,19.38-76.98-5.05-138.92c0,0,32.24,62.64,5.48,137.36L58.45,339.82z"/>
	<path class="st7" d="M398.66,84.56c0,0-50.51-36.21-142.2-36.21S116.29,84.56,116.29,84.56s1.89,2.71,3.5,3.85
		c0,0,60.52-35.55,136.67-35.55s137.91,35.55,137.91,35.55S397.09,86.44,398.66,84.56z"/>
	
		<ellipse transform="matrix(0.3205 -0.9473 0.9473 0.3205 157.5762 385.7307)" class="st7" cx="347.64" cy="83.03" rx="18.31" ry="26.47"/>
	
		<ellipse transform="matrix(0.0806 -0.9967 0.9967 0.0806 107.2409 344.734)" class="st0" cx="240.48" cy="114.24" rx="31.15" ry="53.8"/>
	
		<ellipse transform="matrix(0.3205 -0.9473 0.9473 0.3205 130.1719 346.1866)" class="st7" cx="306.38" cy="82.36" rx="8.67" ry="12.53"/>
	
		<ellipse transform="matrix(0.0806 -0.9967 0.9967 0.0806 90.1925 274.603)" class="st0" cx="193.94" cy="88.41" rx="8.52" ry="14.72"/>
	
		<ellipse transform="matrix(0.3205 -0.9473 0.9473 0.3205 159.2681 385.6097)" class="st4" cx="348.41" cy="81.79" rx="13.92" ry="20.12"/>
	<path class="st6" d="M356.56,262.86c-0.25,18.31-12.38,11.65-17.68,8.88c-5.3-2.78-20.44-1.39-26,1.1
		c0.41-0.41,14.45-14.48,23.91-12.39c9.6,2.14-5.05-9.52-16.67-8.41c0,0,13.55-5,22.93,3.87c-0.17-0.37-6.02-12.34-33.6-17.12
		c2.98-0.9,6.38-1.51,10.24-1.74C352.77,235.1,356.56,262.86,356.56,262.86z"/>
	
		<ellipse transform="matrix(0.3205 -0.9473 0.9473 0.3205 130.5961 346.4832)" class="st4" cx="306.8" cy="82.22" rx="6.36" ry="9.19"/>
	<path class="st7" d="M343.41,245.86c0,0,5.11,3.37,9.85,14.59c4.74,11.22-2.84,12.67-2.84,12.67s-9.98-5.34-19.13-5.41
		c0,0-0.14-1.66,18.33,0.99C352.22,269.37,351.7,260.11,343.41,245.86z"/>
	
		<ellipse transform="matrix(0.4248 -0.9053 0.9053 0.4248 -32.7196 445.5848)" class="st7" cx="334.27" cy="248.54" rx="7.03" ry="10.28"/>
	
		<ellipse transform="matrix(0.6689 -0.7434 0.7434 0.6689 -118.3137 232.35)" class="st7" cx="201.65" cy="248.98" rx="6.87" ry="10.52"/>
	
		<ellipse transform="matrix(0.6689 -0.7434 0.7434 0.6689 -118.3137 232.35)" class="st4" cx="201.65" cy="248.98" rx="4.91" ry="7.52"/>
	
		<ellipse transform="matrix(0.4248 -0.9053 0.9053 0.4248 -32.7196 445.5848)" class="st4" cx="334.27" cy="248.54" rx="5.02" ry="7.35"/>
	
		<ellipse transform="matrix(0.1318 -0.9913 0.9913 0.1318 -94.7585 417.0385)" class="st6" cx="190.69" cy="262.61" rx="5.24" ry="7.48"/>
	
		<ellipse transform="matrix(0.1529 -0.9882 0.9882 0.1529 -88.3211 427.7625)" class="st6" cx="205.35" cy="265.4" rx="3.93" ry="4.79"/>
	
		<ellipse transform="matrix(0.9078 -0.4194 0.4194 0.9078 -79.218 160.5235)" class="st6" cx="325.51" cy="260.45" rx="4.84" ry="3.89"/>
	
		<ellipse transform="matrix(0.8664 -0.4993 0.4993 0.8664 -80.6833 190.1224)" class="st6" cx="314.99" cy="245.86" rx="7.62" ry="5.15"/>
	<path class="st6" d="M313.81,350.69c-10.92,7.23-25.87,18.44-58.09,18.44c-1.74,0-3.45-0.04-5.13-0.11
		c5.94-0.63,33.74-4.03,44.88-13.47c-0.47,0.2-12.95,5.4-17.79,4.99c0,0,19.45-8.51,22.34-11.65c-0.73,0.2-31,8.87-44.3,3.63
		c32.32-1,34.97-4.47,46.96-13.21c12-8.74,16.79-1.25,16.79-1.25S324.74,343.47,313.81,350.69z"/>
	<path class="st7" d="M308.39,337.74c0,0,4.53-2.39,9.46,1.14s-8.52,12.9-14.68,15.61c0,0,12.69-9.89,12.98-12.8
		S313.23,338.16,308.39,337.74z"/>
	
		<ellipse transform="matrix(0.7645 -0.6446 0.6446 0.7645 -150.2787 280.0987)" class="st7" cx="308.2" cy="345.72" rx="6.2" ry="4.07"/>
	
		<ellipse transform="matrix(0.7645 -0.6446 0.6446 0.7645 -150.2787 280.0987)" class="st4" cx="308.2" cy="345.72" rx="4.43" ry="2.91"/>
	
		<ellipse transform="matrix(0.9627 -0.2707 0.2707 0.9627 -88.2668 85.8254)" class="st6" cx="267.03" cy="362.93" rx="6.79" ry="4.72"/>
	<path class="st6" d="M481.14,279.78c-0.19,7.76,2.46,12.82,6.11,16.12c6.03,5.46,14.8,6.11,18.03,6.15v0.01
		c0,0-0.56,13.51-10.98,16.03c-10.42,2.52-11.19-0.02-11.19-0.02c4.44,0.31,9.1-2.81,9.1-2.81c-6.34,1.57-16.01-3.43-10.04-1.87
		c5.78,1.51,14.77-3.43,15.31-3.74c-0.55,0.13-8.84,2.05-14.33-1.57c-5.68-3.74-12.51-17.61-13.9-25.11
		c-1.39-7.5,0.13-57.44,1.03-71.18c0.9-13.74,21.7-15.54,21.7-15.54c-4.17-3.46-17.68-2.49-17.68-2.49
		c4.42-2.63,14.53-1.66,14.53-1.66c-2.66-2.36-19.58-2.29-19.58-2.29h-0.56l1.38-4.93c5.54-0.06,22.18,0.08,28.3,3.36
		c7.38,3.95,8.15,16.03,8.15,16.03s-25.95-1.46-25.39,22.27V279.78z"/>
	<path class="st7" d="M471.19,185.71c0,0,16.58-1.18,25.19,2.9c5.49,2.57,8.1,9.49,9.14,14.53c0,0-10.75,0-16.72,4.42
		c0,0,6.16-7.44,13.17-7.02c0,0-0.76-6.87-6.68-10.09C489.37,187.22,480.89,186.13,471.19,185.71z"/>
	<path class="st7" d="M486.15,210.16c0,0-5.11,2.91-5.68,8.22s-0.95,60.56-0.85,62.23c0,0-2.83-22.68-1.52-62.02
		C478.29,213.49,486.15,210.16,486.15,210.16z"/>
	
		<ellipse transform="matrix(0.6696 -0.7427 0.7427 0.6696 17.5652 429.9744)" class="st7" cx="492.06" cy="195.24" rx="6.13" ry="9.4"/>
	
		<ellipse transform="matrix(0.6696 -0.7427 0.7427 0.6696 17.5652 429.9744)" class="st4" cx="492.06" cy="195.24" rx="4.38" ry="6.72"/>
	
		<ellipse transform="matrix(0.3658 -0.9307 0.9307 0.3658 99.2205 581.1516)" class="st7" cx="476.02" cy="217.77" rx="6.86" ry="4.12"/>
	
		<ellipse transform="matrix(0.3658 -0.9307 0.9307 0.3658 99.2205 581.1516)" class="st4" cx="476.02" cy="217.77" rx="4.9" ry="2.94"/>
	
		<ellipse transform="matrix(0.6973 -0.7168 0.7168 0.6973 2.1034 410.1143)" class="st7" cx="486.62" cy="202.57" rx="2.46" ry="3.02"/>
	
		<ellipse transform="matrix(0.6973 -0.7168 0.7168 0.6973 2.1034 410.1143)" class="st4" cx="486.62" cy="202.57" rx="1.76" ry="2.16"/>
	<ellipse class="st0" cx="472.14" cy="247.13" rx="4.39" ry="15.36"/>
	
		<ellipse transform="matrix(0.9007 -0.4344 0.4344 0.9007 -83.4978 238.9816)" class="st0" cx="481.1" cy="302.17" rx="3.43" ry="4.67"/>
	
		<ellipse transform="matrix(0.5552 -0.8317 0.8317 0.5552 41.522 481.8903)" class="st6" cx="471.33" cy="202.12" rx="6.04" ry="3.73"/>
	
		<ellipse transform="matrix(0.6689 -0.7434 0.7434 0.6689 -29.739 337.4809)" class="st12" cx="363.95" cy="202.12" rx="16.5" ry="25.28"/>
	
		<ellipse transform="matrix(0.6696 -0.7427 0.7427 0.6696 -29.8708 337.0969)" class="st4" cx="363.95" cy="202.12" rx="11.21" ry="17.17"/>
	
		<ellipse transform="matrix(0.6689 -0.7434 0.7434 0.6689 -42.7476 349.9577)" class="st12" cx="371.45" cy="222.96" rx="5.02" ry="7.69"/>
	<path class="st4" d="M371.45,222.96l3.76,3.62c-1.22,1.15-3.62,0.83-5.63-0.75c-2.24-1.77-3.25-4.52-2.22-6.1s3.72-1.42,5.97,0.35
		c2.24,1.77,3.25,4.52,2.22,6.1L371.45,222.96z"/>
	<ellipse transform="matrix(0.9994 -0.034 0.034 0.9994 -6.4668 1.0911)" class="st7" cx="28.9" cy="190.96" rx="6.86" ry="4.19"/>
	<ellipse transform="matrix(0.9994 -0.034 0.034 0.9994 -6.4623 1.0979)" class="st4" cx="29.1" cy="190.83" rx="5.03" ry="3.07"/>
	
		<ellipse transform="matrix(0.9997 -0.0255 0.0255 0.9997 -6.4213 1.3288)" class="st0" cx="48.97" cy="252.79" rx="2.23" ry="20.27"/>
	
		<ellipse transform="matrix(0.3183 -0.948 0.948 0.3183 -253.7371 236.8467)" class="st6" cx="37.81" cy="294.85" rx="12.08" ry="5.17"/>
	
		<ellipse transform="matrix(0.9926 -0.1212 0.1212 0.9926 -26.2231 6.4159)" class="st6" cx="39.61" cy="218.71" rx="6.02" ry="13.64"/>
	
		<ellipse transform="matrix(0.9926 -0.1212 0.1212 0.9926 -24.825 5.5957)" class="st6" cx="33.57" cy="206.81" rx="3.01" ry="6.82"/>
	<path class="st4" d="M408.96,85.38c0,0,38.83,17.5,48.68,56.63C457.64,142,450.63,115.95,408.96,85.38z"/>
	
		<ellipse transform="matrix(0.8101 -0.5863 0.5863 0.8101 14.4884 269.7412)" class="st4" cx="423.62" cy="112.51" rx="12.8" ry="22.36"/>
	
		<ellipse transform="matrix(0.8158 -0.5784 0.5784 0.8158 1.8015 266.821)" class="st4" cx="419.74" cy="130.58" rx="5.49" ry="9.01"/>
	
		<ellipse transform="matrix(0.8939 -0.4482 0.4482 0.8939 -11.9816 214.697)" class="st4" cx="447.59" cy="132.66" rx="2.3" ry="5.3"/>
	<path class="st8" d="M370.11,174.45c-2.41-1.84-5.34-3.05-8.38-3.82c-0.6-0.15-1.2-0.28-1.81-0.4c-2.23-0.44-4.46-0.67-6.54-0.76
		c-5.75-0.29-10.34,0.42-10.34,0.42s-0.96-26.22-11.74-23.72c-10.54,2.44-29.59,2.88-30.47,2.89c-0.02,0-0.03,0-0.03,0
		c0.01,0,0.01,0,0.02-0.01c14.88-2.51,28.62-7.77,39.46-12.96c1.74-0.83,3.41-1.66,5-2.49c1.42-0.73,2.77-1.46,4.06-2.16
		c7.81-4.29,12.96-7.85,14.27-8.77c-1.31,1-6.25,5.27-8.8,14.19C351.91,147.07,369.6,173.69,370.11,174.45z"/>
	<path class="st9" d="M359.93,170.23c-2.23-0.44-4.46-0.67-6.54-0.76c-5.75-0.29-10.34,0.42-10.34,0.42s-0.96-26.22-11.74-23.72
		c-10.54,2.44-29.59,2.88-30.47,2.89l-0.01-0.01c14.88-2.51,28.62-7.77,39.46-12.96c1.74-0.83,3.41-1.66,5-2.49
		C346.62,140.86,351.68,165.46,359.93,170.23z"/>
	<path class="st10" d="M361.74,170.63c-0.6-0.15-1.2-0.28-1.81-0.4c-2.23-0.44-4.46-0.67-6.54-0.76v-0.01
		c-2.84-19.71-13.1-33.37-13.1-33.37c1.74-0.83,3.41-1.66,5-2.49c1.42-0.73,2.77-1.46,4.06-2.16
		C345.51,150.89,356.78,165.37,361.74,170.63z"/>
	
		<ellipse transform="matrix(0.4529 -0.8916 0.8916 0.4529 -66.3153 140.4061)" class="st4" cx="81.24" cy="124.24" rx="26.51" ry="10.1"/>
	
		<ellipse transform="matrix(0.4435 -0.8963 0.8963 0.4435 -37.9597 150.4911)" class="st4" cx="102.21" cy="105.81" rx="7.82" ry="3.74"/>
	<path class="st12" d="M54.65,155.9c0,0,2.01-0.94,3.36,0.81c1.35,1.74,0.31,3.43-0.57,4.37c0,0,1.04-1.27,0.36-3.04
		S55.86,155.85,54.65,155.9z"/>
	
		<ellipse transform="matrix(0.9063 -0.4226 0.4226 0.9063 -61.4206 38.8656)" class="st12" cx="56.95" cy="157.97" rx="0.84" ry="1.38"/>
	<path class="st12" d="M76.58,182.14c0,0,2.01-0.94,3.36,0.81s0.31,3.43-0.57,4.37c0,0,1.04-1.27,0.36-3.04
		C79.04,182.51,77.79,182.1,76.58,182.14z"/>
	
		<ellipse transform="matrix(0.9063 -0.4226 0.4226 0.9063 -70.4586 50.5921)" class="st12" cx="78.88" cy="184.22" rx="0.84" ry="1.38"/>
	<path class="st12" d="M93.71,218.42c0,0,2.01-0.94,3.36,0.81c1.35,1.74,0.31,3.43-0.57,4.37c0,0,1.04-1.27,0.36-3.04
		C96.17,218.78,94.93,218.37,93.71,218.42z"/>
	
		<ellipse transform="matrix(0.9063 -0.4226 0.4226 0.9063 -84.1825 61.2294)" class="st12" cx="96.01" cy="220.49" rx="0.84" ry="1.38"/>
	<path class="st12" d="M415.78,218.2c0,0,2.01-0.94,3.36,0.81c1.35,1.74,0.31,3.43-0.57,4.37c0,0,1.04-1.27,0.36-3.04
		C418.24,218.56,416.99,218.15,415.78,218.2z"/>
	
		<ellipse transform="matrix(0.9063 -0.4226 0.4226 0.9063 -53.9184 197.311)" class="st12" cx="418.08" cy="220.27" rx="0.84" ry="1.38"/>
	<path class="st12" d="M433.07,182.2c0,0,2.01-0.94,3.36,0.81s0.31,3.43-0.57,4.37c0,0,1.04-1.27,0.36-3.04
		C435.53,182.57,434.28,182.16,433.07,182.2z"/>
	
		<ellipse transform="matrix(0.9063 -0.4226 0.4226 0.9063 -37.0884 201.2446)" class="st12" cx="435.37" cy="184.28" rx="0.84" ry="1.38"/>
	<path class="st12" d="M455.07,155.88c0,0,2.01-0.94,3.36,0.81c1.35,1.74,0.31,3.43-0.57,4.37c0,0,1.04-1.27,0.36-3.04
		C457.53,156.25,456.28,155.84,455.07,155.88z"/>
	
		<ellipse transform="matrix(0.9063 -0.4226 0.4226 0.9063 -23.9041 208.0756)" class="st12" cx="457.37" cy="157.95" rx="0.84" ry="1.38"/>
	
		<ellipse transform="matrix(0.9746 -0.2242 0.2242 0.9746 -38.4734 117.3827)" class="st12" cx="497.73" cy="228.13" rx="8.4" ry="14.27"/>
	
		<ellipse transform="matrix(0.9747 -0.2234 0.2234 0.9747 -38.3861 116.9611)" class="st4" cx="497.73" cy="228.13" rx="5.71" ry="9.69"/>
	
		<ellipse transform="matrix(0.9746 -0.2242 0.2242 0.9746 -41.8609 116.8171)" class="st12" cx="493.55" cy="242.77" rx="4" ry="6.79"/>
	
		<ellipse transform="matrix(0.9747 -0.2234 0.2234 0.9747 -41.7617 116.3961)" class="st4" cx="493.55" cy="242.77" rx="2.72" ry="4.61"/>
	
		<ellipse transform="matrix(0.8356 -0.5494 0.5494 0.8356 -35.0254 310.7434)" class="st12" cx="501.6" cy="213.88" rx="2.59" ry="4.16"/>
	
		<ellipse transform="matrix(0.836 -0.5487 0.5487 0.836 -35.1097 310.2755)" class="st4" cx="501.6" cy="213.88" rx="1.76" ry="2.83"/>
	
		<ellipse transform="matrix(0.9746 -0.2242 0.2242 0.9746 -49.6209 10.1171)" class="st12" cx="19.75" cy="223.6" rx="8.4" ry="14.27"/>
	
		<ellipse transform="matrix(0.9747 -0.2234 0.2234 0.9747 -49.453 10.0626)" class="st4" cx="19.75" cy="223.6" rx="5.71" ry="9.69"/>
	<path class="st4" d="M213.44,396.2c0,0-14.43,37.45-7.11,49.94c7.32,12.49,14.35,14.53,14.35,14.53s-10.85-8.53-13.69-15.15
		C204.15,438.89,206.2,419.08,213.44,396.2z"/>
	
		<ellipse transform="matrix(0.2429 -0.97 0.97 0.2429 -225.7042 513.3947)" class="st4" cx="216.06" cy="401.3" rx="5.5" ry="2.11"/>
	<path class="st13" d="M448.36,207.56c0,0,15.94-24.17,19.39-25.42c0,0-12.38,46.44-12.57,67.46s6.09,55.87,16.97,71.85
		c0,0-23.22-32.93-20.94-77.19c1.52-30.38,11.51-52.64,11.51-52.64S455.18,199.02,448.36,207.56z"/>
	
		<ellipse transform="matrix(0.9987 -0.0506 0.0506 0.9987 -12.4345 22.9289)" class="st13" cx="447.01" cy="257.25" rx="4.42" ry="19.29"/>
	
		<ellipse transform="matrix(0.1331 -0.9911 0.9911 0.1331 143.6229 645.1291)" class="st13" cx="440.6" cy="240.46" rx="10.18" ry="3.66"/>
	
		<ellipse transform="matrix(0.1331 -0.9911 0.9911 0.1331 175.967 635.4519)" class="st13" cx="451.24" cy="217.14" rx="10.18" ry="3.66"/>
	<path class="st9" d="M415.76,391.35c-0.22,0.22-2.89,2.89-6.74,6.42c-0.03,0.03-0.05,0.06-0.08,0.08c0,0-0.01,0.01-0.01,0.02
		c-2.51,2.28-5.52,4.92-8.67,7.46c-2.93,2.36-5.99,4.64-8.92,6.47c-0.95,0.6-1.88,1.16-2.78,1.65c-0.01,0.01-0.02,0.01-0.02,0.01
		c-1.6,0.87-3.12,1.57-4.53,2.02c0,0,6.01-17.48-17.01-34.55c0,0-15.35,3.98-23.83,6.13c0.93-0.3,7.59-2.57,16.17-8.04
		c0,0,0.01,0,0.01-0.01c0.01,0,0.01-0.01,0.03-0.02c2.6-1.67,5.39-3.64,8.25-5.93c3.18-2.55,6.44-5.52,9.64-8.93
		c0.01-0.01,0.01-0.02,0.01-0.02c5.98-6.42,11.74-14.44,16.33-24.38c-0.19,0.7-6.55,23.12-14.01,29.4
		C372.02,375.52,399.29,404.22,415.76,391.35z"/>
	<path class="st8" d="M415.76,391.35c-0.36,0.37-7.43,7.47-15.51,13.97l-32.62-32.25c9.12-7.33,18.94-18.06,25.98-33.33
		c-0.19,0.7-6.55,23.12-14.01,29.4C372.02,375.52,399.29,404.22,415.76,391.35z"/>
	<path class="st10" d="M408.99,397.78l-0.05,0.06c0,0-0.01,0.01-0.01,0.02c-2.51,2.28-5.52,4.92-8.67,7.46
		c-2.93,2.36-5.99,4.64-8.92,6.47c1.83-1.28,3.95-3.24,4.36-5.58c0.76-4.27-25.19-29.04-28.6-29.24c-3.21-0.2-7.24,1.79-7.72,2.02
		c2.6-1.67,5.39-3.64,8.25-5.93c3.18-2.55,6.44-5.52,9.64-8.93c-0.2,0.39-3.37,6.64-5.82,8.4c-2.52,1.82,25.57,27.76,30.22,27.14
		C406.19,399.04,408.46,398.22,408.99,397.78z"/>
	<path class="st9" d="M62.49,209.85c-7.9-7.16-8.64-7.83-8.71-7.89c0.64,1.19,30.68,57.97,0.98,150.23
		c-6.84-9.41-13.33-19.59-19.36-30.58c8.12-12.84,18.63-34.02,19-61.26c0.04-2.93-0.02-6.85-0.76-14.67
		c-1.58-16.9-5.3-41.5-14.9-72.18c13.99,14.28,31.64,35.12,46.88,63.43C85.1,236.23,71.04,217.62,62.49,209.85z"/>
	<path class="st10" d="M46.99,189.67c0,0,30.43,76.57-8.18,137.71c-1.13-1.94-2.23-3.9-3.33-5.9c8.12-12.84,18.63-34.02,19-61.26
		c0.04-2.93-0.02-6.85-0.76-14.67c-1.58-16.9-5.3-41.5-14.9-72.18c7.15,7.3,15.26,16.31,23.5,27.16
		C61.97,200.22,50.55,190.31,46.99,189.67z"/>
</g>
</svg>
