<?xml version="1.0" encoding="utf-8"?>
<!-- Generator: Adobe Illustrator 27.3.1, SVG Export Plug-In . SVG Version: 6.00 Build 0)  -->
<svg version="1.1" id="Camada_1" xmlns="http://www.w3.org/2000/svg" xmlns:xlink="http://www.w3.org/1999/xlink" x="0px" y="0px"
	 viewBox="0 0 1440 680" style="enable-background:new 0 0 1440 680;" xml:space="preserve">
<style type="text/css">
	.stars0{fill:#00C9FF;}
</style>
<polygon class="stars0" points="620,522.2 618.3,527.6 616.4,522.2 610.9,522.2 615.4,518.9 613.6,513.5 618.3,516.8 622.9,513.5 
	621.2,518.9 625.7,522.3 "/>
<polygon class="stars0" points="428.6,389 422.9,388.7 427.7,385.6 426.3,380.2 430.7,383.8 435.5,380.7 433.4,386 437.7,389.7 
	432.1,389.4 429.9,394.6 "/>
<polygon class="stars0" points="551.1,322.9 550.1,317.3 554.2,321.2 559.1,318.6 556.7,323.7 560.9,327.6 555.2,326.8 552.7,332 
	551.7,326.4 546.1,325.6 "/>
<polygon class="stars0" points="545.7,433.2 540.1,432.2 545.3,429.7 544.5,424.2 548.4,428.3 553.6,425.8 550.9,430.8 554.8,435 
	549.2,434 546.4,438.9 "/>
<polygon class="stars0" points="510.1,401.4 508,401.1 510,400.1 509.7,398 511.2,399.5 513.1,398.6 512.1,400.5 513.6,402.1 
	511.5,401.7 510.4,403.6 "/>
<polygon class="stars0" points="522.9,354.6 520.8,354.3 522.7,353.3 522.5,351.2 524,352.7 525.9,351.8 524.9,353.7 526.4,355.3 
	524.3,354.9 523.2,356.8 "/>
<polygon class="stars0" points="555,367.7 552.8,367.3 554.8,366.4 554.5,364.3 556,365.8 558,364.9 556.9,366.8 558.4,368.4 
	556.3,368 555.2,369.9 "/>
<polygon class="stars0" points="465.6,547.9 469,552.5 463.5,550.8 460.3,555.3 460.2,549.7 454.8,548 460.2,546.2 460.2,540.5 
	463.6,545 469,543.3 "/>
<polygon class="stars0" points="431.9,465.7 437.5,466.8 432.3,469.2 432.9,474.7 429.1,470.5 423.9,472.9 426.7,468 422.9,463.8 
	428.4,464.8 431.3,460 "/>
<polygon class="stars0" points="343.3,512.6 343.6,518.3 340,513.9 334.8,515.8 337.9,511.1 334.3,506.7 339.8,508.2 343,503.4 
	343.3,509.1 348.7,510.6 "/>
<polygon class="stars0" points="441.8,106.9 447.2,108.7 441.7,110.5 441.7,116 438.4,111.5 433,113.2 436.4,108.6 433,104 
	438.4,105.7 441.8,101.2 "/>
<polygon class="stars0" points="394.5,440.3 396.6,441 394.5,441.7 394.5,443.8 393.3,442.1 391.2,442.8 392.5,441 391.2,439.2 
	393.3,439.9 394.6,438.1 "/>
<polygon class="stars0" points="375.5,485 377.6,485.6 375.5,486.3 375.5,488.5 374.3,486.7 372.2,487.4 373.5,485.6 372.2,483.9 
	374.3,484.5 375.6,482.8 "/>
<polygon class="stars0" points="345.6,467.7 347.7,468.4 345.6,469.1 345.6,471.2 344.3,469.4 342.2,470.1 343.5,468.4 342.2,466.6 
	344.3,467.2 345.6,465.5 "/>
<polygon class="stars0" points="930.5,538 930.7,543.7 927.2,539.2 921.9,541 925.1,536.4 921.7,531.9 927.1,533.5 930.4,528.8 
	930.6,534.5 935.9,536.2 "/>
<polygon class="stars0" points="871.2,503.7 868.2,508.5 867.8,502.8 862.4,501.4 867.6,499.4 867.3,493.7 870.9,498.1 876.2,496 
	873.2,500.8 876.7,505.2 "/>
<polygon class="stars0" points="978.3,388.3 981.8,392.8 976.3,391.2 973.1,395.7 973,390.1 967.5,388.4 972.9,386.6 972.8,380.9 
	976.3,385.4 981.6,383.6 "/>
<polygon class="stars0" points="954.6,473.9 955.9,475.6 953.8,475 952.6,476.7 952.6,474.6 950.5,473.9 952.5,473.2 952.5,471 
	953.8,472.8 955.9,472.1 "/>
<polygon class="stars0" points="913.5,499.6 914.8,501.3 912.7,500.7 911.5,502.4 911.4,500.2 909.3,499.6 911.4,498.9 911.4,496.7 
	912.7,498.4 914.7,497.8 "/>
<polygon class="stars0" points="898.8,468.2 900.1,470 898,469.3 896.8,471.1 896.8,468.9 894.7,468.3 896.8,467.6 896.7,465.4 
	898,467.1 900.1,466.4 "/>
<polygon class="stars0" points="467.4,317.4 465.8,318.9 466.2,316.8 464.3,315.7 466.5,315.5 466.9,313.3 467.8,315.3 470,315 
	468.4,316.5 469.3,318.5 "/>
<polygon class="stars0" points="496.9,299.3 495.3,300.8 495.7,298.7 493.8,297.6 495.9,297.4 496.3,295.2 497.3,297.2 499.4,296.9 
	497.9,298.4 498.8,300.4 "/>
<polygon class="stars0" points="498.3,226.7 497.4,224.7 499.3,225.8 500.9,224.4 500.5,226.5 502.3,227.6 500.2,227.8 499.7,229.9 
	498.8,228 496.6,228.1 "/>
<polygon class="stars0" points="505.1,260.6 504.2,258.6 506.1,259.7 507.7,258.3 507.2,260.4 509.1,261.5 506.9,261.7 506.4,263.9 
	505.6,261.9 503.4,262 "/>
<polygon class="stars0" points="510.4,465.4 511.7,467.1 509.6,466.5 508.3,468.3 508.3,466.1 506.2,465.5 508.3,464.8 508.3,462.6 
	509.6,464.3 511.6,463.6 "/>
<polygon class="stars0" points="479.4,269.3 477.2,269.7 478.8,268.1 477.8,266.2 479.7,267.2 481.3,265.7 480.9,267.8 482.9,268.8 
	480.7,269.2 480.3,271.3 "/>
<polygon class="stars0" points="415.4,405.1 413.7,406.3 414.4,404.2 412.7,403 414.8,403 415.5,400.9 416.2,403 418.3,403 
	416.6,404.3 417.2,406.4 "/>
<polygon class="stars0" points="539.9,246.6 539.6,244.5 541.1,246.1 543,245.2 542,247.1 543.5,248.7 541.4,248.2 540.3,250.2 
	540,248 537.9,247.6 "/>
<polygon class="stars0" points="566.2,276.2 568.4,276.7 566.3,277.5 566.5,279.7 565.1,278 563.1,278.9 564.2,277 562.8,275.4 
	564.9,275.8 566.1,274 "/>
<polygon class="stars0" points="434.2,359.2 432,359.2 433.8,357.9 433.1,355.9 434.8,357.1 436.6,355.8 435.9,357.9 437.7,359.2 
	435.5,359.2 434.9,361.3 "/>
<polygon class="stars0" points="1319.3,290.2 1324.9,288.9 1321.2,293.2 1324.1,298 1318.9,295.8 1315.2,300.2 1315.6,294.5 
	1310.4,292.3 1315.9,290.9 1316.4,285.3 "/>
<polygon class="stars0" points="1078,261.6 1081.2,256.9 1081.4,262.6 1086.7,264.2 1081.4,266.1 1081.6,271.8 1078.1,267.2 
	1072.7,269.1 1075.9,264.4 1072.5,259.9 "/>
<polygon class="stars0" points="1006.5,288.2 1010.2,283.8 1009.8,289.5 1014.9,291.7 1009.4,293 1009,298.7 1006,293.8 1000.5,295.1 
	1004.1,290.7 1001.3,285.9 "/>
<polygon class="stars0" points="1040.2,286.2 1041.6,284.5 1041.4,286.7 1043.4,287.6 1041.3,288.1 1041.1,290.2 1040,288.4 
	1037.8,288.9 1039.3,287.2 1038.2,285.3 "/>
<polygon class="stars0" points="1074,321 1075.4,319.3 1075.2,321.5 1077.2,322.4 1075.1,322.9 1074.9,325 1073.8,323.2 1071.6,323.7 
	1073,322 1072,320.1 "/>
<polygon class="stars0" points="1046.4,341.9 1047.9,340.3 1047.7,342.5 1049.6,343.3 1047.5,343.8 1047.4,346 1046.2,344.1 
	1044.1,344.6 1045.5,342.9 1044.4,341.1 "/>
<polygon class="stars0" points="1009.9,630.8 1012.1,625.5 1013.5,631.1 1019,631.5 1014.2,634.5 1015.6,640 1011.2,636.3 
	1006.4,639.3 1008.5,634 1004.2,630.3 "/>
<polygon class="stars0" points="1190.3,270.2 1188.3,264.8 1193.1,268 1197.5,264.6 1195.9,270 1200.6,273.2 1195,273.4 1193.4,278.9 
	1191.4,273.6 1185.7,273.7 "/>
<polygon class="stars0" points="1316,416.1 1320.7,412.8 1318.8,418.2 1323.1,421.7 1317.5,421.5 1315.6,426.8 1314,421.4 
	1308.3,421.2 1313,417.9 1311.5,412.5 "/>
<polygon class="stars0" points="1084.2,483.9 1082.8,478.4 1087.2,482.1 1092,479.2 1089.8,484.4 1094.1,488.1 1088.5,487.6 
	1086.2,492.9 1084.9,487.4 1079.3,486.8 "/>
<polygon class="stars0" points="1227.6,410 1227.1,407.8 1228.8,409.3 1230.6,408.2 1229.8,410.1 1231.4,411.6 1229.2,411.4 
	1228.4,413.4 1227.9,411.3 1225.7,411.1 "/>
<polygon class="stars0" points="1275.6,402.9 1275.1,400.8 1276.8,402.2 1278.6,401.1 1277.8,403.1 1279.4,404.5 1277.2,404.4 
	1276.4,406.4 1275.9,404.3 1273.7,404.1 "/>
<polygon class="stars0" points="1276.5,437.5 1275.9,435.4 1277.6,436.8 1279.4,435.7 1278.6,437.7 1280.3,439.1 1278.1,438.9 
	1277.2,441 1276.7,438.8 1274.6,438.6 "/>
<polygon class="stars0" points="1134.3,292.1 1133.8,290 1135.4,291.4 1137.3,290.3 1136.4,292.3 1138.1,293.7 1135.9,293.5 
	1135,295.5 1134.5,293.4 1132.4,293.2 "/>
<polygon class="stars0" points="1134.9,326.7 1134.4,324.5 1136,326 1137.9,324.9 1137,326.9 1138.7,328.3 1136.5,328.1 1135.6,330.1 
	1135.1,328 1133,327.8 "/>
<polygon class="stars0" points="1196.7,364.8 1198.9,365.1 1196.9,366.1 1197.3,368.2 1195.8,366.8 1193.8,367.8 1194.8,365.8 
	1193.2,364.3 1195.4,364.6 1196.3,362.7 "/>
<polygon class="stars0" points="1164,353.4 1166.2,353.7 1164.3,354.8 1164.7,356.8 1163.1,355.4 1161.2,356.4 1162.1,354.4 
	1160.5,352.9 1162.7,353.2 1163.6,351.3 "/>
<polygon class="stars0" points="1188.7,298 1189.5,296 1190.1,298.1 1192.2,298.3 1190.4,299.4 1190.9,301.5 1189.2,300.1 
	1187.4,301.3 1188.2,299.3 1186.5,297.9 "/>
<polygon class="stars0" points="1169.6,326.8 1170.4,324.8 1170.9,326.9 1173.1,327.1 1171.2,328.2 1171.8,330.3 1170.1,329 
	1168.2,330.1 1169,328.1 1167.4,326.7 "/>
<polygon class="stars0" points="1186.6,410.5 1188.6,411.3 1186.5,411.8 1186.3,414 1185.2,412.1 1183,412.6 1184.5,410.9 
	1183.4,409.1 1185.4,409.9 1186.8,408.3 "/>
<polygon class="stars0" points="1158.4,390.5 1160.4,391.3 1158.2,391.8 1158,394 1156.9,392.1 1154.8,392.6 1156.2,390.9 
	1155.1,389.1 1157.1,389.9 1158.6,388.3 "/>
<polygon class="stars0" points="1119.5,398.2 1118,399.7 1118.3,397.6 1116.4,396.6 1118.5,396.2 1118.8,394.1 1119.8,396 1122,395.6 
	1120.5,397.2 1121.5,399.1 "/>
<polygon class="stars0" points="1137.7,418.4 1138.8,420.2 1136.8,419.4 1135.4,421 1135.6,418.9 1133.5,418.1 1135.7,417.5 
	1135.8,415.4 1137,417.2 1139.1,416.7 "/>
<polygon class="stars0" points="149.4,630.9 151.2,636.3 146.6,633 142,636.2 143.8,630.8 139.2,627.5 144.9,627.5 146.7,622.1 
	148.5,627.5 154.1,627.6 "/>
<polygon class="stars0" points="26.8,424.1 23.2,419.7 28.8,421.2 31.9,416.6 32.1,422.2 37.6,423.8 32.2,425.7 32.4,431.4 28.9,427 
	23.6,428.9 "/>
<polygon class="stars0" points="140.9,487.2 139.4,492.7 137.4,487.3 131.9,487.5 136.3,484.1 134.3,478.7 139,481.9 143.5,478.4 
	142,483.9 146.7,487.1 "/>
<polygon class="stars0" points="1365,86.8 1361.9,82 1367.2,84.2 1370.8,79.9 1370.4,85.5 1375.7,87.7 1370.2,89 1369.7,94.7 
	1366.7,89.9 1361.2,91.2 "/>
<polygon class="stars0" points="35.2,548.6 34,546.7 36,547.6 37.4,545.9 37.3,548.1 39.3,548.9 37.2,549.4 37,551.6 35.8,549.8 
	33.7,550.2 "/>
<polygon class="stars0" points="180.3,471.3 182.1,472.6 179.9,472.6 179.2,474.6 178.5,472.6 176.3,472.5 178.1,471.3 177.5,469.2 
	179.2,470.5 181,469.2 "/>
<polygon class="stars0" points="169.6,439 171.4,440.3 169.2,440.2 168.5,442.3 167.8,440.2 165.6,440.2 167.4,438.9 166.8,436.8 
	168.5,438.1 170.3,436.9 "/>
<polygon class="stars0" points="286.6,422.3 282.2,418.6 288,419 290,413.8 291.4,419.3 297.1,419.7 292.3,422.7 293.7,428.2 
	289.3,424.6 284.5,427.6 "/>
<polygon class="stars0" points="84.7,383.1 79,383.4 83.5,379.8 81.5,374.6 86.2,377.7 90.7,374.1 89.1,379.6 93.9,382.8 88.2,383.1 
	86.6,388.5 "/>
<polygon class="stars0" points="255.6,231.1 253.9,225.6 258.5,229.1 263.1,225.9 261.2,231.2 265.8,234.7 260.1,234.5 258.2,239.9 
	256.5,234.5 250.9,234.3 "/>
<polygon class="stars0" points="233.3,388.4 238.7,386.6 235.3,391.2 238.6,395.8 233.2,394 229.8,398.6 229.9,392.9 224.5,391.1 
	229.9,389.3 230,383.7 "/>
<polygon class="stars0" points="102.8,631 104.8,630.3 103.5,632.1 104.8,633.9 102.7,633.2 101.4,634.9 101.5,632.8 99.4,632 
	101.4,631.4 101.5,629.2 "/>
<polygon class="stars0" points="230.9,357.7 228.8,357.5 230.6,356.3 230.1,354.3 231.8,355.7 233.6,354.5 232.8,356.5 234.5,357.9 
	232.3,357.8 231.4,359.8 "/>
<polygon class="stars0" points="264.2,367.2 262,367.1 263.9,365.9 263.4,363.9 265,365.2 266.9,364.1 266,366.1 267.7,367.5 
	265.5,367.4 264.7,369.4 "/>
<polygon class="stars0" points="213.5,529.3 215.6,528.7 214.3,530.5 215.5,532.2 213.5,531.5 212.2,533.3 212.2,531.1 210.2,530.4 
	212.2,529.7 212.3,527.5 "/>
<polygon class="stars0" points="179.1,532.5 181.2,531.8 179.9,533.6 181.1,535.3 179,534.6 177.7,536.4 177.8,534.2 175.7,533.5 
	177.8,532.8 177.8,530.7 "/>
<polygon class="stars0" points="145.5,596.9 145.4,599.1 144.2,597.2 142.2,597.8 143.5,596.1 142.3,594.3 144.4,595.1 145.8,593.4 
	145.7,595.6 147.7,596.4 "/>
<polygon class="stars0" points="154.5,563.5 154.4,565.7 153.2,563.8 151.1,564.4 152.5,562.7 151.3,560.9 153.4,561.7 154.7,560 
	154.6,562.1 156.6,563 "/>
<polygon class="stars0" points="211.6,584.1 213.7,584.7 211.6,585.5 211.6,587.6 210.3,585.8 208.2,586.5 209.5,584.8 208.2,583 
	210.3,583.6 211.6,581.9 "/>
<polygon class="stars0" points="181.4,567.1 183.5,567.7 181.4,568.5 181.5,570.6 180.2,568.8 178.1,569.5 179.4,567.8 178.1,566 
	180.2,566.6 181.4,564.9 "/>
<polygon class="stars0" points="99.3,590.1 98.5,592.2 97.9,590.1 95.8,590.1 97.5,588.8 96.9,586.7 98.6,588.1 100.4,586.8 
	99.7,588.9 101.5,590.2 "/>
<polygon class="stars0" points="117.1,560.5 116.4,562.6 115.8,560.5 113.7,560.4 115.4,559.2 114.8,557.1 116.5,558.4 118.3,557.2 
	117.6,559.3 119.3,560.6 "/>
<polygon class="stars0" points="106.7,522.4 105,521 107.2,521.1 108,519.1 108.5,521.2 110.7,521.3 108.8,522.5 109.4,524.6 
	107.7,523.3 105.9,524.4 "/>
<polygon class="stars0" points="87.8,541.9 86.1,543.2 86.7,541.1 85,539.9 87.2,539.9 87.8,537.8 88.5,539.9 90.7,539.9 89,541.2 
	89.6,543.2 "/>
<polygon class="stars0" points="494,576.8 495.5,575.1 495.3,577.3 497.2,578.1 495.1,578.6 495,580.8 493.8,578.9 491.7,579.4 
	493.1,577.7 492,575.9 "/>
<polygon class="stars0" points="260.3,477.3 261.7,475.7 261.6,477.9 263.5,478.7 261.4,479.2 261.2,481.4 260.1,479.5 258,480 
	259.4,478.3 258.3,476.5 "/>
<polygon class="stars0" points="256,516.7 257,518.6 255,517.7 253.6,519.2 253.8,517.1 251.9,516.2 254,515.7 254.3,513.6 
	255.3,515.5 257.5,515.1 "/>
<polygon class="stars0" points="280.7,505.5 282.8,504.9 281.4,506.6 282.6,508.4 280.5,507.6 279.2,509.3 279.3,507.1 277.3,506.3 
	279.4,505.8 279.5,503.6 "/>
<polygon class="stars0" points="558.9,505.5 560.3,503.8 560.2,506 562.1,506.9 560,507.3 559.8,509.5 558.7,507.7 556.6,508.1 
	558,506.5 556.9,504.6 "/>
<polygon class="stars0" points="531.4,526.4 532.8,524.7 532.6,526.9 534.6,527.8 532.5,528.3 532.3,530.4 531.2,528.6 529,529.1 
	530.4,527.4 529.3,525.5 "/>
<polygon class="stars0" points="527,565.7 528.1,567.7 526.1,566.7 524.6,568.3 524.9,566.1 522.9,565.2 525,564.8 525.3,562.6 
	526.4,564.5 528.5,564.2 "/>
<polygon class="stars0" points="551.7,554.5 553.8,554 552.4,555.7 553.6,557.5 551.6,556.7 550.2,558.4 550.3,556.2 548.3,555.4 
	550.4,554.8 550.6,552.7 "/>
<polygon class="stars0" points="300.2,546.5 299.3,544.5 301.2,545.6 302.8,544.2 302.3,546.3 304.2,547.4 302,547.6 301.6,549.7 
	300.7,547.8 298.5,548 "/>
<polygon class="stars0" points="307.4,580.3 306.5,578.3 308.4,579.4 310,578 309.5,580.1 311.4,581.2 309.3,581.4 308.8,583.6 
	307.9,581.6 305.7,581.8 "/>
<polygon class="stars0" points="341.1,601 343.3,600.8 341.6,602.3 342.4,604.2 340.6,603.1 338.9,604.5 339.4,602.4 337.6,601.2 
	339.8,601 340.3,599 "/>
<polygon class="stars0" points="341.5,573.9 341.9,571.7 342.8,573.7 344.9,573.4 343.4,574.9 344.3,576.9 342.4,575.8 340.8,577.3 
	341.2,575.2 339.3,574.1 "/>
<polygon class="stars0" points="287.8,631.4 292.3,634.9 286.6,634.7 284.7,639.9 283.1,634.5 277.4,634.3 282.1,631.1 280.6,625.6 
	285.1,629.1 289.8,626 "/>
<polygon class="stars0" points="1218.8,334.1 1224.5,333.6 1220.1,337.3 1222.2,342.5 1217.4,339.5 1213.1,343.2 1214.4,337.7 
	1209.6,334.7 1215.3,334.2 1216.7,328.7 "/>
<polygon class="stars0" points="387.1,322 388.9,327.4 384.2,324 379.7,327.3 381.4,322 376.8,318.7 382.5,318.6 384.2,313.2 
	386.1,318.6 391.7,318.6 "/>
<polygon class="stars0" points="180.5,115.2 175.1,117.1 178.3,112.4 175,108 180.4,109.6 183.6,104.9 183.7,110.6 189.2,112.3 
	183.8,114.2 183.9,119.8 "/>
<polygon class="stars0" points="66.6,481.2 64.6,481.9 65.8,480.1 64.5,478.4 66.6,479 67.9,477.2 67.9,479.4 70,480.1 67.9,480.8 
	68,482.9 "/>
<polygon class="stars0" points="195.2,606.2 197.4,606.3 195.6,607.5 196.2,609.6 194.5,608.2 192.6,609.5 193.4,607.4 191.7,606.1 
	193.9,606.1 194.7,604.1 "/>
<polygon class="stars0" points="161.7,597.7 163.9,597.7 162.1,599 162.6,601 160.9,599.7 159.1,600.9 159.9,598.9 158.2,597.5 
	160.4,597.6 161.1,595.6 "/>
<polygon class="stars0" points="286.5,452.1 287.9,450.5 287.7,452.7 289.7,453.5 287.6,454 287.4,456.2 286.3,454.3 284.1,454.8 
	285.5,453.1 284.4,451.3 "/>
<polygon class="stars0" points="337.7,382.4 339.1,380.7 338.9,382.9 340.9,383.7 338.8,384.2 338.6,386.4 337.5,384.5 335.3,385 
	336.7,383.3 335.6,381.5 "/>
<polygon class="stars0" points="310.1,403.3 311.5,401.6 311.4,403.8 313.3,404.6 311.2,405.1 311,407.3 309.9,405.4 307.8,405.9 
	309.2,404.3 308.1,402.4 "/>
<polygon class="stars0" points="305.7,442.6 306.8,444.5 304.8,443.6 303.4,445.1 303.6,443 301.6,442.1 303.8,441.7 304.1,439.5 
	305.1,441.4 307.3,441 "/>
<polygon class="stars0" points="330.5,431.4 332.6,430.8 331.2,432.5 332.3,434.3 330.3,433.5 328.9,435.2 329.1,433.1 327,432.2 
	329.1,431.7 329.3,429.5 "/>
<polygon class="stars0" points="412.2,575.2 410.3,574.2 412.5,573.8 412.8,571.7 413.8,573.6 415.9,573.3 414.4,574.8 415.4,576.8 
	413.4,575.8 411.9,577.3 "/>
<polygon class="stars0" points="327.2,529.8 325.3,528.8 327.4,528.4 327.8,526.3 328.8,528.2 330.9,527.9 329.4,529.4 330.4,531.4 
	328.4,530.4 326.9,531.9 "/>
<polygon class="stars0" points="354.3,551.3 352.3,550.4 354.5,550 354.8,547.9 355.8,549.8 358,549.4 356.4,551 357.4,552.9 
	355.5,552 353.9,553.5 "/>
<polygon class="stars0" points="393.5,545.9 395.1,544.4 394.7,546.6 396.5,547.6 394.4,547.9 394,550 393.1,548 390.9,548.3 
	392.5,546.8 391.6,544.8 "/>
<polygon class="stars0" points="376.5,524.7 375.5,522.8 377.5,523.7 378.9,522.2 378.7,524.3 380.6,525.2 378.5,525.6 378.2,527.8 
	377.1,525.9 375,526.3 "/>
<polygon class="stars0" points="80.9,107.1 86.4,108.6 81.1,110.6 81.4,116.2 77.8,111.8 72.5,113.9 75.6,109.1 72,104.7 77.5,106.1 
	80.7,101.4 "/>
<polygon class="stars0" points="31.4,154.5 35.3,158.8 29.6,157.6 26.8,162.4 26.3,156.8 20.7,155.5 25.9,153.3 25.4,147.6 29.2,151.8 
	34.4,149.6 "/>
<polygon class="stars0" points="39.2,112.8 41.2,112 40.1,113.9 41.4,115.5 39.3,115 38.1,116.8 38,114.6 35.9,114 37.9,113.2 
	37.8,111.1 "/>
<polygon class="stars0" points="551.1,62.8 552,57.1 554.6,62.2 560.1,61.3 556.2,65.3 558.8,70.3 553.7,67.8 549.7,71.9 550.5,66.2 
	545.5,63.6 "/>
<polygon class="stars0" points="417.2,644.9 422.9,644.3 418.7,648.1 420.9,653.2 416,650.4 411.8,654.2 413,648.6 408.1,645.8 
	413.7,645.1 415,639.6 "/>
<polygon class="stars0" points="102.7,280.5 104.2,274.9 106.2,280.3 111.8,280 107.4,283.5 109.5,288.9 104.7,285.8 100.3,289.3 
	101.7,283.8 97,280.7 "/>
<polygon class="stars0" points="132.1,264.1 132.7,261.9 133.5,264 135.6,263.9 134,265.2 134.7,267.3 132.9,266.1 131.2,267.5 
	131.8,265.4 130,264.1 "/>
<polygon class="stars0" points="177.7,280.7 178.3,278.6 179.1,280.6 181.2,280.5 179.5,281.9 180.3,283.9 178.5,282.7 176.8,284.1 
	177.3,282 175.5,280.8 "/>
<polygon class="stars0" points="162,311.5 162.6,309.4 163.4,311.4 165.5,311.3 163.8,312.7 164.6,314.7 162.8,313.5 161.1,314.9 
	161.6,312.8 159.9,311.6 "/>
<polygon class="stars0" points="106,116 106.6,113.9 107.4,115.9 109.5,115.8 107.8,117.2 108.6,119.2 106.7,118 105,119.4 
	105.6,117.3 103.8,116.1 "/>
<polygon class="stars0" points="90.1,146.7 90.7,144.6 91.5,146.7 93.6,146.6 91.9,147.9 92.7,150 90.9,148.7 89.1,150.1 89.7,148 
	87.9,146.8 "/>
<polygon class="stars0" points="126.4,209.6 128.2,210.9 126,210.9 125.3,213 124.6,210.9 122.5,210.9 124.2,209.6 123.5,207.6 
	125.3,208.8 127.1,207.6 "/>
<polygon class="stars0" points="103.1,184.1 104.8,185.4 102.6,185.4 102,187.4 101.3,185.4 99.1,185.4 100.9,184.1 100.2,182 
	102,183.3 103.7,182 "/>
<polygon class="stars0" points="151.1,147.1 152.8,145.7 152.2,147.8 154,148.9 151.9,149.1 151.4,151.2 150.6,149.2 148.4,149.3 
	150,147.9 149.2,145.9 "/>
<polygon class="stars0" points="120.6,163.3 122.2,161.9 121.7,164.1 123.5,165.2 121.4,165.4 120.8,167.5 120,165.5 117.8,165.6 
	119.5,164.2 118.7,162.2 "/>
<polygon class="stars0" points="95.8,245 97.2,246.7 95.1,246.2 93.9,247.9 93.8,245.8 91.7,245.2 93.7,244.4 93.6,242.2 95,243.9 
	97,243.2 "/>
<polygon class="stars0" points="80.5,214 81.8,215.7 79.7,215.2 78.5,216.9 78.4,214.8 76.3,214.2 78.4,213.4 78.3,211.2 79.7,212.9 
	81.7,212.2 "/>
<polygon class="stars0" points="42.7,202.3 40.6,203 41.9,201.2 40.6,199.5 42.7,200.2 43.9,198.4 43.9,200.6 46,201.3 44,202 
	43.9,204.1 "/>
<polygon class="stars0" points="49,228.7 49.2,230.9 47.8,229.2 45.8,230 46.9,228.2 45.5,226.5 47.6,227 48.8,225.2 49,227.4 
	51.1,227.9 "/>
<polygon class="stars0" points="54.6,287 56,288.7 53.9,288.1 52.7,289.9 52.6,287.7 50.5,287.1 52.6,286.4 52.5,284.2 53.8,285.9 
	55.9,285.1 "/>
<polygon class="stars0" points="16.8,275.3 14.8,275.9 16,274.2 14.8,272.4 16.8,273.1 18.1,271.3 18.1,273.5 20.2,274.2 18.1,274.9 
	18.1,277 "/>
<polygon class="stars0" points="23.2,301.7 23.3,303.8 21.9,302.2 19.9,302.9 21.1,301.1 19.7,299.4 21.8,300 23,298.1 23.2,300.3 
	25.2,300.9 "/>
<polygon class="stars0" points="74.5,317.4 75.8,319.1 73.7,318.5 72.5,320.3 72.4,318.1 70.3,317.5 72.4,316.8 72.3,314.6 73.7,316.3 
	75.7,315.6 "/>
<polygon class="stars0" points="1160.1,517.1 1164.3,513.3 1163.1,518.9 1167.9,521.7 1162.3,522.3 1161.1,527.8 1158.8,522.6 
	1153.1,523.1 1157.4,519.3 1155.2,514.1 "/>
<polygon class="stars0" points="1172.1,584.5 1177.7,583.7 1173.6,587.7 1176,592.7 1171.1,590.1 1167,594 1168,588.4 1162.9,585.7 
	1168.6,584.9 1169.6,579.4 "/>
<polygon class="stars0" points="1141.7,554.9 1142.1,552.8 1143,554.8 1145.1,554.6 1143.5,556 1144.4,558.1 1142.5,556.9 
	1140.9,558.4 1141.3,556.2 1139.5,555.1 "/>
<polygon class="stars0" points="1299.9,520.7 1295.6,516.9 1301.3,517.5 1303.6,512.5 1304.8,518 1310.5,518.6 1305.5,521.4 
	1306.7,527 1302.4,523.2 1297.5,525.9 "/>
<polygon class="stars0" points="1400,525.6 1402.7,520.5 1403.5,526.2 1409,527.2 1403.9,529.6 1404.7,535.3 1400.8,531.2 
	1395.6,533.7 1398.2,528.6 1394.4,524.5 "/>
<polygon class="stars0" points="1316.4,595.2 1312.6,590.9 1318.2,592.1 1321,587.4 1321.6,593 1327.1,594.2 1321.9,596.5 
	1322.4,602.1 1318.6,597.9 1313.4,600 "/>
<polygon class="stars0" points="1319.1,561.6 1317.6,559.9 1319.8,560.4 1320.9,558.6 1321.1,560.7 1323.2,561.2 1321.2,562.1 
	1321.4,564.2 1319.9,562.6 1317.9,563.5 "/>
<polygon class="stars0" points="1358.2,532.9 1356.7,531.3 1358.9,531.7 1360,529.9 1360.2,532 1362.3,532.5 1360.3,533.4 
	1360.5,535.6 1359,533.9 1357.1,534.8 "/>
<polygon class="stars0" points="1375.1,563 1373.7,561.4 1375.8,561.9 1376.9,560.1 1377.1,562.2 1379.3,562.7 1377.3,563.5 
	1377.4,565.7 1376,564.1 1374,564.9 "/>
<polygon class="stars0" points="1181.4,501.1 1180,499.5 1182.1,500 1183.2,498.2 1183.4,500.3 1185.5,500.8 1183.5,501.6 
	1183.7,503.8 1182.2,502.2 1180.2,503 "/>
<polygon class="stars0" points="1198.1,531.4 1196.7,529.8 1198.8,530.3 1199.9,528.4 1200.1,530.6 1202.3,531.1 1200.2,531.9 
	1200.4,534.1 1199,532.5 1197,533.3 "/>
<polygon class="stars0" points="1270.6,536.2 1272.7,535.4 1271.5,537.2 1272.8,538.9 1270.7,538.3 1269.5,540.1 1269.4,538 
	1267.3,537.4 1269.3,536.6 1269.3,534.4 "/>
<polygon class="stars0" points="1236.4,541.4 1238.5,540.6 1237.3,542.5 1238.6,544.1 1236.5,543.5 1235.3,545.4 1235.2,543.2 
	1233.1,542.6 1235.1,541.8 1235.1,539.7 "/>
<polygon class="stars0" points="1232.3,480.9 1232,478.7 1233.5,480.3 1235.5,479.5 1234.4,481.3 1235.9,483 1233.7,482.5 
	1232.7,484.4 1232.4,482.2 1230.3,481.8 "/>
<polygon class="stars0" points="1228.9,515.3 1228.6,513.1 1230.1,514.8 1232.1,513.9 1231,515.8 1232.5,517.4 1230.3,516.9 
	1229.2,518.8 1229,516.7 1226.9,516.2 "/>
<polygon class="stars0" points="1283.1,581.2 1285.3,581.1 1283.6,582.5 1284.4,584.5 1282.6,583.3 1280.9,584.8 1281.4,582.6 
	1279.6,581.5 1281.7,581.3 1282.3,579.2 "/>
<polygon class="stars0" points="1248.8,576.8 1250.9,576.6 1249.3,578.1 1250.1,580 1248.3,578.9 1246.6,580.3 1247.1,578.2 
	1245.2,577 1247.4,576.9 1247.9,574.8 "/>
<polygon class="stars0" points="1218.1,601.8 1217.5,603.9 1216.7,601.8 1214.6,601.9 1216.3,600.5 1215.5,598.5 1217.3,599.7 
	1219,598.4 1218.5,600.5 1220.2,601.7 "/>
<polygon class="stars0" points="1243.5,611.1 1245.4,612.2 1243.3,612.4 1242.8,614.5 1241.9,612.5 1239.8,612.8 1241.4,611.3 
	1240.5,609.3 1242.4,610.4 1244,609 "/>
<polygon class="stars0" points="1295.1,638.8 1297.3,638.6 1295.6,640 1296.4,642 1294.6,640.9 1292.9,642.3 1293.4,640.2 1291.6,639 
	1293.7,638.8 1294.3,636.7 "/>
<polygon class="stars0" points="1264.4,663.7 1263.8,665.8 1263,663.8 1260.9,663.8 1262.6,662.5 1261.8,660.5 1263.6,661.7 
	1265.4,660.3 1264.8,662.4 1266.6,663.6 "/>
<polygon class="stars0" points="1289.9,673.1 1291.8,674.2 1289.6,674.4 1289.1,676.5 1288.3,674.5 1286.1,674.7 1287.7,673.3 
	1286.8,671.3 1288.7,672.4 1290.3,670.9 "/>
<polygon class="stars0" points="1331.4,639.2 1333.6,639 1331.9,640.4 1332.7,642.4 1330.9,641.3 1329.2,642.7 1329.7,640.6 
	1327.9,639.4 1330.1,639.2 1330.6,637.1 "/>
<polygon class="stars0" points="700.5,548.6 696.8,544.3 702.4,545.7 705.4,541 705.8,546.6 711.3,548 706,550.1 706.4,555.8 
	702.7,551.4 697.4,553.5 "/>
<polygon class="stars0" points="858.2,669.2 857.6,663.5 861.5,667.7 866.5,665.5 863.7,670.4 867.6,674.6 862,673.4 859.2,678.3 
	858.5,672.7 853,671.5 "/>
<polygon class="stars0" points="737.8,568.1 735.7,567.6 737.8,566.8 737.6,564.6 739,566.3 741,565.5 739.9,567.3 741.2,569 
	739.1,568.5 737.9,570.3 "/>
<polygon class="stars0" points="597.6,640.4 593.7,644.5 594.4,638.8 589.4,636.4 594.9,635.4 595.7,629.7 598.4,634.8 604,633.8 
	600.1,637.9 602.7,642.9 "/>
<polygon class="stars0" points="821.4,321 816.4,318.2 822.1,317.5 823.3,312.1 825.6,317.2 831.3,316.6 827,320.4 829.4,325.6 
	824.4,322.8 820.2,326.6 "/>
<polygon class="stars0" points="752.4,386.3 748,390 749.4,384.4 744.7,381.4 750.3,381.1 751.7,375.6 753.8,380.9 759.5,380.5 
	755.2,384.2 757.2,389.4 "/>
<polygon class="stars0" points="718.9,382.7 717.2,384.1 717.7,382 715.9,380.8 718.1,380.7 718.6,378.6 719.4,380.6 721.6,380.5 
	719.9,381.9 720.7,383.9 "/>
<polygon class="stars0" points="691.3,342.8 689.6,344.2 690.1,342.1 688.3,340.9 690.5,340.8 691,338.7 691.8,340.7 694,340.6 
	692.4,342 693.1,344 "/>
<polygon class="stars0" points="752.4,335 750.8,336.4 751.3,334.2 749.5,333.1 751.7,332.9 752.2,330.8 753,332.9 755.2,332.7 
	753.5,334.1 754.3,336.1 "/>
<polygon class="stars0" points="685.2,526.9 683.5,528.3 684,526.2 682.2,525 684.4,524.9 684.9,522.8 685.7,524.8 687.9,524.7 
	686.2,526.1 687,528.1 "/>
<polygon class="stars0" points="715.9,511 714.2,512.4 714.8,510.3 713,509.1 715.1,509 715.7,506.9 716.5,508.9 718.7,508.8 
	717,510.2 717.7,512.2 "/>
<polygon class="stars0" points="722.7,438.7 721.9,436.6 723.7,437.9 725.5,436.6 724.8,438.7 726.6,439.9 724.4,440 723.8,442 
	723.1,440 720.9,440 "/>
<polygon class="stars0" points="726.9,473 726.2,471 728,472.2 729.7,470.9 729.1,473 730.9,474.2 728.7,474.3 728.1,476.4 
	727.3,474.3 725.2,474.3 "/>
<polygon class="stars0" points="666.3,475.5 664.2,475.7 665.8,474.2 665,472.2 666.9,473.4 668.5,471.9 668,474.1 669.9,475.2 
	667.7,475.4 667.2,477.5 "/>
<polygon class="stars0" points="700.7,479.8 698.5,480 700.1,478.6 699.3,476.6 701.2,477.7 702.8,476.3 702.3,478.4 704.2,479.6 
	702,479.8 701.5,481.9 "/>
<polygon class="stars0" points="737.5,419.2 737.4,417 738.8,418.7 740.8,418 739.6,419.8 741,421.5 738.9,420.9 737.7,422.7 
	737.6,420.6 735.5,420 "/>
<polygon class="stars0" points="762.7,461.7 762.6,459.5 763.9,461.2 765.9,460.4 764.8,462.2 766.1,463.9 764,463.4 762.8,465.2 
	762.7,463 760.6,462.4 "/>
<polygon class="stars0" points="786.8,493.1 788.9,493.7 786.8,494.4 786.8,496.5 785.5,494.8 783.4,495.5 784.7,493.7 783.4,492 
	785.5,492.6 786.8,490.9 "/>
<polygon class="stars0" points="796.8,467.8 798,466 798.2,468.2 800.2,468.7 798.2,469.5 798.4,471.7 797,470 795,470.8 796.1,469 
	794.7,467.3 "/>
<polygon class="stars0" points="795.4,408.8 795.2,406.6 796.6,408.3 798.6,407.6 797.4,409.4 798.8,411.1 796.7,410.5 795.5,412.3 
	795.4,410.2 793.3,409.6 "/>
<polygon class="stars0" points="850,448.5 852.1,449.1 850,449.8 850,452 848.7,450.2 846.7,450.9 847.9,449.2 846.6,447.4 848.7,448 
	850,446.3 "/>
<polygon class="stars0" points="829.5,415 830.7,413.1 830.8,415.3 832.9,415.8 830.9,416.6 831.1,418.8 829.7,417.2 827.6,418 
	828.8,416.1 827.4,414.4 "/>
<polygon class="stars0" points="796.8,372.5 796.6,370.3 798,372 800,371.3 798.9,373.1 800.2,374.8 798.1,374.2 796.9,376 
	796.8,373.9 794.7,373.3 "/>
<polygon class="stars0" points="883.2,579.5 882.6,577.4 884.3,578.8 886.1,577.7 885.3,579.7 887,581.1 884.8,581 884,583 
	883.4,580.9 881.3,580.7 "/>
<polygon class="stars0" points="852.3,534.4 854.4,534.7 852.5,535.7 852.9,537.8 851.3,536.3 849.4,537.4 850.3,535.4 848.8,533.9 
	850.9,534.2 851.9,532.2 "/>
<polygon class="stars0" points="842.2,580.1 844.2,580.9 842,581.4 841.8,583.5 840.7,581.7 838.6,582.2 840,580.5 838.9,578.6 
	840.9,579.5 842.4,577.9 "/>
<polygon class="stars0" points="813.9,560.1 815.9,560.9 813.8,561.4 813.6,563.5 812.5,561.7 810.3,562.2 811.8,560.5 810.7,558.6 
	812.7,559.5 814.1,557.9 "/>
<polygon class="stars0" points="793.2,587.9 794.4,589.8 792.4,589 791,590.6 791.1,588.4 789.1,587.6 791.2,587.1 791.4,584.9 
	792.6,586.8 794.7,586.3 "/>
<polygon class="stars0" points="1214.3,437.9 1212.8,436.4 1214.9,436.7 1215.9,434.9 1216.2,437 1218.4,437.4 1216.4,438.3 
	1216.7,440.5 1215.2,438.9 1213.2,439.9 "/>
<polygon class="stars0" points="1164.7,414.7 1166.8,413.8 1165.6,415.7 1167,417.3 1164.9,416.9 1163.8,418.7 1163.6,416.6 
	1161.5,416.1 1163.5,415.2 1163.3,413 "/>
<polygon class="stars0" points="1179.2,459.2 1181.4,458.9 1179.8,460.4 1180.7,462.3 1178.8,461.3 1177.2,462.8 1177.6,460.7 
	1175.7,459.6 1177.8,459.3 1178.3,457.2 "/>
<polygon class="stars0" points="1144.7,456.3 1146.9,456 1145.3,457.5 1146.2,459.4 1144.3,458.4 1142.7,459.9 1143.1,457.7 
	1141.2,456.7 1143.4,456.4 1143.8,454.3 "/>
<polygon class="stars0" points="1141,490.8 1143,491.8 1140.8,492.1 1140.4,494.2 1139.5,492.3 1137.3,492.6 1138.9,491.1 
	1137.9,489.1 1139.8,490.1 1141.4,488.6 "/>
<polygon class="stars0" points="891.6,338.2 891.5,336 892.8,337.7 894.8,336.9 893.7,338.7 895,340.4 892.9,339.9 891.7,341.7 
	891.6,339.5 889.5,338.9 "/>
<polygon class="stars0" points="893,301.9 892.9,299.7 894.3,301.4 896.2,300.6 895.1,302.4 896.4,304.1 894.3,303.6 893.1,305.4 
	893,303.2 890.9,302.6 "/>
<polygon class="stars0" points="1312.9,326.7 1314.9,325.9 1313.7,327.7 1315,329.4 1313,328.8 1311.8,330.7 1311.7,328.5 
	1309.6,327.9 1311.6,327.1 1311.5,324.9 "/>
<polygon class="stars0" points="1353.7,290.3 1353.7,292.4 1352.4,290.7 1350.4,291.3 1351.7,289.6 1350.4,287.8 1352.4,288.5 
	1353.7,286.7 1353.8,288.9 1355.8,289.6 "/>
<polygon class="stars0" points="1360.8,256.4 1360.9,258.6 1359.6,256.8 1357.5,257.5 1358.8,255.7 1357.5,254 1359.6,254.6 
	1360.9,252.9 1360.9,255 1362.9,255.7 "/>
<polygon class="stars0" points="1307.1,286.1 1306.5,288.2 1305.8,286.1 1303.6,286.2 1305.3,284.8 1304.6,282.8 1306.4,284 
	1308.1,282.7 1307.5,284.8 1309.3,286 "/>
<polygon class="stars0" points="1323.4,255.5 1322.8,257.6 1322,255.5 1319.9,255.6 1321.6,254.3 1320.8,252.2 1322.6,253.5 
	1324.4,252.1 1323.8,254.2 1325.5,255.5 "/>
<polygon class="stars0" points="1293.1,238.5 1291.4,239.9 1291.9,237.8 1290.1,236.6 1292.3,236.5 1292.8,234.4 1293.6,236.4 
	1295.8,236.3 1294.1,237.7 1294.9,239.7 "/>
<polygon class="stars0" points="1300.2,264.9 1301.3,266.8 1299.3,265.9 1297.8,267.5 1298,265.4 1296,264.5 1298.2,264 1298.4,261.9 
	1299.5,263.7 1301.6,263.3 "/>
<polygon class="stars0" points="358,330.5 356.7,332.2 356.8,330 354.8,329.2 356.9,328.7 357,326.5 358.2,328.3 360.3,327.7 
	358.9,329.4 360.1,331.3 "/>
<polygon class="stars0" points="384.8,308.5 383.4,310.2 383.5,308 381.5,307.3 383.6,306.7 383.7,304.5 384.9,306.3 387,305.8 
	385.7,307.5 386.8,309.3 "/>
<polygon class="stars0" points="324.3,298.1 322.5,299.3 323.2,297.3 321.5,296 323.7,296 324.4,293.9 325,296 327.2,296.1 
	325.4,297.3 326.1,299.4 "/>
<polygon class="stars0" points="356.1,284.4 354.3,285.6 355,283.6 353.3,282.3 355.4,282.3 356.1,280.2 356.8,282.3 359,282.4 
	357.2,283.6 357.8,285.7 "/>
<polygon class="stars0" points="648.9,122 645.6,117.4 651.1,119.2 654.4,114.7 654.3,120.3 659.7,122.1 654.3,123.8 654.2,129.5 
	650.9,124.9 645.5,126.6 "/>
<polygon class="stars0" points="671.5,202.9 665.9,201.8 671.1,199.4 670.6,193.9 674.4,198.1 679.6,195.8 676.7,200.7 680.5,204.9 
	674.9,203.8 672,208.6 "/>
<polygon class="stars0" points="803.6,145.1 803.4,139.4 807,143.9 812.2,142 809,146.7 812.6,151.2 807.1,149.6 803.9,154.3 
	803.6,148.6 798.2,147 "/>
<polygon class="stars0" points="767.3,258.5 761.9,256.7 767.3,255 767.4,249.5 770.7,254.1 776.1,252.3 772.7,256.9 776,261.6 
	770.6,259.8 767.1,264.3 "/>
<polygon class="stars0" points="751.5,216.7 749.4,216 751.5,215.4 751.6,213.2 752.8,215 754.9,214.3 753.6,216.1 754.8,217.9 
	752.8,217.2 751.4,218.9 "/>
<polygon class="stars0" points="771.1,172.3 769,171.6 771.1,171 771.1,168.8 772.4,170.6 774.5,170 773.1,171.7 774.4,173.5 
	772.3,172.8 771,174.5 "/>
<polygon class="stars0" points="800.8,190 798.7,189.3 800.8,188.6 800.9,186.5 802.1,188.3 804.2,187.6 802.9,189.4 804.1,191.2 
	802.1,190.5 800.8,192.2 "/>
<polygon class="stars0" points="721.6,127.3 719.8,128.6 720.5,126.5 718.8,125.2 721,125.2 721.7,123.2 722.3,125.3 724.5,125.3 
	722.8,126.6 723.4,128.7 "/>
<polygon class="stars0" points="753.5,113.8 751.7,115 752.4,112.9 750.7,111.7 752.8,111.7 753.5,109.6 754.2,111.7 756.4,111.8 
	754.6,113 755.2,115.1 "/>
<polygon class="stars0" points="706.7,74.6 704.5,74.6 706.3,73.3 705.6,71.3 707.4,72.5 709.1,71.2 708.4,73.3 710.2,74.6 708,74.6 
	707.4,76.7 "/>
<polygon class="stars0" points="740.6,81.5 738.4,81.5 740.2,80.2 739.5,78.2 741.2,79.5 743,78.2 742.3,80.3 744.1,81.5 741.9,81.6 
	741.3,83.6 "/>
<polygon class="stars0" points="645.6,89.7 646,91.8 644.4,90.4 642.6,91.5 643.4,89.5 641.8,88 643.9,88.3 644.8,86.3 645.3,88.4 
	647.5,88.6 "/>
<polygon class="stars0" points="352.9,195.4 351.9,189.8 356,193.8 360.9,191.2 358.4,196.3 362.5,200.2 356.9,199.4 354.3,204.5 
	353.3,198.9 347.8,198 "/>
<polygon class="stars0" points="672.5,312.6 672.4,310.4 673.7,312.1 675.7,311.3 674.6,313.1 676,314.8 673.8,314.3 672.6,316.1 
	672.5,313.9 670.4,313.3 "/>
<polygon class="stars0" points="547.6,212.5 547.4,210.3 548.8,212 550.8,211.3 549.6,213.1 551,214.8 548.9,214.2 547.7,216 
	547.6,213.8 545.5,213.2 "/>
<polygon class="stars0" points="582.2,444.2 580.6,445.8 581,443.6 579.1,442.6 581.2,442.3 581.6,440.1 582.6,442.1 584.7,441.8 
	583.2,443.3 584.1,445.3 "/>
<polygon class="stars0" points="571.5,244 573.6,244.6 571.5,245.4 571.5,247.5 570.2,245.7 568.2,246.4 569.4,244.7 568.1,242.9 
	570.2,243.5 571.5,241.8 "/>
<polygon class="stars0" points="605.6,193.9 606.8,192 607,194.2 609,194.7 607,195.5 607.2,197.7 605.8,196 603.8,196.9 604.9,195 
	603.5,193.3 "/>
<polygon class="stars0" points="581.7,218.8 582.8,217 583,219.2 585.1,219.7 583.1,220.5 583.2,222.7 581.8,221 579.8,221.8 
	580.9,220 579.6,218.3 "/>
<polygon class="stars0" points="1245.9,136 1242.8,140.8 1242.5,135 1237.1,133.6 1242.4,131.6 1242,125.9 1245.6,130.3 1251,128.3 
	1247.9,133.1 1251.4,137.5 "/>
<polygon class="stars0" points="1285.8,49.6 1286.7,55.2 1282.6,51.2 1277.7,53.8 1280.2,48.8 1276.1,44.8 1281.8,45.6 1284.3,40.5 
	1285.3,46.1 1290.9,47 "/>
<polygon class="stars0" points="1116,168 1118.1,173.3 1113.3,170.2 1109,173.7 1110.4,168.3 1105.6,165.2 1111.3,164.9 1112.7,159.4 
	1114.8,164.6 1120.5,164.4 "/>
<polygon class="stars0" points="1144.5,84.6 1149.7,87.1 1144,88.1 1143.2,93.6 1140.6,88.6 1135,89.6 1138.9,85.5 1136.3,80.4 
	1141.4,82.9 1145.4,78.9 "/>
<polygon class="stars0" points="992.7,62 991.6,67.5 989.2,62.3 983.7,62.9 987.9,59.1 985.6,53.9 990.5,56.8 994.8,53 993.6,58.5 
	998.4,61.4 "/>
<polygon class="stars0" points="1075.1,45.7 1076.9,46.9 1074.7,47 1074.2,49.1 1073.4,47.1 1071.2,47.2 1072.9,45.8 1072.1,43.8 
	1074,44.9 1075.7,43.6 "/>
<polygon class="stars0" points="1045.2,84 1047.1,85.1 1044.9,85.3 1044.3,87.3 1043.6,85.3 1041.4,85.4 1043.1,84.1 1042.3,82 
	1044.1,83.2 1045.8,81.8 "/>
<polygon class="stars0" points="1020.7,59.5 1022.6,60.7 1020.4,60.8 1019.8,62.9 1019.1,60.9 1016.9,61 1018.6,59.6 1017.8,57.6 
	1019.6,58.8 1021.3,57.4 "/>
<polygon class="stars0" points="1224,66.4 1225.9,67.6 1223.7,67.8 1223.1,69.8 1222.3,67.8 1220.1,67.9 1221.9,66.5 1221.1,64.5 
	1222.9,65.7 1224.6,64.3 "/>
<polygon class="stars0" points="1199.7,41.9 1201.5,43.1 1199.3,43.2 1198.8,45.2 1198,43.2 1195.8,43.3 1197.5,41.9 1196.7,39.9 
	1198.6,41.1 1200.3,39.7 "/>
<polygon class="stars0" points="1128.6,57 1126.9,58.3 1127.5,56.2 1125.8,55 1128,54.9 1128.6,52.9 1129.3,54.9 1131.5,54.9 
	1129.8,56.2 1130.4,58.3 "/>
<polygon class="stars0" points="1160.1,42.7 1158.4,44 1159,41.9 1157.3,40.6 1159.4,40.6 1160.1,38.5 1160.8,40.6 1163,40.6 
	1161.2,41.9 1161.9,44 "/>
<polygon class="stars0" points="1180.5,99.8 1181.4,101.8 1179.5,100.6 1177.9,102 1178.4,99.9 1176.5,98.8 1178.7,98.6 1179.2,96.5 
	1180.1,98.5 1182.2,98.4 "/>
<polygon class="stars0" points="1174.5,65.7 1175.3,67.7 1173.4,66.6 1171.8,68 1172.3,65.9 1170.5,64.7 1172.6,64.5 1173.2,62.4 
	1174,64.4 1176.2,64.3 "/>
<polygon class="stars0" points="877.4,48.4 879.6,48.4 877.8,49.7 878.4,51.7 876.7,50.4 874.9,51.7 875.6,49.6 873.9,48.3 876,48.3 
	876.7,46.3 "/>
<polygon class="stars0" points="1136.1,203.2 1137.9,201.9 1137.2,204 1138.8,205.3 1136.7,205.2 1135.9,207.3 1135.3,205.2 
	1133.1,205.1 1134.9,203.9 1134.4,201.8 "/>
<polygon class="stars0" points="935.9,46.9 937.7,45.7 936.9,47.7 938.6,49 936.5,49 935.7,51 935.1,48.9 932.9,48.9 934.7,47.6 
	934.2,45.5 "/>
<polygon class="stars0" points="921.5,83.8 922.1,85.9 920.4,84.5 918.6,85.6 919.4,83.6 917.7,82.2 919.9,82.4 920.7,80.3 921.2,82.5 
	923.4,82.6 "/>
<polygon class="stars0" points="948.3,79.3 950.5,79.3 948.7,80.6 949.4,82.6 947.6,81.4 945.8,82.6 946.5,80.6 944.8,79.2 947,79.2 
	947.7,77.2 "/>
<polygon class="stars0" points="1217.1,151 1218.9,149.8 1218.2,151.9 1219.9,153.2 1217.7,153.1 1217,155.2 1216.4,153.1 1214.2,153 
	1216,151.7 1215.4,149.7 "/>
<polygon class="stars0" points="1185.1,164.1 1186.9,162.9 1186.2,165 1187.9,166.3 1185.7,166.2 1185,168.3 1184.4,166.2 
	1182.2,166.1 1184,164.9 1183.4,162.8 "/>
<polygon class="stars0" points="1170.8,201 1171.3,203.1 1169.6,201.7 1167.8,202.9 1168.6,200.9 1166.9,199.5 1169.1,199.6 
	1170,197.6 1170.5,199.7 1172.7,199.9 "/>
<polygon class="stars0" points="1197.5,196.5 1199.7,196.5 1198,197.8 1198.6,199.9 1196.9,198.6 1195.1,199.9 1195.8,197.8 
	1194,196.5 1196.2,196.5 1196.9,194.4 "/>
<polygon class="stars0" points="956.6,124 956.2,121.8 957.8,123.4 959.7,122.4 958.7,124.3 960.2,125.9 958.1,125.5 957.1,127.5 
	956.7,125.3 954.6,125 "/>
<polygon class="stars0" points="954.8,158.5 954.5,156.4 956,157.9 957.9,156.9 956.9,158.9 958.5,160.4 956.3,160.1 955.3,162 
	955,159.9 952.8,159.5 "/>
<polygon class="stars0" points="982.1,187.2 984.2,187.6 982.3,188.5 982.5,190.7 981,189.1 979,190 980.1,188.1 978.6,186.5 
	980.8,186.9 981.9,185 "/>
<polygon class="stars0" points="989.4,161.1 990.4,159.1 990.8,161.2 992.9,161.5 991,162.5 991.4,164.7 989.8,163.2 987.9,164.2 
	988.8,162.3 987.3,160.7 "/>
<polygon class="stars0" points="918.4,244.2 921.9,248.8 916.4,247.1 913.2,251.7 913.1,246 907.7,244.4 913,242.5 913,236.8 
	916.4,241.3 921.8,239.6 "/>
<polygon class="stars0" points="922.1,118.1 927.7,119.1 922.5,121.6 923.2,127.1 919.3,123 914.2,125.4 916.9,120.5 913,116.3 
	918.6,117.3 921.4,112.4 "/>
<polygon class="stars0" points="858.2,109.8 860.3,110.4 858.2,111.1 858.2,113.3 856.9,111.5 854.9,112.2 856.1,110.5 854.8,108.7 
	856.9,109.3 858.2,107.6 "/>
<polygon class="stars0" points="839.8,154.6 841.9,155.3 839.8,156 839.8,158.1 838.5,156.4 836.4,157.1 837.7,155.3 836.4,153.6 
	838.5,154.2 839.8,152.5 "/>
<polygon class="stars0" points="967.6,29.3 969.4,28 968.7,30.1 970.4,31.4 968.2,31.3 967.5,33.4 966.9,31.3 964.7,31.2 966.5,30 
	965.9,27.9 "/>
<polygon class="stars0" points="988.7,25 989.3,27.1 987.6,25.7 985.8,26.9 986.6,24.9 984.9,23.5 987.1,23.6 987.9,21.6 988.4,23.7 
	990.6,23.9 "/>
<polygon class="stars0" points="1057.5,180.5 1055.8,179.1 1058,179.3 1058.9,177.3 1059.3,179.5 1061.5,179.7 1059.6,180.8 
	1060.1,182.9 1058.5,181.5 1056.6,182.5 "/>
<polygon class="stars0" points="987,114.8 985.4,113.3 987.6,113.5 988.4,111.6 988.9,113.7 991.1,113.9 989.2,115 989.6,117.1 
	988,115.7 986.1,116.8 "/>
<polygon class="stars0" points="1007.6,142.6 1006,141.1 1008.1,141.4 1009,139.4 1009.5,141.5 1011.6,141.7 1009.8,142.8 1010.2,145 
	1008.6,143.5 1006.7,144.6 "/>
<polygon class="stars0" points="1046.9,147.4 1048.8,146.4 1047.9,148.4 1049.4,149.9 1047.2,149.6 1046.3,151.5 1045.9,149.4 
	1043.8,149.1 1045.7,148 1045.3,145.9 "/>
<polygon class="stars0" points="1036,122.6 1035.4,120.5 1037.1,121.9 1038.9,120.7 1038.1,122.7 1039.8,124.2 1037.6,124 1036.8,126 
	1036.2,123.9 1034.1,123.7 "/>
<polygon class="stars0" points="645.4,671.9 643.7,673.3 644.3,671.2 642.5,670 644.6,669.9 645.2,667.8 646,669.8 648.2,669.7 
	646.5,671.1 647.3,673.1 "/>
<polygon class="stars0" points="652.2,599.6 651.5,597.5 653.3,598.8 655,597.5 654.3,599.5 656.1,600.8 654,600.8 653.3,602.9 
	652.6,600.9 650.4,600.9 "/>
<polygon class="stars0" points="656.5,633.9 655.7,631.8 657.5,633.1 659.2,631.8 658.6,633.9 660.4,635.1 658.2,635.2 657.6,637.2 
	656.9,635.2 654.7,635.2 "/>
<polygon class="stars0" points="630.2,640.7 628,640.9 629.7,639.5 628.8,637.5 630.7,638.6 632.3,637.2 631.8,639.3 633.7,640.5 
	631.5,640.7 631,642.8 "/>
<polygon class="stars0" points="697.6,588.4 697.5,586.2 698.9,587.9 700.9,587.1 699.7,588.9 701.1,590.6 698.9,590.1 697.7,591.9 
	697.6,589.7 695.5,589.1 "/>
<polygon class="stars0" points="692.2,622.5 692.1,620.4 693.5,622.1 695.5,621.3 694.3,623.1 695.7,624.8 693.6,624.2 692.4,626.1 
	692.2,623.9 690.1,623.3 "/>
<polygon class="stars0" points="716.3,653.9 718.4,654.6 716.3,655.3 716.3,657.4 715,655.7 713,656.4 714.2,654.6 712.9,652.9 
	715,653.5 716.3,651.7 "/>
<polygon class="stars0" points="1030.9,601.7 1029.2,603.1 1029.8,601 1028,599.8 1030.1,599.7 1030.7,597.6 1031.5,599.6 
	1033.7,599.5 1032,600.9 1032.7,602.9 "/>
<polygon class="stars0" points="1037.7,529.4 1036.9,527.3 1038.7,528.6 1040.5,527.3 1039.8,529.4 1041.6,530.6 1039.4,530.6 
	1038.8,532.7 1038.1,530.7 1035.9,530.7 "/>
<polygon class="stars0" points="1041.9,563.7 1041.2,561.6 1043,562.9 1044.7,561.6 1044.1,563.7 1045.9,564.9 1043.7,565 
	1043.1,567.1 1042.3,565 1040.2,565 "/>
<polygon class="stars0" points="1015.7,570.5 1013.5,570.7 1015.1,569.3 1014.3,567.3 1016.2,568.4 1017.8,567 1017.3,569.1 
	1019.2,570.3 1017,570.5 1016.5,572.6 "/>
<polygon class="stars0" points="1083.1,518.2 1082.9,516 1084.3,517.7 1086.3,516.9 1085.2,518.8 1086.5,520.4 1084.4,519.9 
	1083.2,521.7 1083.1,519.5 1081,518.9 "/>
<polygon class="stars0" points="1077.7,552.4 1077.6,550.2 1078.9,551.9 1080.9,551.1 1079.8,552.9 1081.1,554.6 1079,554.1 
	1077.8,555.9 1077.7,553.7 1075.6,553.1 "/>
<polygon class="stars0" points="1101.8,583.7 1103.9,584.4 1101.8,585.1 1101.8,587.2 1100.5,585.5 1098.4,586.2 1099.7,584.4 
	1098.4,582.7 1100.5,583.3 1101.8,581.6 "/>
<polygon class="stars0" points="416.6,219.5 415,220.9 415.5,218.8 413.7,217.6 415.9,217.5 416.4,215.4 417.2,217.4 419.4,217.3 
	417.7,218.7 418.5,220.7 "/>
<polygon class="stars0" points="423.4,147.2 422.7,145.1 424.5,146.4 426.2,145.1 425.6,147.2 427.4,148.4 425.2,148.4 424.5,150.5 
	423.8,148.5 421.6,148.5 "/>
<polygon class="stars0" points="427.7,181.5 427,179.4 428.8,180.7 430.5,179.4 429.8,181.5 431.6,182.7 429.5,182.8 428.8,184.9 
	428.1,182.8 425.9,182.8 "/>
<polygon class="stars0" points="401.4,188.3 399.2,188.5 400.9,187.1 400.1,185.1 401.9,186.2 403.6,184.8 403.1,186.9 404.9,188.1 
	402.8,188.3 402.2,190.4 "/>
<polygon class="stars0" points="468.8,136 468.7,133.8 470.1,135.5 472.1,134.7 470.9,136.6 472.3,138.2 470.2,137.7 469,139.5 
	468.8,137.3 466.8,136.7 "/>
<polygon class="stars0" points="463.4,170.2 463.3,168 464.7,169.7 466.7,168.9 465.5,170.7 466.9,172.4 464.8,171.9 463.6,173.7 
	463.4,171.5 461.4,170.9 "/>
<polygon class="stars0" points="487.5,201.5 489.6,202.2 487.5,202.9 487.5,205 486.3,203.3 484.2,204 485.4,202.2 484.1,200.5 
	486.2,201.1 487.5,199.4 "/>
<polygon class="stars0" points="436.2,254.9 434.4,253.6 436.6,253.6 437.2,251.6 437.9,253.6 440.1,253.6 438.3,254.9 439,257 
	437.2,255.7 435.5,257 "/>
<polygon class="stars0" points="507.8,242.9 509.6,241.6 508.9,243.7 510.5,245 508.4,245 507.6,247 507,244.9 504.9,244.8 
	506.7,243.6 506.1,241.5 "/>
<polygon class="stars0" points="646,335.6 646.3,337.8 644.8,336.2 642.9,337 643.9,335.2 642.5,333.5 644.6,334 645.7,332.1 
	646,334.3 648.1,334.8 "/>
<polygon class="stars0" points="462.4,232.2 461.7,230.1 463.5,231.3 465.2,230 464.6,232.1 466.4,233.3 464.2,233.4 463.6,235.5 
	462.8,233.4 460.6,233.5 "/>
<polygon class="stars0" points="595.6,370.5 595.2,372.7 594.2,370.7 592.1,371 593.7,369.5 592.7,367.5 594.7,368.6 596.2,367.1 
	595.9,369.2 597.8,370.3 "/>
<polygon class="stars0" points="608.7,338.5 608.3,340.7 607.3,338.7 605.2,339 606.8,337.5 605.8,335.5 607.7,336.5 609.3,335 
	608.9,337.2 610.8,338.2 "/>
<polygon class="stars0" points="592.4,302.4 590.5,301.3 592.7,301.1 593.2,299 594,301 596.2,300.8 594.6,302.2 595.4,304.2 
	593.5,303.2 591.9,304.6 "/>
<polygon class="stars0" points="238.8,89.6 237.6,87.7 239.7,88.5 241,86.9 240.9,89 242.9,89.8 240.8,90.4 240.7,92.6 239.5,90.7 
	237.4,91.2 "/>
<polygon class="stars0" points="309.8,104.8 312,104.3 310.5,106 311.6,107.8 309.6,107 308.2,108.6 308.4,106.4 306.4,105.5 
	308.5,105.1 308.8,102.9 "/>
<polygon class="stars0" points="275.2,105 277.4,104.5 275.9,106.2 277,108 275,107.2 273.6,108.8 273.8,106.6 271.8,105.7 
	273.9,105.3 274.2,103.1 "/>
<polygon class="stars0" points="271.6,78.1 271.7,75.9 272.9,77.8 274.9,77.2 273.6,78.9 274.8,80.7 272.8,79.9 271.4,81.6 271.5,79.5 
	269.5,78.7 "/>
<polygon class="stars0" points="315.6,151.2 317.8,151.4 315.9,152.6 316.4,154.6 314.8,153.2 312.9,154.4 313.7,152.4 312.1,151 
	314.2,151.1 315.1,149.1 "/>
<polygon class="stars0" points="282.3,141.8 284.5,142 282.6,143.2 283.1,145.2 281.5,143.9 279.6,145 280.4,143 278.8,141.6 
	281,141.7 281.8,139.7 "/>
<polygon class="stars0" points="248.3,162.1 247.4,164.1 246.9,161.9 244.8,161.7 246.7,160.6 246.2,158.5 247.8,159.9 249.7,158.8 
	248.9,160.8 250.5,162.3 "/>
<polygon class="stars0" points="363.1,84.6 361.4,86 362,83.9 360.2,82.8 362.3,82.6 362.9,80.5 363.7,82.5 365.9,82.4 364.2,83.8 
	364.9,85.9 "/>
<polygon class="stars0" points="374.2,46.6 373.4,44.6 375.2,45.8 376.9,44.5 376.3,46.6 378.1,47.9 375.9,47.9 375.3,50 374.5,47.9 
	372.4,47.9 "/>
<polygon class="stars0" points="347.9,53.5 345.7,53.6 347.4,52.2 346.5,50.2 348.4,51.4 350,49.9 349.5,52.1 351.4,53.2 349.2,53.4 
	348.7,55.5 "/>
<polygon class="stars0" points="409.9,35.3 409.8,33.1 411.2,34.8 413.1,34 412,35.9 413.4,37.6 411.2,37 410,38.8 409.9,36.6 
	407.8,36 "/>
<polygon class="stars0" points="434,66.7 436.1,67.3 434,68 434,70.2 432.7,68.4 430.7,69.1 431.9,67.4 430.6,65.6 432.7,66.2 
	434,64.5 "/>
<polygon class="stars0" points="1402.1,161.9 1400.4,163.3 1401,161.2 1399.2,160 1401.3,159.9 1401.9,157.8 1402.7,159.8 
	1404.9,159.7 1403.2,161.1 1403.9,163.1 "/>
<polygon class="stars0" points="1408.9,89.6 1408.1,87.5 1409.9,88.8 1411.7,87.5 1411,89.6 1412.8,90.8 1410.6,90.8 1410,92.9 
	1409.3,90.9 1407.1,90.9 "/>
<polygon class="stars0" points="1413.2,123.9 1412.4,121.8 1414.2,123.1 1415.9,121.8 1415.3,123.9 1417.1,125.1 1414.9,125.2 
	1414.3,127.3 1413.5,125.2 1411.4,125.2 "/>
<polygon class="stars0" points="1386.9,130.7 1384.7,130.9 1386.3,129.5 1385.5,127.5 1387.4,128.6 1389,127.2 1388.5,129.3 
	1390.4,130.5 1388.2,130.7 1387.7,132.8 "/>
<polygon class="stars0" points="526.1,176 524.4,177.3 524.9,175.2 523.1,174.1 525.3,173.9 525.8,171.8 526.6,173.9 528.8,173.7 
	527.1,175.1 527.9,177.2 "/>
<polygon class="stars0" points="525.7,93.3 524.8,90.7 526.9,92.3 528.9,90.7 528.1,93.2 530.2,94.8 527.7,94.8 526.9,97.4 526.1,94.9 
	523.6,94.9 "/>
<polygon class="stars0" points="530.6,135.8 529.7,133.3 531.8,134.8 533.8,133.2 533,135.8 535.1,137.3 532.6,137.4 531.9,140 
	531,137.4 528.5,137.4 "/>
<polygon class="stars0" points="500.4,144.3 497.9,144.5 499.8,142.7 498.9,140.3 501,141.7 502.9,139.9 502.3,142.5 504.5,144 
	502,144.2 501.4,146.8 "/>
<polygon class="stars0" points="577.7,79.4 577.6,76.7 579.2,78.8 581.5,77.9 580.1,80.1 581.7,82.2 579.3,81.5 577.9,83.8 577.7,81.1 
	575.4,80.3 "/>
<polygon class="stars0" points="571.5,121.8 571.4,119 573,121.2 575.3,120.2 573.9,122.5 575.5,124.6 573.1,123.9 571.7,126.1 
	571.6,123.4 569.2,122.7 "/>
<polygon class="stars0" points="596.9,158 599,158.6 596.9,159.3 597,161.5 595.7,159.7 593.6,160.5 594.9,158.7 593.6,156.9 
	595.6,157.5 596.9,155.8 "/>
<polygon class="stars0" points="673,242.9 675.2,243.1 673.3,244.2 673.8,246.3 672.2,244.9 670.3,246.1 671.2,244 669.5,242.6 
	671.7,242.8 672.5,240.8 "/>
<polygon class="stars0" points="704.5,295.4 706,293.7 705.8,295.9 707.7,296.7 705.6,297.2 705.5,299.4 704.3,297.5 702.2,298 
	703.6,296.4 702.5,294.5 "/>
<polygon class="stars0" points="710.4,367.8 711.5,369.7 709.5,368.8 708,370.3 708.3,368.2 706.3,367.2 708.5,366.8 708.7,364.7 
	709.8,366.6 711.9,366.2 "/>
<polygon class="stars0" points="700.2,334.7 701.3,336.6 699.3,335.7 697.9,337.2 698.1,335.1 696.1,334.2 698.3,333.8 698.6,331.6 
	699.6,333.5 701.8,333.1 "/>
<polygon class="stars0" points="725,323.4 727.1,322.9 725.7,324.6 726.8,326.4 724.8,325.6 723.4,327.3 723.6,325.1 721.5,324.3 
	723.6,323.7 723.8,321.6 "/>
<polygon class="stars0" points="667.6,386.7 668.1,388.8 666.5,387.4 664.6,388.5 665.5,386.5 663.8,385 666,385.2 666.9,383.2 
	667.4,385.3 669.5,385.6 "/>
<polygon class="stars0" points="667,352.1 667.5,354.2 665.9,352.8 664,353.9 664.9,351.9 663.2,350.4 665.4,350.6 666.3,348.6 
	666.8,350.7 668.9,351 "/>
<polygon class="stars0" points="637.9,325.3 635.7,325.1 637.6,324 637.2,321.9 638.8,323.4 640.7,322.3 639.8,324.3 641.4,325.8 
	639.2,325.6 638.2,327.5 "/>
<polygon class="stars0" points="651.3,371.6 653.2,372.7 651,372.9 650.5,375 649.7,373 647.5,373.2 649.1,371.8 648.3,369.7 
	650.2,370.8 651.8,369.4 "/>
</svg>
