<?xml version="1.0" encoding="utf-8"?>
<!-- Generator: Adobe Illustrator 27.3.1, SVG Export Plug-In . SVG Version: 6.00 Build 0)  -->
<svg version="1.1" id="Camada_1" xmlns="http://www.w3.org/2000/svg" xmlns:xlink="http://www.w3.org/1999/xlink" x="0px" y="0px"
	 viewBox="0 0 512 512" style="enable-background:new 0 0 512 512;" xml:space="preserve">
<style type="text/css">
	.st0{fill:#006AFF;}
	.st1{fill:#0057AD;}
	.st2{fill:#90A0AF;}
	.st3{fill:#121F32;}
	.st4{fill:#E6F0FF;}
	.st5{fill:#D5DEEB;}
	.st6{fill:#0098FF;}
	.st7{fill:#52EFFF;}
	.st8{fill:#C9D7E2;}
	.st9{fill:#BEC9D3;}
	.st10{fill:#B1BCC4;}
	.st11{fill:#0C1829;}
	.st12{fill:#2C496B;}
	.st13{fill:#FFFFFF;}
</style>
<g>
	<path class="st0" d="M228.6,44.2c0,0,40.7-2.6,56.4,0.1c15.7,2.7-5,102.5-5,102.5L256.5,168l-31.8-5.6l-12.8-56.8L228.6,44.2z"/>
	<g>
		<polygon class="st1" points="7.3,301.8 14.9,294.8 16.4,304.7 		"/>
		<polygon class="st1" points="7.3,204.2 12.8,212.5 17.4,202.5 		"/>
	</g>
	<path class="st2" d="M45.8,159.9c0,0,0.9,5.9,3.6,7.7c2.7,1.8,8.4-3.8,8.4-3.8l-6.9-5.7L45.8,159.9z"/>
	<g>
		<polygon class="st2" points="50.2,189.8 39.5,173.5 49.1,178.8 		"/>
		<polygon class="st2" points="151.5,436.5 155.3,433.8 160.3,438.6 		"/>
		<polygon class="st2" points="36.2,321.3 36.2,319.9 38.1,320.7 37.5,321.9 		"/>
		<path class="st2" d="M101.1,72c0,0,5.7-1.6,17,10.4s-10.7,12.1-10.7,12.1L101.1,72z"/>
	</g>
	<path class="st3" d="M8.2,204.2c0,0-14.8,48.8,0.6,97.6c10.3,18.6,31.6-7.5,31.6-7.5l2.3-58.8l-3.5-33.6l-21.4-3.9L8.2,204.2"/>
	<g>
		<polygon class="st1" points="505.3,301.8 497.7,294.8 496.2,304.7 		"/>
		<polygon class="st1" points="505.3,204.2 499.8,212.5 495.2,202.5 		"/>
	</g>
	<path class="st2" d="M466.4,159.9c0,0-0.9,5.9-3.6,7.7c-2.7,1.8-8.4-3.8-8.4-3.8l6.9-5.7L466.4,159.9z"/>
	<g>
		<polygon class="st2" points="462,189.8 472.7,173.5 463.1,178.8 		"/>
		<polygon class="st2" points="360.7,436.5 356.9,433.8 352,438.6 		"/>
		<polygon class="st2" points="476,321.3 476,319.9 474.1,320.7 474.8,321.9 		"/>
		<path class="st2" d="M411.2,72c0,0-5.7-1.6-17,10.4c-11.2,12,10.7,12.1,10.7,12.1L411.2,72z"/>
	</g>
	<path class="st3" d="M427.9,302c-8.8,20.1-25.6,51.6-55.6,80.8c-38.2,37.1-78.1,51.3-99.2,57h-34c-21-5.7-61-19.9-99.2-57
		c-30-29.2-46.8-60.7-55.6-80.8l21.2-151.2l150.6,27.3l150.6-27.3L427.9,302z"/>
	<path class="st3" d="M504,204.2c0,0,14.8,48.8-0.6,97.6c-10.3,18.6-31.6-7.5-31.6-7.5l-2.3-58.8l3.5-33.6l21.4-3.9L504,204.2"/>
	<path class="st0" d="M256.1,148.3V43.2c-9.6,0-18.7,0.4-27.2,1c-13,1-24.9,2.5-35.5,4.5c-3.2,0.6-6.4,1.3-9.4,1.9
		c-13.4,3-24.7,6.7-34.2,10.4c-8,3.2-14.7,6.5-20.2,9.5c-13.4,7.5-19.3,13.6-19.3,13.6s0,0.1-0.1,0.3c-0.4,0.8-1.5,3.3-2.7,5.9
		c-1.8,3.7-3.9,7.5-4.6,6.5c-1.1-1.9,17.4,53.8,17.4,53.8l134.3-2.4l1.9,0L256.1,148.3z M104.7,218.7c10.8-24.9-55.3-59-55.3-59
		s-0.5,1.1-1,3.1c-1.2,5.1-2.4,16.2,4,32.8c9,23.3,46.9,68.8,47.4,69.5c-0.1-0.2-2.5-9.3-1.3-22.5C99.3,235.6,101,227.4,104.7,218.7
		z M66.9,231.9l-21.4-47c0,0-1.6,0-4.1,0c-6.9,0-20.5,0.5-25.9,3.4c-4.7,2.5-6.7,8.2-7.5,12.1c-0.5,2.3-0.6,3.9-0.6,3.9
		s25.9-1.5,25.3,22.2v53.1c0.2,7.7-2.4,12.8-6.1,16.1c-7.5,6.8-19.2,6.1-19.2,6.1s0.8,12,8.1,16c7.4,3.9,30,3.3,30,3.3l18-1.8
		l9.6-44.6L66.9,231.9z M410.1,97c-0.3,0.5-0.9-0.1-1.7-1.3c-0.9-1.3-1.9-3.4-2.9-5.3c-1.5-3.1-2.8-6-2.8-6s-1.3-1.4-4.2-3.7
		c-5.5-4.4-16.7-12.1-34.8-19.3h0c-6-2.4-12.8-4.8-20.4-7c-13-3.7-28.3-6.9-46.2-8.9c-6.3-0.7-12.8-1.3-19.7-1.6
		c-5.1-0.3-10.4-0.5-15.9-0.5c-1.5,0-3,0-4.6,0v105.1l-0.4,0l17.8,0.3l54.4,1l14.4,0.3l49.7,0.9c0,0,7.5-22.6,12.7-38.5
		C408.4,103.2,410.6,96.4,410.1,97z M463.6,159.7c0,0-66.1,34.1-55.3,59c10.7,24.7,4.9,46.2,4.8,46.5c0.6-0.7,38.5-46.3,47.4-69.5
		C469.6,172.2,463.6,159.7,463.6,159.7z M504.4,301.8c-3.2,0-12-0.7-18-6.1c-3.6-3.3-6.3-8.3-6.1-16.1v-53.1
		c-0.6-23.7,25.3-22.2,25.3-22.2s-0.8-12-8.1-16c-6.1-3.3-22.7-3.4-28.2-3.4c-1.1,0-1.8,0-1.8,0l-21.4,47l-6.1,42.8l9.6,44.6l18,1.8
		c0,0,22.7,0.6,30-3.3c7.4-3.9,8.1-16,8.1-16S505.2,301.8,504.4,301.8z"/>
	<g>
		<path class="st4" d="M476,321.3C404.4,452,267.7,466.6,256.5,467.6c-0.1,0-0.3,0-0.4,0c-0.1,0-0.2,0-0.4,0
			c-9.6-0.8-111.8-11.7-185.8-97.6c-12.2-14.1-23.6-30.3-33.7-48.8c8.1-12.8,18.6-33.9,18.9-61.1c0-2.9,0-6.8-0.8-14.6
			c-1.6-16.9-5.3-41.4-14.8-72c17.1,17.5,39.7,44.9,56.7,83.8c0,0,0,0,0,0c17.7,40.7,15,61.3,28.5,85.7
			c15,27.1,48.8,56.4,131.4,64.2c82.6-7.7,116.3-37,131.4-64.2c13.5-24.4,10.8-45,28.5-85.7c16.9-38.9,39.6-66.3,56.7-83.8
			c-9.6,30.6-13.3,55.2-14.9,72c-0.7,7.8-0.8,11.7-0.8,14.6C457.5,287.3,467.9,308.5,476,321.3z"/>
		<path class="st4" d="M256.1,467.6c-0.3,0-0.4,0-0.4,0v-0.1C255.9,467.6,256,467.6,256.1,467.6z"/>
	</g>
	<path class="st0" d="M356.2,262.7c-0.3,18.3-12.3,11.6-17.6,8.9c-5.3-2.8-20.4-1.4-25.9,1.1c0,0,0,0,0,0
		c-5.5,2.5-13.1,11.1-16.9,11.1c-3.8,0-8.6-4.7-8.3-10c0.2-4.6-0.7-28.3,21.8-35.1c3-0.9,6.4-1.5,10.2-1.7
		C352.5,235,356.2,262.7,356.2,262.7z"/>
	<path class="st4" d="M256.1,467.6c0.2,0,0.4,0,0.4,0v-0.1C256.3,467.6,256.2,467.6,256.1,467.6z"/>
	<path class="st5" d="M256.5,148.3L256.5,148.3l-0.1,0C256.4,148.3,256.5,148.3,256.5,148.3z"/>
	<path class="st5" d="M256.1,204.2c0.1,0,0.3,0,0.4,0v0C256.4,204.2,256.2,204.2,256.1,204.2z"/>
	<path class="st0" d="M313.6,350.3c-10.9,7.2-25.8,18.4-57.9,18.4c-1.7,0-3.4,0-5.1-0.1c0,0,0,0,0,0c-29.2-1.3-48.5-13.4-54.5-20.4
		c-6.4-7.3,3.2-15.8,13.3-9.3c0,0,14.1,14.2,46.3,13.2c32.2-1,34.8-4.5,46.8-13.2c12-8.7,16.7-1.2,16.7-1.2S324.5,343.1,313.6,350.3
		z"/>
	<path class="st0" d="M224.7,273.7c0.3,5.3-4.5,10-8.3,10c-3.8,0-11.3-8.6-16.9-11.1c-4.4-2-14.6-3.2-21.4-2.3c0,0,0,0,0,0
		c-1.8,0.2-3.4,0.6-4.5,1.2c-5.3,2.8-17.4,9.4-17.6-8.9c0,0,2.3-16.8,19-23.3c0,0,0,0,0,0c4.7-1.8,10.5-2.8,17.8-2.4
		C225.7,238.8,224.5,268.5,224.7,273.7z"/>
	<path class="st6" d="M402.5,84.1c-9.8,12.3-20.9,22.3-32.6,30.4c-18.6-18.9-48.1-20-48.1-20c11,3.5,26.7,16.4,20,19.3
		c-6.5,2.8-35,13.2-84.3,14.1v0c-1.6,0-3.2,0-4.8,0c-53.6,0-109.5-21.2-101.1-30.9c8.4-9.8,30.9-19.7,30.9-19.7
		c-25.9,2.5-57.3,23.4-57.3,23.4c-5.3-4.8-10.3-10.2-15-16c0.1-0.2,0.1-0.3,0.1-0.3s6-6.1,19.5-13.6c5.5-3.1,12.3-6.3,20.4-9.5
		c9.6-3.8,21-7.4,34.5-10.4c3.1-0.7,6.2-1.3,9.5-1.9c10.8-2,22.7-3.6,35.9-4.5c8.4-0.6,17.4-1,26.8-1c0.1,0,0.3,0,0.4,0h0.2
		c1.3,0,2.6,0,3.9,0c5.5,0.1,10.8,0.2,15.9,0.5c6.9,0.4,13.5,0.9,19.7,1.6c17.9,2,33.2,5.2,46.2,8.9c7.6,2.2,14.4,4.6,20.4,7h0
		c18.1,7.3,29.3,14.9,34.8,19.3C400.8,82.4,402.1,83.7,402.5,84.1z"/>
	<path class="st6" d="M257.3,43.2c-0.1,0-0.3,0-0.4,0v0H257.3z"/>
	<path class="st6" d="M224.7,273.7c0.3,5.3-4.5,10-8.3,10c-3.8,0-11.3-8.6-16.9-11.1c-4.4-2-14.6-3.2-21.4-2.3
		c0.5-0.2,18.7-9.5,36.6,0c0,0,6-19.2-33.2-24.6c0,0,14.2-5.4,26.7,0c12.5,5.4-8.8-9.4-33.3-6.4c4.7-1.8,10.5-2.8,17.8-2.4
		C225.7,238.8,224.5,268.5,224.7,273.7z"/>
	<path class="st7" d="M200.8,270.4c0,0,8.6,6.2,12.1,9.8c3.5,3.5,10.6-1.9,10.2-4.9s0.2-21.2-13-29.6c0,0,9.9,12.5,10.6,26.6
		c0.3,4.8-3.1,6.9-4.3,6.4C215.1,278.3,206.9,272.6,200.8,270.4z"/>
	<path class="st6" d="M36.8,317.7c-22.2,0.8-25.9-13-25.9-13c14.4,11.5,26.3,3.7,26.3,3.7C60,260.2,39.5,193,39.5,193
		c-10.4-2.1-19.8,2.1-19.8,2.1c6.7,0,11.8,2.8,11.8,2.8c-15.1-1.3-23.6,2.5-23.6,2.5v0c0.9-3.9,2.9-9.6,7.5-12.1
		c5.4-2.9,19-3.3,25.9-3.4c0.4,1.4,0.7,2.4,0.7,2.4C69.4,279.5,36.8,317.7,36.8,317.7z"/>
	<path class="st7" d="M10.3,196.8c0,0,2.6-8.1,11.9-9.6s17.9-1.2,17.9-1.2s-14.5,1.3-17.6,2.6C19.5,189.8,14.2,191.6,10.3,196.8z"/>
	<path class="st7" d="M40.2,186c0,0,2.2,6.1,2.7,8c0,0-2.7-7.2-3.6-7.4c-0.9-0.2-19-0.1-28.8,10.2c0,0,4.5-8.5,9.9-8.4
		c5.4,0.2,6.2-1.3,6.2-1.3L40.2,186z"/>
	<path class="st8" d="M211.9,143.5c-1.3,0-45.1-1.6-78.9-20.7c-34.4-19.3-58,55.8-58,55.8s16.6,33.1,23.5,64.1
		c-0.3,0.9-0.4,1.4-0.4,1.4c-15.5-39.5-41.6-71.6-49.8-81.2c-1.6-1.9-2.6-2.9-2.6-2.9c10-55.7,45.3-73.3,50.7-75.7
		c0.5-0.2,0.7-0.3,0.7-0.3c-1.3-8.9,3.9-11.9,3.9-11.9c2.8,4.5,5.9,8.7,9,12.6c4.7,5.9,9.7,11.2,14.9,16
		c8.1,7.5,16.7,13.8,25.5,19.2C171.4,132.5,193.4,139.6,211.9,143.5z"/>
	<path class="st9" d="M150.5,119.8c-1.1-0.5-34.8-16.7-47.7-26.8c-13.2-10.2-56.4,53.5-37.9,78.7c18.5,25.2,33.3,72.3,33.3,72.3
		c-7.6-19.3-17.7-36.9-27-50.9c0,0,0,0,0,0c0,0,0,0,0,0c-9.7-14.6-18.5-25.4-22.7-30.3c-1.6-1.9-2.6-2.9-2.6-2.9
		c10-55.7,45.3-73.3,50.7-75.7c0.5-0.2,0.7-0.3,0.7-0.3c-1.3-8.9,3.9-11.9,3.9-11.9c2.8,4.5,5.9,8.7,9,12.6c3.7,4.7,7.7,9,11.8,13
		c1,1,2.1,2,3.1,3C133.1,108.2,141.7,114.5,150.5,119.8z"/>
	<path class="st10" d="M121.9,97.7c-8.1-3.7-16.2-9.1-16.2-9.1s-2.9-3-6.6-1.6c-34.7,18.9-42.5,52.7-45.9,63.7
		c-3.4,11,4,15,6.8,19.7c2.7,4.6,10.7,21.6,11.2,22.6c-9.7-14.6-18.5-25.4-22.7-30.3c-1.6-1.9-2.6-2.9-2.6-2.9
		c10-55.7,45.3-73.3,50.7-75.7c0.5-0.2,0.7-0.3,0.7-0.3c-1.3-8.9,3.9-11.9,3.9-11.9c2.8,4.5,5.9,8.7,9,12.6
		C113.8,89.3,117.8,93.7,121.9,97.7z"/>
	<path class="st4" d="M150.5,120c0,0-45.3-24.4-47.7-27.7c-2.4-3.3-9.2,0.4-12.6,3.2c-3.4,2.8-34.2,34.1-30.2,67
		c0,0,1.2,6.9,5.1,11.1s27.7,54.9,27.7,54.9s-18.6-47.9-24.9-57c-6.3-9.1-8.1-38.8,23.3-75.4c0,0,7.3-6,11-3.2
		C105.9,95.8,141.8,117.9,150.5,120z"/>
	<g>
		<path class="st5" d="M360.7,436.5c0,0-23.6,13.1-53.6,22.5c0,0,0,0,0,0c-15.9,5-33.6,9-50.6,9.4c-0.1,0-0.2,0-0.4,0
			c-0.1,0-0.2,0-0.4,0c-2.3-0.1-4.6-0.2-6.9-0.4c0,0,0,0-0.1,0l-2.3-0.2c-46.5-4.5-94.9-31.4-94.9-31.4c8.1-1.1,22.9-3.6,35.2-9.9
			c3.3-1.7,5.6-3.3,7.7-4.9c7.2-5.9,10.9-13,12.8-16.7c1.3-2.7,3-6.5,4.4-11.4l0,0c0,0,0,0,0,0c0.2-0.3,1.8-2.7,8.1-5.1
			c5.7-2.2,15.2-4.3,31-4.7c0,0,0,0,0,0c1.7,0,3.6-0.1,5.5-0.1c38.3,0,44.4,9.6,44.6,9.9l0,0c1.4,4.9,3.1,8.7,4.4,11.4
			c1.9,3.7,5.6,10.8,12.8,16.7c2,1.7,4.3,3.2,7.7,4.9C337.8,432.9,352.6,435.4,360.7,436.5z"/>
		<path class="st5" d="M256.1,468.5c-0.1,0-0.2,0-0.4,0v0C255.9,468.5,256,468.5,256.1,468.5z"/>
		<path class="st5" d="M466.4,159.9c0,0-33.7,36.8-52.4,84.2c0,0-21.6-78.1-72.2-70.6c-10.4,1.5-41.2,29.6-85.3,30.7
			c-0.1,0-0.2,0-0.4,0c-0.1,0-0.3,0-0.4,0c-44.2-1.1-74.9-29.2-85.3-30.7c-46.6-6.9-68.6,58.8-71.8,69.2c-0.3,0.9-0.4,1.4-0.4,1.4
			c-15.5-39.5-41.6-71.6-49.8-81.2c-1.6-1.9-2.6-2.9-2.6-2.9c10-55.7,45.3-73.3,50.7-75.7c0.5-0.2,0.7-0.3,0.7-0.3
			c-1.3-8.9,3.9-11.9,3.9-11.9c2.8,4.5,5.9,8.7,9,12.6c4.7,5.9,9.7,11.2,14.9,16c27.3,25.4,60.7,37.2,86.9,42.8c0,0,0,0,0,0
			c22.7,4.8,40.1,4.9,43.8,4.8c0.3,0,0.5,0,0.6,0h0.2c7.1,0.1,65-0.3,113.5-33.8c11.7-8.1,22.8-18,32.6-30.4c3-3.8,5.9-7.8,8.6-12.1
			c0,0,5.2,3,3.9,11.9C415.1,83.9,455.6,99.6,466.4,159.9z"/>
		<path class="st5" d="M255.7,204.2c0.1,0,0.2,0,0.4,0C256,204.2,255.9,204.2,255.7,204.2L255.7,204.2z"/>
		<path class="st5" d="M256.3,148.3c-0.1,0-0.3,0-0.6,0v0C255.7,148.3,255.9,148.3,256.3,148.3z"/>
	</g>
	<path class="st5" d="M256.1,468.5c0.1,0,0.2,0,0.4,0v0C256.4,468.5,256.2,468.5,256.1,468.5z"/>
	<path class="st8" d="M307.1,459c-15.9,5-33.6,9-50.6,9.4v0c-0.1,0-0.2,0-0.4,0c-0.1,0-0.2,0-0.4,0v0c-49.1-1.4-104.2-32-104.2-32
		c8.1-1.1,22.9-3.6,35.2-9.9c3.3-1.7,5.6-3.3,7.7-4.9c7.2-5.9,10.9-13,12.8-16.7c1.3-2.7,3-6.5,4.4-11.4l0,0c0.2-0.3,5.7-9,39.1-9.8
		c-0.1,0-4.4,1.3-9,2.9c-5.9,2.1-12.5,4.9-12.3,6.9c0.3,3.7-14,45.1,2.1,59c5,4.3,14.1,6.6,24.4,7.6c0.2,0,0.5,0,0.7,0.1
		C278.7,462.4,305.8,459.2,307.1,459z"/>
	<path class="st9" d="M248.4,468l-2-0.2c-16.4-1.6-32.9-5.9-47.6-10.9c0,0-0.1,0-0.2-0.1c-26.9-9.2-47.1-20.4-47.1-20.4
		c8.1-1.1,22.9-3.6,35.2-9.9c3.3-1.7,5.6-3.3,7.7-4.9c7.2-5.9,10.9-13,12.8-16.7c1-2,2.2-4.6,3.3-7.9c0,0,0,0,0,0
		c0.4-1.1,0.7-2.3,1.1-3.5l0,0c0,0,0,0,0,0c0.2-0.3,1.8-2.7,8.1-5.1l0.2,0.1c0,0-0.7,0.5-1.6,1.1c-1.4,1-3.4,2.6-4.1,3.8
		c-0.2,0.3-0.3,0.5-0.3,0.8c0,1.8-13.1,36.1-5.6,53.4C215.4,464,244.8,467.7,248.4,468z"/>
	<path class="st10" d="M198.7,456.9c-26.9-9.2-47.1-20.4-47.1-20.4c8.1-1.1,22.9-3.6,35.2-9.9c3.3-1.7,5.6-3.3,7.7-4.9
		c7.2-5.9,10.9-13,12.8-16.7c1-2,2.2-4.6,3.3-7.9c-0.2,0.9-5.3,27.1-23.3,32.6c0,0-5.1,10.2-2.6,16.6
		C186.9,452.2,197.1,456.3,198.7,456.9z"/>
	<path class="st11" d="M99.1,220.8c0,2.1-1.5,3.7-3.4,3.7c-1.9,0-3.4-1.7-3.4-3.7c0-2.1,1.5-3.7,3.4-3.7
		C97.5,217,99.1,218.7,99.1,220.8z M78.5,181.1c-1.9,0-3.4,1.7-3.4,3.7c0,2.1,1.5,3.7,3.4,3.7s3.4-1.7,3.4-3.7
		C81.9,182.8,80.4,181.1,78.5,181.1z M56,155c-1.9,0.3-3.1,2.2-2.8,4.3c0.3,2,2,3.4,3.9,3.1c1.9-0.3,3.1-2.2,2.8-4.3
		S57.9,154.7,56,155z M184.6,436.1c-1.9,0-3.4,1.7-3.4,3.7c0,2.1,1.5,3.7,3.4,3.7c1.9,0,3.4-1.7,3.4-3.7
		C188,437.8,186.4,436.1,184.6,436.1z M413.2,220.8c0,2.1,1.5,3.7,3.4,3.7s3.4-1.7,3.4-3.7c0-2.1-1.5-3.7-3.4-3.7
		S413.2,218.7,413.2,220.8z M430.4,184.8c0,2.1,1.5,3.7,3.4,3.7s3.4-1.7,3.4-3.7c0-2.1-1.5-3.7-3.4-3.7S430.4,182.8,430.4,184.8z
		 M452.3,158.1c-0.3,2,1,3.9,2.8,4.3c1.9,0.3,3.6-1.1,3.9-3.1c0.3-2-1-3.9-2.8-4.3C454.3,154.7,452.6,156.1,452.3,158.1z
		 M324.3,439.8c0,2.1,1.5,3.7,3.4,3.7c1.9,0,3.4-1.7,3.4-3.7c0-2.1-1.5-3.7-3.4-3.7C325.8,436.1,324.3,437.8,324.3,439.8z"/>
	<path class="st8" d="M76.7,235.3c0,0,24,82.1-6.7,134.7c-5-5.7-9.8-11.8-14.4-18.2c-5.6-7.7-10.9-15.9-16-24.6
		c-1.1-1.9-2.2-3.9-3.3-5.9c8.1-12.8,18.6-33.9,18.9-61.1c0-2.9,0-6.8-0.8-14.6c-1.6-16.9-5.3-41.4-14.8-72
		c7.1,7.3,15.2,16.3,23.4,27.1l0,0c7.9,10.4,15.9,22.4,23.3,36.2l0,0c0,0,0,0,0,0c3.5,6.4,6.8,13.3,10,20.5
		C95.9,256.8,85.8,242,76.7,235.3z"/>
	<path class="st4" d="M59.2,339.4c0,0,19.3-76.8-5-138.6c0,0,32.1,62.5,5.5,137"/>
	<path class="st7" d="M398.2,84.8c0,0-50.3-36.1-141.7-36.1S116.8,84.8,116.8,84.8s1.9,2.7,3.5,3.8c0,0,60.3-35.5,136.2-35.5
		s137.4,35.5,137.4,35.5S396.6,86.6,398.2,84.8z"/>
	
		<ellipse transform="matrix(0.3215 -0.9469 0.9469 0.3215 156.8519 385.3909)" class="st7" cx="347.3" cy="83.2" rx="18.3" ry="26.4"/>
	<path class="st0" d="M294,118.4c-1.1,17.1-25.8,29.2-55.4,27c-29.5-2.2-52.6-17.9-51.6-35c0.3-4.9,2.6-9.4,6.3-13.3
		c-8-0.7-14.2-4.9-13.9-9.6c0.3-4.7,7.1-8,15.1-7.4c6.9,0.5,12.5,3.7,13.8,7.6c9.4-3.6,21.2-5.3,33.9-4.4
		C272,85.6,295.1,101.2,294,118.4z"/>
	
		<ellipse transform="matrix(0.3215 -0.9469 0.9469 0.3215 129.5862 346.0007)" class="st7" cx="306.2" cy="82.6" rx="8.6" ry="12.5"/>
	
		<ellipse transform="matrix(0.3215 -0.9469 0.9469 0.3215 158.5381 385.2703)" class="st4" cx="348.1" cy="82" rx="13.9" ry="20.1"/>
	<path class="st6" d="M356.2,262.7c-0.3,18.3-12.3,11.6-17.6,8.9c-5.3-2.8-20.4-1.4-25.9,1.1c0.4-0.4,14.4-14.5,23.8-12.4
		c9.6,2.1-5-9.5-16.6-8.4c0,0,13.5-5,22.9,3.9c-0.2-0.4-6-12.3-33.5-17.1c3-0.9,6.4-1.5,10.2-1.7C352.5,235,356.2,262.7,356.2,262.7
		z"/>
	
		<ellipse transform="matrix(0.3215 -0.9469 0.9469 0.3215 130.0085 346.2962)" class="st4" cx="306.6" cy="82.4" rx="6.3" ry="9.2"/>
	<path class="st7" d="M343.1,245.7c0,0,5.1,3.4,9.8,14.6c4.7,11.2-2.8,12.6-2.8,12.6s-9.9-5.3-19.1-5.4c0,0-0.1-1.7,18.3,1
		C351.9,269.2,351.4,259.9,343.1,245.7z"/>
	<ellipse transform="matrix(0.4259 -0.9048 0.9048 0.4259 -32.9642 444.7831)" class="st7" cx="334" cy="248.4" rx="7" ry="10.2"/>
	<ellipse transform="matrix(0.67 -0.7424 0.7424 0.67 -118.089 231.9721)" class="st7" cx="201.9" cy="248.8" rx="6.8" ry="10.5"/>
	<ellipse transform="matrix(0.67 -0.7424 0.7424 0.67 -118.089 231.9721)" class="st4" cx="201.9" cy="248.8" rx="4.9" ry="7.5"/>
	<ellipse transform="matrix(0.4259 -0.9048 0.9048 0.4259 -32.9642 444.7831)" class="st4" cx="334" cy="248.4" rx="5" ry="7.3"/>
	
		<ellipse transform="matrix(0.1322 -0.9912 0.9912 0.1322 -94.4071 416.9805)" class="st6" cx="190.9" cy="262.4" rx="5.2" ry="7.5"/>
	
		<ellipse transform="matrix(0.1538 -0.9881 0.9881 0.1538 -88.0953 427.5059)" class="st6" cx="205.6" cy="265.2" rx="3.9" ry="4.8"/>
	
		<ellipse transform="matrix(0.9069 -0.4213 0.4213 0.9069 -79.3701 161.2875)" class="st6" cx="325.3" cy="260.2" rx="4.8" ry="3.9"/>
	
		<ellipse transform="matrix(0.8657 -0.5005 0.5005 0.8657 -80.7039 190.5671)" class="st6" cx="314.8" cy="245.7" rx="7.6" ry="5.1"/>
	<path class="st6" d="M313.6,350.3c-10.9,7.2-25.8,18.4-57.9,18.4c-1.7,0-3.4,0-5.1-0.1c5.9-0.6,33.6-4,44.7-13.4
		c-0.5,0.2-12.9,5.4-17.7,5c0,0,19.4-8.5,22.3-11.6c-0.7,0.2-30.9,8.8-44.1,3.6c32.2-1,34.8-4.5,46.8-13.2c12-8.7,16.7-1.2,16.7-1.2
		S324.5,343.1,313.6,350.3z"/>
	<path class="st7" d="M308.2,337.4c0,0,4.5-2.4,9.4,1.1c4.9,3.5-8.5,12.9-14.6,15.6c0,0,12.6-9.9,12.9-12.8S313.1,337.8,308.2,337.4
		z"/>
	<ellipse transform="matrix(0.7635 -0.6458 0.6458 0.7635 -150.1587 280.593)" class="st7" cx="308" cy="345.3" rx="6.2" ry="4.1"/>
	<ellipse transform="matrix(0.7635 -0.6458 0.6458 0.7635 -150.1587 280.593)" class="st4" cx="308" cy="345.3" rx="4.4" ry="2.9"/>
	<ellipse transform="matrix(0.9624 -0.2715 0.2715 0.9624 -88.4013 86.1291)" class="st6" cx="267" cy="362.5" rx="6.8" ry="4.7"/>
	<path class="st6" d="M480.4,279.5c-0.2,7.7,2.5,12.8,6.1,16.1c6,5.4,14.7,6.1,18,6.1v0c0,0-0.6,13.5-10.9,16
		c-10.4,2.5-11.1,0-11.1,0c4.4,0.3,9.1-2.8,9.1-2.8c-6.3,1.6-16-3.4-10-1.9c5.8,1.5,14.7-3.4,15.3-3.7c-0.5,0.1-8.8,2-14.3-1.6
		c-5.7-3.7-12.5-17.6-13.8-25c-1.4-7.5,0.1-57.3,1-71c0.9-13.7,21.6-15.5,21.6-15.5c-4.2-3.5-17.6-2.5-17.6-2.5
		c4.4-2.6,14.5-1.7,14.5-1.7c-2.6-2.4-19.5-2.3-19.5-2.3H468l1.4-4.9c5.5-0.1,22.1,0.1,28.2,3.4c7.4,3.9,8.1,16,8.1,16
		s-25.9-1.5-25.3,22.2V279.5z"/>
	<path class="st7" d="M470.4,185.7c0,0,16.5-1.2,25.1,2.9c5.5,2.6,8.1,9.5,9.1,14.5c0,0-10.7,0-16.7,4.4c0,0,6.1-7.4,13.1-7
		c0,0-0.8-6.9-6.7-10.1C488.6,187.2,480.1,186.1,470.4,185.7z"/>
	<path class="st7" d="M485.4,210.1c0,0-5.1,2.9-5.7,8.2c-0.6,5.3-0.9,60.4-0.8,62.1c0,0-2.8-22.6-1.5-61.9
		C477.5,213.4,485.4,210.1,485.4,210.1z"/>
	
		<ellipse transform="matrix(0.6707 -0.7417 0.7417 0.6707 16.9805 428.6424)" class="st7" cx="491.2" cy="195.2" rx="6.1" ry="9.4"/>
	
		<ellipse transform="matrix(0.6707 -0.7417 0.7417 0.6707 16.9805 428.6424)" class="st4" cx="491.2" cy="195.2" rx="4.4" ry="6.7"/>
	<ellipse transform="matrix(0.365 -0.931 0.931 0.365 99.1535 580.7162)" class="st7" cx="475.3" cy="217.7" rx="6.8" ry="4.1"/>
	<ellipse transform="matrix(0.365 -0.931 0.931 0.365 99.1535 580.7162)" class="st4" cx="475.3" cy="217.7" rx="4.9" ry="2.9"/>
	<ellipse transform="matrix(0.6995 -0.7147 0.7147 0.6995 1.2854 408.0614)" class="st7" cx="485.8" cy="202.5" rx="2.5" ry="3"/>
	<ellipse transform="matrix(0.6995 -0.7147 0.7147 0.6995 1.2854 408.0614)" class="st4" cx="485.8" cy="202.5" rx="1.8" ry="2.2"/>
	<ellipse class="st0" cx="471.4" cy="247" rx="4.4" ry="15.3"/>
	<ellipse transform="matrix(0.9014 -0.433 0.433 0.9014 -83.3453 237.7256)" class="st0" cx="480.3" cy="301.9" rx="3.4" ry="4.7"/>
	<ellipse transform="matrix(0.5542 -0.8324 0.8324 0.5542 41.5973 481.7868)" class="st6" cx="470.6" cy="202.1" rx="6" ry="3.7"/>
	
		<ellipse transform="matrix(0.67 -0.7424 0.7424 0.67 -30.0134 336.6013)" class="st12" cx="363.6" cy="202.1" rx="16.5" ry="25.2"/>
	
		<ellipse transform="matrix(0.6707 -0.7417 0.7417 0.6707 -30.1444 336.2175)" class="st4" cx="363.6" cy="202.1" rx="11.2" ry="17.1"/>
	<ellipse transform="matrix(0.67 -0.7424 0.7424 0.67 -42.9822 349.0116)" class="st12" cx="371.1" cy="222.9" rx="5" ry="7.7"/>
	<path class="st4" d="M371.1,222.9l3.7,3.6c-1.2,1.2-3.6,0.8-5.6-0.7c-2.2-1.8-3.2-4.5-2.2-6.1c1-1.6,3.7-1.4,5.9,0.3
		c2.2,1.8,3.2,4.5,2.2,6.1L371.1,222.9z"/>
	
		<ellipse transform="matrix(0.9994 -3.404198e-02 3.404198e-02 0.9994 -6.4823 1.1225)" class="st7" cx="29.7" cy="190.9" rx="6.8" ry="4.2"/>
	
		<ellipse transform="matrix(0.9994 -3.404198e-02 3.404198e-02 0.9994 -6.4777 1.1292)" class="st4" cx="29.9" cy="190.8" rx="5" ry="3.1"/>
	
		<ellipse transform="matrix(0.9997 -2.543260e-02 2.543260e-02 0.9997 -6.4084 1.3463)" class="st0" cx="49.7" cy="252.6" rx="2.2" ry="20.2"/>
	
		<ellipse transform="matrix(0.3178 -0.9482 0.9482 0.3178 -252.9601 237.5661)" class="st6" cx="38.6" cy="294.6" rx="12" ry="5.1"/>
	<ellipse transform="matrix(0.9927 -0.121 0.121 0.9927 -26.1588 6.4965)" class="st6" cx="40.4" cy="218.6" rx="6" ry="13.6"/>
	<ellipse transform="matrix(0.9927 -0.121 0.121 0.9927 -24.7663 5.6807)" class="st6" cx="34.4" cy="206.7" rx="3" ry="6.8"/>
	<path class="st4" d="M408.4,85.6c0,0,38.7,17.5,48.5,56.5C457,142.1,450,116.1,408.4,85.6z"/>
	
		<ellipse transform="matrix(0.8108 -0.5854 0.5854 0.8108 14.1165 268.9682)" class="st4" cx="423" cy="112.7" rx="12.8" ry="22.3"/>
	<ellipse transform="matrix(0.8165 -0.5773 0.5773 0.8165 1.4698 265.9956)" class="st4" cx="419.2" cy="130.7" rx="5.5" ry="9"/>
	
		<ellipse transform="matrix(0.8942 -0.4476 0.4476 0.8942 -12.1533 214.0858)" class="st4" cx="446.9" cy="132.8" rx="2.3" ry="5.3"/>
	<path class="st8" d="M369.7,174.5c-2.4-1.8-5.3-3-8.3-3.8c-0.6-0.1-1.2-0.3-1.8-0.4c-2.2-0.4-4.4-0.7-6.5-0.8
		c-5.7-0.3-10.3,0.4-10.3,0.4s-1-26.2-11.7-23.7c-10.5,2.4-29.5,2.9-30.4,2.9c0,0,0,0,0,0c0,0,0,0,0,0c14.8-2.5,28.5-7.8,39.3-12.9
		c1.7-0.8,3.4-1.7,5-2.5c1.4-0.7,2.8-1.5,4-2.2c7.8-4.3,12.9-7.8,14.2-8.8c-1.3,1-6.2,5.3-8.8,14.2
		C351.6,147.1,369.2,173.7,369.7,174.5z"/>
	<path class="st9" d="M359.6,170.2c-2.2-0.4-4.4-0.7-6.5-0.8c-5.7-0.3-10.3,0.4-10.3,0.4s-1-26.2-11.7-23.7
		c-10.5,2.4-29.5,2.9-30.4,2.9l0,0c14.8-2.5,28.5-7.8,39.3-12.9c1.7-0.8,3.4-1.7,5-2.5C346.3,140.9,351.4,165.5,359.6,170.2z"/>
	<path class="st10" d="M361.4,170.6c-0.6-0.1-1.2-0.3-1.8-0.4c-2.2-0.4-4.4-0.7-6.5-0.8v0c-2.8-19.7-13.1-33.3-13.1-33.3
		c1.7-0.8,3.4-1.7,5-2.5c1.4-0.7,2.8-1.5,4-2.2C345.2,150.9,356.4,165.4,361.4,170.6z"/>
	
		<ellipse transform="matrix(0.4523 -0.8919 0.8919 0.4523 -66.0578 141.1406)" class="st4" cx="81.9" cy="124.4" rx="26.4" ry="10.1"/>
	<ellipse transform="matrix(0.4428 -0.8966 0.8966 0.4428 -37.7525 151.1982)" class="st4" cx="102.8" cy="106" rx="7.8" ry="3.7"/>
	<path class="st12" d="M55.4,155.9c0,0,2-0.9,3.4,0.8c1.3,1.7,0.3,3.4-0.6,4.4c0,0,1-1.3,0.4-3C57.8,156.3,56.6,155.9,55.4,155.9z"
		/>
	<ellipse transform="matrix(0.9067 -0.4217 0.4217 0.9067 -61.2493 39.0574)" class="st12" cx="57.7" cy="158" rx="0.8" ry="1.4"/>
	<path class="st12" d="M77.2,182.1c0,0,2-0.9,3.4,0.8c1.3,1.7,0.3,3.4-0.6,4.4c0,0,1-1.3,0.4-3C79.7,182.5,78.4,182.1,77.2,182.1z"
		/>
	
		<ellipse transform="matrix(0.9067 -0.4217 0.4217 0.9067 -70.2542 50.7143)" class="st12" cx="79.5" cy="184.2" rx="0.8" ry="1.4"/>
	<path class="st12" d="M94.3,218.3c0,0,2-0.9,3.4,0.8c1.3,1.7,0.3,3.4-0.6,4.4c0,0,1-1.3,0.4-3C96.8,218.7,95.5,218.3,94.3,218.3z"
		/>
	
		<ellipse transform="matrix(0.9067 -0.4217 0.4217 0.9067 -83.9225 61.2872)" class="st12" cx="96.6" cy="220.4" rx="0.8" ry="1.4"/>
	<path class="st12" d="M415.2,218.1c0,0,2-0.9,3.4,0.8c1.3,1.7,0.3,3.4-0.6,4.4c0,0,1-1.3,0.4-3
		C417.7,218.5,416.4,218.1,415.2,218.1z"/>
	
		<ellipse transform="matrix(0.9067 -0.4217 0.4217 0.9067 -53.9018 196.5945)" class="st12" cx="417.5" cy="220.2" rx="0.8" ry="1.4"/>
	<path class="st12" d="M432.5,182.2c0,0,2-0.9,3.4,0.8c1.3,1.7,0.3,3.4-0.6,4.4c0,0,1-1.3,0.4-3
		C434.9,182.5,433.7,182.1,432.5,182.2z"/>
	
		<ellipse transform="matrix(0.9067 -0.4217 0.4217 0.9067 -37.153 200.5097)" class="st12" cx="434.8" cy="184.3" rx="0.8" ry="1.4"/>
	<path class="st12" d="M454.4,155.9c0,0,2-0.9,3.4,0.8c1.3,1.7,0.3,3.4-0.6,4.4c0,0,1-1.3,0.4-3
		C456.8,156.3,455.6,155.9,454.4,155.9z"/>
	<ellipse transform="matrix(0.9067 -0.4217 0.4217 0.9067 -24.035 207.3046)" class="st12" cx="456.7" cy="158" rx="0.8" ry="1.4"/>
	<path class="st12" d="M326.3,437.2c0,0,2-0.9,3.4,0.8s0.3,3.4-0.6,4.4c0,0,1-1.3,0.4-3C328.7,437.6,327.5,437.2,326.3,437.2z"/>
	
		<ellipse transform="matrix(0.9067 -0.4217 0.4217 0.9067 -154.6105 179.5079)" class="st12" cx="328.5" cy="439.3" rx="0.8" ry="1.4"/>
	<path class="st12" d="M183.2,437.2c0,0,2-0.9,3.4,0.8c1.3,1.7,0.3,3.4-0.6,4.4c0,0,1-1.3,0.4-3
		C185.6,437.6,184.4,437.2,183.2,437.2z"/>
	
		<ellipse transform="matrix(0.9067 -0.4217 0.4217 0.9067 -167.9377 119.1748)" class="st12" cx="185.5" cy="439.3" rx="0.8" ry="1.4"/>
	<ellipse transform="matrix(0.9747 -0.2236 0.2236 0.9747 -38.406 116.9)" class="st12" cx="496.9" cy="228" rx="8.4" ry="14.2"/>
	<ellipse transform="matrix(0.9748 -0.2229 0.2229 0.9748 -38.3187 116.4801)" class="st4" cx="496.9" cy="228" rx="5.7" ry="9.7"/>
	
		<ellipse transform="matrix(0.9747 -0.2236 0.2236 0.9747 -41.7772 116.3373)" class="st12" cx="492.7" cy="242.6" rx="4" ry="6.8"/>
	<ellipse transform="matrix(0.9748 -0.2229 0.2229 0.9748 -41.678 115.918)" class="st4" cx="492.7" cy="242.6" rx="2.7" ry="4.6"/>
	
		<ellipse transform="matrix(0.8363 -0.5483 0.5483 0.8363 -35.2359 309.5874)" class="st12" cx="500.8" cy="213.8" rx="2.6" ry="4.2"/>
	
		<ellipse transform="matrix(0.8367 -0.5476 0.5476 0.8367 -35.3191 309.1208)" class="st4" cx="500.8" cy="213.8" rx="1.8" ry="2.8"/>
	
		<ellipse transform="matrix(0.9747 -0.2236 0.2236 0.9747 -49.4569 10.2686)" class="st12" cx="20.6" cy="223.5" rx="8.4" ry="14.2"/>
	<ellipse transform="matrix(0.9748 -0.2229 0.2229 0.9748 -49.2896 10.2137)" class="st4" cx="20.6" cy="223.5" rx="5.7" ry="9.7"/>
	<path class="st4" d="M213.6,395.7c0,0-14.4,37.4-7.1,49.8c7.3,12.5,14.3,14.5,14.3,14.5s-10.8-8.5-13.6-15.1
		C204.4,438.3,206.4,418.5,213.6,395.7z"/>
	
		<ellipse transform="matrix(7.890408e-02 -0.9969 0.9969 7.890408e-02 -234.7832 604.4498)" class="st4" cx="209.7" cy="429.3" rx="8.8" ry="3.5"/>
	<ellipse transform="matrix(0.9914 -0.1306 0.1306 0.9914 -53.3972 31.599)" class="st4" cx="214.2" cy="422.8" rx="1.7" ry="3.9"/>
	
		<ellipse transform="matrix(0.2426 -0.9701 0.9701 0.2426 -225.0249 513.3265)" class="st4" cx="216.2" cy="400.8" rx="5.5" ry="2.1"/>
	<path class="st13" d="M447.7,207.5c0,0,15.9-24.1,19.3-25.4c0,0-12.3,46.3-12.5,67.3c-0.2,21,6.1,55.7,16.9,71.7
		c0,0-23.1-32.9-20.9-77c1.5-30.3,11.5-52.5,11.5-52.5S454.5,199,447.7,207.5z"/>
	
		<ellipse transform="matrix(0.9987 -5.048974e-02 5.048974e-02 0.9987 -12.4097 22.8644)" class="st13" cx="446.4" cy="257.1" rx="4.4" ry="19.2"/>
	
		<ellipse transform="matrix(0.1329 -0.9911 0.9911 0.1329 143.3123 644.4343)" class="st13" cx="440" cy="240.3" rx="10.2" ry="3.6"/>
	
		<ellipse transform="matrix(0.1329 -0.9911 0.9911 0.1329 175.5728 634.7623)" class="st13" cx="450.6" cy="217" rx="10.2" ry="3.6"/>
	<path class="st9" d="M415.2,390.8c-0.2,0.2-2.9,2.9-6.7,6.4c0,0-0.1,0.1-0.1,0.1c0,0,0,0,0,0c-2.5,2.3-5.5,4.9-8.6,7.4
		c-2.9,2.4-6,4.6-8.9,6.5c-0.9,0.6-1.9,1.2-2.8,1.7c0,0,0,0,0,0c-1.6,0.9-3.1,1.6-4.5,2c0,0,6-17.4-16.9-34.5c0,0-15.3,4-23.7,6.1
		c0.9-0.3,7.6-2.6,16.1-8c0,0,0,0,0,0c0,0,0,0,0,0c2.6-1.7,5.4-3.6,8.2-5.9c3.2-2.5,6.4-5.5,9.6-8.9c0,0,0,0,0,0
		c6-6.4,11.7-14.4,16.3-24.3c-0.2,0.7-6.5,23.1-14,29.3C371.6,375,398.8,403.7,415.2,390.8z"/>
	<path class="st8" d="M415.2,390.8c-0.4,0.4-7.4,7.4-15.5,13.9l-32.5-32.2c9.1-7.3,18.9-18,25.9-33.3c-0.2,0.7-6.5,23.1-14,29.3
		C371.6,375,398.8,403.7,415.2,390.8z"/>
	<path class="st10" d="M408.5,397.3L408.5,397.3C408.4,397.3,408.4,397.3,408.5,397.3c-2.6,2.4-5.6,5-8.7,7.5
		c-2.9,2.4-6,4.6-8.9,6.5c1.8-1.3,3.9-3.2,4.3-5.6c0.8-4.3-25.1-29-28.5-29.2c-3.2-0.2-7.2,1.8-7.7,2c2.6-1.7,5.4-3.6,8.2-5.9
		c3.2-2.5,6.4-5.5,9.6-8.9c-0.2,0.4-3.4,6.6-5.8,8.4c-2.5,1.8,25.5,27.7,30.1,27.1C405.7,398.5,407.9,397.7,408.5,397.3z"/>
	<path class="st9" d="M63.2,209.8c-7.9-7.1-8.6-7.8-8.7-7.9c0.6,1.2,30.6,57.8,1,149.9c-6.8-9.4-13.3-19.5-19.3-30.5
		c8.1-12.8,18.6-33.9,18.9-61.1c0-2.9,0-6.8-0.8-14.6c-1.6-16.9-5.3-41.4-14.8-72c13.9,14.2,31.5,35,46.7,63.3
		C85.7,236.1,71.7,217.5,63.2,209.8z"/>
	<path class="st10" d="M47.8,189.6c0,0,30.3,76.4-8.2,137.4c-1.1-1.9-2.2-3.9-3.3-5.9c8.1-12.8,18.6-33.9,18.9-61.1
		c0-2.9,0-6.8-0.8-14.6c-1.6-16.9-5.3-41.4-14.8-72c7.1,7.3,15.2,16.3,23.4,27.1C62.7,200.2,51.3,190.3,47.8,189.6z"/>
</g>
</svg>
